<svg width="513" height="317" viewBox="0 0 513 317" fill="none" xmlns="http://www.w3.org/2000/svg">
<rect x="143" y="267" width="120" height="49" rx="24.5" fill="#97E191"/>
<rect x="143" y="267" width="120" height="49" rx="24.5" stroke="#1A1A1A" stroke-width="2"/>
<path d="M176.9 298.7C175.38 298.7 174.68 298.44 174.08 298.44C173.62 298.44 173.5 298.68 173.18 298.68C172.8 298.68 172.6 298.42 172.46 297.58C172.34 296.94 172.16 296.08 172.02 294.78C171.98 294.38 172.04 294.08 172.36 294.08C172.64 294.08 172.86 294.28 173.1 294.76C173.68 296.1 174.76 297.72 177.1 297.74C179.04 297.74 179.92 296.6 179.98 295.34C180.08 293.66 178.24 293 176.52 292.18C174.5 291.2 172.32 290.38 172.32 287.94C172.32 286.08 173.94 284.34 177.02 284.34C177.9 284.34 178.62 284.56 179.18 284.56C179.64 284.56 179.76 284.34 180.08 284.34C180.46 284.34 180.56 284.56 180.76 285.4C180.9 285.98 181.08 286.68 181.24 287.66C181.3 288.04 181.24 288.32 180.92 288.32C180.64 288.32 180.4 288.12 180.14 287.68C179.5 286.66 178.36 285.28 176.58 285.28C174.94 285.28 174.08 286.18 174.08 287.4C174.08 288.94 175.54 289.48 177.44 290.42C179.58 291.46 181.8 292.2 181.88 294.58C181.96 297.12 179.54 298.68 176.9 298.7ZM189.981 298.7C186.601 298.7 184.601 296.54 184.601 292.96V287.42C184.601 285.16 183.441 285.68 183.441 284.94C183.441 284.62 183.721 284.54 184.441 284.54H186.641C187.321 284.54 187.641 284.62 187.641 284.94C187.641 285.68 186.441 285.16 186.441 287.42V293.28C186.441 296.12 187.921 297.64 190.381 297.64C192.981 297.64 194.341 295.68 194.341 293.1L194.301 286.9C194.301 285.3 193.241 285.58 193.241 284.92C193.241 284.58 193.521 284.5 194.141 284.5H195.481C196.061 284.5 196.361 284.58 196.361 284.92C196.361 285.58 195.301 285.3 195.281 286.9V292.82C195.281 296.32 193.641 298.7 189.981 298.7ZM198.797 284.5H202.377C206.697 284.5 208.977 286.74 208.977 289.44C208.977 292.36 206.937 294.04 202.937 294.04H201.237C200.857 294.04 200.837 294.06 200.837 294.44V295.6C200.837 297.88 201.977 297.36 201.977 298.1C201.977 298.4 201.697 298.5 200.997 298.5H198.797C198.117 298.5 197.797 298.4 197.797 298.1C197.797 297.36 198.997 297.88 198.997 295.6V287.24C198.997 285 197.797 285.64 197.797 284.9C197.797 284.54 198.117 284.5 198.797 284.5ZM202.877 293.16C205.257 293.16 206.977 292.36 206.977 289.82C206.977 287.26 205.117 285.38 202.337 285.38C200.997 285.38 200.837 285.5 200.837 285.92V292.58C200.837 292.96 201.037 293.16 202.877 293.16ZM220.617 294.98C220.897 295.02 220.917 295.3 220.897 295.66C220.837 296.62 220.757 297.24 220.597 297.8C220.477 298.28 220.277 298.5 218.977 298.5H211.317C210.637 298.5 210.317 298.46 210.317 298.1C210.317 297.36 211.517 298 211.517 295.76V287.24C211.517 285 210.317 285.64 210.317 284.9C210.317 284.54 210.637 284.5 211.317 284.5L218.757 284.48C219.897 284.48 220.037 284.58 220.217 285.1C220.397 285.64 220.597 286.32 220.717 287.22C220.777 287.62 220.777 287.88 220.477 287.96C220.137 288.04 219.957 287.82 219.677 287.3C218.997 286.04 218.157 285.4 216.737 285.4H215.637C213.637 285.4 213.357 285.68 213.357 286.32V288.7C213.357 289.66 213.937 289.68 214.857 289.68H215.397C217.457 289.68 217.137 289.04 217.697 289.04C217.957 289.04 218.117 289.22 218.217 289.68L218.617 291.38C218.777 292.14 218.737 292.3 218.437 292.38C217.717 292.58 217.617 290.6 215.397 290.58H214.857C213.937 290.58 213.357 290.6 213.357 291.56V296.62C213.357 297.32 213.637 297.6 215.657 297.6L217.177 297.58C218.917 297.58 219.277 297.02 219.817 295.76C220.117 295.08 220.337 294.92 220.617 294.98ZM230.725 292.74L232.705 296.4C233.425 297.72 234.245 297.46 234.245 298.1C234.245 298.4 233.965 298.5 233.465 298.5H231.305C230.665 298.5 230.325 298.4 230.325 298.04C230.325 297.52 231.325 297.5 230.665 296.32L229.325 293.86C228.945 293.18 228.625 293.08 227.365 292.92C226.065 292.74 225.525 292.68 225.525 293.38V295.6C225.525 297.88 226.665 297.36 226.665 298.1C226.665 298.4 226.385 298.5 225.685 298.5H223.485C222.805 298.5 222.485 298.4 222.485 298.1C222.485 297.36 223.685 297.88 223.685 295.6V287.24C223.685 285 222.485 285.64 222.485 284.9C222.485 284.54 222.805 284.5 223.485 284.5H227.145C231.565 284.5 233.545 286.6 233.545 288.92C233.545 290.86 232.525 292.12 230.725 292.74ZM228.485 292.1C230.305 292.14 231.545 291.12 231.545 289.18C231.545 287.16 229.985 285.42 227.105 285.4C225.765 285.38 225.525 285.5 225.525 285.92V291.06C225.525 291.9 227.565 292.08 228.485 292.1Z" fill="#1A1A1A"/>
<path d="M369.929 217.574C424.232 217.574 468.314 261.327 468.851 315.503H271.006C271.542 261.327 315.626 217.574 369.929 217.574Z" fill="#1463CC" stroke="#1A1A1A" stroke-width="2"/>
<path d="M342.045 279.146C342.414 278.755 342.891 278.994 342.674 279.536C342.218 280.599 340.569 282.161 337.836 282.161C334.799 282.161 332.759 279.97 332.759 277.106C332.759 273.83 335.059 271.314 338.27 271.314C340.635 271.314 342.218 272.681 342.609 274.546C342.696 274.937 342.609 275.241 342.11 275.436C339.767 276.347 337.467 277.128 334.951 277.952C335.363 279.211 336.599 280.686 338.617 280.686C340.071 280.686 341.264 279.97 342.045 279.146ZM337.597 272.333C335.645 272.355 334.668 274.134 334.668 275.718C334.668 276.26 334.69 276.672 334.799 277.041C336.578 276.456 338.27 275.891 339.854 275.284C340.201 275.154 340.331 274.937 340.266 274.546C340.049 273.201 338.791 272.29 337.597 272.333ZM354.983 275.87L355.656 279.688C355.916 281.033 356.806 280.881 356.806 281.532C356.806 281.858 356.502 281.944 355.96 281.944H353.66C353.139 281.944 352.792 281.858 352.792 281.51C352.792 280.881 353.92 281.033 353.682 279.623L353.053 276.022C352.771 274.308 352.402 272.616 350.427 272.637C349.017 272.659 347.52 273.917 347.52 276.564V279.081C347.52 281.163 348.518 280.773 348.518 281.532C348.518 281.858 348.215 281.944 347.672 281.944H345.351C344.852 281.944 344.483 281.858 344.483 281.51C344.483 280.773 345.546 281.163 345.546 279.081V274.72C345.546 273.982 345.459 273.44 344.874 273.093C344.635 272.941 344.483 272.811 344.483 272.594C344.483 272.355 344.592 272.225 345.112 271.986C345.85 271.639 346.587 271.401 346.891 271.379C347.173 271.379 347.325 271.487 347.325 271.856L347.303 273.7C348.171 272.095 349.69 271.314 351.122 271.314C353.291 271.314 354.419 272.529 354.983 275.87ZM366.939 279.146C367.308 278.755 367.785 278.994 367.568 279.536C367.112 280.599 365.464 282.161 362.73 282.161C359.693 282.161 357.653 279.97 357.653 277.106C357.653 273.83 359.953 271.314 363.164 271.314C365.529 271.314 367.112 272.681 367.503 274.546C367.59 274.937 367.503 275.241 367.004 275.436C364.661 276.347 362.361 277.128 359.845 277.952C360.257 279.211 361.493 280.686 363.511 280.686C364.965 280.686 366.158 279.97 366.939 279.146ZM362.491 272.333C360.539 272.355 359.563 274.134 359.563 275.718C359.563 276.26 359.584 276.672 359.693 277.041C361.472 276.456 363.164 275.891 364.748 275.284C365.095 275.154 365.225 274.937 365.16 274.546C364.943 273.201 363.685 272.29 362.491 272.333ZM375.322 271.314C376.493 271.314 377.014 272.051 377.014 272.811C377.014 273.375 376.645 273.896 376.146 273.917C375.235 273.939 375.278 272.984 374.28 272.984C373.326 272.984 372.414 274.329 372.414 276.239V279.081C372.414 281.163 373.412 280.773 373.412 281.532C373.412 281.858 373.109 281.944 372.566 281.944H370.245C369.746 281.944 369.377 281.858 369.377 281.51C369.377 280.773 370.44 281.163 370.44 279.081V274.72C370.44 273.982 370.353 273.44 369.768 273.093C369.529 272.941 369.377 272.811 369.377 272.594C369.377 272.355 369.486 272.225 370.006 271.986C370.744 271.639 371.482 271.401 371.785 271.379C372.067 271.379 372.219 271.487 372.219 271.856L372.197 273.613C372.87 272.333 374.042 271.314 375.322 271.314ZM386.416 280.469C388.542 280.469 389.627 281.554 389.627 282.899C389.627 285.025 387.457 286.544 383.487 286.544C381.057 286.544 378.627 285.741 378.627 283.81C378.627 283.138 379.083 282.291 380.081 281.858C379.387 281.51 378.736 280.903 378.736 279.97C378.736 279.363 379.17 278.56 380.45 278.083C379.474 277.453 378.953 276.499 378.953 275.392C378.953 273.049 381.122 271.336 383.899 271.314H384.095C384.767 271.336 385.006 271.401 385.44 271.401C385.939 271.401 386.568 270.967 387.088 270.186C387.305 269.925 387.522 269.708 387.826 269.708C388.217 269.708 388.607 270.012 388.607 270.489C388.607 271.336 387.761 271.986 386.806 272.225C387.609 272.876 388.043 273.787 388.043 274.763C388.043 277.063 386.156 278.799 383.248 278.82C382.446 278.82 381.752 278.69 381.166 278.451C380.884 278.647 380.602 278.95 380.602 279.341C380.602 280.361 381.903 280.621 383.14 280.621C384.355 280.621 385.657 280.469 386.416 280.469ZM383.422 272.182C382.012 272.182 380.927 273.223 380.927 274.785C380.949 276.499 381.99 277.931 383.617 277.931C385.114 277.931 386.025 276.781 386.025 275.306C386.004 273.679 385.114 272.182 383.422 272.182ZM384.008 285.632C386.134 285.632 387.696 284.938 387.696 283.593C387.696 282.921 387.327 282.096 385.592 282.205C384.745 282.248 383.704 282.313 382.316 282.313C381.448 282.313 380.515 282.79 380.515 283.723C380.515 284.96 381.925 285.632 384.008 285.632ZM392.183 269.687C391.597 269.643 391.163 269.209 391.206 268.602C391.25 267.821 392.226 266.91 393.094 267.018C393.679 267.062 394.092 267.604 394.07 268.146C394.005 268.906 393.029 269.752 392.183 269.687ZM391.987 279.081V274.785C391.987 272.898 390.924 273.266 390.924 272.594C390.924 272.377 391.011 272.268 391.532 272.03C392.508 271.574 393.246 271.336 393.549 271.314C393.831 271.292 393.983 271.401 393.983 271.791L393.962 274.785V279.081C393.962 281.163 394.981 280.773 394.981 281.532C394.981 281.858 394.656 281.944 394.135 281.944H391.814C391.293 281.944 390.946 281.858 390.946 281.51C390.946 280.773 391.987 281.163 391.987 279.081ZM407.285 280.599C407.524 280.599 407.719 280.621 407.719 280.86C407.719 281.402 406.873 282.096 405.897 282.096C404.877 282.096 404.595 281.467 404.4 280.426C403.488 281.554 401.992 282.161 400.733 282.161C398.086 282.161 396.568 280.686 396.568 278.842C396.568 276.759 398.434 275.327 401.08 275.327C401.992 275.327 402.599 275.414 403.423 275.609C402.989 273.874 402.707 272.637 400.82 272.637C399.583 272.637 398.781 273.028 397.869 273.548C397.457 273.809 397.11 273.483 397.392 273.049C397.913 272.29 399.475 271.336 401.449 271.336C403.836 271.336 404.768 272.832 405.181 274.72L406.179 279.428C406.417 280.534 406.873 280.599 407.285 280.599ZM401.232 281.077C402.729 281.077 404.291 279.927 404.118 278.972C404.031 278.473 403.857 277.909 403.662 276.955C403.575 276.434 402.143 276.239 401.471 276.239C399.562 276.239 398.542 277.15 398.564 278.603C398.629 280.013 399.605 281.077 401.232 281.077Z" fill="#FFFFF3"/>
<path d="M105.37 218C106.116 218.082 106.539 218.188 107.358 218.328L107.426 218.34L107.493 218.342C107.611 218.346 107.693 218.352 107.745 218.357C107.763 218.359 107.776 218.36 107.784 218.361L107.792 218.363L107.816 218.368C117.272 220.301 124.328 225.243 126.962 234.623C130.279 246.437 125.466 257.598 115.151 262.805C113.621 263.577 111.934 264.093 110.098 264.561C108.302 265.018 106.283 265.446 104.306 266.015L104.503 267.973C105.952 268.088 106.924 268.075 107.949 268.256C120.961 270.549 129.993 283.928 127.438 297.192C125.629 306.577 118.113 313.956 108.707 315.486C106.733 315.807 104.701 315.948 102.683 315.95C77.3983 315.981 52.0984 315.913 26.8076 316C17.4297 316.032 9.93397 312.889 4.89453 304.907C4.31163 303.984 3.84756 302.961 3.38672 301.843C2.95242 300.789 2.50301 299.607 1.9834 298.446C0.769806 291.223 1.61779 285.264 4.36816 280.512C7.04671 275.883 11.6 272.277 18.1074 269.77L18.7432 269.53C19.1047 269.398 20.2419 269.043 21.2686 268.7C21.5535 268.605 23.1111 268.146 24.6709 268.031L24.748 266.045C19.5478 265.256 16.8963 264.328 13.3633 263.043C11.0593 261.735 9.29514 261.145 6.52539 257.757C3.05926 253.516 2.45188 250.863 1.81445 248.323C0.309795 242.328 0.780482 236.5 4.14551 230.553C8.27052 223.263 14.6113 219.239 23.1631 218.136C50.5946 218.008 77.8275 218.023 105.37 218Z" fill="#1463CC" stroke="#1A1A1A" stroke-width="2"/>
<path d="M29.9 250.2C28.38 250.2 27.68 249.94 27.08 249.94C26.62 249.94 26.5 250.18 26.18 250.18C25.8 250.18 25.6 249.92 25.46 249.08C25.34 248.44 25.16 247.58 25.02 246.28C24.98 245.88 25.04 245.58 25.36 245.58C25.64 245.58 25.86 245.78 26.1 246.26C26.68 247.6 27.76 249.22 30.1 249.24C32.04 249.24 32.92 248.1 32.98 246.84C33.08 245.16 31.24 244.5 29.52 243.68C27.5 242.7 25.32 241.88 25.32 239.44C25.32 237.58 26.94 235.84 30.02 235.84C30.9 235.84 31.62 236.06 32.18 236.06C32.64 236.06 32.76 235.84 33.08 235.84C33.46 235.84 33.56 236.06 33.76 236.9C33.9 237.48 34.08 238.18 34.24 239.16C34.3 239.54 34.24 239.82 33.92 239.82C33.64 239.82 33.4 239.62 33.14 239.18C32.5 238.16 31.36 236.78 29.58 236.78C27.94 236.78 27.08 237.68 27.08 238.9C27.08 240.44 28.54 240.98 30.44 241.92C32.58 242.96 34.8 243.7 34.88 246.08C34.96 248.62 32.54 250.18 29.9 250.2ZM46.2011 240.64L46.1811 243.4V247.38C46.1811 248.9 47.3611 248.44 47.3611 249.02C47.3611 249.22 47.2011 249.42 46.8611 249.6C46.3411 249.9 45.5611 250.2 45.0811 250.2C44.6011 250.2 44.4211 249.84 44.4011 249.16L44.3811 248.34C43.5011 249.58 42.1011 250.2 41.0011 250.2C39.0211 250.2 37.6211 249 37.6211 246.22V243.4C37.6211 241.64 36.6211 242 36.6211 241.38C36.6211 241.18 36.7211 241.08 37.2011 240.86C38.0811 240.44 38.7811 240.22 39.0611 240.2C39.3211 240.18 39.4611 240.28 39.4611 240.64L39.4411 243.4V246.02C39.4411 247.82 40.0411 249.04 41.5611 249C42.8411 248.98 44.3611 247.78 44.3611 245.82V243.4C44.3611 241.64 43.3611 242 43.3611 241.38C43.3611 241.18 43.4611 241.08 43.9411 240.86C44.8211 240.44 45.5011 240.22 45.8011 240.2C46.0611 240.18 46.2011 240.28 46.2011 240.64ZM57.8956 248.76C58.1156 248.76 58.2956 248.78 58.2956 249C58.2956 249.5 57.5156 250.14 56.6156 250.14C55.6756 250.14 55.4156 249.56 55.2356 248.6C54.3956 249.64 53.0156 250.2 51.8556 250.2C49.4156 250.2 48.0156 248.84 48.0156 247.14C48.0156 245.22 49.7356 243.9 52.1756 243.9C53.0156 243.9 53.5756 243.98 54.3356 244.16C53.9356 242.56 53.6756 241.42 51.9356 241.42C50.7956 241.42 50.0556 241.78 49.2156 242.26C48.8356 242.5 48.5156 242.2 48.7756 241.8C49.2556 241.1 50.6956 240.22 52.5156 240.22C54.7156 240.22 55.5756 241.6 55.9556 243.34L56.8756 247.68C57.0956 248.7 57.5156 248.76 57.8956 248.76ZM52.3156 249.2C53.6956 249.2 55.1356 248.14 54.9756 247.26C54.8956 246.8 54.7356 246.28 54.5556 245.4C54.4756 244.92 53.1556 244.74 52.5356 244.74C50.7756 244.74 49.8356 245.58 49.8556 246.92C49.9156 248.22 50.8156 249.2 52.3156 249.2ZM72.7961 236.24L72.7761 239L72.7561 247.38C72.7561 248.88 73.9561 248.44 73.9561 249.02C73.9561 249.22 73.7961 249.4 73.4361 249.6C72.9361 249.88 72.1561 250.2 71.6761 250.2C71.1961 250.2 71.0161 249.84 70.9961 249.16L70.9761 248.44C70.2761 249.44 69.0561 250.22 67.4761 250.2C64.8561 250.18 63.1961 248.14 63.1961 245.58C63.1961 242.46 65.5761 240.2 68.1761 240.2C69.1561 240.2 70.1961 240.5 70.9561 241.16V239C70.9561 237.26 69.9761 237.6 69.9761 236.98C69.9761 236.78 70.0561 236.68 70.5361 236.46C71.4361 236.04 72.1161 235.82 72.4161 235.8C72.6561 235.78 72.7961 235.88 72.7961 236.24ZM68.1561 248.92C69.8161 248.92 70.7961 247.58 70.9361 246.4V245.4C70.8961 244.58 70.7761 243.54 70.3161 242.78C69.7361 241.74 68.8761 241.18 67.7361 241.18C66.0161 241.18 64.9761 242.64 64.9761 244.64C64.9761 247.54 66.6761 248.92 68.1561 248.92ZM79.5953 250.2C76.8953 250.2 74.8953 248.4 74.8953 245.56C74.8953 242.54 77.0753 240.2 80.1753 240.2C82.8353 240.2 84.7753 242.26 84.7753 244.96C84.7753 247.92 82.6553 250.2 79.5953 250.2ZM80.2153 249.24C81.9153 249.24 82.9753 247.88 82.9753 245.96C82.9753 243.46 81.4753 241.22 79.4753 241.22C77.6953 241.22 76.7153 242.7 76.7153 244.6C76.7153 247.22 78.1753 249.24 80.2153 249.24ZM87.6434 250.2C87.3634 250.2 87.3234 250.08 87.0834 249.52C86.7834 248.72 86.5834 248.2 86.3434 247.4C86.2834 247.12 86.3434 246.94 86.5634 246.86C86.7634 246.78 86.9834 246.94 87.2434 247.22C88.8034 248.9 89.8834 249.28 90.9634 249.28C91.8634 249.28 92.6434 248.84 92.6434 247.96C92.6434 247.1 91.5234 246.56 89.9034 245.9C88.1634 245.22 86.5434 244.52 86.5434 242.88C86.5434 241.06 88.2034 240.2 89.7234 240.2C90.7834 240.2 91.4234 240.42 91.9434 240.44C92.2634 240.46 92.3434 240.2 92.6034 240.2C92.8634 240.2 92.9834 240.46 93.2234 240.86C93.5234 241.42 93.6834 241.78 93.8434 242.14C93.9634 242.46 93.9634 242.72 93.7634 242.84C93.4434 243.02 93.1634 242.66 92.4834 242.14C91.7034 241.56 90.7234 241.08 89.7834 241.08C88.7034 241.08 88.1034 241.62 88.1034 242.32C88.1034 243.2 89.0434 243.64 90.8834 244.38C92.8034 245.14 94.3634 245.9 94.3634 247.4C94.3634 248.88 92.9234 250.2 90.7234 250.2C89.4034 250.2 88.8034 249.82 88.4034 249.82C88.0834 249.82 88.0034 250.2 87.6434 250.2ZM104.256 247.42C104.596 247.06 105.036 247.28 104.836 247.78C104.416 248.76 102.896 250.2 100.376 250.2C97.5761 250.2 95.6961 248.18 95.6961 245.54C95.6961 242.52 97.8161 240.2 100.776 240.2C102.956 240.2 104.416 241.46 104.776 243.18C104.856 243.54 104.776 243.82 104.316 244C102.156 244.84 100.036 245.56 97.7161 246.32C98.0961 247.48 99.2361 248.84 101.096 248.84C102.436 248.84 103.536 248.18 104.256 247.42ZM100.156 241.14C98.3561 241.16 97.4561 242.8 97.4561 244.26C97.4561 244.76 97.4761 245.14 97.5761 245.48C99.2161 244.94 100.776 244.42 102.236 243.86C102.556 243.74 102.676 243.54 102.616 243.18C102.416 241.94 101.256 241.1 100.156 241.14Z" fill="#FFFFF3"/>
<path d="M47.3 282.24L47.28 285L47.26 293.38C47.26 294.88 48.46 294.44 48.46 295.02C48.46 295.22 48.3 295.4 47.94 295.6C47.44 295.88 46.66 296.2 46.18 296.2C45.7 296.2 45.52 295.84 45.5 295.16L45.48 294.44C44.78 295.44 43.56 296.22 41.98 296.2C39.36 296.18 37.7 294.14 37.7 291.58C37.7 288.46 40.08 286.2 42.68 286.2C43.66 286.2 44.7 286.5 45.46 287.16V285C45.46 283.26 44.48 283.6 44.48 282.98C44.48 282.78 44.56 282.68 45.04 282.46C45.94 282.04 46.62 281.82 46.92 281.8C47.16 281.78 47.3 281.88 47.3 282.24ZM42.66 294.92C44.32 294.92 45.3 293.58 45.44 292.4V291.4C45.4 290.58 45.28 289.54 44.82 288.78C44.24 287.74 43.38 287.18 42.24 287.18C40.52 287.18 39.48 288.64 39.48 290.64C39.48 293.54 41.18 294.92 42.66 294.92ZM50.9183 284.7C50.3783 284.66 49.9783 284.26 50.0183 283.7C50.0583 282.98 50.9583 282.14 51.7583 282.24C52.2983 282.28 52.6783 282.78 52.6583 283.28C52.5983 283.98 51.6983 284.76 50.9183 284.7ZM50.7383 293.36V289.4C50.7383 287.66 49.7583 288 49.7583 287.38C49.7583 287.18 49.8383 287.08 50.3183 286.86C51.2183 286.44 51.8983 286.22 52.1783 286.2C52.4383 286.18 52.5783 286.28 52.5783 286.64L52.5583 289.4V293.36C52.5583 295.28 53.4983 294.92 53.4983 295.62C53.4983 295.92 53.1983 296 52.7183 296H50.5783C50.0983 296 49.7783 295.92 49.7783 295.6C49.7783 294.92 50.7383 295.28 50.7383 293.36ZM58.5009 285.08C58.2609 285 58.2409 284.84 58.2809 284.72C58.3809 284.5 58.9209 283.98 59.6409 283.32C60.3609 282.72 60.8409 282.3 61.3809 282.48C61.7809 282.64 62.0409 283.08 61.8409 283.6C61.5409 284.44 59.3609 285.4 58.5009 285.08ZM64.8409 294.76C65.0609 294.76 65.2409 294.78 65.2409 295C65.2409 295.5 64.4609 296.14 63.5609 296.14C62.6209 296.14 62.3609 295.56 62.1809 294.6C61.3409 295.64 59.9609 296.2 58.8009 296.2C56.3609 296.2 54.9609 294.84 54.9609 293.14C54.9609 291.22 56.6809 289.9 59.1209 289.9C59.9609 289.9 60.5209 289.98 61.2809 290.16C60.8809 288.56 60.6209 287.42 58.8809 287.42C57.7409 287.42 57.0009 287.78 56.1609 288.26C55.7809 288.5 55.4609 288.2 55.7209 287.8C56.2009 287.1 57.6409 286.22 59.4609 286.22C61.6609 286.22 62.5209 287.6 62.9009 289.34L63.8209 293.68C64.0409 294.7 64.4609 294.76 64.8409 294.76ZM59.2609 295.2C60.6409 295.2 62.0809 294.14 61.9209 293.26C61.8409 292.8 61.6809 292.28 61.5009 291.4C61.4209 290.92 60.1009 290.74 59.4809 290.74C57.7209 290.74 56.7809 291.58 56.8009 292.92C56.8609 294.22 57.7609 295.2 59.2609 295.2ZM71.937 286.2C73.017 286.2 73.497 286.88 73.497 287.58C73.497 288.1 73.157 288.58 72.697 288.6C71.857 288.62 71.897 287.74 70.977 287.74C70.097 287.74 69.257 288.98 69.257 290.74V293.36C69.257 295.28 70.177 294.92 70.177 295.62C70.177 295.92 69.897 296 69.397 296H67.257C66.797 296 66.457 295.92 66.457 295.6C66.457 294.92 67.437 295.28 67.437 293.36V289.34C67.437 288.66 67.357 288.16 66.817 287.84C66.597 287.7 66.457 287.58 66.457 287.38C66.457 287.16 66.557 287.04 67.037 286.82C67.717 286.5 68.397 286.28 68.677 286.26C68.937 286.26 69.077 286.36 69.077 286.7L69.057 288.32C69.677 287.14 70.757 286.2 71.937 286.2ZM76.4847 284.7C75.9447 284.66 75.5447 284.26 75.5847 283.7C75.6247 282.98 76.5247 282.14 77.3247 282.24C77.8647 282.28 78.2447 282.78 78.2247 283.28C78.1647 283.98 77.2647 284.76 76.4847 284.7ZM76.3047 293.36V289.4C76.3047 287.66 75.3247 288 75.3247 287.38C75.3247 287.18 75.4047 287.08 75.8847 286.86C76.7847 286.44 77.4647 286.22 77.7447 286.2C78.0047 286.18 78.1447 286.28 78.1447 286.64L78.1247 289.4V293.36C78.1247 295.28 79.0647 294.92 79.0647 295.62C79.0647 295.92 78.7647 296 78.2847 296H76.1447C75.6647 296 75.3447 295.92 75.3447 295.6C75.3447 294.92 76.3047 295.28 76.3047 293.36ZM90.4073 294.76C90.6273 294.76 90.8073 294.78 90.8073 295C90.8073 295.5 90.0273 296.14 89.1273 296.14C88.1873 296.14 87.9273 295.56 87.7473 294.6C86.9073 295.64 85.5273 296.2 84.3673 296.2C81.9273 296.2 80.5273 294.84 80.5273 293.14C80.5273 291.22 82.2473 289.9 84.6873 289.9C85.5273 289.9 86.0873 289.98 86.8473 290.16C86.4473 288.56 86.1873 287.42 84.4473 287.42C83.3073 287.42 82.5673 287.78 81.7273 288.26C81.3473 288.5 81.0273 288.2 81.2873 287.8C81.7673 287.1 83.2073 286.22 85.0273 286.22C87.2273 286.22 88.0873 287.6 88.4673 289.34L89.3873 293.68C89.6073 294.7 90.0273 294.76 90.4073 294.76ZM84.8273 295.2C86.2073 295.2 87.6473 294.14 87.4873 293.26C87.4073 292.8 87.2473 292.28 87.0673 291.4C86.9873 290.92 85.6673 290.74 85.0473 290.74C83.2873 290.74 82.3473 291.58 82.3673 292.92C82.4273 294.22 83.3273 295.2 84.8273 295.2Z" fill="#FFFFF3"/>
<rect x="143" y="218" width="42" height="42" rx="21" fill="#97E191"/>
<rect x="143" y="218" width="42" height="42" rx="21" stroke="#1A1A1A" stroke-width="2"/>
<path d="M162.3 231.24L162.28 234L162.26 242.38C162.26 243.88 163.46 243.44 163.46 244.02C163.46 244.22 163.3 244.4 162.94 244.6C162.44 244.88 161.66 245.2 161.18 245.2C160.7 245.2 160.52 244.84 160.5 244.16L160.48 243.44C159.78 244.44 158.56 245.22 156.98 245.2C154.36 245.18 152.7 243.14 152.7 240.58C152.7 237.46 155.08 235.2 157.68 235.2C158.66 235.2 159.7 235.5 160.46 236.16V234C160.46 232.26 159.48 232.6 159.48 231.98C159.48 231.78 159.56 231.68 160.04 231.46C160.94 231.04 161.62 230.82 161.92 230.8C162.16 230.78 162.3 230.88 162.3 231.24ZM157.66 243.92C159.32 243.92 160.3 242.58 160.44 241.4V240.4C160.4 239.58 160.28 238.54 159.82 237.78C159.24 236.74 158.38 236.18 157.24 236.18C155.52 236.18 154.48 237.64 154.48 239.64C154.48 242.54 156.18 243.92 157.66 243.92ZM172.959 242.42C173.299 242.06 173.739 242.28 173.539 242.78C173.119 243.76 171.599 245.2 169.079 245.2C166.279 245.2 164.399 243.18 164.399 240.54C164.399 237.52 166.519 235.2 169.479 235.2C171.659 235.2 173.119 236.46 173.479 238.18C173.559 238.54 173.479 238.82 173.019 239C170.859 239.84 168.739 240.56 166.419 241.32C166.799 242.48 167.939 243.84 169.799 243.84C171.139 243.84 172.239 243.18 172.959 242.42ZM168.859 236.14C167.059 236.16 166.159 237.8 166.159 239.26C166.159 239.76 166.179 240.14 166.279 240.48C167.919 239.94 169.479 239.42 170.939 238.86C171.259 238.74 171.379 238.54 171.319 238.18C171.119 236.94 169.959 236.1 168.859 236.14Z" fill="#1A1A1A"/>
<rect x="317" y="56" width="153" height="50" rx="25" fill="#FFFFF3"/>
<path d="M339.78 87.5C339.28 87.5 338.96 87.16 338.96 86.64V75.44C338.96 74.92 339.28 74.56 339.78 74.56H347.22C347.68 74.56 347.92 74.78 347.92 75.18V75.28C347.92 75.7 347.68 75.9 347.22 75.9H340.46V80.22H345.64C346.12 80.22 346.36 80.44 346.36 80.82V80.9C346.36 81.32 346.12 81.52 345.64 81.52H340.46V86.16H347.38C347.84 86.16 348.08 86.36 348.08 86.76V86.86C348.08 87.28 347.84 87.5 347.38 87.5H339.78ZM350.19 86.88V75.36C350.19 74.84 350.55 74.5 351.09 74.5H351.49C352.13 74.5 352.29 74.74 352.55 75.34L356.05 82.66L359.55 75.34C359.79 74.72 359.99 74.5 360.57 74.5H360.95C361.53 74.5 361.87 74.84 361.87 75.36V86.88C361.87 87.32 361.69 87.56 361.25 87.56H361.07C360.65 87.56 360.45 87.32 360.45 86.88V83.36L360.47 76.32L357.05 83.48C356.87 83.92 356.67 84.2 356.03 84.2C355.35 84.2 355.19 83.92 354.99 83.48L351.59 76.34L351.61 83.32V86.88C351.61 87.32 351.43 87.56 350.99 87.56H350.77C350.35 87.56 350.19 87.32 350.19 86.88ZM378.4 80.94C378.96 80.94 379.28 81.3 379.26 81.88V87.42C379.26 87.46 379.06 87.56 378.78 87.56C378.34 87.56 378 87.36 377.98 86.38C377.98 86 377.96 85.62 377.96 85.22C377.26 86.74 375.66 87.72 373.52 87.72C369.88 87.72 367.58 84.9 367.58 81.06C367.58 77.14 370.14 74.34 373.94 74.34C375.72 74.34 377.02 74.96 377.78 75.62C378.38 76.12 378.68 76.68 378.68 77.02C378.68 77.8 377.84 77.9 377.76 77.84C377.1 76.54 375.66 75.64 373.92 75.64C371.08 75.64 369.14 77.84 369.14 81.06C369.14 84.22 370.88 86.46 373.8 86.46C376.06 86.46 377.72 85.06 377.94 83.06V82.2H374.52C374 82.2 373.74 82.02 373.74 81.62V81.52C373.74 81.12 374 80.94 374.52 80.94H378.4ZM381.71 82.4V75.18C381.71 74.72 381.95 74.5 382.35 74.5H382.57C382.99 74.5 383.23 74.72 383.23 75.18V82.38C383.23 85 384.39 86.36 386.73 86.36C389.09 86.36 390.21 85.04 390.21 82.36V75.18C390.21 74.7 390.43 74.5 390.85 74.5H391.11C391.53 74.5 391.71 74.7 391.71 75.18V82.36C391.71 85.86 389.97 87.72 386.69 87.72C383.43 87.72 381.71 85.9 381.71 82.4ZM394.448 86.88V75.36C394.448 74.84 394.808 74.5 395.348 74.5H395.748C396.388 74.5 396.548 74.74 396.808 75.34L400.308 82.66L403.808 75.34C404.048 74.72 404.248 74.5 404.828 74.5H405.208C405.788 74.5 406.128 74.84 406.128 75.36V86.88C406.128 87.32 405.948 87.56 405.508 87.56H405.328C404.908 87.56 404.708 87.32 404.708 86.88V83.36L404.728 76.32L401.308 83.48C401.128 83.92 400.928 84.2 400.288 84.2C399.608 84.2 399.448 83.92 399.248 83.48L395.848 76.34L395.868 83.32V86.88C395.868 87.32 395.688 87.56 395.248 87.56H395.028C394.608 87.56 394.448 87.32 394.448 86.88ZM409.077 86.88V75.36C409.077 74.84 409.437 74.5 409.977 74.5H410.377C411.017 74.5 411.177 74.74 411.437 75.34L414.937 82.66L418.437 75.34C418.677 74.72 418.877 74.5 419.457 74.5H419.837C420.417 74.5 420.757 74.84 420.757 75.36V86.88C420.757 87.32 420.577 87.56 420.137 87.56H419.957C419.537 87.56 419.337 87.32 419.337 86.88V83.36L419.357 76.32L415.937 83.48C415.757 83.92 415.557 84.2 414.917 84.2C414.237 84.2 414.077 83.92 413.877 83.48L410.477 76.34L410.497 83.32V86.88C410.497 87.32 410.317 87.56 409.877 87.56H409.657C409.237 87.56 409.077 87.32 409.077 86.88ZM423.906 86.88V75.18C423.906 74.72 424.106 74.5 424.526 74.5H424.746C425.166 74.5 425.406 74.72 425.406 75.18V86.88C425.406 87.32 425.166 87.56 424.746 87.56H424.526C424.106 87.56 423.906 87.32 423.906 86.88ZM429.331 87.5C428.831 87.5 428.511 87.16 428.511 86.64V75.44C428.511 74.92 428.831 74.56 429.331 74.56H436.771C437.231 74.56 437.471 74.78 437.471 75.18V75.28C437.471 75.7 437.231 75.9 436.771 75.9H430.011V80.22H435.191C435.671 80.22 435.911 80.44 435.911 80.82V80.9C435.911 81.32 435.671 81.52 435.191 81.52H430.011V86.16H436.931C437.391 86.16 437.631 86.36 437.631 86.76V86.86C437.631 87.28 437.391 87.5 436.931 87.5H429.331ZM439.621 86.36C439.201 85.94 439.001 85.48 439.001 85.14C439.001 84.6 439.661 84.24 439.721 84.3C440.321 85.4 441.581 86.46 443.601 86.46C445.501 86.46 446.681 85.58 446.681 84.1C446.681 82.44 445.081 82.04 443.261 81.6C441.281 81.1 439.321 80.44 439.321 77.94C439.321 75.82 441.161 74.34 443.681 74.34C445.361 74.34 446.581 74.88 447.261 75.5C447.661 75.88 447.881 76.3 447.881 76.64C447.881 77.22 447.181 77.56 447.141 77.5C446.581 76.5 445.401 75.6 443.681 75.6C441.981 75.6 440.781 76.5 440.781 77.9C440.781 79.48 442.141 79.8 444.001 80.26C446.101 80.76 448.161 81.54 448.161 84.02C448.161 86.28 446.381 87.72 443.621 87.72C441.721 87.72 440.361 87.1 439.621 86.36Z" fill="#1463CC"/>
<mask id="path-12-outside-1_1_1374" maskUnits="userSpaceOnUse" x="0" y="48" width="294" height="67" fill="black">
<rect fill="white" y="48" width="294" height="67"/>
<path d="M3.96 100.144V62.92C3.96 56.496 7.216 53.064 13.024 53.064H40.568C46.2 53.064 48.752 55.264 48.752 59.84V60.368C48.752 65.208 46.2 67.408 40.568 67.408H21.296V77.088H34.496C40.304 77.088 42.68 79.288 42.68 83.6V83.952C42.68 88.528 40.216 90.728 34.496 90.728H22V102.168C22 107.536 19.36 110.352 14.256 110.352H11.44C6.6 110.352 3.96 106.568 3.96 100.144ZM65.7656 110C59.9576 110 56.7016 106.744 56.7016 100.32V62.92C56.7016 56.496 59.9576 53.064 65.7656 53.064H95.8616C101.406 53.064 103.958 55.264 103.958 59.928V60.368C103.958 65.208 101.406 67.144 95.8616 67.144H74.3896V74.624H88.6456C94.4536 74.624 96.8296 76.472 96.8296 80.784V81.048C96.8296 85.712 94.3656 87.648 88.6456 87.648H74.3896V96.096H96.2136C101.846 96.096 104.398 97.856 104.398 102.432V102.872C104.398 107.712 101.846 110 96.2136 110H65.7656ZM120.361 110.44C115.521 110.44 112.881 106.656 112.881 100.232V62.92C112.881 56.496 116.137 53.064 121.945 53.064H139.457C155.209 53.064 163.041 59.576 163.041 71.808C163.041 79.376 159.433 85.096 152.481 87.736L150.633 88.264L163.657 104.368C164.185 105.072 161.105 110.44 153.537 110.44C148.081 110.44 145.353 108.064 141.745 102.96L133.033 91.696H130.569V102.256C130.569 107.536 127.929 110.44 122.825 110.44H120.361ZM130.305 79.816H137.521C142.801 79.816 145.441 77.352 145.441 73.128C145.441 68.728 142.889 66.44 137.433 66.44H130.305V79.816ZM179.977 110.44C175.137 110.44 172.497 106.656 172.497 100.232V62.92C172.497 56.496 175.753 53.064 181.561 53.064H199.073C214.825 53.064 222.657 59.576 222.657 71.808C222.657 79.376 219.049 85.096 212.097 87.736L210.249 88.264L223.273 104.368C223.801 105.072 220.721 110.44 213.153 110.44C207.697 110.44 204.969 108.064 201.361 102.96L192.649 91.696H190.185V102.256C190.185 107.536 187.545 110.44 182.441 110.44H179.977ZM189.921 79.816H197.137C202.417 79.816 205.057 77.352 205.057 73.128C205.057 68.728 202.505 66.44 197.049 66.44H189.921V79.816ZM260.362 111.232C242.85 111.232 230.442 98.912 230.442 81.576C230.442 64.24 243.026 51.832 260.362 51.832C277.874 51.832 290.282 64.152 290.282 81.488C290.282 98.912 277.786 111.232 260.362 111.232ZM260.362 95.48C267.93 95.48 272.858 90.024 272.858 81.576C272.858 73.04 267.842 67.408 260.362 67.408C252.794 67.408 247.866 72.776 247.866 81.488C247.866 90.024 252.882 95.48 260.362 95.48Z"/>
</mask>
<path d="M3.96 100.144V62.92C3.96 56.496 7.216 53.064 13.024 53.064H40.568C46.2 53.064 48.752 55.264 48.752 59.84V60.368C48.752 65.208 46.2 67.408 40.568 67.408H21.296V77.088H34.496C40.304 77.088 42.68 79.288 42.68 83.6V83.952C42.68 88.528 40.216 90.728 34.496 90.728H22V102.168C22 107.536 19.36 110.352 14.256 110.352H11.44C6.6 110.352 3.96 106.568 3.96 100.144ZM65.7656 110C59.9576 110 56.7016 106.744 56.7016 100.32V62.92C56.7016 56.496 59.9576 53.064 65.7656 53.064H95.8616C101.406 53.064 103.958 55.264 103.958 59.928V60.368C103.958 65.208 101.406 67.144 95.8616 67.144H74.3896V74.624H88.6456C94.4536 74.624 96.8296 76.472 96.8296 80.784V81.048C96.8296 85.712 94.3656 87.648 88.6456 87.648H74.3896V96.096H96.2136C101.846 96.096 104.398 97.856 104.398 102.432V102.872C104.398 107.712 101.846 110 96.2136 110H65.7656ZM120.361 110.44C115.521 110.44 112.881 106.656 112.881 100.232V62.92C112.881 56.496 116.137 53.064 121.945 53.064H139.457C155.209 53.064 163.041 59.576 163.041 71.808C163.041 79.376 159.433 85.096 152.481 87.736L150.633 88.264L163.657 104.368C164.185 105.072 161.105 110.44 153.537 110.44C148.081 110.44 145.353 108.064 141.745 102.96L133.033 91.696H130.569V102.256C130.569 107.536 127.929 110.44 122.825 110.44H120.361ZM130.305 79.816H137.521C142.801 79.816 145.441 77.352 145.441 73.128C145.441 68.728 142.889 66.44 137.433 66.44H130.305V79.816ZM179.977 110.44C175.137 110.44 172.497 106.656 172.497 100.232V62.92C172.497 56.496 175.753 53.064 181.561 53.064H199.073C214.825 53.064 222.657 59.576 222.657 71.808C222.657 79.376 219.049 85.096 212.097 87.736L210.249 88.264L223.273 104.368C223.801 105.072 220.721 110.44 213.153 110.44C207.697 110.44 204.969 108.064 201.361 102.96L192.649 91.696H190.185V102.256C190.185 107.536 187.545 110.44 182.441 110.44H179.977ZM189.921 79.816H197.137C202.417 79.816 205.057 77.352 205.057 73.128C205.057 68.728 202.505 66.44 197.049 66.44H189.921V79.816ZM260.362 111.232C242.85 111.232 230.442 98.912 230.442 81.576C230.442 64.24 243.026 51.832 260.362 51.832C277.874 51.832 290.282 64.152 290.282 81.488C290.282 98.912 277.786 111.232 260.362 111.232ZM260.362 95.48C267.93 95.48 272.858 90.024 272.858 81.576C272.858 73.04 267.842 67.408 260.362 67.408C252.794 67.408 247.866 72.776 247.866 81.488C247.866 90.024 252.882 95.48 260.362 95.48Z" fill="#1463CC"/>
<path d="M21.296 67.408V64.408H18.296V67.408H21.296ZM21.296 77.088H18.296V80.088H21.296V77.088ZM22 90.728V87.728H19V90.728H22ZM3.96 100.144H6.96V62.92H3.96H0.96V100.144H3.96ZM3.96 62.92H6.96C6.96 60.1813 7.65291 58.5514 8.51394 57.6227C9.34184 56.7297 10.7159 56.064 13.024 56.064V53.064V50.064C9.52413 50.064 6.36616 51.1143 4.11406 53.5433C1.89509 55.9366 0.96 59.2347 0.96 62.92H3.96ZM13.024 53.064V56.064H40.568V53.064V50.064H13.024V53.064ZM40.568 53.064V56.064C43.0846 56.064 44.2903 56.5715 44.8477 57.0376C45.2899 57.4072 45.752 58.1106 45.752 59.84H48.752H51.752C51.752 56.9934 50.9381 54.3088 48.6963 52.4344C46.5697 50.6565 43.6834 50.064 40.568 50.064V53.064ZM48.752 59.84H45.752V60.368H48.752H51.752V59.84H48.752ZM48.752 60.368H45.752C45.752 62.2791 45.261 63.0454 44.815 63.4292C44.2691 63.899 43.0879 64.408 40.568 64.408V67.408V70.408C43.6801 70.408 46.5909 69.817 48.729 67.9768C50.967 66.0506 51.752 63.2969 51.752 60.368H48.752ZM40.568 67.408V64.408H21.296V67.408V70.408H40.568V67.408ZM21.296 67.408H18.296V77.088H21.296H24.296V67.408H21.296ZM21.296 77.088V80.088H34.496V77.088V74.088H21.296V77.088ZM34.496 77.088V80.088C37.12 80.088 38.3259 80.6031 38.8569 81.0411C39.2586 81.3725 39.68 81.9956 39.68 83.6H42.68H45.68C45.68 80.8924 44.9135 78.2595 42.6752 76.4129C40.5661 74.6729 37.68 74.088 34.496 74.088V77.088ZM42.68 83.6H39.68V83.952H42.68H45.68V83.6H42.68ZM42.68 83.952H39.68C39.68 85.711 39.2229 86.4053 38.7994 86.7622C38.2614 87.2158 37.0683 87.728 34.496 87.728V90.728V93.728C37.6437 93.728 40.5426 93.1402 42.6666 91.3497C44.9051 89.4627 45.68 86.769 45.68 83.952H42.68ZM34.496 90.728V87.728H22V90.728V93.728H34.496V90.728ZM22 90.728H19V102.168H22H25V90.728H22ZM22 102.168H19C19 104.401 18.4504 105.589 17.8605 106.214C17.2991 106.808 16.2677 107.352 14.256 107.352V110.352V113.352C17.3483 113.352 20.1889 112.488 22.2235 110.332C24.2296 108.207 25 105.303 25 102.168H22ZM14.256 110.352V107.352H11.44V110.352V113.352H14.256V110.352ZM11.44 110.352V107.352C9.90775 107.352 8.97424 106.809 8.31583 105.899C7.55825 104.851 6.96 103.009 6.96 100.144H3.96H0.96C0.96 103.703 1.68175 106.965 3.45417 109.415C5.32576 112.003 8.13225 113.352 11.44 113.352V110.352ZM74.3896 67.144V64.144H71.3896V67.144H74.3896ZM74.3896 74.624H71.3896V77.624H74.3896V74.624ZM74.3896 87.648V84.648H71.3896V87.648H74.3896ZM74.3896 96.096H71.3896V99.096H74.3896V96.096ZM65.7656 110V107C63.4133 107 62.0396 106.352 61.228 105.5C60.3938 104.624 59.7016 103.059 59.7016 100.32H56.7016H53.7016C53.7016 104.005 54.6374 107.28 56.8831 109.638C59.1516 112.02 62.3098 113 65.7656 113V110ZM56.7016 100.32H59.7016V62.92H56.7016H53.7016V100.32H56.7016ZM56.7016 62.92H59.7016C59.7016 60.1813 60.3945 58.5514 61.2555 57.6227C62.0834 56.7297 63.4574 56.064 65.7656 56.064V53.064V50.064C62.2657 50.064 59.1077 51.1143 56.8556 53.5433C54.6367 55.9366 53.7016 59.2347 53.7016 62.92H56.7016ZM65.7656 53.064V56.064H95.8616V53.064V50.064H65.7656V53.064ZM95.8616 53.064V56.064C98.3257 56.064 99.4998 56.5682 100.044 57.0314C100.485 57.4064 100.958 58.1367 100.958 59.928H103.958H106.958C106.958 57.0553 106.155 54.3536 103.933 52.4626C101.815 50.6598 98.9414 50.064 95.8616 50.064V53.064ZM103.958 59.928H100.958V60.368H103.958H106.958V59.928H103.958ZM103.958 60.368H100.958C100.958 62.2777 100.47 62.9376 100.089 63.2491C99.5657 63.6771 98.4011 64.144 95.8616 64.144V67.144V70.144C98.866 70.144 101.749 69.6429 103.888 67.8929C106.17 66.0264 106.958 63.2983 106.958 60.368H103.958ZM95.8616 67.144V64.144H74.3896V67.144V70.144H95.8616V67.144ZM74.3896 67.144H71.3896V74.624H74.3896H77.3896V67.144H74.3896ZM74.3896 74.624V77.624H88.6456V74.624V71.624H74.3896V74.624ZM88.6456 74.624V77.624C91.3623 77.624 92.5829 78.0831 93.1028 78.4774C93.4174 78.716 93.8296 79.1879 93.8296 80.784H96.8296H99.8296C99.8296 78.0681 99.0537 75.46 96.7283 73.6966C94.6082 72.0889 91.7368 71.624 88.6456 71.624V74.624ZM96.8296 80.784H93.8296V81.048H96.8296H99.8296V80.784H96.8296ZM96.8296 81.048H93.8296C93.8296 82.8648 93.3672 83.4668 93.0061 83.7563C92.4835 84.1753 91.2904 84.648 88.6456 84.648V87.648V90.648C91.7207 90.648 94.6197 90.1527 96.759 88.4377C99.0599 86.5932 99.8296 83.8952 99.8296 81.048H96.8296ZM88.6456 87.648V84.648H74.3896V87.648V90.648H88.6456V87.648ZM74.3896 87.648H71.3896V96.096H74.3896H77.3896V87.648H74.3896ZM74.3896 96.096V99.096H96.2136V96.096V93.096H74.3896V96.096ZM96.2136 96.096V99.096C98.8489 99.096 100.07 99.5351 100.611 99.9433C100.946 100.196 101.398 100.711 101.398 102.432H104.398H107.398C107.398 99.5766 106.573 96.9243 104.224 95.1527C102.081 93.5368 99.2102 93.096 96.2136 93.096V96.096ZM104.398 102.432H101.398V102.872H104.398H107.398V102.432H104.398ZM104.398 102.872H101.398C101.398 104.784 100.905 105.587 100.439 105.996C99.8885 106.479 98.7095 107 96.2136 107V110V113C99.3497 113 102.263 112.377 104.396 110.506C106.614 108.561 107.398 105.8 107.398 102.872H104.398ZM96.2136 110V107H65.7656V110V113H96.2136V110ZM152.481 87.736L153.305 90.6206L153.427 90.5857L153.546 90.5406L152.481 87.736ZM150.633 88.264L149.808 85.3794L145.449 86.625L148.3 90.1505L150.633 88.264ZM163.657 104.368L166.057 102.568L166.024 102.524L165.989 102.482L163.657 104.368ZM141.745 102.96L144.194 101.228L144.157 101.176L144.118 101.125L141.745 102.96ZM133.033 91.696L135.406 89.8606L134.505 88.696H133.033V91.696ZM130.569 91.696V88.696H127.569V91.696H130.569ZM130.305 79.816H127.305V82.816H130.305V79.816ZM130.305 66.44V63.44H127.305V66.44H130.305ZM120.361 110.44V107.44C118.828 107.44 117.895 106.897 117.236 105.987C116.479 104.939 115.881 103.097 115.881 100.232H112.881H109.881C109.881 103.791 110.602 107.053 112.375 109.503C114.246 112.091 117.053 113.44 120.361 113.44V110.44ZM112.881 100.232H115.881V62.92H112.881H109.881V100.232H112.881ZM112.881 62.92H115.881C115.881 60.1813 116.574 58.5514 117.435 57.6227C118.262 56.7297 119.636 56.064 121.945 56.064V53.064V50.064C118.445 50.064 115.287 51.1143 113.035 53.5433C110.816 55.9366 109.881 59.2347 109.881 62.92H112.881ZM121.945 53.064V56.064H139.457V53.064V50.064H121.945V53.064ZM139.457 53.064V56.064C146.991 56.064 152.098 57.6326 155.276 60.1871C158.335 62.6464 160.041 66.3742 160.041 71.808H163.041H166.041C166.041 65.0098 163.83 59.3656 159.035 55.5109C154.359 51.7514 147.674 50.064 139.457 50.064V53.064ZM163.041 71.808H160.041C160.041 75.1126 159.256 77.8399 157.857 79.9771C156.467 82.1015 154.36 83.8135 151.416 84.9314L152.481 87.736L153.546 90.5406C157.554 89.0185 160.726 86.5505 162.878 83.2628C165.021 79.9881 166.041 76.0714 166.041 71.808H163.041ZM152.481 87.736L151.656 84.8514L149.808 85.3794L150.633 88.264L151.457 91.1486L153.305 90.6206L152.481 87.736ZM150.633 88.264L148.3 90.1505L161.324 106.254L163.657 104.368L165.989 102.482L152.965 86.3775L150.633 88.264ZM163.657 104.368L161.257 106.168C160.813 105.576 160.734 104.992 160.718 104.729C160.701 104.441 160.742 104.241 160.758 104.169C160.791 104.023 160.815 104.02 160.737 104.163C160.591 104.426 160.254 104.893 159.668 105.401C158.536 106.381 156.564 107.44 153.537 107.44V110.44V113.44C158.077 113.44 161.429 111.815 163.597 109.935C164.661 109.013 165.468 108.006 165.988 107.065C166.242 106.605 166.48 106.067 166.61 105.493C166.674 105.207 166.734 104.819 166.708 104.376C166.683 103.956 166.567 103.248 166.057 102.568L163.657 104.368ZM153.537 110.44V107.44C151.301 107.44 149.868 106.97 148.633 106.132C147.286 105.218 145.957 103.722 144.194 101.228L141.745 102.96L139.295 104.692C141.14 107.302 142.979 109.546 145.263 111.096C147.658 112.722 150.316 113.44 153.537 113.44V110.44ZM141.745 102.96L144.118 101.125L135.406 89.8606L133.033 91.696L130.66 93.5314L139.372 104.795L141.745 102.96ZM133.033 91.696V88.696H130.569V91.696V94.696H133.033V91.696ZM130.569 91.696H127.569V102.256H130.569H133.569V91.696H130.569ZM130.569 102.256H127.569C127.569 104.433 127.025 105.633 126.421 106.277C125.848 106.889 124.811 107.44 122.825 107.44V110.44V113.44C125.942 113.44 128.777 112.539 130.8 110.379C132.793 108.251 133.569 105.359 133.569 102.256H130.569ZM122.825 110.44V107.44H120.361V110.44V113.44H122.825V110.44ZM130.305 79.816V82.816H137.521V79.816V76.816H130.305V79.816ZM137.521 79.816V82.816C140.578 82.816 143.367 82.1069 145.425 80.3231C147.554 78.4787 148.441 75.8887 148.441 73.128H145.441H142.441C142.441 74.5913 142.008 75.3453 141.496 75.7889C140.914 76.2931 139.743 76.816 137.521 76.816V79.816ZM145.441 73.128H148.441C148.441 70.3382 147.61 67.7046 145.426 65.8482C143.337 64.0731 140.506 63.44 137.433 63.44V66.44V69.44C139.816 69.44 140.988 69.9509 141.54 70.4198C141.996 70.8074 142.441 71.5178 142.441 73.128H145.441ZM137.433 66.44V63.44H130.305V66.44V69.44H137.433V66.44ZM130.305 66.44H127.305V79.816H130.305H133.305V66.44H130.305ZM212.097 87.736L212.921 90.6206L213.043 90.5857L213.162 90.5406L212.097 87.736ZM210.249 88.264L209.425 85.3794L205.065 86.625L207.917 90.1505L210.249 88.264ZM223.273 104.368L225.673 102.568L225.64 102.524L225.606 102.482L223.273 104.368ZM201.361 102.96L203.811 101.228L203.774 101.176L203.734 101.125L201.361 102.96ZM192.649 91.696L195.022 89.8606L194.121 88.696H192.649V91.696ZM190.185 91.696V88.696H187.185V91.696H190.185ZM189.921 79.816H186.921V82.816H189.921V79.816ZM189.921 66.44V63.44H186.921V66.44H189.921ZM179.977 110.44V107.44C178.445 107.44 177.511 106.897 176.853 105.987C176.095 104.939 175.497 103.097 175.497 100.232H172.497H169.497C169.497 103.791 170.219 107.053 171.991 109.503C173.863 112.091 176.669 113.44 179.977 113.44V110.44ZM172.497 100.232H175.497V62.92H172.497H169.497V100.232H172.497ZM172.497 62.92H175.497C175.497 60.1813 176.19 58.5514 177.051 57.6227C177.879 56.7297 179.253 56.064 181.561 56.064V53.064V50.064C178.061 50.064 174.903 51.1143 172.651 53.5433C170.432 55.9366 169.497 59.2347 169.497 62.92H172.497ZM181.561 53.064V56.064H199.073V53.064V50.064H181.561V53.064ZM199.073 53.064V56.064C206.608 56.064 211.715 57.6326 214.893 60.1871C217.952 62.6464 219.657 66.3742 219.657 71.808H222.657H225.657C225.657 65.0098 223.447 59.3656 218.652 55.5109C213.975 51.7514 207.291 50.064 199.073 50.064V53.064ZM222.657 71.808H219.657C219.657 75.1126 218.873 77.8399 217.474 79.9771C216.084 82.1015 213.976 83.8135 211.032 84.9314L212.097 87.736L213.162 90.5406C217.17 89.0185 220.343 86.5505 222.494 83.2628C224.638 79.9881 225.657 76.0714 225.657 71.808H222.657ZM212.097 87.736L211.273 84.8514L209.425 85.3794L210.249 88.264L211.073 91.1486L212.921 90.6206L212.097 87.736ZM210.249 88.264L207.917 90.1505L220.941 106.254L223.273 104.368L225.606 102.482L212.582 86.3775L210.249 88.264ZM223.273 104.368L220.873 106.168C220.429 105.576 220.35 104.992 220.335 104.729C220.318 104.441 220.358 104.241 220.374 104.169C220.407 104.023 220.432 104.02 220.353 104.163C220.208 104.426 219.871 104.893 219.284 105.401C218.153 106.381 216.181 107.44 213.153 107.44V110.44V113.44C217.694 113.44 221.045 111.815 223.214 109.935C224.278 109.013 225.084 108.006 225.605 107.065C225.859 106.605 226.096 106.067 226.226 105.493C226.291 105.207 226.351 104.819 226.324 104.376C226.3 103.956 226.183 103.248 225.673 102.568L223.273 104.368ZM213.153 110.44V107.44C210.917 107.44 209.484 106.97 208.249 106.132C206.902 105.218 205.574 103.722 203.811 101.228L201.361 102.96L198.911 104.692C200.756 107.302 202.596 109.546 204.879 111.096C207.274 112.722 209.933 113.44 213.153 113.44V110.44ZM201.361 102.96L203.734 101.125L195.022 89.8606L192.649 91.696L190.276 93.5314L198.988 104.795L201.361 102.96ZM192.649 91.696V88.696H190.185V91.696V94.696H192.649V91.696ZM190.185 91.696H187.185V102.256H190.185H193.185V91.696H190.185ZM190.185 102.256H187.185C187.185 104.433 186.641 105.633 186.037 106.277C185.465 106.889 184.428 107.44 182.441 107.44V110.44V113.44C185.559 113.44 188.393 112.539 190.417 110.379C192.409 108.251 193.185 105.359 193.185 102.256H190.185ZM182.441 110.44V107.44H179.977V110.44V113.44H182.441V110.44ZM189.921 79.816V82.816H197.137V79.816V76.816H189.921V79.816ZM197.137 79.816V82.816C200.195 82.816 202.984 82.1069 205.042 80.3231C207.17 78.4787 208.057 75.8887 208.057 73.128H205.057H202.057C202.057 74.5913 201.624 75.3453 201.112 75.7889C200.531 76.2931 199.36 76.816 197.137 76.816V79.816ZM205.057 73.128H208.057C208.057 70.3382 207.226 67.7046 205.042 65.8482C202.954 64.0731 200.122 63.44 197.049 63.44V66.44V69.44C199.432 69.44 200.605 69.9509 201.156 70.4198C201.612 70.8074 202.057 71.5178 202.057 73.128H205.057ZM197.049 66.44V63.44H189.921V66.44V69.44H197.049V66.44ZM189.921 66.44H186.921V79.816H189.921H192.921V66.44H189.921ZM260.362 111.232V108.232C252.327 108.232 245.628 105.417 240.947 100.775C236.268 96.1342 233.442 89.5072 233.442 81.576H230.442H227.442C227.442 90.9808 230.82 99.1818 236.722 105.035C242.623 110.887 250.885 114.232 260.362 114.232V111.232ZM230.442 81.576H233.442C233.442 65.9203 244.659 54.832 260.362 54.832V51.832V48.832C241.392 48.832 227.442 62.5597 227.442 81.576H230.442ZM260.362 51.832V54.832C268.397 54.832 275.095 57.647 279.776 62.2892C284.456 66.9298 287.282 73.5568 287.282 81.488H290.282H293.282C293.282 72.0832 289.904 63.8822 284.001 58.0288C278.1 52.177 269.839 48.832 260.362 48.832V51.832ZM290.282 81.488H287.282C287.282 97.2316 276.153 108.232 260.362 108.232V111.232V114.232C279.419 114.232 293.282 100.592 293.282 81.488H290.282ZM260.362 95.48V98.48C264.907 98.48 268.873 96.8186 271.678 93.7029C274.453 90.6188 275.858 86.3731 275.858 81.576H272.858H269.858C269.858 85.2268 268.798 87.9332 267.218 89.6891C265.666 91.4134 263.385 92.48 260.362 92.48V95.48ZM272.858 81.576H275.858C275.858 76.7306 274.43 72.4327 271.662 69.3035C268.865 66.1412 264.901 64.408 260.362 64.408V67.408V70.408C263.302 70.408 265.586 71.4908 267.168 73.2785C268.778 75.0993 269.858 77.8854 269.858 81.576H272.858ZM260.362 67.408V64.408C255.83 64.408 251.855 66.0386 249.041 69.1791C246.259 72.2852 244.866 76.58 244.866 81.488H247.866H250.866C250.866 77.684 251.937 74.9388 253.51 73.1829C255.052 71.4614 257.325 70.408 260.362 70.408V67.408ZM247.866 81.488H244.866C244.866 86.3353 246.296 90.6009 249.079 93.6925C251.889 96.813 255.853 98.48 260.362 98.48V95.48V92.48C257.391 92.48 255.106 91.419 253.538 89.6775C251.944 87.9071 250.866 85.1767 250.866 81.488H247.866Z" fill="white" mask="url(#path-12-outside-1_1_1374)"/>
<path d="M8.096 27.32C3.872 27.32 1.216 24.408 1.216 20.696C1.216 15.576 5.184 11.32 10.112 11.32C14.24 11.32 16.064 14.296 15.68 16.6C15.488 17.816 14.656 18.584 13.696 18.584C12.832 18.552 12.224 18.008 12.352 16.888C12.512 15.256 12.064 12.824 9.312 12.824C6.208 12.824 4.256 16.312 4.256 19.672C4.256 22.776 6.112 25.016 9.184 25.016C11.424 25.016 13.088 24.152 14.4 22.936C15.072 22.36 15.616 22.744 15.232 23.512C14.368 25.112 11.648 27.32 8.096 27.32ZM24.6548 27.32C20.6228 27.32 17.9028 24.6 17.9028 20.824C17.9028 15.768 22.1268 11.32 27.1508 11.32C31.3428 11.32 33.7108 14.264 33.7108 17.656C33.7108 23 29.7108 27.32 24.6548 27.32ZM25.1348 25.848C28.5268 25.848 30.4148 21.688 30.4148 17.976C30.4148 15.256 29.5188 12.76 26.7348 12.76C23.0548 12.76 21.0708 16.952 21.0388 20.376C21.0708 23.384 22.2228 25.848 25.1348 25.848ZM52.8583 24.216C53.0503 24.216 53.2103 24.376 53.1783 24.664C53.0503 25.848 51.7703 27.224 50.1063 27.224C48.3783 27.224 47.8983 25.944 48.0263 24.088L48.4103 16.984C48.5063 14.936 47.9623 13.528 46.2023 13.528C43.6103 13.528 40.9223 17.56 40.0583 22.616L39.4503 26.104C39.3863 26.52 39.1943 26.712 38.8423 26.808L37.2103 27.224C36.7623 27.352 36.4743 27.096 36.5383 26.584L38.1383 15.512C38.3943 13.752 37.0503 14.072 37.0503 13.304C37.0503 12.856 37.3383 12.632 38.8423 11.96C39.8663 11.512 40.3463 11.448 40.7623 11.448C41.2103 11.448 41.4343 11.704 41.3703 12.152L40.7303 16.44C42.3943 13.336 44.7943 11.416 47.5143 11.416C50.1703 11.416 51.5143 13.272 51.3223 16.792L50.9383 23.928C50.9062 24.6 50.9062 25.112 51.4503 25.112C52.0583 25.112 52.4743 24.216 52.8583 24.216ZM72.196 24.216C72.388 24.216 72.548 24.376 72.516 24.664C72.388 25.848 71.108 27.224 69.444 27.224C67.716 27.224 67.236 25.944 67.364 24.088L67.748 16.984C67.844 14.936 67.3 13.528 65.54 13.528C62.948 13.528 60.196 17.56 59.396 22.616L58.788 26.36C58.724 26.712 58.372 26.936 58.084 27L56.644 27.32C56.068 27.448 55.748 27.032 55.844 26.552L58.564 8.152C58.788 6.552 57.38 6.776 57.38 6.04C57.38 5.688 57.636 5.368 59.172 4.792C60.388 4.312 60.9 4.248 61.316 4.248C61.764 4.248 62.02 4.504 61.924 4.984L60.164 16.344C61.828 13.304 64.196 11.416 66.852 11.416C69.508 11.416 70.852 13.272 70.66 16.792L70.276 23.928C70.244 24.6 70.244 25.112 70.788 25.112C71.396 25.112 71.812 24.216 72.196 24.216ZM87.542 22.744C88.15 22.2 88.822 22.52 88.374 23.32C87.51 24.92 84.79 27.32 81.238 27.32C77.942 27.32 74.934 25.144 74.934 20.76C74.934 16.632 78.486 11.32 84.31 11.32C86.838 11.32 88.918 12.6 88.918 14.968C88.918 18.968 84.022 21.08 78.23 21.912C78.71 23.768 80.278 25.144 82.358 25.144C84.534 25.144 86.23 23.96 87.542 22.744ZM83.286 12.824C80.502 12.824 78.006 15.832 78.006 19.704C78.006 20.12 78.198 20.504 78.998 20.376C83.094 19.736 86.038 18.008 86.038 15.448C86.038 13.912 84.918 12.824 83.286 12.824ZM103.665 18.584C102.801 18.552 102.193 18.008 102.321 16.888C102.481 15.256 102.033 12.824 99.2808 12.824C96.1768 12.824 94.2248 16.312 94.2248 19.672C94.2248 22.776 96.0808 25.016 99.1528 25.016C101.393 25.016 103.057 24.152 104.369 22.936C105.041 22.36 105.585 22.744 105.201 23.512C104.337 25.112 101.649 27.288 98.1288 27.32L97.3928 28.696C99.0248 28.984 100.369 29.688 100.369 31.224C100.369 32.728 99.0248 33.752 97.4248 33.752C96.0488 33.752 95.2488 33.24 94.8328 32.728C94.5448 32.376 94.8968 31.928 95.3448 32.216C95.7928 32.472 96.2728 32.76 97.0728 32.76C98.0648 32.76 98.5448 32.12 98.5448 31.416C98.5448 30.36 97.4248 29.944 96.3688 29.688C96.0488 29.624 95.8248 29.432 95.9848 29.144L97.0088 27.256C93.3928 26.808 91.1848 24.088 91.1848 20.696C91.1848 15.576 95.1528 11.32 100.081 11.32C104.209 11.32 106.033 14.296 105.649 16.6C105.457 17.816 104.625 18.584 103.665 18.584ZM124.533 24.216C124.725 24.216 124.885 24.376 124.853 24.664C124.693 25.848 123.413 27.224 121.781 27.224C120.437 27.224 119.349 26.712 119.637 23.448C118.357 25.528 116.149 27.32 113.461 27.32C110.645 27.32 108.245 25.368 108.245 21.624C108.245 16.216 111.829 11.32 116.565 11.32C118.037 11.32 119.445 11.992 120.245 11.992C121.269 11.992 121.909 11.32 122.581 11.32C123.189 11.32 123.317 11.768 123.253 12.632L122.581 23.928C122.549 24.6 122.581 25.112 123.157 25.112C123.701 25.112 124.117 24.216 124.533 24.216ZM114.773 25.112C117.397 25.112 119.829 21.88 120.085 17.752L120.149 16.824C120.341 14.168 118.517 12.728 116.501 12.728C113.077 12.728 111.317 17.24 111.285 20.44C111.285 24.152 113.237 25.112 114.773 25.112ZM140.686 27.32C136.654 27.32 133.934 24.6 133.934 20.824C133.934 15.768 138.158 11.32 143.182 11.32C147.374 11.32 149.742 14.264 149.742 17.656C149.742 23 145.742 27.32 140.686 27.32ZM141.166 25.848C144.558 25.848 146.446 21.688 146.446 17.976C146.446 15.256 145.55 12.76 142.766 12.76C139.086 12.76 137.102 16.952 137.07 20.376C137.102 23.384 138.254 25.848 141.166 25.848Z" fill="#1A1A1A"/>
</svg>
