<svg width="361" height="188" viewBox="0 0 361 188" fill="none" xmlns="http://www.w3.org/2000/svg">
<rect x="109.836" y="149.404" width="92.1702" height="37.6362" rx="18.8181" stroke="#1A1A1A" stroke-width="1.53617"/>
<path d="M135.141 173.882C133.925 173.882 133.365 173.674 132.885 173.674C132.517 173.674 132.421 173.866 132.165 173.866C131.861 173.866 131.701 173.658 131.589 172.986C131.493 172.474 131.349 171.786 131.237 170.746C131.205 170.426 131.253 170.186 131.509 170.186C131.733 170.186 131.909 170.346 132.101 170.73C132.565 171.802 133.429 173.098 135.301 173.114C136.853 173.114 137.557 172.202 137.605 171.194C137.685 169.85 136.213 169.322 134.837 168.666C133.221 167.882 131.477 167.226 131.477 165.274C131.477 163.786 132.773 162.394 135.237 162.394C135.941 162.394 136.517 162.57 136.965 162.57C137.333 162.57 137.429 162.394 137.685 162.394C137.989 162.394 138.069 162.57 138.229 163.242C138.341 163.706 138.485 164.266 138.613 165.05C138.661 165.354 138.613 165.578 138.357 165.578C138.133 165.578 137.941 165.418 137.733 165.066C137.221 164.25 136.309 163.146 134.885 163.146C133.573 163.146 132.885 163.866 132.885 164.842C132.885 166.074 134.053 166.506 135.573 167.258C137.285 168.09 139.061 168.682 139.125 170.586C139.189 172.618 137.253 173.866 135.141 173.882ZM145.606 173.882C142.902 173.882 141.302 172.154 141.302 169.29V164.858C141.302 163.05 140.374 163.466 140.374 162.874C140.374 162.618 140.598 162.554 141.174 162.554H142.934C143.478 162.554 143.734 162.618 143.734 162.874C143.734 163.466 142.774 163.05 142.774 164.858V169.546C142.774 171.818 143.958 173.034 145.926 173.034C148.006 173.034 149.094 171.466 149.094 169.402L149.062 164.442C149.062 163.162 148.214 163.386 148.214 162.858C148.214 162.586 148.438 162.522 148.934 162.522H150.006C150.47 162.522 150.71 162.586 150.71 162.858C150.71 163.386 149.862 163.162 149.846 164.442V169.178C149.846 171.978 148.534 173.882 145.606 173.882ZM152.659 162.522H155.523C158.979 162.522 160.803 164.314 160.803 166.474C160.803 168.81 159.171 170.154 155.971 170.154H154.611C154.307 170.154 154.291 170.17 154.291 170.474V171.402C154.291 173.226 155.203 172.81 155.203 173.402C155.203 173.642 154.979 173.722 154.419 173.722H152.659C152.115 173.722 151.859 173.642 151.859 173.402C151.859 172.81 152.819 173.226 152.819 171.402V164.714C152.819 162.922 151.859 163.434 151.859 162.842C151.859 162.554 152.115 162.522 152.659 162.522ZM155.923 169.45C157.827 169.45 159.203 168.81 159.203 166.778C159.203 164.73 157.715 163.226 155.491 163.226C154.419 163.226 154.291 163.322 154.291 163.658V168.986C154.291 169.29 154.451 169.45 155.923 169.45ZM170.115 170.906C170.339 170.938 170.355 171.162 170.339 171.45C170.291 172.218 170.227 172.714 170.099 173.162C170.003 173.546 169.843 173.722 168.803 173.722H162.675C162.131 173.722 161.875 173.69 161.875 173.402C161.875 172.81 162.835 173.322 162.835 171.53V164.714C162.835 162.922 161.875 163.434 161.875 162.842C161.875 162.554 162.131 162.522 162.675 162.522L168.627 162.506C169.539 162.506 169.651 162.586 169.795 163.002C169.939 163.434 170.099 163.978 170.195 164.698C170.243 165.018 170.243 165.226 170.003 165.29C169.731 165.354 169.587 165.178 169.363 164.762C168.819 163.754 168.147 163.242 167.011 163.242H166.131C164.531 163.242 164.307 163.466 164.307 163.978V165.882C164.307 166.65 164.771 166.666 165.507 166.666H165.939C167.587 166.666 167.331 166.154 167.779 166.154C167.987 166.154 168.115 166.298 168.195 166.666L168.515 168.026C168.643 168.634 168.611 168.762 168.371 168.826C167.795 168.986 167.715 167.402 165.939 167.386H165.507C164.771 167.386 164.307 167.402 164.307 168.17V172.218C164.307 172.778 164.531 173.002 166.147 173.002L167.363 172.986C168.755 172.986 169.043 172.538 169.475 171.53C169.715 170.986 169.891 170.858 170.115 170.906ZM178.201 169.114L179.785 172.042C180.361 173.098 181.017 172.89 181.017 173.402C181.017 173.642 180.793 173.722 180.393 173.722H178.665C178.153 173.722 177.881 173.642 177.881 173.354C177.881 172.938 178.681 172.922 178.153 171.978L177.081 170.01C176.777 169.466 176.521 169.386 175.513 169.258C174.473 169.114 174.041 169.066 174.041 169.626V171.402C174.041 173.226 174.953 172.81 174.953 173.402C174.953 173.642 174.729 173.722 174.169 173.722H172.409C171.865 173.722 171.609 173.642 171.609 173.402C171.609 172.81 172.569 173.226 172.569 171.402V164.714C172.569 162.922 171.609 163.434 171.609 162.842C171.609 162.554 171.865 162.522 172.409 162.522H175.337C178.873 162.522 180.457 164.202 180.457 166.058C180.457 167.61 179.641 168.618 178.201 169.114ZM176.409 168.602C177.865 168.634 178.857 167.818 178.857 166.266C178.857 164.65 177.609 163.258 175.305 163.242C174.233 163.226 174.041 163.322 174.041 163.658V167.77C174.041 168.442 175.673 168.586 176.409 168.602Z" fill="#1A1A1A"/>
<path d="M284.137 111.442C325.846 111.442 359.705 145.047 360.117 186.658H208.156C208.569 145.047 242.428 111.442 284.137 111.442Z" fill="#1463CC" stroke="#1A1A1A" stroke-width="1.53617"/>
<path d="M262.412 157.457C262.684 157.169 263.036 157.345 262.876 157.745C262.54 158.529 261.324 159.681 259.308 159.681C257.068 159.681 255.564 158.065 255.564 155.953C255.564 153.537 257.26 151.681 259.628 151.681C261.372 151.681 262.54 152.689 262.828 154.065C262.892 154.353 262.828 154.577 262.46 154.721C260.732 155.393 259.036 155.969 257.18 156.577C257.484 157.505 258.396 158.593 259.884 158.593C260.956 158.593 261.836 158.065 262.412 157.457ZM259.132 152.433C257.692 152.449 256.972 153.761 256.972 154.929C256.972 155.329 256.988 155.633 257.068 155.905C258.38 155.473 259.628 155.057 260.796 154.609C261.052 154.513 261.148 154.353 261.1 154.065C260.94 153.073 260.012 152.401 259.132 152.433ZM271.955 155.041L272.451 157.857C272.643 158.849 273.299 158.737 273.299 159.217C273.299 159.457 273.075 159.521 272.675 159.521H270.979C270.595 159.521 270.339 159.457 270.339 159.201C270.339 158.737 271.171 158.849 270.995 157.809L270.531 155.153C270.323 153.889 270.051 152.641 268.595 152.657C267.555 152.673 266.451 153.601 266.451 155.553V157.409C266.451 158.945 267.187 158.657 267.187 159.217C267.187 159.457 266.963 159.521 266.563 159.521H264.851C264.483 159.521 264.211 159.457 264.211 159.201C264.211 158.657 264.995 158.945 264.995 157.409V154.193C264.995 153.649 264.931 153.249 264.499 152.993C264.323 152.881 264.211 152.785 264.211 152.625C264.211 152.449 264.291 152.353 264.675 152.177C265.219 151.921 265.763 151.745 265.987 151.729C266.195 151.729 266.307 151.809 266.307 152.081L266.291 153.441C266.931 152.257 268.051 151.681 269.107 151.681C270.707 151.681 271.539 152.577 271.955 155.041ZM280.772 157.457C281.044 157.169 281.396 157.345 281.236 157.745C280.9 158.529 279.684 159.681 277.668 159.681C275.428 159.681 273.924 158.065 273.924 155.953C273.924 153.537 275.62 151.681 277.988 151.681C279.732 151.681 280.9 152.689 281.188 154.065C281.252 154.353 281.188 154.577 280.82 154.721C279.092 155.393 277.396 155.969 275.54 156.577C275.844 157.505 276.756 158.593 278.244 158.593C279.316 158.593 280.196 158.065 280.772 157.457ZM277.492 152.433C276.052 152.449 275.332 153.761 275.332 154.929C275.332 155.329 275.348 155.633 275.428 155.905C276.74 155.473 277.988 155.057 279.156 154.609C279.412 154.513 279.508 154.353 279.46 154.065C279.3 153.073 278.372 152.401 277.492 152.433ZM286.954 151.681C287.818 151.681 288.202 152.225 288.202 152.785C288.202 153.201 287.93 153.585 287.562 153.601C286.89 153.617 286.922 152.913 286.186 152.913C285.482 152.913 284.81 153.905 284.81 155.313V157.409C284.81 158.945 285.546 158.657 285.546 159.217C285.546 159.457 285.322 159.521 284.922 159.521H283.21C282.842 159.521 282.57 159.457 282.57 159.201C282.57 158.657 283.354 158.945 283.354 157.409V154.193C283.354 153.649 283.29 153.249 282.858 152.993C282.682 152.881 282.57 152.785 282.57 152.625C282.57 152.449 282.65 152.353 283.034 152.177C283.578 151.921 284.122 151.745 284.346 151.729C284.554 151.729 284.666 151.809 284.666 152.081L284.65 153.377C285.146 152.433 286.01 151.681 286.954 151.681ZM295.136 158.433C296.704 158.433 297.504 159.233 297.504 160.225C297.504 161.793 295.904 162.913 292.976 162.913C291.184 162.913 289.392 162.321 289.392 160.897C289.392 160.401 289.728 159.777 290.464 159.457C289.952 159.201 289.472 158.753 289.472 158.065C289.472 157.617 289.792 157.025 290.736 156.673C290.016 156.209 289.632 155.505 289.632 154.689C289.632 152.961 291.232 151.697 293.28 151.681H293.424C293.92 151.697 294.096 151.745 294.416 151.745C294.784 151.745 295.248 151.425 295.632 150.849C295.792 150.657 295.952 150.497 296.176 150.497C296.464 150.497 296.752 150.721 296.752 151.073C296.752 151.697 296.128 152.177 295.424 152.353C296.016 152.833 296.336 153.505 296.336 154.225C296.336 155.921 294.944 157.201 292.8 157.217C292.208 157.217 291.696 157.121 291.264 156.945C291.056 157.089 290.848 157.313 290.848 157.601C290.848 158.353 291.808 158.545 292.72 158.545C293.616 158.545 294.576 158.433 295.136 158.433ZM292.928 152.321C291.888 152.321 291.088 153.089 291.088 154.241C291.104 155.505 291.872 156.561 293.072 156.561C294.176 156.561 294.848 155.713 294.848 154.625C294.832 153.425 294.176 152.321 292.928 152.321ZM293.36 162.241C294.928 162.241 296.08 161.729 296.08 160.737C296.08 160.241 295.808 159.633 294.528 159.713C293.904 159.745 293.136 159.793 292.112 159.793C291.472 159.793 290.784 160.145 290.784 160.833C290.784 161.745 291.824 162.241 293.36 162.241ZM299.389 150.481C298.957 150.449 298.637 150.129 298.669 149.681C298.701 149.105 299.421 148.433 300.061 148.513C300.493 148.545 300.797 148.945 300.781 149.345C300.733 149.905 300.013 150.529 299.389 150.481ZM299.245 157.409V154.241C299.245 152.849 298.461 153.121 298.461 152.625C298.461 152.465 298.525 152.385 298.909 152.209C299.629 151.873 300.173 151.697 300.397 151.681C300.605 151.665 300.717 151.745 300.717 152.033L300.701 154.241V157.409C300.701 158.945 301.453 158.657 301.453 159.217C301.453 159.457 301.213 159.521 300.829 159.521H299.117C298.733 159.521 298.477 159.457 298.477 159.201C298.477 158.657 299.245 158.945 299.245 157.409ZM310.527 158.529C310.703 158.529 310.847 158.545 310.847 158.721C310.847 159.121 310.223 159.633 309.503 159.633C308.751 159.633 308.543 159.169 308.399 158.401C307.727 159.233 306.623 159.681 305.695 159.681C303.743 159.681 302.623 158.593 302.623 157.233C302.623 155.697 303.999 154.641 305.951 154.641C306.623 154.641 307.071 154.705 307.679 154.849C307.359 153.569 307.151 152.657 305.759 152.657C304.847 152.657 304.255 152.945 303.583 153.329C303.279 153.521 303.023 153.281 303.231 152.961C303.615 152.401 304.767 151.697 306.223 151.697C307.983 151.697 308.671 152.801 308.975 154.193L309.711 157.665C309.887 158.481 310.223 158.529 310.527 158.529ZM306.063 158.881C307.167 158.881 308.319 158.033 308.191 157.329C308.127 156.961 307.999 156.545 307.855 155.841C307.791 155.457 306.735 155.313 306.239 155.313C304.831 155.313 304.079 155.985 304.095 157.057C304.143 158.097 304.863 158.881 306.063 158.881Z" fill="#FFFFF3"/>
<path d="M80.9365 111.769C81.5071 111.831 81.8331 111.913 82.4609 112.021L82.5117 112.029L82.5645 112.031C82.6549 112.034 82.7175 112.038 82.7578 112.042L82.7939 112.047L82.8125 112.051C90.0755 113.535 95.4945 117.332 97.5176 124.536C100.066 133.611 96.3686 142.183 88.4463 146.182C87.2711 146.775 85.9746 147.171 84.5645 147.53C83.185 147.882 81.6342 148.211 80.1152 148.647L80.2666 150.151C81.3795 150.24 82.1262 150.23 82.9141 150.369C92.9083 152.13 99.8457 162.406 97.8828 172.594C96.4937 179.802 90.7205 185.471 83.4961 186.646C81.9804 186.893 80.4193 187 78.8691 187.002C59.4486 187.026 40.0163 186.973 20.5908 187.04C13.3877 187.065 7.63053 184.651 3.75977 178.521C3.31203 177.811 2.95553 177.026 2.60156 176.167C2.26783 175.357 1.92276 174.449 1.52344 173.557C0.591535 168.009 1.24303 163.432 3.35547 159.782C5.47921 156.113 9.13704 153.279 14.3965 151.348C14.6742 151.246 15.5475 150.973 16.3359 150.71C16.5548 150.637 17.7512 150.284 18.9492 150.196L19.0088 148.671C15.0141 148.065 12.9777 147.352 10.2637 146.364C8.49436 145.36 7.13972 144.907 5.0127 142.305C2.35038 139.048 1.88316 137.009 1.39355 135.059C0.237942 130.454 0.598992 125.977 3.18359 121.409C6.35208 115.81 11.2231 112.72 17.792 111.872C38.8626 111.774 59.7806 111.786 80.9365 111.769Z" fill="#1463CC" stroke="#1A1A1A" stroke-width="1.53617"/>
<path d="M23.1541 135.913C21.9381 135.913 21.3781 135.705 20.8981 135.705C20.5301 135.705 20.4341 135.897 20.1781 135.897C19.8741 135.897 19.7141 135.689 19.6021 135.017C19.5061 134.505 19.3621 133.817 19.2501 132.777C19.2181 132.457 19.2661 132.217 19.5221 132.217C19.7461 132.217 19.9221 132.377 20.1141 132.761C20.5781 133.833 21.4421 135.129 23.3141 135.145C24.8661 135.145 25.5701 134.233 25.6181 133.225C25.6981 131.881 24.2261 131.353 22.8501 130.697C21.2341 129.913 19.4901 129.257 19.4901 127.305C19.4901 125.817 20.7861 124.425 23.2501 124.425C23.9541 124.425 24.5301 124.601 24.9781 124.601C25.3461 124.601 25.4421 124.425 25.6981 124.425C26.0021 124.425 26.0821 124.601 26.2421 125.273C26.3541 125.737 26.4981 126.297 26.6261 127.081C26.6741 127.385 26.6261 127.609 26.3701 127.609C26.1461 127.609 25.9541 127.449 25.7461 127.097C25.2341 126.281 24.3221 125.177 22.8981 125.177C21.5861 125.177 20.8981 125.897 20.8981 126.873C20.8981 128.105 22.0661 128.537 23.5861 129.289C25.2981 130.121 27.0741 130.713 27.1381 132.617C27.2021 134.649 25.2661 135.897 23.1541 135.913ZM36.195 128.265L36.179 130.473V133.657C36.179 134.873 37.123 134.505 37.123 134.969C37.123 135.129 36.995 135.289 36.723 135.433C36.307 135.673 35.683 135.913 35.299 135.913C34.915 135.913 34.771 135.625 34.755 135.081L34.739 134.425C34.035 135.417 32.915 135.913 32.035 135.913C30.451 135.913 29.331 134.953 29.331 132.729V130.473C29.331 129.065 28.531 129.353 28.531 128.857C28.531 128.697 28.611 128.617 28.995 128.441C29.699 128.105 30.259 127.929 30.483 127.913C30.691 127.897 30.803 127.977 30.803 128.265L30.787 130.473V132.569C30.787 134.009 31.267 134.985 32.483 134.953C33.507 134.937 34.723 133.977 34.723 132.409V130.473C34.723 129.065 33.923 129.353 33.923 128.857C33.923 128.697 34.003 128.617 34.387 128.441C35.091 128.105 35.635 127.929 35.875 127.913C36.083 127.897 36.195 127.977 36.195 128.265ZM45.5506 134.761C45.7266 134.761 45.8706 134.777 45.8706 134.953C45.8706 135.353 45.2466 135.865 44.5266 135.865C43.7746 135.865 43.5666 135.401 43.4226 134.633C42.7506 135.465 41.6466 135.913 40.7186 135.913C38.7666 135.913 37.6466 134.825 37.6466 133.465C37.6466 131.929 39.0226 130.873 40.9746 130.873C41.6466 130.873 42.0946 130.937 42.7026 131.081C42.3826 129.801 42.1746 128.889 40.7826 128.889C39.8706 128.889 39.2786 129.177 38.6066 129.561C38.3026 129.753 38.0466 129.513 38.2546 129.193C38.6386 128.633 39.7906 127.929 41.2466 127.929C43.0066 127.929 43.6946 129.033 43.9986 130.425L44.7346 133.897C44.9106 134.713 45.2466 134.761 45.5506 134.761ZM41.0866 135.113C42.1906 135.113 43.3426 134.265 43.2146 133.561C43.1506 133.193 43.0226 132.777 42.8786 132.073C42.8146 131.689 41.7586 131.545 41.2626 131.545C39.8546 131.545 39.1026 132.217 39.1186 133.289C39.1666 134.329 39.8866 135.113 41.0866 135.113ZM57.471 124.745L57.455 126.953L57.439 133.657C57.439 134.857 58.399 134.505 58.399 134.969C58.399 135.129 58.271 135.273 57.983 135.433C57.583 135.657 56.959 135.913 56.575 135.913C56.191 135.913 56.047 135.625 56.031 135.081L56.015 134.505C55.455 135.305 54.479 135.929 53.215 135.913C51.119 135.897 49.791 134.265 49.791 132.217C49.791 129.721 51.695 127.913 53.775 127.913C54.559 127.913 55.391 128.153 55.999 128.681V126.953C55.999 125.561 55.215 125.833 55.215 125.337C55.215 125.177 55.279 125.097 55.663 124.921C56.383 124.585 56.927 124.409 57.167 124.393C57.359 124.377 57.471 124.457 57.471 124.745ZM53.759 134.889C55.087 134.889 55.871 133.817 55.983 132.873V132.073C55.951 131.417 55.855 130.585 55.487 129.977C55.023 129.145 54.335 128.697 53.423 128.697C52.047 128.697 51.215 129.865 51.215 131.465C51.215 133.785 52.575 134.889 53.759 134.889ZM62.9103 135.913C60.7503 135.913 59.1503 134.473 59.1503 132.201C59.1503 129.785 60.8943 127.913 63.3743 127.913C65.5023 127.913 67.0543 129.561 67.0543 131.721C67.0543 134.089 65.3583 135.913 62.9103 135.913ZM63.4063 135.145C64.7663 135.145 65.6143 134.057 65.6143 132.521C65.6143 130.521 64.4143 128.729 62.8143 128.729C61.3903 128.729 60.6063 129.913 60.6063 131.433C60.6063 133.529 61.7743 135.145 63.4063 135.145ZM69.3488 135.913C69.1248 135.913 69.0928 135.817 68.9008 135.369C68.6608 134.729 68.5008 134.313 68.3088 133.673C68.2608 133.449 68.3088 133.305 68.4848 133.241C68.6448 133.177 68.8208 133.305 69.0288 133.529C70.2768 134.873 71.1408 135.177 72.0048 135.177C72.7248 135.177 73.3488 134.825 73.3488 134.121C73.3488 133.433 72.4528 133.001 71.1568 132.473C69.7648 131.929 68.4688 131.369 68.4688 130.057C68.4688 128.601 69.7968 127.913 71.0128 127.913C71.8608 127.913 72.3728 128.089 72.7888 128.105C73.0448 128.121 73.1088 127.913 73.3168 127.913C73.5248 127.913 73.6208 128.121 73.8128 128.441C74.0528 128.889 74.1808 129.177 74.3088 129.465C74.4048 129.721 74.4048 129.929 74.2448 130.025C73.9888 130.169 73.7648 129.881 73.2208 129.465C72.5968 129.001 71.8128 128.617 71.0608 128.617C70.1968 128.617 69.7168 129.049 69.7168 129.609C69.7168 130.313 70.4688 130.665 71.9408 131.257C73.4768 131.865 74.7248 132.473 74.7248 133.673C74.7248 134.857 73.5728 135.913 71.8128 135.913C70.7568 135.913 70.2768 135.609 69.9568 135.609C69.7008 135.609 69.6368 135.913 69.3488 135.913ZM82.639 133.689C82.911 133.401 83.263 133.577 83.103 133.977C82.767 134.761 81.551 135.913 79.535 135.913C77.295 135.913 75.791 134.297 75.791 132.185C75.791 129.769 77.487 127.913 79.855 127.913C81.599 127.913 82.767 128.921 83.055 130.297C83.119 130.585 83.055 130.809 82.687 130.953C80.959 131.625 79.263 132.201 77.407 132.809C77.711 133.737 78.623 134.825 80.111 134.825C81.183 134.825 82.063 134.297 82.639 133.689ZM79.359 128.665C77.919 128.681 77.199 129.993 77.199 131.161C77.199 131.561 77.215 131.865 77.295 132.137C78.607 131.705 79.855 131.289 81.023 130.841C81.279 130.745 81.375 130.585 81.327 130.297C81.167 129.305 80.239 128.633 79.359 128.665Z" fill="#FFFFF3"/>
<path d="M36.6592 160.077L36.6432 162.285L36.6272 168.989C36.6272 170.189 37.5872 169.837 37.5872 170.301C37.5872 170.461 37.4592 170.605 37.1712 170.765C36.7712 170.989 36.1472 171.245 35.7632 171.245C35.3792 171.245 35.2352 170.957 35.2192 170.413L35.2032 169.837C34.6432 170.637 33.6672 171.261 32.4032 171.245C30.3072 171.229 28.9792 169.597 28.9792 167.549C28.9792 165.053 30.8832 163.245 32.9632 163.245C33.7472 163.245 34.5792 163.485 35.1872 164.013V162.285C35.1872 160.893 34.4032 161.165 34.4032 160.669C34.4032 160.509 34.4672 160.429 34.8512 160.253C35.5712 159.917 36.1152 159.741 36.3552 159.725C36.5472 159.709 36.6592 159.789 36.6592 160.077ZM32.9472 170.221C34.2752 170.221 35.0592 169.149 35.1712 168.205V167.405C35.1392 166.749 35.0432 165.917 34.6752 165.309C34.2112 164.477 33.5232 164.029 32.6112 164.029C31.2352 164.029 30.4032 165.197 30.4032 166.797C30.4032 169.117 31.7632 170.221 32.9472 170.221ZM39.5538 162.045C39.1218 162.013 38.8018 161.693 38.8338 161.245C38.8658 160.669 39.5858 159.997 40.2258 160.077C40.6578 160.109 40.9618 160.509 40.9458 160.909C40.8978 161.469 40.1778 162.093 39.5538 162.045ZM39.4098 168.973V165.805C39.4098 164.413 38.6258 164.685 38.6258 164.189C38.6258 164.029 38.6898 163.949 39.0738 163.773C39.7938 163.437 40.3378 163.261 40.5618 163.245C40.7698 163.229 40.8818 163.309 40.8818 163.597L40.8658 165.805V168.973C40.8658 170.509 41.6178 170.221 41.6178 170.781C41.6178 171.021 41.3778 171.085 40.9938 171.085H39.2818C38.8978 171.085 38.6418 171.021 38.6418 170.765C38.6418 170.221 39.4098 170.509 39.4098 168.973ZM45.6199 162.349C45.4279 162.285 45.4119 162.157 45.4439 162.061C45.5239 161.885 45.9559 161.469 46.5319 160.941C47.1079 160.461 47.4919 160.125 47.9239 160.269C48.2439 160.397 48.4519 160.749 48.2919 161.165C48.0519 161.837 46.3079 162.605 45.6199 162.349ZM50.6919 170.093C50.8679 170.093 51.0119 170.109 51.0119 170.285C51.0119 170.685 50.3879 171.197 49.6679 171.197C48.9159 171.197 48.7079 170.733 48.5639 169.965C47.8919 170.797 46.7879 171.245 45.8599 171.245C43.9079 171.245 42.7879 170.157 42.7879 168.797C42.7879 167.261 44.1639 166.205 46.1159 166.205C46.7879 166.205 47.2359 166.269 47.8439 166.413C47.5239 165.133 47.3159 164.221 45.9239 164.221C45.0119 164.221 44.4199 164.509 43.7479 164.893C43.4439 165.085 43.1879 164.845 43.3959 164.525C43.7799 163.965 44.9319 163.261 46.3879 163.261C48.1479 163.261 48.8359 164.365 49.1399 165.757L49.8759 169.229C50.0519 170.045 50.3879 170.093 50.6919 170.093ZM46.2279 170.445C47.3319 170.445 48.4839 169.597 48.3559 168.893C48.2919 168.525 48.1639 168.109 48.0199 167.405C47.9559 167.021 46.8999 166.877 46.4039 166.877C44.9959 166.877 44.2439 167.549 44.2599 168.621C44.3079 169.661 45.0279 170.445 46.2279 170.445ZM56.3688 163.245C57.2328 163.245 57.6168 163.789 57.6168 164.349C57.6168 164.765 57.3448 165.149 56.9768 165.165C56.3048 165.181 56.3368 164.477 55.6008 164.477C54.8968 164.477 54.2248 165.469 54.2248 166.877V168.973C54.2248 170.509 54.9608 170.221 54.9608 170.781C54.9608 171.021 54.7368 171.085 54.3368 171.085H52.6248C52.2568 171.085 51.9848 171.021 51.9848 170.765C51.9848 170.221 52.7688 170.509 52.7688 168.973V165.757C52.7688 165.213 52.7048 164.813 52.2728 164.557C52.0968 164.445 51.9848 164.349 51.9848 164.189C51.9848 164.013 52.0648 163.917 52.4488 163.741C52.9928 163.485 53.5368 163.309 53.7608 163.293C53.9688 163.293 54.0808 163.373 54.0808 163.645L54.0648 164.941C54.5608 163.997 55.4248 163.245 56.3688 163.245ZM60.0069 162.045C59.5749 162.013 59.2549 161.693 59.2869 161.245C59.3189 160.669 60.0389 159.997 60.6789 160.077C61.1109 160.109 61.4149 160.509 61.3989 160.909C61.3509 161.469 60.6309 162.093 60.0069 162.045ZM59.8629 168.973V165.805C59.8629 164.413 59.0789 164.685 59.0789 164.189C59.0789 164.029 59.1429 163.949 59.5269 163.773C60.2469 163.437 60.7909 163.261 61.0149 163.245C61.2229 163.229 61.3349 163.309 61.3349 163.597L61.3189 165.805V168.973C61.3189 170.509 62.0709 170.221 62.0709 170.781C62.0709 171.021 61.8309 171.085 61.4469 171.085H59.7349C59.3509 171.085 59.0949 171.021 59.0949 170.765C59.0949 170.221 59.8629 170.509 59.8629 168.973ZM71.1451 170.093C71.3211 170.093 71.4651 170.109 71.4651 170.285C71.4651 170.685 70.8411 171.197 70.1211 171.197C69.3691 171.197 69.1611 170.733 69.0171 169.965C68.3451 170.797 67.2411 171.245 66.3131 171.245C64.3611 171.245 63.2411 170.157 63.2411 168.797C63.2411 167.261 64.6171 166.205 66.5691 166.205C67.2411 166.205 67.6891 166.269 68.2971 166.413C67.9771 165.133 67.7691 164.221 66.3771 164.221C65.4651 164.221 64.8731 164.509 64.2011 164.893C63.8971 165.085 63.6411 164.845 63.8491 164.525C64.2331 163.965 65.3851 163.261 66.8411 163.261C68.6011 163.261 69.2891 164.365 69.5931 165.757L70.3291 169.229C70.5051 170.045 70.8411 170.093 71.1451 170.093ZM66.6811 170.445C67.7851 170.445 68.9371 169.597 68.8091 168.893C68.7451 168.525 68.6171 168.109 68.4731 167.405C68.4091 167.021 67.3531 166.877 66.8571 166.877C65.4491 166.877 64.6971 167.549 64.7131 168.621C64.7611 169.661 65.4811 170.445 66.6811 170.445Z" fill="#FFFFF3"/>
<rect x="109.836" y="111.768" width="32.2596" height="32.2596" rx="16.1298" stroke="#1A1A1A" stroke-width="1.53617"/>
<path d="M124.822 120.89L124.806 123.098L124.79 129.802C124.79 131.002 125.75 130.65 125.75 131.114C125.75 131.274 125.622 131.418 125.334 131.578C124.934 131.802 124.31 132.058 123.926 132.058C123.542 132.058 123.398 131.77 123.382 131.226L123.366 130.65C122.806 131.45 121.83 132.074 120.566 132.058C118.47 132.042 117.142 130.41 117.142 128.362C117.142 125.866 119.046 124.058 121.126 124.058C121.91 124.058 122.742 124.298 123.35 124.826V123.098C123.35 121.706 122.566 121.978 122.566 121.482C122.566 121.322 122.63 121.242 123.014 121.066C123.734 120.73 124.278 120.554 124.518 120.538C124.71 120.522 124.822 120.602 124.822 120.89ZM121.11 131.034C122.438 131.034 123.222 129.962 123.334 129.018V128.218C123.302 127.562 123.206 126.73 122.838 126.122C122.374 125.29 121.686 124.842 120.774 124.842C119.398 124.842 118.566 126.01 118.566 127.61C118.566 129.93 119.926 131.034 121.11 131.034ZM133.349 129.834C133.621 129.546 133.973 129.722 133.813 130.122C133.477 130.906 132.261 132.058 130.245 132.058C128.005 132.058 126.501 130.442 126.501 128.33C126.501 125.914 128.197 124.058 130.565 124.058C132.309 124.058 133.477 125.066 133.765 126.442C133.829 126.73 133.765 126.954 133.397 127.098C131.669 127.77 129.973 128.346 128.117 128.954C128.421 129.882 129.333 130.97 130.821 130.97C131.893 130.97 132.773 130.442 133.349 129.834ZM130.069 124.81C128.629 124.826 127.909 126.138 127.909 127.306C127.909 127.706 127.925 128.01 128.005 128.282C129.317 127.85 130.565 127.434 131.733 126.986C131.989 126.89 132.085 126.73 132.037 126.442C131.877 125.45 130.949 124.778 130.069 124.81Z" fill="#1A1A1A"/>
<rect x="223" y="44" width="138" height="24.3617" rx="12.1809" fill="#FFFFF3"/>
<path d="M254.096 60.6809C253.746 60.6809 253.522 60.4429 253.522 60.0789V52.2389C253.522 51.8749 253.746 51.6229 254.096 51.6229H259.304C259.626 51.6229 259.794 51.7769 259.794 52.0569V52.1269C259.794 52.4209 259.626 52.5609 259.304 52.5609H254.572V55.5849H258.198C258.534 55.5849 258.702 55.7389 258.702 56.0049V56.0609C258.702 56.3549 258.534 56.4949 258.198 56.4949H254.572V59.7429H259.416C259.738 59.7429 259.906 59.8829 259.906 60.1629V60.2329C259.906 60.5269 259.738 60.6809 259.416 60.6809H254.096ZM261.383 60.2469V52.1829C261.383 51.8189 261.635 51.5809 262.013 51.5809H262.293C262.741 51.5809 262.853 51.7489 263.035 52.1689L265.485 57.2929L267.935 52.1689C268.103 51.7349 268.243 51.5809 268.649 51.5809H268.915C269.321 51.5809 269.559 51.8189 269.559 52.1829V60.2469C269.559 60.5549 269.433 60.7229 269.125 60.7229H268.999C268.705 60.7229 268.565 60.5549 268.565 60.2469V57.7829L268.579 52.8549L266.185 57.8669C266.059 58.1749 265.919 58.3709 265.471 58.3709C264.995 58.3709 264.883 58.1749 264.743 57.8669L262.363 52.8689L262.377 57.7549V60.2469C262.377 60.5549 262.251 60.7229 261.943 60.7229H261.789C261.495 60.7229 261.383 60.5549 261.383 60.2469ZM281.13 56.0889C281.522 56.0889 281.746 56.3409 281.732 56.7469V60.6249C281.732 60.6529 281.592 60.7229 281.396 60.7229C281.088 60.7229 280.85 60.5829 280.836 59.8969C280.836 59.6309 280.822 59.3649 280.822 59.0849C280.332 60.1489 279.212 60.8349 277.714 60.8349C275.166 60.8349 273.556 58.8609 273.556 56.1729C273.556 53.4289 275.348 51.4689 278.008 51.4689C279.254 51.4689 280.164 51.9029 280.696 52.3649C281.116 52.7149 281.326 53.1069 281.326 53.3449C281.326 53.8909 280.738 53.9609 280.682 53.9189C280.22 53.0089 279.212 52.3789 277.994 52.3789C276.006 52.3789 274.648 53.9189 274.648 56.1729C274.648 58.3849 275.866 59.9529 277.91 59.9529C279.492 59.9529 280.654 58.9729 280.808 57.5729V56.9709H278.414C278.05 56.9709 277.868 56.8449 277.868 56.5649V56.4949C277.868 56.2149 278.05 56.0889 278.414 56.0889H281.13ZM283.447 57.1109V52.0569C283.447 51.7349 283.615 51.5809 283.895 51.5809H284.049C284.343 51.5809 284.511 51.7349 284.511 52.0569V57.0969C284.511 58.9309 285.323 59.8829 286.961 59.8829C288.613 59.8829 289.397 58.9589 289.397 57.0829V52.0569C289.397 51.7209 289.551 51.5809 289.845 51.5809H290.027C290.321 51.5809 290.447 51.7209 290.447 52.0569V57.0829C290.447 59.5329 289.229 60.8349 286.933 60.8349C284.651 60.8349 283.447 59.5609 283.447 57.1109ZM292.364 60.2469V52.1829C292.364 51.8189 292.616 51.5809 292.994 51.5809H293.274C293.722 51.5809 293.834 51.7489 294.016 52.1689L296.466 57.2929L298.916 52.1689C299.084 51.7349 299.224 51.5809 299.63 51.5809H299.896C300.302 51.5809 300.54 51.8189 300.54 52.1829V60.2469C300.54 60.5549 300.414 60.7229 300.106 60.7229H299.98C299.686 60.7229 299.546 60.5549 299.546 60.2469V57.7829L299.56 52.8549L297.166 57.8669C297.04 58.1749 296.9 58.3709 296.452 58.3709C295.976 58.3709 295.864 58.1749 295.724 57.8669L293.344 52.8689L293.358 57.7549V60.2469C293.358 60.5549 293.232 60.7229 292.924 60.7229H292.77C292.476 60.7229 292.364 60.5549 292.364 60.2469ZM302.604 60.2469V52.1829C302.604 51.8189 302.856 51.5809 303.234 51.5809H303.514C303.962 51.5809 304.074 51.7489 304.256 52.1689L306.706 57.2929L309.156 52.1689C309.324 51.7349 309.464 51.5809 309.87 51.5809H310.136C310.542 51.5809 310.78 51.8189 310.78 52.1829V60.2469C310.78 60.5549 310.654 60.7229 310.346 60.7229H310.22C309.926 60.7229 309.786 60.5549 309.786 60.2469V57.7829L309.8 52.8549L307.406 57.8669C307.28 58.1749 307.14 58.3709 306.692 58.3709C306.216 58.3709 306.104 58.1749 305.964 57.8669L303.584 52.8689L303.598 57.7549V60.2469C303.598 60.5549 303.472 60.7229 303.164 60.7229H303.01C302.716 60.7229 302.604 60.5549 302.604 60.2469ZM312.984 60.2469V52.0569C312.984 51.7349 313.124 51.5809 313.418 51.5809H313.572C313.866 51.5809 314.034 51.7349 314.034 52.0569V60.2469C314.034 60.5549 313.866 60.7229 313.572 60.7229H313.418C313.124 60.7229 312.984 60.5549 312.984 60.2469ZM316.782 60.6809C316.432 60.6809 316.208 60.4429 316.208 60.0789V52.2389C316.208 51.8749 316.432 51.6229 316.782 51.6229H321.99C322.312 51.6229 322.48 51.7769 322.48 52.0569V52.1269C322.48 52.4209 322.312 52.5609 321.99 52.5609H317.258V55.5849H320.884C321.22 55.5849 321.388 55.7389 321.388 56.0049V56.0609C321.388 56.3549 321.22 56.4949 320.884 56.4949H317.258V59.7429H322.102C322.424 59.7429 322.592 59.8829 322.592 60.1629V60.2329C322.592 60.5269 322.424 60.6809 322.102 60.6809H316.782ZM323.985 59.8829C323.691 59.5889 323.551 59.2669 323.551 59.0289C323.551 58.6509 324.013 58.3989 324.055 58.4409C324.475 59.2109 325.357 59.9529 326.771 59.9529C328.101 59.9529 328.927 59.3369 328.927 58.3009C328.927 57.1389 327.807 56.8589 326.533 56.5509C325.147 56.2009 323.775 55.7389 323.775 53.9889C323.775 52.5049 325.063 51.4689 326.827 51.4689C328.003 51.4689 328.857 51.8469 329.333 52.2809C329.613 52.5469 329.767 52.8409 329.767 53.0789C329.767 53.4849 329.277 53.7229 329.249 53.6809C328.857 52.9809 328.031 52.3509 326.827 52.3509C325.637 52.3509 324.797 52.9809 324.797 53.9609C324.797 55.0669 325.749 55.2909 327.051 55.6129C328.521 55.9629 329.963 56.5089 329.963 58.2449C329.963 59.8269 328.717 60.8349 326.785 60.8349C325.455 60.8349 324.503 60.4009 323.985 59.8829Z" fill="#1463CC"/>
<mask id="path-12-outside-1_1_1622" maskUnits="userSpaceOnUse" x="0" y="32" width="207" height="48" fill="black">
<rect fill="white" y="32" width="207" height="48"/>
<path d="M2.79 69.056V42.83C2.79 38.304 5.084 35.886 9.176 35.886H28.582C32.55 35.886 34.348 37.436 34.348 40.66V41.032C34.348 44.442 32.55 45.992 28.582 45.992H15.004V52.812H24.304C28.396 52.812 30.07 54.362 30.07 57.4V57.648C30.07 60.872 28.334 62.422 24.304 62.422H15.5V70.482C15.5 74.264 13.64 76.248 10.044 76.248H8.06C4.65 76.248 2.79 73.582 2.79 69.056ZM46.3348 76C42.2428 76 39.9488 73.706 39.9488 69.18V42.83C39.9488 38.304 42.2428 35.886 46.3348 35.886H67.5388C71.4448 35.886 73.2428 37.436 73.2428 40.722V41.032C73.2428 44.442 71.4448 45.806 67.5388 45.806H52.4108V51.076H62.4548C66.5468 51.076 68.2208 52.378 68.2208 55.416V55.602C68.2208 58.888 66.4848 60.252 62.4548 60.252H52.4108V66.204H67.7868C71.7548 66.204 73.5528 67.444 73.5528 70.668V70.978C73.5528 74.388 71.7548 76 67.7868 76H46.3348ZM84.7995 76.31C81.3895 76.31 79.5295 73.644 79.5295 69.118V42.83C79.5295 38.304 81.8235 35.886 85.9155 35.886H98.2535C109.352 35.886 114.87 40.474 114.87 49.092C114.87 54.424 112.328 58.454 107.43 60.314L106.128 60.686L115.304 72.032C115.676 72.528 113.506 76.31 108.174 76.31C104.33 76.31 102.408 74.636 99.8655 71.04L93.7275 63.104H91.9915V70.544C91.9915 74.264 90.1315 76.31 86.5355 76.31H84.7995ZM91.8055 54.734H96.8895C100.61 54.734 102.47 52.998 102.47 50.022C102.47 46.922 100.672 45.31 96.8275 45.31H91.8055V54.734ZM126.802 76.31C123.392 76.31 121.532 73.644 121.532 69.118V42.83C121.532 38.304 123.826 35.886 127.918 35.886H140.256C151.354 35.886 156.872 40.474 156.872 49.092C156.872 54.424 154.33 58.454 149.432 60.314L148.13 60.686L157.306 72.032C157.678 72.528 155.508 76.31 150.176 76.31C146.332 76.31 144.41 74.636 141.868 71.04L135.73 63.104H133.994V70.544C133.994 74.264 132.134 76.31 128.538 76.31H126.802ZM133.808 54.734H138.892C142.612 54.734 144.472 52.998 144.472 50.022C144.472 46.922 142.674 45.31 138.83 45.31H133.808V54.734ZM183.437 76.868C171.099 76.868 162.357 68.188 162.357 55.974C162.357 43.76 171.223 35.018 183.437 35.018C195.775 35.018 204.517 43.698 204.517 55.912C204.517 68.188 195.713 76.868 183.437 76.868ZM183.437 65.77C188.769 65.77 192.241 61.926 192.241 55.974C192.241 49.96 188.707 45.992 183.437 45.992C178.105 45.992 174.633 49.774 174.633 55.912C174.633 61.926 178.167 65.77 183.437 65.77Z"/>
</mask>
<path d="M2.79 69.056V42.83C2.79 38.304 5.084 35.886 9.176 35.886H28.582C32.55 35.886 34.348 37.436 34.348 40.66V41.032C34.348 44.442 32.55 45.992 28.582 45.992H15.004V52.812H24.304C28.396 52.812 30.07 54.362 30.07 57.4V57.648C30.07 60.872 28.334 62.422 24.304 62.422H15.5V70.482C15.5 74.264 13.64 76.248 10.044 76.248H8.06C4.65 76.248 2.79 73.582 2.79 69.056ZM46.3348 76C42.2428 76 39.9488 73.706 39.9488 69.18V42.83C39.9488 38.304 42.2428 35.886 46.3348 35.886H67.5388C71.4448 35.886 73.2428 37.436 73.2428 40.722V41.032C73.2428 44.442 71.4448 45.806 67.5388 45.806H52.4108V51.076H62.4548C66.5468 51.076 68.2208 52.378 68.2208 55.416V55.602C68.2208 58.888 66.4848 60.252 62.4548 60.252H52.4108V66.204H67.7868C71.7548 66.204 73.5528 67.444 73.5528 70.668V70.978C73.5528 74.388 71.7548 76 67.7868 76H46.3348ZM84.7995 76.31C81.3895 76.31 79.5295 73.644 79.5295 69.118V42.83C79.5295 38.304 81.8235 35.886 85.9155 35.886H98.2535C109.352 35.886 114.87 40.474 114.87 49.092C114.87 54.424 112.328 58.454 107.43 60.314L106.128 60.686L115.304 72.032C115.676 72.528 113.506 76.31 108.174 76.31C104.33 76.31 102.408 74.636 99.8655 71.04L93.7275 63.104H91.9915V70.544C91.9915 74.264 90.1315 76.31 86.5355 76.31H84.7995ZM91.8055 54.734H96.8895C100.61 54.734 102.47 52.998 102.47 50.022C102.47 46.922 100.672 45.31 96.8275 45.31H91.8055V54.734ZM126.802 76.31C123.392 76.31 121.532 73.644 121.532 69.118V42.83C121.532 38.304 123.826 35.886 127.918 35.886H140.256C151.354 35.886 156.872 40.474 156.872 49.092C156.872 54.424 154.33 58.454 149.432 60.314L148.13 60.686L157.306 72.032C157.678 72.528 155.508 76.31 150.176 76.31C146.332 76.31 144.41 74.636 141.868 71.04L135.73 63.104H133.994V70.544C133.994 74.264 132.134 76.31 128.538 76.31H126.802ZM133.808 54.734H138.892C142.612 54.734 144.472 52.998 144.472 50.022C144.472 46.922 142.674 45.31 138.83 45.31H133.808V54.734ZM183.437 76.868C171.099 76.868 162.357 68.188 162.357 55.974C162.357 43.76 171.223 35.018 183.437 35.018C195.775 35.018 204.517 43.698 204.517 55.912C204.517 68.188 195.713 76.868 183.437 76.868ZM183.437 65.77C188.769 65.77 192.241 61.926 192.241 55.974C192.241 49.96 188.707 45.992 183.437 45.992C178.105 45.992 174.633 49.774 174.633 55.912C174.633 61.926 178.167 65.77 183.437 65.77Z" fill="#1463CC"/>
<path d="M15.004 45.992V43.6877H12.6997V45.992H15.004ZM15.004 52.812H12.6997V55.1163H15.004V52.812ZM15.5 62.422V60.1177H13.1957V62.422H15.5ZM2.79 69.056H5.09426V42.83H2.79H0.485745V69.056H2.79ZM2.79 42.83H5.09426C5.09426 40.9305 5.57475 39.8352 6.13824 39.2274C6.67629 38.6471 7.58768 38.1903 9.176 38.1903V35.886V33.5817C6.67232 33.5817 4.39071 34.3339 2.75876 36.0941C1.15226 37.8268 0.485745 40.2035 0.485745 42.83H2.79ZM9.176 35.886V38.1903H28.582V35.886V33.5817H9.176V35.886ZM28.582 35.886V38.1903C30.336 38.1903 31.1321 38.5451 31.475 38.8318C31.7294 39.0445 32.0437 39.4771 32.0437 40.66H34.348H36.6523C36.6523 38.6189 36.0676 36.6645 34.431 35.2962C32.8829 34.0019 30.796 33.5817 28.582 33.5817V35.886ZM34.348 40.66H32.0437V41.032H34.348H36.6523V40.66H34.348ZM34.348 41.032H32.0437C32.0437 42.3462 31.7071 42.8229 31.4499 43.0443C31.1158 43.3317 30.3386 43.6877 28.582 43.6877V45.992V48.2963C30.7934 48.2963 32.8992 47.8772 34.4561 46.5372C36.0899 45.1311 36.6523 43.1278 36.6523 41.032H34.348ZM28.582 45.992V43.6877H15.004V45.992V48.2963H28.582V45.992ZM15.004 45.992H12.6997V52.812H15.004H17.3083V45.992H15.004ZM15.004 52.812V55.1163H24.304V52.812V50.5077H15.004V52.812ZM24.304 52.812V55.1163C26.135 55.1163 26.9312 55.4769 27.2551 55.7442C27.4798 55.9295 27.7657 56.3046 27.7657 57.4H30.07H32.3743C32.3743 55.4574 31.8232 53.5385 30.1879 52.1893C28.6518 50.9221 26.565 50.5077 24.304 50.5077V52.812ZM30.07 57.4H27.7657V57.648H30.07H32.3743V57.4H30.07ZM30.07 57.648H27.7657C27.7657 58.8537 27.4538 59.2793 27.2131 59.4822C26.8844 59.7593 26.098 60.1177 24.304 60.1177V62.422V64.7263C26.54 64.7263 28.6366 64.3097 30.1834 63.0058C31.8182 61.6277 32.3743 59.6663 32.3743 57.648H30.07ZM24.304 62.422V60.1177H15.5V62.422V64.7263H24.304V62.422ZM15.5 62.422H13.1957V70.482H15.5H17.8043V62.422H15.5ZM15.5 70.482H13.1957C13.1957 72.0268 12.8155 72.8089 12.4449 73.2015C12.0962 73.5709 11.427 73.9437 10.044 73.9437V76.248V78.5523C12.257 78.5523 14.3158 77.9331 15.7961 76.365C17.2544 74.8201 17.8043 72.7192 17.8043 70.482H15.5ZM10.044 76.248V73.9437H8.06V76.248V78.5523H10.044V76.248ZM8.06 76.248V73.9437C7.03687 73.9437 6.43867 73.5869 6.01333 72.9988C5.51183 72.3055 5.09426 71.0521 5.09426 69.056H2.79H0.485745C0.485745 71.5859 0.998173 73.9285 2.27917 75.6997C3.63633 77.5761 5.67313 78.5523 8.06 78.5523V76.248ZM52.4108 45.806V43.5017H50.1066V45.806H52.4108ZM52.4108 51.076H50.1066V53.3803H52.4108V51.076ZM52.4108 60.252V57.9477H50.1066V60.252H52.4108ZM52.4108 66.204H50.1066V68.5083H52.4108V66.204ZM46.3348 76V73.6957C44.7126 73.6957 43.8014 73.2499 43.2759 72.6981C42.733 72.1281 42.2531 71.0794 42.2531 69.18H39.9488H37.6446C37.6446 71.8066 38.3116 74.1679 39.9387 75.8764C41.5832 77.6031 43.8651 78.3043 46.3348 78.3043V76ZM39.9488 69.18H42.2531V42.83H39.9488H37.6446V69.18H39.9488ZM39.9488 42.83H42.2531C42.2531 40.9305 42.7336 39.8352 43.2971 39.2274C43.8351 38.6471 44.7465 38.1903 46.3348 38.1903V35.886V33.5817C43.8311 33.5817 41.5495 34.3339 39.9176 36.0941C38.3111 37.8268 37.6446 40.2035 37.6446 42.83H39.9488ZM46.3348 35.886V38.1903H67.5388V35.886V33.5817H46.3348V35.886ZM67.5388 35.886V38.1903C69.2554 38.1903 70.0286 38.5426 70.362 38.8264C70.6158 39.0424 70.9386 39.4943 70.9386 40.722H73.2428H75.5471C75.5471 38.6637 74.9709 36.6976 73.3492 35.3171C71.8071 34.0044 69.7283 33.5817 67.5388 33.5817V35.886ZM73.2428 40.722H70.9386V41.032H73.2428H75.5471V40.722H73.2428ZM73.2428 41.032H70.9386C70.9386 42.3451 70.6043 42.7443 70.3964 42.9144C70.0792 43.1739 69.3133 43.5017 67.5388 43.5017V45.806V48.1103C69.6704 48.1103 71.7565 47.7561 73.3147 46.4811C74.9824 45.1167 75.5471 43.1289 75.5471 41.032H73.2428ZM67.5388 45.806V43.5017H52.4108V45.806V48.1103H67.5388V45.806ZM52.4108 45.806H50.1066V51.076H52.4108H54.7151V45.806H52.4108ZM52.4108 51.076V53.3803H62.4548V51.076V48.7717H52.4108V51.076ZM62.4548 51.076V53.3803C64.357 53.3803 65.1645 53.7035 65.48 53.9428C65.6378 54.0624 65.9166 54.327 65.9166 55.416H68.2208H70.5251C70.5251 53.4669 69.9669 51.5616 68.2647 50.2707C66.7202 49.0995 64.6446 48.7717 62.4548 48.7717V51.076ZM68.2208 55.416H65.9166V55.602H68.2208H70.5251V55.416H68.2208ZM68.2208 55.602H65.9166C65.9166 56.8493 65.6006 57.2068 65.4078 57.3614C65.0909 57.6154 64.3046 57.9477 62.4548 57.9477V60.252V62.5563C64.6351 62.5563 66.7317 62.2066 68.2903 60.9571C69.9731 59.6082 70.5251 57.6407 70.5251 55.602H68.2208ZM62.4548 60.252V57.9477H52.4108V60.252V62.5563H62.4548V60.252ZM52.4108 60.252H50.1066V66.204H52.4108H54.7151V60.252H52.4108ZM52.4108 66.204V68.5083H67.7868V66.204V63.8997H52.4108V66.204ZM67.7868 66.204V68.5083C69.6321 68.5083 70.44 68.8176 70.7705 69.0668C70.9423 69.1964 71.2486 69.4918 71.2486 70.668H73.5528H75.8571C75.8571 68.6202 75.2643 66.6836 73.5452 65.3872C71.9846 64.2104 69.9096 63.8997 67.7868 63.8997V66.204ZM73.5528 70.668H71.2486V70.978H73.5528H75.8571V70.668H73.5528ZM73.5528 70.978H71.2486C71.2486 72.2928 70.911 72.7963 70.6385 73.0354C70.3006 73.3317 69.525 73.6957 67.7868 73.6957V76V78.3043C70.0167 78.3043 72.1241 77.8623 73.6772 76.5001C75.2956 75.0807 75.8571 73.0732 75.8571 70.978H73.5528ZM67.7868 76V73.6957H46.3348V76V78.3043H67.7868V76ZM107.43 60.314L108.063 62.5296L108.156 62.5028L108.248 62.4682L107.43 60.314ZM106.128 60.686L105.495 58.4704L102.146 59.4271L104.336 62.135L106.128 60.686ZM115.304 72.032L117.147 70.6494L117.122 70.6158L117.095 70.583L115.304 72.032ZM99.8655 71.04L101.747 69.7099L101.719 69.6694L101.688 69.6303L99.8655 71.04ZM93.7275 63.104L95.5502 61.6943L94.8584 60.7997H93.7275V63.104ZM91.9915 63.104V60.7997H89.6873V63.104H91.9915ZM91.8055 54.734H89.5013V57.0383H91.8055V54.734ZM91.8055 45.31V43.0057H89.5013V45.31H91.8055ZM84.7995 76.31V74.0057C83.7764 74.0057 83.1782 73.6489 82.7529 73.0608C82.2514 72.3675 81.8338 71.1141 81.8338 69.118H79.5295H77.2253C77.2253 71.6479 77.7377 73.9905 79.0187 75.7617C80.3759 77.6381 82.4127 78.6143 84.7995 78.6143V76.31ZM79.5295 69.118H81.8338V42.83H79.5295H77.2253V69.118H79.5295ZM79.5295 42.83H81.8338C81.8338 40.9305 82.3143 39.8352 82.8778 39.2274C83.4158 38.6471 84.3272 38.1903 85.9155 38.1903V35.886V33.5817C83.4118 33.5817 81.1302 34.3339 79.4983 36.0941C77.8918 37.8268 77.2253 40.2035 77.2253 42.83H79.5295ZM85.9155 35.886V38.1903H98.2535V35.886V33.5817H85.9155V35.886ZM98.2535 35.886V38.1903C103.54 38.1903 107.088 39.2916 109.28 41.0531C111.38 42.7415 112.565 45.307 112.565 49.092H114.87H117.174C117.174 44.259 115.6 40.2215 112.167 37.4614C108.825 34.7744 104.065 33.5817 98.2535 33.5817V35.886ZM114.87 49.092H112.565C112.565 51.3898 112.02 53.2735 111.058 54.7432C110.103 56.2029 108.652 57.385 106.611 58.1598L107.43 60.314L108.248 62.4682C111.105 61.383 113.374 59.6201 114.914 57.2668C116.448 54.9235 117.174 52.1262 117.174 49.092H114.87ZM107.43 60.314L106.797 58.0984L105.495 58.4704L106.128 60.686L106.761 62.9016L108.063 62.5296L107.43 60.314ZM106.128 60.686L104.336 62.135L113.512 73.481L115.304 72.032L117.095 70.583L107.919 59.237L106.128 60.686ZM115.304 72.032L113.46 73.4146C113.117 72.9572 113.055 72.5047 113.043 72.2974C113.03 72.0717 113.061 71.9115 113.075 71.8496C113.104 71.724 113.129 71.7047 113.079 71.7953C112.989 71.9589 112.766 72.2709 112.368 72.6157C111.604 73.2779 110.259 74.0057 108.174 74.0057V76.31V78.6143C111.421 78.6143 113.826 77.4511 115.387 76.0983C116.151 75.4356 116.735 74.7091 117.113 74.024C117.297 73.6903 117.473 73.2943 117.57 72.8669C117.618 72.6541 117.663 72.3617 117.644 72.0262C117.625 71.709 117.536 71.1688 117.147 70.6494L115.304 72.032ZM108.174 76.31V74.0057C106.63 74.0057 105.659 73.6826 104.825 73.117C103.906 72.4932 102.987 71.4635 101.747 69.7099L99.8655 71.04L97.9839 72.3701C99.2863 74.2125 100.599 75.8178 102.237 76.93C103.961 78.1004 105.873 78.6143 108.174 78.6143V76.31ZM99.8655 71.04L101.688 69.6303L95.5502 61.6943L93.7275 63.104L91.9048 64.5137L98.0428 72.4497L99.8655 71.04ZM93.7275 63.104V60.7997H91.9915V63.104V65.4083H93.7275V63.104ZM91.9915 63.104H89.6873V70.544H91.9915H94.2958V63.104H91.9915ZM91.9915 70.544H89.6873C89.6873 72.0487 89.3114 72.8398 88.9302 73.2469C88.5729 73.6284 87.8991 74.0057 86.5355 74.0057V76.31V78.6143C88.768 78.6143 90.8221 77.9686 92.2939 76.3971C93.7417 74.8512 94.2958 72.7593 94.2958 70.544H91.9915ZM86.5355 76.31V74.0057H84.7995V76.31V78.6143H86.5355V76.31ZM91.8055 54.734V57.0383H96.8895V54.734V52.4297H91.8055V54.734ZM96.8895 54.734V57.0383C99.0701 57.0383 101.087 56.5328 102.584 55.2353C104.134 53.8914 104.774 52.0083 104.774 50.022H102.47H100.165C100.165 51.0117 99.8747 51.4846 99.5654 51.7527C99.2025 52.0672 98.429 52.4297 96.8895 52.4297V54.734ZM102.47 50.022H104.774C104.774 48.019 104.176 46.1024 102.582 44.7478C101.062 43.4557 99.0145 43.0057 96.8275 43.0057V45.31V47.6143C98.4846 47.6143 99.2579 47.9703 99.5977 48.2592C99.864 48.4856 100.165 48.925 100.165 50.022H102.47ZM96.8275 45.31V43.0057H91.8055V45.31V47.6143H96.8275V45.31ZM91.8055 45.31H89.5013V54.734H91.8055H94.1098V45.31H91.8055ZM149.432 60.314L150.065 62.5296L150.159 62.5028L150.25 62.4682L149.432 60.314ZM148.13 60.686L147.497 58.4704L144.148 59.4271L146.338 62.135L148.13 60.686ZM157.306 72.032L159.15 70.6494L159.124 70.6158L159.098 70.583L157.306 72.032ZM141.868 71.04L143.75 69.7099L143.721 69.6694L143.691 69.6303L141.868 71.04ZM135.73 63.104L137.553 61.6943L136.861 60.7997H135.73V63.104ZM133.994 63.104V60.7997H131.69V63.104H133.994ZM133.808 54.734H131.504V57.0383H133.808V54.734ZM133.808 45.31V43.0057H131.504V45.31H133.808ZM126.802 76.31V74.0057C125.779 74.0057 125.181 73.6489 124.755 73.0608C124.254 72.3675 123.836 71.1141 123.836 69.118H121.532H119.228C119.228 71.6479 119.74 73.9905 121.021 75.7617C122.378 77.6381 124.415 78.6143 126.802 78.6143V76.31ZM121.532 69.118H123.836V42.83H121.532H119.228V69.118H121.532ZM121.532 42.83H123.836C123.836 40.9305 124.317 39.8352 124.88 39.2274C125.418 38.6471 126.33 38.1903 127.918 38.1903V35.886V33.5817C125.414 33.5817 123.133 34.3339 121.501 36.0941C119.894 37.8268 119.228 40.2035 119.228 42.83H121.532ZM127.918 35.886V38.1903H140.256V35.886V33.5817H127.918V35.886ZM140.256 35.886V38.1903C145.543 38.1903 149.091 39.2916 151.282 41.0531C153.382 42.7415 154.568 45.307 154.568 49.092H156.872H159.176C159.176 44.259 157.603 40.2215 154.17 37.4614C150.827 34.7744 146.067 33.5817 140.256 33.5817V35.886ZM156.872 49.092H154.568C154.568 51.3898 154.023 53.2735 153.061 54.7432C152.105 56.2029 150.654 57.385 148.614 58.1598L149.432 60.314L150.25 62.4682C153.108 61.383 155.377 59.6201 156.917 57.2668C158.451 54.9235 159.176 52.1262 159.176 49.092H156.872ZM149.432 60.314L148.799 58.0984L147.497 58.4704L148.13 60.686L148.763 62.9016L150.065 62.5296L149.432 60.314ZM148.13 60.686L146.338 62.135L155.514 73.481L157.306 72.032L159.098 70.583L149.922 59.237L148.13 60.686ZM157.306 72.032L155.463 73.4146C155.12 72.9572 155.058 72.5047 155.046 72.2974C155.032 72.0717 155.064 71.9115 155.078 71.8496C155.106 71.724 155.132 71.7047 155.082 71.7953C154.992 71.9589 154.769 72.2709 154.371 72.6157C153.607 73.2779 152.261 74.0057 150.176 74.0057V76.31V78.6143C153.423 78.6143 155.828 77.4511 157.389 76.0983C158.154 75.4356 158.737 74.7091 159.116 74.024C159.3 73.6903 159.476 73.2943 159.573 72.8669C159.621 72.6541 159.666 72.3617 159.646 72.0262C159.627 71.709 159.539 71.1688 159.15 70.6494L157.306 72.032ZM150.176 76.31V74.0057C148.632 74.0057 147.661 73.6826 146.828 73.117C145.909 72.4932 144.989 71.4635 143.75 69.7099L141.868 71.04L139.987 72.3701C141.289 74.2125 142.601 75.8178 144.24 76.93C145.964 78.1004 147.876 78.6143 150.176 78.6143V76.31ZM141.868 71.04L143.691 69.6303L137.553 61.6943L135.73 63.104L133.907 64.5137L140.045 72.4497L141.868 71.04ZM135.73 63.104V60.7997H133.994V63.104V65.4083H135.73V63.104ZM133.994 63.104H131.69V70.544H133.994H136.298V63.104H133.994ZM133.994 70.544H131.69C131.69 72.0487 131.314 72.8398 130.933 73.2469C130.576 73.6284 129.902 74.0057 128.538 74.0057V76.31V78.6143C130.771 78.6143 132.825 77.9686 134.296 76.3971C135.744 74.8512 136.298 72.7593 136.298 70.544H133.994ZM128.538 76.31V74.0057H126.802V76.31V78.6143H128.538V76.31ZM133.808 54.734V57.0383H138.892V54.734V52.4297H133.808V54.734ZM138.892 54.734V57.0383C141.073 57.0383 143.089 56.5328 144.586 55.2353C146.137 53.8914 146.776 52.0083 146.776 50.022H144.472H142.168C142.168 51.0117 141.877 51.4846 141.568 51.7527C141.205 52.0672 140.432 52.4297 138.892 52.4297V54.734ZM144.472 50.022H146.776C146.776 48.019 146.179 46.1024 144.585 44.7478C143.065 43.4557 141.017 43.0057 138.83 43.0057V45.31V47.6143C140.487 47.6143 141.26 47.9703 141.6 48.2592C141.867 48.4856 142.168 48.925 142.168 50.022H144.472ZM138.83 45.31V43.0057H133.808V45.31V47.6143H138.83V45.31ZM133.808 45.31H131.504V54.734H133.808H136.112V45.31H133.808ZM183.437 76.868V74.5637C177.822 74.5637 173.152 72.5973 169.892 69.3651C166.634 66.1341 164.661 61.5151 164.661 55.974H162.357H160.052C160.052 62.6469 162.45 68.4749 166.647 72.6374C170.844 76.7987 176.714 79.1723 183.437 79.1723V76.868ZM162.357 55.974H164.661C164.661 45.0506 172.477 37.3223 183.437 37.3223V35.018V32.7137C169.968 32.7137 160.052 42.4694 160.052 55.974H162.357ZM183.437 35.018V37.3223C189.052 37.3223 193.722 39.2887 196.981 42.5209C200.239 45.7519 202.212 50.3709 202.212 55.912H204.517H206.821C206.821 49.2391 204.423 43.4111 200.226 39.2486C196.03 35.0873 190.16 32.7137 183.437 32.7137V35.018ZM204.517 55.912H202.212C202.212 66.8973 194.458 74.5637 183.437 74.5637V76.868V79.1723C196.967 79.1723 206.821 69.4787 206.821 55.912H204.517ZM183.437 65.77V68.0743C186.687 68.0743 189.535 66.8848 191.551 64.6455C193.545 62.4304 194.545 59.3902 194.545 55.974H192.241H189.936C189.936 58.5098 189.201 60.3676 188.125 61.5625C187.072 62.7332 185.518 63.4657 183.437 63.4657V65.77ZM192.241 55.974H194.545C194.545 52.5235 193.528 49.4474 191.541 47.2012C189.532 44.9295 186.686 43.6877 183.437 43.6877V45.992V48.2963C185.457 48.2963 187.014 49.0385 188.089 50.2543C189.187 51.4956 189.936 53.4105 189.936 55.974H192.241ZM183.437 45.992V43.6877C180.196 43.6877 177.342 44.8549 175.319 47.1126C173.32 49.3439 172.328 52.419 172.328 55.912H174.633H176.937C176.937 53.267 177.681 51.3821 178.751 50.1878C179.798 49.0201 181.345 48.2963 183.437 48.2963V45.992ZM174.633 55.912H172.328C172.328 59.364 173.347 62.418 175.346 64.6381C177.365 66.8805 180.211 68.0743 183.437 68.0743V65.77V63.4657C181.393 63.4657 179.836 62.7375 178.771 61.5544C177.685 60.349 176.937 58.474 176.937 55.912H174.633Z" fill="white" mask="url(#path-12-outside-1_1_1622)"/>
<path d="M5.06 18.0403C2.42 18.0403 0.76 16.2203 0.76 13.9003C0.76 10.7003 3.24 8.04033 6.32 8.04033C8.9 8.04033 10.04 9.90033 9.8 11.3403C9.68 12.1003 9.16 12.5803 8.56 12.5803C8.02 12.5603 7.64 12.2203 7.72 11.5203C7.82 10.5003 7.54 8.98033 5.82 8.98033C3.88 8.98033 2.66 11.1603 2.66 13.2603C2.66 15.2003 3.82 16.6003 5.74 16.6003C7.14 16.6003 8.18 16.0603 9 15.3003C9.42 14.9403 9.76 15.1803 9.52 15.6603C8.98 16.6603 7.28 18.0403 5.06 18.0403ZM15.4092 18.0403C12.8892 18.0403 11.1892 16.3403 11.1892 13.9803C11.1892 10.8203 13.8292 8.04033 16.9692 8.04033C19.5892 8.04033 21.0692 9.88033 21.0692 12.0003C21.0692 15.3403 18.5692 18.0403 15.4092 18.0403ZM15.7092 17.1203C17.8292 17.1203 19.0092 14.5203 19.0092 12.2003C19.0092 10.5003 18.4492 8.94033 16.7092 8.94033C14.4092 8.94033 13.1692 11.5603 13.1492 13.7003C13.1692 15.5803 13.8892 17.1203 15.7092 17.1203ZM33.0364 16.1003C33.1564 16.1003 33.2564 16.2003 33.2364 16.3803C33.1564 17.1203 32.3564 17.9803 31.3164 17.9803C30.2364 17.9803 29.9364 17.1803 30.0164 16.0203L30.2564 11.5803C30.3164 10.3003 29.9764 9.42033 28.8764 9.42033C27.2564 9.42033 25.5764 11.9403 25.0364 15.1003L24.6564 17.2803C24.6164 17.5403 24.4964 17.6603 24.2764 17.7203L23.2564 17.9803C22.9764 18.0603 22.7964 17.9003 22.8364 17.5803L23.8364 10.6603C23.9964 9.56033 23.1564 9.76033 23.1564 9.28033C23.1564 9.00033 23.3364 8.86033 24.2764 8.44033C24.9164 8.16033 25.2164 8.12033 25.4764 8.12033C25.7564 8.12033 25.8964 8.28033 25.8564 8.56033L25.4564 11.2403C26.4964 9.30033 27.9964 8.10033 29.6964 8.10033C31.3564 8.10033 32.1964 9.26033 32.0764 11.4603L31.8364 15.9203C31.8164 16.3403 31.8164 16.6603 32.1564 16.6603C32.5364 16.6603 32.7964 16.1003 33.0364 16.1003ZM45.1225 16.1003C45.2425 16.1003 45.3425 16.2003 45.3225 16.3803C45.2425 17.1203 44.4425 17.9803 43.4025 17.9803C42.3225 17.9803 42.0225 17.1803 42.1025 16.0203L42.3425 11.5803C42.4025 10.3003 42.0625 9.42033 40.9625 9.42033C39.3425 9.42033 37.6225 11.9403 37.1225 15.1003L36.7425 17.4403C36.7025 17.6603 36.4825 17.8003 36.3025 17.8403L35.4025 18.0403C35.0425 18.1203 34.8425 17.8603 34.9025 17.5603L36.6025 6.06033C36.7425 5.06033 35.8625 5.20033 35.8625 4.74033C35.8625 4.52033 36.0225 4.32033 36.9825 3.96033C37.7425 3.66033 38.0625 3.62033 38.3225 3.62033C38.6025 3.62033 38.7625 3.78033 38.7025 4.08033L37.6025 11.1803C38.6425 9.28033 40.1225 8.10033 41.7825 8.10033C43.4425 8.10033 44.2825 9.26033 44.1625 11.4603L43.9225 15.9203C43.9025 16.3403 43.9025 16.6603 44.2425 16.6603C44.6225 16.6603 44.8825 16.1003 45.1225 16.1003ZM54.7138 15.1803C55.0938 14.8403 55.5138 15.0403 55.2338 15.5403C54.6938 16.5403 52.9938 18.0403 50.7738 18.0403C48.7138 18.0403 46.8338 16.6803 46.8338 13.9403C46.8338 11.3603 49.0538 8.04033 52.6938 8.04033C54.2738 8.04033 55.5738 8.84033 55.5738 10.3203C55.5738 12.8203 52.5138 14.1403 48.8938 14.6603C49.1938 15.8203 50.1738 16.6803 51.4738 16.6803C52.8338 16.6803 53.8938 15.9403 54.7138 15.1803ZM52.0538 8.98033C50.3138 8.98033 48.7538 10.8603 48.7538 13.2803C48.7538 13.5403 48.8738 13.7803 49.3738 13.7003C51.9338 13.3003 53.7738 12.2203 53.7738 10.6203C53.7738 9.66033 53.0738 8.98033 52.0538 8.98033ZM64.7905 12.5803C64.2505 12.5603 63.8705 12.2203 63.9505 11.5203C64.0505 10.5003 63.7705 8.98033 62.0505 8.98033C60.1105 8.98033 58.8905 11.1603 58.8905 13.2603C58.8905 15.2003 60.0505 16.6003 61.9705 16.6003C63.3705 16.6003 64.4105 16.0603 65.2305 15.3003C65.6505 14.9403 65.9905 15.1803 65.7505 15.6603C65.2105 16.6603 63.5305 18.0203 61.3305 18.0403L60.8705 18.9003C61.8905 19.0803 62.7305 19.5203 62.7305 20.4803C62.7305 21.4203 61.8905 22.0603 60.8905 22.0603C60.0305 22.0603 59.5305 21.7403 59.2705 21.4203C59.0905 21.2003 59.3105 20.9203 59.5905 21.1003C59.8705 21.2603 60.1705 21.4403 60.6705 21.4403C61.2905 21.4403 61.5905 21.0403 61.5905 20.6003C61.5905 19.9403 60.8905 19.6803 60.2305 19.5203C60.0305 19.4803 59.8905 19.3603 59.9905 19.1803L60.6305 18.0003C58.3705 17.7203 56.9905 16.0203 56.9905 13.9003C56.9905 10.7003 59.4705 8.04033 62.5505 8.04033C65.1305 8.04033 66.2705 9.90033 66.0305 11.3403C65.9105 12.1003 65.3905 12.5803 64.7905 12.5803ZM77.8331 16.1003C77.9531 16.1003 78.0531 16.2003 78.0331 16.3803C77.9331 17.1203 77.1331 17.9803 76.1131 17.9803C75.2731 17.9803 74.5931 17.6603 74.7731 15.6203C73.9731 16.9203 72.5931 18.0403 70.9131 18.0403C69.1531 18.0403 67.6531 16.8203 67.6531 14.4803C67.6531 11.1003 69.8931 8.04033 72.8531 8.04033C73.7731 8.04033 74.6531 8.46033 75.1531 8.46033C75.7931 8.46033 76.1931 8.04033 76.6131 8.04033C76.9931 8.04033 77.0731 8.32033 77.0331 8.86033L76.6131 15.9203C76.5931 16.3403 76.6131 16.6603 76.9731 16.6603C77.3131 16.6603 77.5731 16.1003 77.8331 16.1003ZM71.7331 16.6603C73.3731 16.6603 74.8931 14.6403 75.0531 12.0603L75.0931 11.4803C75.2131 9.82033 74.0731 8.92033 72.8131 8.92033C70.6731 8.92033 69.5731 11.7403 69.5531 13.7403C69.5531 16.0603 70.7731 16.6603 71.7331 16.6603ZM87.9288 18.0403C85.4088 18.0403 83.7088 16.3403 83.7088 13.9803C83.7088 10.8203 86.3488 8.04033 89.4888 8.04033C92.1088 8.04033 93.5888 9.88033 93.5888 12.0003C93.5888 15.3403 91.0888 18.0403 87.9288 18.0403ZM88.2288 17.1203C90.3488 17.1203 91.5288 14.5203 91.5288 12.2003C91.5288 10.5003 90.9688 8.94033 89.2288 8.94033C86.9288 8.94033 85.6888 11.5603 85.6688 13.7003C85.6888 15.5803 86.4088 17.1203 88.2288 17.1203Z" fill="#1A1A1A"/>
</svg>
