<svg width="453" height="316" viewBox="0 0 453 316" fill="none" xmlns="http://www.w3.org/2000/svg">
<rect x="230.892" y="163" width="220" height="152" rx="15" fill="#97E191" stroke="#1A1A1A" stroke-width="2"/>
<path d="M363.486 201H349V215.396L331.083 224.842V201H315.901L341.938 180.625L363.486 201Z" fill="#1463CC" stroke="#1A1A1A" stroke-width="2"/>
<path d="M348.5 241H331V233.084L348.5 223.212V241Z" fill="#1463CC" stroke="#1A1A1A" stroke-width="2"/>
<path d="M287.438 262.56C287.438 258.62 289.998 255.84 293.778 255.84C295.618 255.84 296.918 256.48 297.678 257.18C298.238 257.66 298.538 258.24 298.538 258.6C298.538 259.36 297.658 259.52 297.598 259.46C296.938 258.08 295.458 257.16 293.758 257.16C290.938 257.16 288.998 259.34 288.998 262.54C288.998 265.7 290.958 267.9 293.798 267.9C295.858 267.9 297.238 266.74 297.718 265.32C297.758 265.26 298.718 265.4 298.718 266.16C298.718 266.56 298.398 267.24 297.738 267.84C296.958 268.56 295.578 269.22 293.738 269.22C289.958 269.22 287.438 266.48 287.438 262.56ZM304.51 259.24C305.37 259.24 305.93 259.66 305.93 260.28C305.93 260.86 305.53 261.1 305.49 261.06C305.25 260.82 304.87 260.66 304.35 260.66C302.79 260.66 302.07 262.2 302.07 264.6V268.38C302.07 268.88 301.81 269.06 301.45 269.06H301.29C300.89 269.06 300.63 268.9 300.63 268.38V259.54C300.63 259.5 300.85 259.38 301.15 259.38C301.55 259.38 301.91 259.58 301.99 260.34C302.01 260.68 302.03 261.02 302.03 261.38C302.41 259.94 303.29 259.24 304.51 259.24ZM306.416 264.28C306.416 261.38 308.396 259.24 311.136 259.24C313.796 259.24 315.516 261.12 315.516 263.94V264.08C315.516 264.42 315.376 264.54 315.016 264.54H307.796C307.796 264.62 307.796 264.72 307.816 264.82C307.996 266.74 309.376 268.02 311.296 268.02C313.076 268.02 313.916 267.18 314.396 266.26C314.476 266.22 315.216 266.38 315.216 267.02C315.216 267.32 314.976 267.78 314.456 268.2C313.856 268.72 312.756 269.22 311.276 269.22C308.376 269.22 306.416 267.2 306.416 264.28ZM314.096 263.5C314.016 261.64 312.876 260.4 311.136 260.4C309.396 260.4 308.096 261.68 307.836 263.5H314.096ZM317.326 268.22C316.926 267.88 316.746 267.56 316.746 267.26C316.746 266.76 317.306 266.54 317.366 266.56C317.966 267.42 319.046 268.06 320.606 268.06C322.106 268.06 322.986 267.42 322.986 266.48C322.986 265.36 321.946 265.14 320.326 264.78C318.866 264.48 317.026 264.06 317.026 262.12C317.026 260.42 318.446 259.24 320.646 259.24C322.186 259.24 323.226 259.74 323.766 260.32C323.986 260.54 324.126 260.84 324.126 261.08C324.126 261.58 323.546 261.84 323.506 261.8C322.986 261 321.946 260.38 320.666 260.38C319.206 260.38 318.366 261.04 318.366 261.96C318.366 263 319.366 263.24 320.946 263.6C322.506 263.94 324.386 264.36 324.386 266.32C324.386 268.06 322.926 269.22 320.586 269.22C319.026 269.22 317.946 268.76 317.326 268.22ZM325.772 264.2C325.772 261.34 327.772 259.24 330.592 259.24C332.092 259.24 333.132 259.78 333.772 260.4C334.312 260.9 334.552 261.48 334.552 261.84C334.552 262.48 333.692 262.6 333.632 262.52C333.212 261.42 332.352 260.48 330.612 260.48C328.612 260.48 327.192 262.04 327.192 264.2C327.192 266.4 328.592 267.98 330.612 267.98C332.332 267.98 333.212 267.04 333.632 265.94C333.672 265.86 334.552 265.96 334.552 266.64C334.552 266.96 334.312 267.52 333.772 268.04C333.152 268.7 332.092 269.22 330.572 269.22C327.772 269.22 325.772 267.12 325.772 264.2ZM336.37 256.46C336.37 255.86 336.71 255.54 337.29 255.54C337.87 255.54 338.21 255.86 338.21 256.46C338.21 257.04 337.85 257.36 337.27 257.36C336.71 257.36 336.37 257.04 336.37 256.46ZM336.55 268.38V260.08C336.55 259.56 336.81 259.38 337.19 259.38H337.35C337.73 259.38 337.99 259.54 337.99 260.08V268.38C337.99 268.9 337.73 269.06 337.35 269.06H337.19C336.81 269.06 336.55 268.9 336.55 268.38ZM351.569 259.24C353.909 259.24 355.109 260.74 355.109 263.26V268.38C355.109 268.9 354.849 269.06 354.469 269.06H354.309C353.929 269.06 353.669 268.9 353.669 268.38V263.38C353.669 261.54 352.849 260.52 351.269 260.52C350.149 260.52 349.069 261.24 348.609 262.42V268.38C348.609 268.9 348.329 269.06 347.969 269.06H347.809C347.429 269.06 347.169 268.9 347.169 268.38V263.26C347.169 261.52 346.369 260.52 344.769 260.52C343.669 260.52 342.589 261.24 342.089 262.42V268.38C342.089 268.9 341.829 269.06 341.469 269.06H341.289C340.929 269.06 340.649 268.9 340.649 268.38V259.54C340.649 259.5 340.889 259.38 341.169 259.38C341.609 259.38 342.009 259.6 342.049 260.56L342.069 261.04C342.689 259.98 343.769 259.24 345.089 259.24C346.709 259.24 347.789 260.06 348.249 261.36C348.829 260.12 349.989 259.24 351.569 259.24ZM356.983 264.28C356.983 261.38 358.963 259.24 361.703 259.24C364.363 259.24 366.083 261.12 366.083 263.94V264.08C366.083 264.42 365.943 264.54 365.583 264.54H358.363C358.363 264.62 358.363 264.72 358.383 264.82C358.563 266.74 359.943 268.02 361.863 268.02C363.643 268.02 364.483 267.18 364.963 266.26C365.043 266.22 365.783 266.38 365.783 267.02C365.783 267.32 365.543 267.78 365.023 268.2C364.423 268.72 363.323 269.22 361.843 269.22C358.943 269.22 356.983 267.2 356.983 264.28ZM364.663 263.5C364.583 261.64 363.443 260.4 361.703 260.4C359.963 260.4 358.663 261.68 358.403 263.5H364.663ZM372.712 259.24C375.172 259.24 376.372 260.94 376.372 263.38V268.38C376.372 268.9 376.112 269.06 375.752 269.06H375.572C375.192 269.06 374.932 268.9 374.932 268.38V263.5C374.932 261.66 374.052 260.52 372.432 260.52C371.032 260.52 369.992 261.3 369.472 262.44V268.38C369.472 268.9 369.212 269.06 368.852 269.06H368.672C368.292 269.06 368.032 268.9 368.032 268.38V259.54C368.032 259.5 368.272 259.38 368.552 259.38C368.992 259.38 369.392 259.6 369.432 260.58V261.14C370.072 260 371.192 259.24 372.712 259.24ZM382.092 269.22C380.332 269.22 379.472 268.24 379.472 266.22V260.68H378.532C378.072 260.68 377.912 260.48 377.912 260.14V260C377.912 259.66 378.072 259.46 378.532 259.46H379.472V257.78C379.472 257.28 379.732 257.08 380.112 257.08H380.272C380.652 257.08 380.892 257.26 380.892 257.78V259.46H383.312C383.752 259.46 383.932 259.64 383.932 260V260.12C383.932 260.48 383.752 260.68 383.292 260.68H380.872V266C380.872 267.4 381.292 268 382.292 268C382.932 268 383.412 267.7 383.712 267.26C383.772 267.22 384.112 267.42 384.112 267.92C384.112 268.16 384.012 268.42 383.752 268.66C383.412 268.98 382.872 269.22 382.092 269.22ZM385.108 264.22C385.108 261.32 387.108 259.24 389.968 259.24C392.788 259.24 394.788 261.34 394.788 264.26C394.788 267.14 392.788 269.22 389.948 269.22C387.088 269.22 385.108 267.12 385.108 264.22ZM393.388 264.26C393.388 262.06 391.968 260.46 389.968 260.46C387.968 260.46 386.508 262.02 386.508 264.22C386.508 266.42 387.968 268 389.968 268C391.948 268 393.388 266.44 393.388 264.26ZM304.62 293.22C304.22 292.88 304.04 292.56 304.04 292.26C304.04 291.76 304.6 291.54 304.66 291.56C305.26 292.42 306.34 293.06 307.9 293.06C309.4 293.06 310.28 292.42 310.28 291.48C310.28 290.36 309.24 290.14 307.62 289.78C306.16 289.48 304.32 289.06 304.32 287.12C304.32 285.42 305.74 284.24 307.94 284.24C309.48 284.24 310.52 284.74 311.06 285.32C311.28 285.54 311.42 285.84 311.42 286.08C311.42 286.58 310.84 286.84 310.8 286.8C310.28 286 309.24 285.38 307.96 285.38C306.5 285.38 305.66 286.04 305.66 286.96C305.66 288 306.66 288.24 308.24 288.6C309.8 288.94 311.68 289.36 311.68 291.32C311.68 293.06 310.22 294.22 307.88 294.22C306.32 294.22 305.24 293.76 304.62 293.22ZM313.067 291.54C313.067 289.38 315.107 288.46 319.607 288.4H319.827V288C319.827 286.38 318.887 285.48 317.247 285.48C315.727 285.48 314.807 286.22 314.327 287.18C314.287 287.2 313.447 287.16 313.447 286.44C313.447 286.16 313.647 285.74 314.027 285.38C314.647 284.78 315.747 284.24 317.327 284.24C319.867 284.24 321.247 285.66 321.247 288.02V293.92C321.247 293.98 320.987 294.08 320.727 294.08C320.307 294.08 319.967 293.88 319.887 293.16C319.867 292.88 319.847 292.58 319.847 292.28C319.207 293.44 317.907 294.2 316.307 294.2C314.307 294.2 313.067 293.16 313.067 291.54ZM319.827 290.26V289.34L319.487 289.36C316.007 289.44 314.507 290.04 314.507 291.5C314.507 292.5 315.307 293.12 316.587 293.12C318.427 293.12 319.827 291.88 319.827 290.26ZM331.345 284.38C331.725 284.38 331.985 284.54 331.985 285.06V293.92C331.985 293.96 331.745 294.08 331.465 294.08C331.065 294.08 330.705 293.88 330.625 293.14C330.605 292.88 330.585 292.62 330.585 292.36C329.945 293.42 328.845 294.22 327.305 294.22C324.845 294.22 323.645 292.52 323.645 290.06V285.06C323.645 284.54 323.905 284.38 324.285 284.38H324.445C324.825 284.38 325.085 284.54 325.085 285.06V289.96C325.085 291.8 325.985 292.94 327.605 292.94C328.985 292.94 330.025 292.16 330.545 291V285.06C330.545 284.54 330.805 284.38 331.165 284.38H331.345ZM338.346 294.22C335.826 294.22 333.946 292.22 333.946 289.22C333.946 286.26 335.826 284.24 338.386 284.24C340.086 284.24 341.286 285.1 341.826 286.08V280.52C341.826 280.46 342.046 280.36 342.326 280.36C342.806 280.36 343.266 280.6 343.266 281.64V293.38C343.266 293.9 343.006 294.06 342.626 294.06H342.486C342.126 294.06 341.866 293.9 341.866 293.42C341.846 293.02 341.846 292.62 341.846 292.18C341.166 293.4 340.026 294.22 338.346 294.22ZM341.826 289.88V287.74C341.306 286.36 340.246 285.46 338.626 285.46C336.706 285.46 335.386 286.96 335.386 289.22C335.386 291.44 336.726 293 338.606 293C340.386 293 341.826 291.66 341.826 289.88ZM348.115 283.02C347.975 283.02 347.935 282.98 347.935 282.94C347.935 282.74 349.795 279.72 350.975 279.72C351.335 279.72 351.595 280 351.595 280.36C351.595 281.5 348.315 283.02 348.115 283.02ZM345.235 291.54C345.235 289.38 347.275 288.46 351.775 288.4H351.995V288C351.995 286.38 351.055 285.48 349.415 285.48C347.895 285.48 346.975 286.22 346.495 287.18C346.455 287.2 345.615 287.16 345.615 286.44C345.615 286.16 345.815 285.74 346.195 285.38C346.815 284.78 347.915 284.24 349.495 284.24C352.035 284.24 353.415 285.66 353.415 288.02V293.92C353.415 293.98 353.155 294.08 352.895 294.08C352.475 294.08 352.135 293.88 352.055 293.16C352.035 292.88 352.015 292.58 352.015 292.28C351.375 293.44 350.075 294.2 348.475 294.2C346.475 294.2 345.235 293.16 345.235 291.54ZM351.995 290.26V289.34L351.655 289.36C348.175 289.44 346.675 290.04 346.675 291.5C346.675 292.5 347.475 293.12 348.755 293.12C350.595 293.12 351.995 291.88 351.995 290.26ZM358.257 293.64L354.757 284.8C354.757 284.68 355.097 284.36 355.517 284.36C355.897 284.38 356.217 284.58 356.457 285.26L359.197 292.72L361.957 285.26C362.197 284.56 362.557 284.36 362.897 284.38C363.317 284.4 363.617 284.68 363.617 284.8L360.117 293.6C359.997 293.96 359.717 294.1 359.177 294.1C358.637 294.1 358.397 293.98 358.257 293.64ZM364.551 289.28C364.551 286.38 366.531 284.24 369.271 284.24C371.931 284.24 373.651 286.12 373.651 288.94V289.08C373.651 289.42 373.511 289.54 373.151 289.54H365.931C365.931 289.62 365.931 289.72 365.951 289.82C366.131 291.74 367.511 293.02 369.431 293.02C371.211 293.02 372.051 292.18 372.531 291.26C372.611 291.22 373.351 291.38 373.351 292.02C373.351 292.32 373.111 292.78 372.591 293.2C371.991 293.72 370.891 294.22 369.411 294.22C366.511 294.22 364.551 292.2 364.551 289.28ZM372.231 288.5C372.151 286.64 371.011 285.4 369.271 285.4C367.531 285.4 366.231 286.68 365.971 288.5H372.231ZM376.34 294.06C375.96 294.06 375.7 293.9 375.7 293.38V280.52C375.7 280.46 375.94 280.36 376.22 280.36C376.68 280.36 377.14 280.6 377.14 281.64V293.38C377.14 293.9 376.88 294.06 376.5 294.06H376.34Z" fill="#1A1A1A"/>
<rect x="1" y="163" width="220" height="152" rx="15" fill="#97E191" stroke="#1A1A1A" stroke-width="2"/>
<path d="M110.953 179.113C111.159 179.267 111.439 179.502 111.79 179.826C112.526 180.506 113.511 181.517 114.661 182.807C116.96 185.383 119.885 189.035 122.762 193.309C128.544 201.9 134 212.814 134 222.5C134 232.283 124.394 241 110.974 241C97.5091 241 87.5 232.747 87.5 222.5C87.5 211.812 93.0714 200.897 98.9492 192.577C101.877 188.434 104.853 184.972 107.189 182.554C108.359 181.344 109.358 180.404 110.104 179.773C110.46 179.473 110.744 179.255 110.953 179.113Z" fill="#1463CC" stroke="#1A1A1A" stroke-width="2"/>
<line x1="102" y1="214" x2="119" y2="214" stroke="#1A1A1A" stroke-width="2" stroke-linecap="round"/>
<line x1="111" y1="206" x2="111" y2="223" stroke="#1A1A1A" stroke-width="2" stroke-linecap="round"/>
<path d="M50.127 268.38V256.86C50.127 256.34 50.487 256 51.027 256H51.427C52.067 256 52.227 256.24 52.487 256.84L55.987 264.16L59.487 256.84C59.727 256.22 59.927 256 60.507 256H60.887C61.467 256 61.807 256.34 61.807 256.86V268.38C61.807 268.82 61.627 269.06 61.187 269.06H61.007C60.587 269.06 60.387 268.82 60.387 268.38V264.86L60.407 257.82L56.987 264.98C56.807 265.42 56.607 265.7 55.967 265.7C55.287 265.7 55.127 265.42 54.927 264.98L51.527 257.84L51.547 264.82V268.38C51.547 268.82 51.367 269.06 50.927 269.06H50.707C50.287 269.06 50.127 268.82 50.127 268.38ZM63.9759 266.54C63.9759 264.38 66.0159 263.46 70.5159 263.4H70.7359V263C70.7359 261.38 69.7959 260.48 68.1559 260.48C66.6359 260.48 65.7159 261.22 65.2359 262.18C65.1959 262.2 64.3559 262.16 64.3559 261.44C64.3559 261.16 64.5559 260.74 64.9359 260.38C65.5559 259.78 66.6559 259.24 68.2359 259.24C70.7759 259.24 72.1559 260.66 72.1559 263.02V268.92C72.1559 268.98 71.8959 269.08 71.6359 269.08C71.2159 269.08 70.8759 268.88 70.7959 268.16C70.7759 267.88 70.7559 267.58 70.7559 267.28C70.1159 268.44 68.8159 269.2 67.2159 269.2C65.2159 269.2 63.9759 268.16 63.9759 266.54ZM70.7359 265.26V264.34L70.3959 264.36C66.9159 264.44 65.4159 265.04 65.4159 266.5C65.4159 267.5 66.2159 268.12 67.4959 268.12C69.3359 268.12 70.7359 266.88 70.7359 265.26ZM74.5545 256.46C74.5545 255.86 74.8945 255.54 75.4745 255.54C76.0545 255.54 76.3945 255.86 76.3945 256.46C76.3945 257.04 76.0345 257.36 75.4545 257.36C74.8945 257.36 74.5545 257.04 74.5545 256.46ZM74.7345 268.38V260.08C74.7345 259.56 74.9945 259.38 75.3745 259.38H75.5345C75.9145 259.38 76.1745 259.54 76.1745 260.08V268.38C76.1745 268.9 75.9145 269.06 75.5345 269.06H75.3745C74.9945 269.06 74.7345 268.9 74.7345 268.38ZM78.6937 268.22C78.2937 267.88 78.1137 267.56 78.1137 267.26C78.1137 266.76 78.6737 266.54 78.7337 266.56C79.3337 267.42 80.4137 268.06 81.9737 268.06C83.4737 268.06 84.3537 267.42 84.3537 266.48C84.3537 265.36 83.3137 265.14 81.6937 264.78C80.2337 264.48 78.3937 264.06 78.3937 262.12C78.3937 260.42 79.8137 259.24 82.0137 259.24C83.5537 259.24 84.5937 259.74 85.1337 260.32C85.3537 260.54 85.4937 260.84 85.4937 261.08C85.4937 261.58 84.9137 261.84 84.8737 261.8C84.3537 261 83.3137 260.38 82.0337 260.38C80.5737 260.38 79.7337 261.04 79.7337 261.96C79.7337 263 80.7337 263.24 82.3137 263.6C83.8737 263.94 85.7537 264.36 85.7537 266.32C85.7537 268.06 84.2937 269.22 81.9537 269.22C80.3937 269.22 79.3137 268.76 78.6937 268.22ZM91.0179 268.22C90.6179 267.88 90.4379 267.56 90.4379 267.26C90.4379 266.76 90.9979 266.54 91.0579 266.56C91.6579 267.42 92.7379 268.06 94.2979 268.06C95.7979 268.06 96.6779 267.42 96.6779 266.48C96.6779 265.36 95.6379 265.14 94.0179 264.78C92.5579 264.48 90.7179 264.06 90.7179 262.12C90.7179 260.42 92.1379 259.24 94.3379 259.24C95.8779 259.24 96.9179 259.74 97.4579 260.32C97.6779 260.54 97.8179 260.84 97.8179 261.08C97.8179 261.58 97.2379 261.84 97.1979 261.8C96.6779 261 95.6379 260.38 94.3579 260.38C92.8979 260.38 92.0579 261.04 92.0579 261.96C92.0579 263 93.0579 263.24 94.6379 263.6C96.1979 263.94 98.0779 264.36 98.0779 266.32C98.0779 268.06 96.6179 269.22 94.2779 269.22C92.7179 269.22 91.6379 268.76 91.0179 268.22ZM99.4642 266.54C99.4642 264.38 101.504 263.46 106.004 263.4H106.224V263C106.224 261.38 105.284 260.48 103.644 260.48C102.124 260.48 101.204 261.22 100.724 262.18C100.684 262.2 99.8442 262.16 99.8442 261.44C99.8442 261.16 100.044 260.74 100.424 260.38C101.044 259.78 102.144 259.24 103.724 259.24C106.264 259.24 107.644 260.66 107.644 263.02V268.92C107.644 268.98 107.384 269.08 107.124 269.08C106.704 269.08 106.364 268.88 106.284 268.16C106.264 267.88 106.244 267.58 106.244 267.28C105.604 268.44 104.304 269.2 102.704 269.2C100.704 269.2 99.4642 268.16 99.4642 266.54ZM106.224 265.26V264.34L105.884 264.36C102.404 264.44 100.904 265.04 100.904 266.5C100.904 267.5 101.704 268.12 102.984 268.12C104.824 268.12 106.224 266.88 106.224 265.26ZM112.823 258.02C112.683 258.02 112.643 257.98 112.643 257.94C112.643 257.74 114.503 254.72 115.683 254.72C116.043 254.72 116.303 255 116.303 255.36C116.303 256.5 113.023 258.02 112.823 258.02ZM117.743 259.38C118.123 259.38 118.383 259.54 118.383 260.06V268.92C118.383 268.96 118.143 269.08 117.863 269.08C117.463 269.08 117.103 268.88 117.023 268.14C117.003 267.88 116.983 267.62 116.983 267.36C116.343 268.42 115.243 269.22 113.703 269.22C111.243 269.22 110.043 267.52 110.043 265.06V260.06C110.043 259.54 110.303 259.38 110.683 259.38H110.843C111.223 259.38 111.483 259.54 111.483 260.06V264.96C111.483 266.8 112.383 267.94 114.003 267.94C115.383 267.94 116.423 267.16 116.943 266V260.06C116.943 259.54 117.203 259.38 117.563 259.38H117.743ZM124.743 269.22C122.223 269.22 120.343 267.22 120.343 264.22C120.343 261.26 122.223 259.24 124.783 259.24C126.483 259.24 127.683 260.1 128.223 261.08V255.52C128.223 255.46 128.443 255.36 128.723 255.36C129.203 255.36 129.663 255.6 129.663 256.64V268.38C129.663 268.9 129.403 269.06 129.023 269.06H128.883C128.523 269.06 128.263 268.9 128.263 268.42C128.243 268.02 128.243 267.62 128.243 267.18C127.563 268.4 126.423 269.22 124.743 269.22ZM128.223 264.88V262.74C127.703 261.36 126.643 260.46 125.023 260.46C123.103 260.46 121.783 261.96 121.783 264.22C121.783 266.44 123.123 268 125.003 268C126.783 268 128.223 266.66 128.223 264.88ZM131.632 264.28C131.632 261.38 133.612 259.24 136.352 259.24C139.012 259.24 140.732 261.12 140.732 263.94V264.08C140.732 264.42 140.592 264.54 140.232 264.54H133.012C133.012 264.62 133.012 264.72 133.032 264.82C133.212 266.74 134.592 268.02 136.512 268.02C138.292 268.02 139.132 267.18 139.612 266.26C139.692 266.22 140.432 266.38 140.432 267.02C140.432 267.32 140.192 267.78 139.672 268.2C139.072 268.72 137.972 269.22 136.492 269.22C133.592 269.22 131.632 267.2 131.632 264.28ZM139.312 263.5C139.232 261.64 138.092 260.4 136.352 260.4C134.612 260.4 133.312 261.68 133.052 263.5H139.312ZM151.019 259.24C153.519 259.24 155.419 261.22 155.419 264.2C155.419 267.18 153.559 269.22 150.979 269.22C149.239 269.22 148.039 268.26 147.539 267.22V272.18C147.539 272.68 147.279 272.86 146.919 272.86H146.759C146.379 272.86 146.119 272.68 146.119 272.18V259.54C146.119 259.5 146.339 259.38 146.619 259.38C147.039 259.38 147.439 259.62 147.499 260.46C147.499 260.7 147.519 261.02 147.519 261.28C148.219 260.04 149.359 259.24 151.019 259.24ZM150.719 268C152.679 268 153.999 266.48 153.999 264.22C153.999 262 152.619 260.46 150.759 260.46C149.159 260.46 148.059 261.38 147.519 262.76V264.88C147.519 266.64 148.959 268 150.719 268ZM161.268 259.24C162.128 259.24 162.688 259.66 162.688 260.28C162.688 260.86 162.288 261.1 162.248 261.06C162.008 260.82 161.628 260.66 161.108 260.66C159.548 260.66 158.828 262.2 158.828 264.6V268.38C158.828 268.88 158.568 269.06 158.208 269.06H158.048C157.648 269.06 157.388 268.9 157.388 268.38V259.54C157.388 259.5 157.608 259.38 157.908 259.38C158.308 259.38 158.668 259.58 158.748 260.34C158.768 260.68 158.788 261.02 158.788 261.38C159.168 259.94 160.048 259.24 161.268 259.24ZM163.175 264.22C163.175 261.32 165.175 259.24 168.035 259.24C170.855 259.24 172.855 261.34 172.855 264.26C172.855 267.14 170.855 269.22 168.015 269.22C165.155 269.22 163.175 267.12 163.175 264.22ZM171.455 264.26C171.455 262.06 170.035 260.46 168.035 260.46C166.035 260.46 164.575 262.02 164.575 264.22C164.575 266.42 166.035 268 168.035 268C170.015 268 171.455 266.44 171.455 264.26ZM82.2191 293.22C81.8191 292.88 81.6391 292.56 81.6391 292.26C81.6391 291.76 82.1991 291.54 82.2591 291.56C82.8591 292.42 83.9391 293.06 85.4991 293.06C86.9991 293.06 87.8791 292.42 87.8791 291.48C87.8791 290.36 86.8391 290.14 85.2191 289.78C83.7591 289.48 81.9191 289.06 81.9191 287.12C81.9191 285.42 83.3391 284.24 85.5391 284.24C87.0791 284.24 88.1191 284.74 88.6591 285.32C88.8791 285.54 89.0191 285.84 89.0191 286.08C89.0191 286.58 88.4391 286.84 88.3991 286.8C87.8791 286 86.8391 285.38 85.5591 285.38C84.0991 285.38 83.2591 286.04 83.2591 286.96C83.2591 288 84.2591 288.24 85.8391 288.6C87.3991 288.94 89.2791 289.36 89.2791 291.32C89.2791 293.06 87.8191 294.22 85.4791 294.22C83.9191 294.22 82.8391 293.76 82.2191 293.22ZM90.6654 291.54C90.6654 289.38 92.7054 288.46 97.2054 288.4H97.4254V288C97.4254 286.38 96.4854 285.48 94.8454 285.48C93.3254 285.48 92.4054 286.22 91.9254 287.18C91.8854 287.2 91.0454 287.16 91.0454 286.44C91.0454 286.16 91.2454 285.74 91.6254 285.38C92.2454 284.78 93.3454 284.24 94.9254 284.24C97.4654 284.24 98.8454 285.66 98.8454 288.02V293.92C98.8454 293.98 98.5854 294.08 98.3254 294.08C97.9054 294.08 97.5654 293.88 97.4854 293.16C97.4654 292.88 97.4454 292.58 97.4454 292.28C96.8054 293.44 95.5054 294.2 93.9054 294.2C91.9054 294.2 90.6654 293.16 90.6654 291.54ZM97.4254 290.26V289.34L97.0854 289.36C93.6054 289.44 92.1054 290.04 92.1054 291.5C92.1054 292.5 92.9054 293.12 94.1854 293.12C96.0254 293.12 97.4254 291.88 97.4254 290.26ZM106.004 284.24C108.464 284.24 109.664 285.94 109.664 288.38V293.38C109.664 293.9 109.404 294.06 109.044 294.06H108.864C108.484 294.06 108.224 293.9 108.224 293.38V288.5C108.224 286.66 107.344 285.52 105.724 285.52C104.324 285.52 103.284 286.3 102.764 287.44V293.38C102.764 293.9 102.504 294.06 102.144 294.06H101.964C101.584 294.06 101.324 293.9 101.324 293.38V284.54C101.324 284.5 101.564 284.38 101.844 284.38C102.284 284.38 102.684 284.6 102.724 285.58V286.14C103.364 285 104.484 284.24 106.004 284.24ZM115.304 298.2C112.324 298.2 110.844 297.32 110.844 295.6C110.844 294.2 112.224 293.22 113.964 292.9C113.624 292.7 113.364 292.4 113.364 291.94C113.364 291.52 113.604 291.16 113.944 290.92C112.484 290.46 111.524 289.26 111.524 287.78C111.524 285.8 113.164 284.24 115.384 284.24C116.224 284.24 117.024 284.48 117.644 284.9L118.364 283.82C118.644 283.34 118.964 283.2 119.304 283.24C119.764 283.3 120.024 283.76 120.004 283.88L118.424 285.56C118.944 286.14 119.284 286.88 119.284 287.72C119.284 289.66 117.644 291.14 115.404 291.14C115.224 291.14 115.064 291.14 114.884 291.12C114.684 291.26 114.644 291.44 114.644 291.64C114.664 292.28 115.624 292.38 117.244 292.78C118.624 293.12 120.104 293.8 120.104 295.34C120.104 297.12 118.344 298.2 115.304 298.2ZM115.384 290.14C116.824 290.14 117.844 289.18 117.844 287.74C117.844 286.32 116.864 285.32 115.364 285.32C113.924 285.32 112.924 286.3 112.924 287.74C112.924 289.18 113.944 290.14 115.384 290.14ZM115.344 297.16C117.444 297.16 118.704 296.56 118.704 295.44C118.704 294.56 117.704 294.16 116.604 293.88C116.204 293.78 115.804 293.7 115.424 293.6C113.724 293.74 112.244 294.46 112.244 295.58C112.244 296.6 113.324 297.16 115.344 297.16ZM128.963 284.38C129.343 284.38 129.603 284.54 129.603 285.06V293.92C129.603 293.96 129.363 294.08 129.083 294.08C128.683 294.08 128.323 293.88 128.243 293.14C128.223 292.88 128.203 292.62 128.203 292.36C127.563 293.42 126.463 294.22 124.923 294.22C122.463 294.22 121.263 292.52 121.263 290.06V285.06C121.263 284.54 121.523 284.38 121.903 284.38H122.063C122.443 284.38 122.703 284.54 122.703 285.06V289.96C122.703 291.8 123.603 292.94 125.223 292.94C126.603 292.94 127.643 292.16 128.163 291V285.06C128.163 284.54 128.423 284.38 128.783 284.38H128.963ZM131.368 289.28C131.368 286.38 133.348 284.24 136.088 284.24C138.748 284.24 140.468 286.12 140.468 288.94V289.08C140.468 289.42 140.328 289.54 139.968 289.54H132.748C132.748 289.62 132.748 289.72 132.768 289.82C132.948 291.74 134.328 293.02 136.248 293.02C138.028 293.02 138.868 292.18 139.348 291.26C139.428 291.22 140.168 291.38 140.168 292.02C140.168 292.32 139.928 292.78 139.408 293.2C138.808 293.72 137.708 294.22 136.228 294.22C133.328 294.22 131.368 292.2 131.368 289.28ZM139.048 288.5C138.968 286.64 137.828 285.4 136.088 285.4C134.348 285.4 133.048 286.68 132.788 288.5H139.048Z" fill="#1A1A1A"/>
<rect x="231.217" y="1" width="220" height="152" rx="15" fill="#1463CC" stroke="#1A1A1A" stroke-width="2"/>
<path d="M269.728 95.28L270.028 104.5C270.068 106.12 271.148 105.84 271.148 106.56C271.148 106.9 270.868 107 270.268 107H268.088C267.408 107 267.088 106.9 267.088 106.56C267.088 105.86 268.228 106.1 268.188 104.5L267.968 95.46L263.268 105.7C263.148 105.92 263.028 106.04 262.728 106.12C262.348 106.2 262.168 106.1 262.088 105.9L257.788 95.6L257.468 104.6C257.408 106.2 258.448 105.92 258.448 106.58C258.448 106.92 258.168 107 257.548 107H256.188C255.628 107 255.308 106.9 255.308 106.58C255.308 105.92 256.408 106.2 256.468 104.6L256.828 95.28C256.888 93.92 255.868 93.92 255.868 93.38C255.868 93.1 256.068 93 256.648 93H258.248C258.508 93 258.688 93.12 258.788 93.38L263.128 103.78L267.868 93.38C267.968 93.12 268.148 93 268.408 93H269.908C270.488 93 270.688 93.1 270.688 93.38C270.688 93.98 269.668 93.78 269.728 95.28ZM282.094 105.76C282.314 105.76 282.494 105.78 282.494 106C282.494 106.5 281.714 107.14 280.814 107.14C279.874 107.14 279.614 106.56 279.434 105.6C278.594 106.64 277.214 107.2 276.054 107.2C273.614 107.2 272.214 105.84 272.214 104.14C272.214 102.22 273.934 100.9 276.374 100.9C277.214 100.9 277.774 100.98 278.534 101.16C278.134 99.56 277.874 98.42 276.134 98.42C274.994 98.42 274.254 98.78 273.414 99.26C273.034 99.5 272.714 99.2 272.974 98.8C273.454 98.1 274.894 97.22 276.714 97.22C278.914 97.22 279.774 98.6 280.154 100.34L281.074 104.68C281.294 105.7 281.714 105.76 282.094 105.76ZM276.514 106.2C277.894 106.2 279.334 105.14 279.174 104.26C279.094 103.8 278.934 103.28 278.754 102.4C278.674 101.92 277.354 101.74 276.734 101.74C274.974 101.74 274.034 102.58 274.054 103.92C274.114 105.22 275.014 106.2 276.514 106.2ZM284.89 95.7C284.35 95.66 283.95 95.26 283.99 94.7C284.03 93.98 284.93 93.14 285.73 93.24C286.27 93.28 286.65 93.78 286.63 94.28C286.57 94.98 285.67 95.76 284.89 95.7ZM284.71 104.36V100.4C284.71 98.66 283.73 99 283.73 98.38C283.73 98.18 283.81 98.08 284.29 97.86C285.19 97.44 285.87 97.22 286.15 97.2C286.41 97.18 286.55 97.28 286.55 97.64L286.53 100.4V104.36C286.53 106.28 287.47 105.92 287.47 106.62C287.47 106.92 287.17 107 286.69 107H284.55C284.07 107 283.75 106.92 283.75 106.6C283.75 105.92 284.71 106.28 284.71 104.36ZM290.553 107.2C290.273 107.2 290.233 107.08 289.993 106.52C289.693 105.72 289.493 105.2 289.253 104.4C289.193 104.12 289.253 103.94 289.473 103.86C289.673 103.78 289.893 103.94 290.153 104.22C291.713 105.9 292.793 106.28 293.873 106.28C294.773 106.28 295.553 105.84 295.553 104.96C295.553 104.1 294.433 103.56 292.813 102.9C291.073 102.22 289.453 101.52 289.453 99.88C289.453 98.06 291.113 97.2 292.633 97.2C293.693 97.2 294.333 97.42 294.853 97.44C295.173 97.46 295.253 97.2 295.513 97.2C295.773 97.2 295.893 97.46 296.133 97.86C296.433 98.42 296.593 98.78 296.753 99.14C296.873 99.46 296.873 99.72 296.673 99.84C296.353 100.02 296.073 99.66 295.393 99.14C294.613 98.56 293.633 98.08 292.693 98.08C291.613 98.08 291.013 98.62 291.013 99.32C291.013 100.2 291.953 100.64 293.793 101.38C295.713 102.14 297.273 102.9 297.273 104.4C297.273 105.88 295.833 107.2 293.633 107.2C292.313 107.2 291.713 106.82 291.313 106.82C290.993 106.82 290.913 107.2 290.553 107.2ZM307.289 107.2C304.469 107.2 302.629 105.12 302.629 102.54C302.629 99.52 304.829 97.22 307.689 97.22C310.169 97.22 311.569 98.88 311.569 100.46C311.569 101.14 311.169 101.54 310.629 101.54C310.009 101.54 309.769 101.06 309.609 100.52C309.229 99.18 308.569 98.18 307.149 98.14C305.409 98.14 304.389 99.58 304.389 101.5C304.389 104.14 305.869 105.86 308.069 105.86C309.389 105.86 310.289 105.2 311.009 104.44C311.349 104.1 311.789 104.3 311.589 104.8C311.169 105.8 309.849 107.2 307.289 107.2ZM317.641 107.2C314.941 107.2 312.941 105.4 312.941 102.56C312.941 99.54 315.121 97.2 318.221 97.2C320.881 97.2 322.821 99.26 322.821 101.96C322.821 104.92 320.701 107.2 317.641 107.2ZM318.261 106.24C319.961 106.24 321.021 104.88 321.021 102.96C321.021 100.46 319.521 98.22 317.521 98.22C315.741 98.22 314.761 99.7 314.761 101.6C314.761 104.22 316.221 106.24 318.261 106.24ZM334.249 101.4L334.869 104.92C335.109 106.16 335.929 106.02 335.929 106.62C335.929 106.92 335.649 107 335.149 107H333.029C332.549 107 332.229 106.92 332.229 106.6C332.229 106.02 333.269 106.16 333.049 104.86L332.469 101.54C332.209 99.96 331.869 98.4 330.049 98.42C328.749 98.44 327.369 99.6 327.369 102.04V104.36C327.369 106.28 328.289 105.92 328.289 106.62C328.289 106.92 328.009 107 327.509 107H325.369C324.909 107 324.569 106.92 324.569 106.6C324.569 105.92 325.549 106.28 325.549 104.36V100.34C325.549 99.66 325.469 99.16 324.929 98.84C324.709 98.7 324.569 98.58 324.569 98.38C324.569 98.16 324.669 98.04 325.149 97.82C325.829 97.5 326.509 97.28 326.789 97.26C327.049 97.26 327.189 97.36 327.189 97.7L327.169 99.4C327.969 97.92 329.369 97.2 330.689 97.2C332.689 97.2 333.729 98.32 334.249 101.4ZM341.371 107.2C338.551 107.2 336.711 105.12 336.711 102.54C336.711 99.52 338.911 97.22 341.771 97.22C344.251 97.22 345.651 98.88 345.651 100.46C345.651 101.14 345.251 101.54 344.711 101.54C344.091 101.54 343.851 101.06 343.691 100.52C343.311 99.18 342.651 98.18 341.231 98.14C339.491 98.14 338.471 99.58 338.471 101.5C338.471 104.14 339.951 105.86 342.151 105.86C343.471 105.86 344.371 105.2 345.091 104.44C345.431 104.1 345.871 104.3 345.671 104.8C345.251 105.8 343.931 107.2 341.371 107.2ZM355.583 104.42C355.923 104.06 356.363 104.28 356.163 104.78C355.743 105.76 354.223 107.2 351.703 107.2C348.903 107.2 347.023 105.18 347.023 102.54C347.023 99.52 349.143 97.2 352.103 97.2C354.283 97.2 355.743 98.46 356.103 100.18C356.183 100.54 356.103 100.82 355.643 101C353.483 101.84 351.363 102.56 349.043 103.32C349.423 104.48 350.563 105.84 352.423 105.84C353.763 105.84 354.863 105.18 355.583 104.42ZM351.483 98.14C349.683 98.16 348.783 99.8 348.783 101.26C348.783 101.76 348.803 102.14 348.903 102.48C350.543 101.94 352.103 101.42 353.563 100.86C353.883 100.74 354.003 100.54 353.943 100.18C353.743 98.94 352.583 98.1 351.483 98.14ZM367.511 101.4L368.131 104.92C368.371 106.16 369.191 106.02 369.191 106.62C369.191 106.92 368.911 107 368.411 107H366.291C365.811 107 365.491 106.92 365.491 106.6C365.491 106.02 366.531 106.16 366.311 104.86L365.731 101.54C365.471 99.96 365.131 98.4 363.311 98.42C362.011 98.44 360.631 99.6 360.631 102.04V104.36C360.631 106.28 361.551 105.92 361.551 106.62C361.551 106.92 361.271 107 360.771 107H358.631C358.171 107 357.831 106.92 357.831 106.6C357.831 105.92 358.811 106.28 358.811 104.36V100.34C358.811 99.66 358.731 99.16 358.191 98.84C357.971 98.7 357.831 98.58 357.831 98.38C357.831 98.16 357.931 98.04 358.411 97.82C359.091 97.5 359.771 97.28 360.051 97.26C360.311 97.26 360.451 97.36 360.451 97.7L360.431 99.4C361.231 97.92 362.631 97.2 363.951 97.2C365.951 97.2 366.991 98.32 367.511 101.4ZM375.452 105.18C375.752 104.9 376.092 105.16 375.952 105.52C375.672 106.2 374.772 107.2 373.272 107.2C371.632 107.2 370.872 106.18 370.872 104.36V103.76C370.872 101.42 370.892 99.56 370.952 98.32H370.192C369.792 98.32 369.632 98.2 369.632 97.92C369.632 97.78 369.652 97.68 369.812 97.5C370.552 96.66 371.292 96.04 371.952 95.54C372.252 95.34 372.352 95.34 372.492 95.34C372.752 95.34 372.832 95.52 372.812 95.82C372.772 96.22 372.752 96.6 372.732 97.4H374.732C375.072 97.4 375.352 97.42 375.252 97.9C375.152 98.4 374.832 98.44 374.492 98.42L372.712 98.36L372.632 103.76C372.592 105.1 372.832 105.84 373.932 105.84C374.472 105.84 375.092 105.5 375.452 105.18ZM382.842 97.2C383.922 97.2 384.402 97.88 384.402 98.58C384.402 99.1 384.062 99.58 383.602 99.6C382.762 99.62 382.802 98.74 381.882 98.74C381.002 98.74 380.162 99.98 380.162 101.74V104.36C380.162 106.28 381.082 105.92 381.082 106.62C381.082 106.92 380.802 107 380.302 107H378.162C377.702 107 377.362 106.92 377.362 106.6C377.362 105.92 378.342 106.28 378.342 104.36V100.34C378.342 99.66 378.262 99.16 377.722 98.84C377.502 98.7 377.362 98.58 377.362 98.38C377.362 98.16 377.462 98.04 377.942 97.82C378.622 97.5 379.302 97.28 379.582 97.26C379.842 97.26 379.982 97.36 379.982 97.7L379.962 99.32C380.582 98.14 381.662 97.2 382.842 97.2ZM394.828 105.76C395.048 105.76 395.228 105.78 395.228 106C395.228 106.5 394.448 107.14 393.548 107.14C392.608 107.14 392.348 106.56 392.168 105.6C391.328 106.64 389.948 107.2 388.788 107.2C386.348 107.2 384.948 105.84 384.948 104.14C384.948 102.22 386.668 100.9 389.108 100.9C389.948 100.9 390.508 100.98 391.268 101.16C390.868 99.56 390.608 98.42 388.868 98.42C387.728 98.42 386.988 98.78 386.148 99.26C385.768 99.5 385.448 99.2 385.708 98.8C386.188 98.1 387.628 97.22 389.448 97.22C391.648 97.22 392.508 98.6 392.888 100.34L393.808 104.68C394.028 105.7 394.448 105.76 394.828 105.76ZM389.248 106.2C390.628 106.2 392.068 105.14 391.908 104.26C391.828 103.8 391.668 103.28 391.488 102.4C391.408 101.92 390.088 101.74 389.468 101.74C387.708 101.74 386.768 102.58 386.788 103.92C386.848 105.22 387.748 106.2 389.248 106.2ZM404.368 104.44C404.708 104.1 405.148 104.3 404.948 104.8C404.548 105.76 403.328 107.08 400.988 107.2L400.548 108.06C401.548 108.24 402.388 108.68 402.388 109.64C402.388 110.58 401.548 111.22 400.548 111.22C399.688 111.22 399.188 110.9 398.928 110.58C398.748 110.36 398.968 110.08 399.248 110.26C399.528 110.42 399.828 110.6 400.328 110.6C400.948 110.6 401.248 110.2 401.248 109.76C401.248 109.1 400.548 108.84 399.888 108.68C399.688 108.64 399.548 108.52 399.648 108.34L400.268 107.18C397.668 107 395.988 105 395.988 102.54C395.988 99.52 398.188 97.22 401.048 97.22C403.528 97.22 404.928 98.88 404.928 100.46C404.928 101.14 404.528 101.54 403.988 101.54C403.368 101.54 403.128 101.06 402.968 100.52C402.588 99.18 401.928 98.18 400.508 98.14C398.768 98.14 397.748 99.58 397.748 101.5C397.748 104.14 399.228 105.86 401.428 105.86C402.748 105.86 403.648 105.2 404.368 104.44ZM408.361 95.92C408.361 96.4 407.781 96.12 407.781 95.38C407.781 94.68 408.281 94.18 409.161 94.18C410.441 94.18 411.741 95.02 412.421 95.02C412.901 95.02 413.121 94.82 413.121 94.44C413.121 93.94 413.701 94.22 413.701 94.96C413.701 95.66 413.181 96.18 412.301 96.18C411.361 96.18 410.061 95.34 409.061 95.34C408.601 95.34 408.361 95.52 408.361 95.92ZM415.981 105.76C416.201 105.76 416.381 105.78 416.381 106C416.381 106.5 415.601 107.14 414.701 107.14C413.761 107.14 413.501 106.56 413.321 105.6C412.481 106.64 411.101 107.2 409.941 107.2C407.501 107.2 406.101 105.84 406.101 104.14C406.101 102.22 407.821 100.9 410.261 100.9C411.101 100.9 411.661 100.98 412.421 101.16C412.021 99.56 411.761 98.42 410.021 98.42C408.881 98.42 408.141 98.78 407.301 99.26C406.921 99.5 406.601 99.2 406.861 98.8C407.341 98.1 408.781 97.22 410.601 97.22C412.801 97.22 413.661 98.6 414.041 100.34L414.961 104.68C415.181 105.7 415.601 105.76 415.981 105.76ZM410.401 106.2C411.781 106.2 413.221 105.14 413.061 104.26C412.981 103.8 412.821 103.28 412.641 102.4C412.561 101.92 411.241 101.74 410.621 101.74C408.861 101.74 407.921 102.58 407.941 103.92C408.001 105.22 408.901 106.2 410.401 106.2ZM421.84 107.2C419.14 107.2 417.14 105.4 417.14 102.56C417.14 99.54 419.32 97.2 422.42 97.2C425.08 97.2 427.02 99.26 427.02 101.96C427.02 104.92 424.9 107.2 421.84 107.2ZM422.46 106.24C424.16 106.24 425.22 104.88 425.22 102.96C425.22 100.46 423.72 98.22 421.72 98.22C419.94 98.22 418.96 99.7 418.96 101.6C418.96 104.22 420.42 106.24 422.46 106.24ZM282.927 130.42C283.267 130.06 283.707 130.28 283.507 130.78C283.087 131.76 281.567 133.2 279.047 133.2C276.247 133.2 274.367 131.18 274.367 128.54C274.367 125.52 276.487 123.2 279.447 123.2C281.627 123.2 283.087 124.46 283.447 126.18C283.527 126.54 283.447 126.82 282.987 127C280.827 127.84 278.707 128.56 276.387 129.32C276.767 130.48 277.907 131.84 279.767 131.84C281.107 131.84 282.207 131.18 282.927 130.42ZM278.827 124.14C277.027 124.16 276.127 125.8 276.127 127.26C276.127 127.76 276.147 128.14 276.247 128.48C277.887 127.94 279.447 127.42 280.907 126.86C281.227 126.74 281.347 126.54 281.287 126.18C281.087 124.94 279.927 124.1 278.827 124.14ZM298.559 131.76C298.779 131.76 298.959 131.78 298.959 132C298.959 132.5 298.179 133.14 297.279 133.14C296.339 133.14 296.079 132.56 295.899 131.6C295.059 132.64 293.679 133.2 292.519 133.2C290.079 133.2 288.679 131.84 288.679 130.14C288.679 128.22 290.399 126.9 292.839 126.9C293.679 126.9 294.239 126.98 294.999 127.16C294.599 125.56 294.339 124.42 292.599 124.42C291.459 124.42 290.719 124.78 289.879 125.26C289.499 125.5 289.179 125.2 289.439 124.8C289.919 124.1 291.359 123.22 293.179 123.22C295.379 123.22 296.239 124.6 296.619 126.34L297.539 130.68C297.759 131.7 298.179 131.76 298.559 131.76ZM292.979 132.2C294.359 132.2 295.799 131.14 295.639 130.26C295.559 129.8 295.399 129.28 295.219 128.4C295.139 127.92 293.819 127.74 293.199 127.74C291.439 127.74 290.499 128.58 290.519 129.92C290.579 131.22 291.479 132.2 292.979 132.2ZM306.235 123.2C308.735 123.2 310.295 125.22 310.295 127.96C310.295 130.98 308.435 133.18 305.955 133.2C304.775 133.22 303.555 132.78 302.795 132.14L302.815 134.36C302.815 136.28 303.735 135.92 303.735 136.62C303.735 136.92 303.455 137 302.955 137H300.815C300.355 137 300.035 136.92 300.035 136.62C300.035 135.92 300.995 136.28 300.995 134.36L300.955 126.26C300.955 125.6 300.875 125.1 300.355 124.78C300.135 124.64 299.995 124.52 299.995 124.32C299.995 124.08 300.095 123.96 300.575 123.74C301.255 123.44 301.935 123.22 302.215 123.2C302.475 123.18 302.615 123.28 302.615 123.64L302.595 125.26C303.235 124.18 304.435 123.2 306.235 123.2ZM305.955 132.3C307.695 132.28 308.495 130.68 308.495 128.76C308.495 125.88 307.095 124.46 305.575 124.46C303.735 124.46 302.795 126.2 302.795 127.66V129.06C302.795 131.14 304.555 132.32 305.955 132.3ZM317.491 123.2C318.571 123.2 319.051 123.88 319.051 124.58C319.051 125.1 318.711 125.58 318.251 125.6C317.411 125.62 317.451 124.74 316.531 124.74C315.651 124.74 314.811 125.98 314.811 127.74V130.36C314.811 132.28 315.731 131.92 315.731 132.62C315.731 132.92 315.451 133 314.951 133H312.811C312.351 133 312.011 132.92 312.011 132.6C312.011 131.92 312.991 132.28 312.991 130.36V126.34C312.991 125.66 312.911 125.16 312.371 124.84C312.151 124.7 312.011 124.58 312.011 124.38C312.011 124.16 312.111 124.04 312.591 123.82C313.271 123.5 313.951 123.28 314.231 123.26C314.491 123.26 314.631 123.36 314.631 123.7L314.611 125.32C315.231 124.14 316.311 123.2 317.491 123.2ZM328.493 130.42C328.833 130.06 329.273 130.28 329.073 130.78C328.653 131.76 327.133 133.2 324.613 133.2C321.813 133.2 319.933 131.18 319.933 128.54C319.933 125.52 322.053 123.2 325.013 123.2C327.193 123.2 328.653 124.46 329.013 126.18C329.093 126.54 329.013 126.82 328.553 127C326.393 127.84 324.273 128.56 321.953 129.32C322.333 130.48 323.473 131.84 325.333 131.84C326.673 131.84 327.773 131.18 328.493 130.42ZM324.393 124.14C322.593 124.16 321.693 125.8 321.693 127.26C321.693 127.76 321.713 128.14 321.813 128.48C323.453 127.94 325.013 127.42 326.473 126.86C326.793 126.74 326.913 126.54 326.853 126.18C326.653 124.94 325.493 124.1 324.393 124.14ZM340.421 127.4L341.041 130.92C341.281 132.16 342.101 132.02 342.101 132.62C342.101 132.92 341.821 133 341.321 133H339.201C338.721 133 338.401 132.92 338.401 132.6C338.401 132.02 339.441 132.16 339.221 130.86L338.641 127.54C338.381 125.96 338.041 124.4 336.221 124.42C334.921 124.44 333.541 125.6 333.541 128.04V130.36C333.541 132.28 334.461 131.92 334.461 132.62C334.461 132.92 334.181 133 333.681 133H331.541C331.081 133 330.741 132.92 330.741 132.6C330.741 131.92 331.721 132.28 331.721 130.36V126.34C331.721 125.66 331.641 125.16 331.101 124.84C330.881 124.7 330.741 124.58 330.741 124.38C330.741 124.16 330.841 124.04 331.321 123.82C332.001 123.5 332.681 123.28 332.961 123.26C333.221 123.26 333.361 123.36 333.361 123.7L333.341 125.4C334.141 123.92 335.541 123.2 336.861 123.2C338.861 123.2 339.901 124.32 340.421 127.4ZM352.483 119.24L352.463 122L352.443 130.38C352.443 131.88 353.643 131.44 353.643 132.02C353.643 132.22 353.483 132.4 353.123 132.6C352.623 132.88 351.843 133.2 351.363 133.2C350.883 133.2 350.703 132.84 350.683 132.16L350.663 131.44C349.963 132.44 348.743 133.22 347.163 133.2C344.543 133.18 342.883 131.14 342.883 128.58C342.883 125.46 345.263 123.2 347.863 123.2C348.843 123.2 349.883 123.5 350.643 124.16V122C350.643 120.26 349.663 120.6 349.663 119.98C349.663 119.78 349.743 119.68 350.223 119.46C351.123 119.04 351.803 118.82 352.103 118.8C352.343 118.78 352.483 118.88 352.483 119.24ZM347.843 131.92C349.503 131.92 350.483 130.58 350.623 129.4V128.4C350.583 127.58 350.463 126.54 350.003 125.78C349.423 124.74 348.563 124.18 347.423 124.18C345.703 124.18 344.663 125.64 344.663 127.64C344.663 130.54 346.363 131.92 347.843 131.92ZM356.101 121.7C355.561 121.66 355.161 121.26 355.201 120.7C355.241 119.98 356.141 119.14 356.941 119.24C357.481 119.28 357.861 119.78 357.841 120.28C357.781 120.98 356.881 121.76 356.101 121.7ZM355.921 130.36V126.4C355.921 124.66 354.941 125 354.941 124.38C354.941 124.18 355.021 124.08 355.501 123.86C356.401 123.44 357.081 123.22 357.361 123.2C357.621 123.18 357.761 123.28 357.761 123.64L357.741 126.4V130.36C357.741 132.28 358.681 131.92 358.681 132.62C358.681 132.92 358.381 133 357.901 133H355.761C355.281 133 354.961 132.92 354.961 132.6C354.961 131.92 355.921 132.28 355.921 130.36ZM368.884 130.12C369.084 130.2 369.064 130.46 369.004 130.8C368.944 131.3 368.844 131.66 368.724 132.06C368.564 132.66 368.284 133 367.664 133H360.944C360.504 133 360.344 132.72 360.604 132.36L366.504 124.24H364.324C363.064 124.24 362.104 124.76 361.384 125.7C361.164 126.02 360.984 126.22 360.704 126.14C360.504 126.06 360.444 125.8 360.524 125.46C360.604 125.06 360.724 124.7 360.844 124.32C361.024 123.72 361.344 123.4 361.964 123.4H368.484C368.904 123.4 369.084 123.68 368.824 124.04L362.924 132.16H365.304C366.564 132.16 367.524 131.64 368.204 130.58C368.424 130.26 368.604 130.04 368.884 130.12ZM380.16 131.76C380.38 131.76 380.56 131.78 380.56 132C380.56 132.5 379.78 133.14 378.88 133.14C377.94 133.14 377.68 132.56 377.5 131.6C376.66 132.64 375.28 133.2 374.12 133.2C371.68 133.2 370.28 131.84 370.28 130.14C370.28 128.22 372 126.9 374.44 126.9C375.28 126.9 375.84 126.98 376.6 127.16C376.2 125.56 375.94 124.42 374.2 124.42C373.06 124.42 372.32 124.78 371.48 125.26C371.1 125.5 370.78 125.2 371.04 124.8C371.52 124.1 372.96 123.22 374.78 123.22C376.98 123.22 377.84 124.6 378.22 126.34L379.14 130.68C379.36 131.7 379.78 131.76 380.16 131.76ZM374.58 132.2C375.96 132.2 377.4 131.14 377.24 130.26C377.16 129.8 377 129.28 376.82 128.4C376.74 127.92 375.42 127.74 374.8 127.74C373.04 127.74 372.1 128.58 372.12 129.92C372.18 131.22 373.08 132.2 374.58 132.2ZM390.92 119.24L390.9 122L390.88 130.38C390.88 131.88 392.08 131.44 392.08 132.02C392.08 132.22 391.92 132.4 391.56 132.6C391.06 132.88 390.28 133.2 389.8 133.2C389.32 133.2 389.14 132.84 389.12 132.16L389.1 131.44C388.4 132.44 387.18 133.22 385.6 133.2C382.98 133.18 381.32 131.14 381.32 128.58C381.32 125.46 383.7 123.2 386.3 123.2C387.28 123.2 388.32 123.5 389.08 124.16V122C389.08 120.26 388.1 120.6 388.1 119.98C388.1 119.78 388.18 119.68 388.66 119.46C389.56 119.04 390.24 118.82 390.54 118.8C390.78 118.78 390.92 118.88 390.92 119.24ZM386.28 131.92C387.94 131.92 388.92 130.58 389.06 129.4V128.4C389.02 127.58 388.9 126.54 388.44 125.78C387.86 124.74 387 124.18 385.86 124.18C384.14 124.18 383.1 125.64 383.1 127.64C383.1 130.54 384.8 131.92 386.28 131.92ZM397.719 133.2C395.019 133.2 393.019 131.4 393.019 128.56C393.019 125.54 395.199 123.2 398.299 123.2C400.959 123.2 402.899 125.26 402.899 127.96C402.899 130.92 400.779 133.2 397.719 133.2ZM398.339 132.24C400.039 132.24 401.099 130.88 401.099 128.96C401.099 126.46 399.599 124.22 397.599 124.22C395.819 124.22 394.839 125.7 394.839 127.6C394.839 130.22 396.299 132.24 398.339 132.24ZM406.087 128.12C405.927 128.12 405.847 128 405.827 127.76C405.627 123.96 404.887 121.26 404.887 120.14C404.887 119.32 405.407 118.8 406.087 118.8C406.787 118.8 407.327 119.32 407.327 120.14C407.327 121.26 406.547 123.96 406.347 127.76C406.327 128 406.267 128.12 406.087 128.12ZM406.067 133.2C405.467 133.2 404.947 132.84 404.947 132.12C404.947 131.34 405.587 130.86 406.187 130.86C406.767 130.86 407.307 131.26 407.307 131.98C407.307 132.74 406.707 133.2 406.067 133.2Z" fill="#FFFFF3"/>
<mask id="path-12-inside-1_1_1339" fill="white">
<path d="M373 48C373 65.6731 358.673 80 341 80C323.327 80 309 65.6731 309 48C309 30.3269 323.327 16 341 16C358.673 16 373 30.3269 373 48ZM321.587 48C321.587 58.7217 330.278 67.4133 341 67.4133C351.722 67.4133 360.413 58.7217 360.413 48C360.413 37.2783 351.722 28.5867 341 28.5867C330.278 28.5867 321.587 37.2783 321.587 48Z"/>
</mask>
<path d="M373 48C373 65.6731 358.673 80 341 80C323.327 80 309 65.6731 309 48C309 30.3269 323.327 16 341 16C358.673 16 373 30.3269 373 48ZM321.587 48C321.587 58.7217 330.278 67.4133 341 67.4133C351.722 67.4133 360.413 58.7217 360.413 48C360.413 37.2783 351.722 28.5867 341 28.5867C330.278 28.5867 321.587 37.2783 321.587 48Z" stroke="#FFFFF3" stroke-width="4" mask="url(#path-12-inside-1_1_1339)"/>
<circle cx="341" cy="48" r="11" stroke="#FFFFF3" stroke-width="2"/>
<path d="M341.5 47.9999L377.633 32.0699" stroke="white" stroke-width="2"/>
<rect x="1" y="1" width="220" height="152" rx="15" fill="#97E191" stroke="#1A1A1A" stroke-width="2"/>
<path d="M113.653 36.2031L113.403 37.0078L114.153 37.3906L139.285 50.2236L106.639 76.7236L115.531 55.3848L115.878 54.5537L115.087 54.1221L88.9941 39.8896L119.155 18.5244L113.653 36.2031Z" fill="#1463CC" stroke="#1A1A1A" stroke-width="2"/>
<path d="M27.8878 100.56C27.8878 96.62 30.4478 93.84 34.2278 93.84C36.0678 93.84 37.3678 94.48 38.1278 95.18C38.6878 95.66 38.9878 96.24 38.9878 96.6C38.9878 97.36 38.1078 97.52 38.0478 97.46C37.3878 96.08 35.9078 95.16 34.2078 95.16C31.3878 95.16 29.4478 97.34 29.4478 100.54C29.4478 103.7 31.4078 105.9 34.2478 105.9C36.3078 105.9 37.6878 104.74 38.1678 103.32C38.2078 103.26 39.1678 103.4 39.1678 104.16C39.1678 104.56 38.8478 105.24 38.1878 105.84C37.4078 106.56 36.0278 107.22 34.1878 107.22C30.4078 107.22 27.8878 104.48 27.8878 100.56ZM40.4798 102.22C40.4798 99.32 42.4798 97.24 45.3398 97.24C48.1598 97.24 50.1598 99.34 50.1598 102.26C50.1598 105.14 48.1598 107.22 45.3198 107.22C42.4598 107.22 40.4798 105.12 40.4798 102.22ZM48.7598 102.26C48.7598 100.06 47.3398 98.46 45.3398 98.46C43.3398 98.46 41.8798 100.02 41.8798 102.22C41.8798 104.42 43.3398 106 45.3398 106C47.3198 106 48.7598 104.44 48.7598 102.26ZM63.0545 97.24C65.3945 97.24 66.5945 98.74 66.5945 101.26V106.38C66.5945 106.9 66.3345 107.06 65.9545 107.06H65.7945C65.4145 107.06 65.1545 106.9 65.1545 106.38V101.38C65.1545 99.54 64.3345 98.52 62.7545 98.52C61.6345 98.52 60.5545 99.24 60.0945 100.42V106.38C60.0945 106.9 59.8145 107.06 59.4545 107.06H59.2945C58.9145 107.06 58.6545 106.9 58.6545 106.38V101.26C58.6545 99.52 57.8545 98.52 56.2545 98.52C55.1545 98.52 54.0745 99.24 53.5745 100.42V106.38C53.5745 106.9 53.3145 107.06 52.9545 107.06H52.7745C52.4145 107.06 52.1345 106.9 52.1345 106.38V97.54C52.1345 97.5 52.3745 97.38 52.6545 97.38C53.0945 97.38 53.4945 97.6 53.5345 98.56L53.5545 99.04C54.1745 97.98 55.2545 97.24 56.5745 97.24C58.1945 97.24 59.2745 98.06 59.7345 99.36C60.3145 98.12 61.4745 97.24 63.0545 97.24ZM70.4881 105.24V106.44C70.4681 106.9 70.2281 107.06 69.8881 107.06H69.7281C69.3481 107.06 69.0881 106.9 69.0881 106.34V93.52C69.0881 93.46 69.3081 93.36 69.5881 93.36C70.0481 93.36 70.5081 93.6 70.5081 94.64V99.22C71.2481 98.02 72.3881 97.24 74.0281 97.24C76.4881 97.24 78.3881 99.22 78.3881 102.2C78.3881 105.18 76.5281 107.22 73.9481 107.22C72.1881 107.22 70.9881 106.3 70.4881 105.24ZM76.9681 102.22C76.9681 100 75.5881 98.46 73.7481 98.46C72.1281 98.46 71.0281 99.38 70.4881 100.76V102.92C70.5081 104.66 71.9281 106 73.7081 106C75.6481 106 76.9681 104.48 76.9681 102.22ZM79.7571 104.54C79.7571 102.38 81.7971 101.46 86.2971 101.4H86.5171V101C86.5171 99.38 85.5771 98.48 83.9371 98.48C82.4171 98.48 81.4971 99.22 81.0171 100.18C80.9771 100.2 80.1371 100.16 80.1371 99.44C80.1371 99.16 80.3371 98.74 80.7171 98.38C81.3371 97.78 82.4371 97.24 84.0171 97.24C86.5571 97.24 87.9371 98.66 87.9371 101.02V106.92C87.9371 106.98 87.6771 107.08 87.4171 107.08C86.9971 107.08 86.6571 106.88 86.5771 106.16C86.5571 105.88 86.5371 105.58 86.5371 105.28C85.8971 106.44 84.5971 107.2 82.9971 107.2C80.9971 107.2 79.7571 106.16 79.7571 104.54ZM86.5171 103.26V102.34L86.1771 102.36C82.6971 102.44 81.1971 103.04 81.1971 104.5C81.1971 105.5 81.9971 106.12 83.2771 106.12C85.1171 106.12 86.5171 104.88 86.5171 103.26ZM93.5386 107.22C91.7786 107.22 90.9186 106.24 90.9186 104.22V98.68H89.9786C89.5186 98.68 89.3586 98.48 89.3586 98.14V98C89.3586 97.66 89.5186 97.46 89.9786 97.46H90.9186V95.78C90.9186 95.28 91.1786 95.08 91.5586 95.08H91.7186C92.0986 95.08 92.3386 95.26 92.3386 95.78V97.46H94.7586C95.1986 97.46 95.3786 97.64 95.3786 98V98.12C95.3786 98.48 95.1986 98.68 94.7386 98.68H92.3186V104C92.3186 105.4 92.7386 106 93.7386 106C94.3786 106 94.8586 105.7 95.1586 105.26C95.2186 105.22 95.5586 105.42 95.5586 105.92C95.5586 106.16 95.4586 106.42 95.1986 106.66C94.8586 106.98 94.3186 107.22 93.5386 107.22ZM96.554 102.28C96.554 99.38 98.534 97.24 101.274 97.24C103.934 97.24 105.654 99.12 105.654 101.94V102.08C105.654 102.42 105.514 102.54 105.154 102.54H97.934C97.934 102.62 97.934 102.72 97.954 102.82C98.134 104.74 99.514 106.02 101.434 106.02C103.214 106.02 104.054 105.18 104.534 104.26C104.614 104.22 105.354 104.38 105.354 105.02C105.354 105.32 105.114 105.78 104.594 106.2C103.994 106.72 102.894 107.22 101.414 107.22C98.514 107.22 96.554 105.2 96.554 102.28ZM104.234 101.5C104.154 99.64 103.014 98.4 101.274 98.4C99.534 98.4 98.234 99.68 97.974 101.5H104.234ZM110.421 102.22C110.421 99.32 112.421 97.24 115.281 97.24C118.101 97.24 120.101 99.34 120.101 102.26C120.101 105.14 118.101 107.22 115.261 107.22C112.401 107.22 110.421 105.12 110.421 102.22ZM118.701 102.26C118.701 100.06 117.281 98.46 115.281 98.46C113.281 98.46 111.821 100.02 111.821 102.22C111.821 104.42 113.281 106 115.281 106C117.261 106 118.701 104.44 118.701 102.26ZM124.894 102.2C124.894 99.34 126.894 97.24 129.714 97.24C131.214 97.24 132.254 97.78 132.894 98.4C133.434 98.9 133.674 99.48 133.674 99.84C133.674 100.48 132.814 100.6 132.754 100.52C132.334 99.42 131.474 98.48 129.734 98.48C127.734 98.48 126.314 100.04 126.314 102.2C126.314 104.4 127.714 105.98 129.734 105.98C131.454 105.98 132.334 105.04 132.754 103.94C132.794 103.86 133.674 103.96 133.674 104.64C133.674 104.96 133.434 105.52 132.894 106.04C132.274 106.7 131.214 107.22 129.694 107.22C126.894 107.22 124.894 105.12 124.894 102.2ZM134.972 104.54C134.972 102.38 137.012 101.46 141.512 101.4H141.732V101C141.732 99.38 140.792 98.48 139.152 98.48C137.632 98.48 136.712 99.22 136.232 100.18C136.192 100.2 135.352 100.16 135.352 99.44C135.352 99.16 135.552 98.74 135.932 98.38C136.552 97.78 137.652 97.24 139.232 97.24C141.772 97.24 143.152 98.66 143.152 101.02V106.92C143.152 106.98 142.892 107.08 142.632 107.08C142.212 107.08 141.872 106.88 141.792 106.16C141.772 105.88 141.752 105.58 141.752 105.28C141.112 106.44 139.812 107.2 138.212 107.2C136.212 107.2 134.972 106.16 134.972 104.54ZM141.732 103.26V102.34L141.392 102.36C137.912 102.44 136.412 103.04 136.412 104.5C136.412 105.5 137.212 106.12 138.492 106.12C140.332 106.12 141.732 104.88 141.732 103.26ZM150.311 97.24C152.771 97.24 153.971 98.94 153.971 101.38V106.38C153.971 106.9 153.711 107.06 153.351 107.06H153.171C152.791 107.06 152.531 106.9 152.531 106.38V101.5C152.531 99.66 151.651 98.52 150.031 98.52C148.631 98.52 147.591 99.3 147.071 100.44V106.38C147.071 106.9 146.811 107.06 146.451 107.06H146.271C145.891 107.06 145.631 106.9 145.631 106.38V97.54C145.631 97.5 145.871 97.38 146.151 97.38C146.591 97.38 146.991 97.6 147.031 98.58V99.14C147.671 98 148.791 97.24 150.311 97.24ZM156.311 106.22C155.911 105.88 155.731 105.56 155.731 105.26C155.731 104.76 156.291 104.54 156.351 104.56C156.951 105.42 158.031 106.06 159.591 106.06C161.091 106.06 161.971 105.42 161.971 104.48C161.971 103.36 160.931 103.14 159.311 102.78C157.851 102.48 156.011 102.06 156.011 100.12C156.011 98.42 157.431 97.24 159.631 97.24C161.171 97.24 162.211 97.74 162.751 98.32C162.971 98.54 163.111 98.84 163.111 99.08C163.111 99.58 162.531 99.84 162.491 99.8C161.971 99 160.931 98.38 159.651 98.38C158.191 98.38 157.351 99.04 157.351 99.96C157.351 101 158.351 101.24 159.931 101.6C161.491 101.94 163.371 102.36 163.371 104.32C163.371 106.06 161.911 107.22 159.571 107.22C158.011 107.22 156.931 106.76 156.311 106.22ZM164.757 104.54C164.757 102.38 166.797 101.46 171.297 101.4H171.517V101C171.517 99.38 170.577 98.48 168.937 98.48C167.417 98.48 166.497 99.22 166.017 100.18C165.977 100.2 165.137 100.16 165.137 99.44C165.137 99.16 165.337 98.74 165.717 98.38C166.337 97.78 167.437 97.24 169.017 97.24C171.557 97.24 172.937 98.66 172.937 101.02V106.92C172.937 106.98 172.677 107.08 172.417 107.08C171.997 107.08 171.657 106.88 171.577 106.16C171.557 105.88 171.537 105.58 171.537 105.28C170.897 106.44 169.597 107.2 167.997 107.2C165.997 107.2 164.757 106.16 164.757 104.54ZM171.517 103.26V102.34L171.177 102.36C167.697 102.44 166.197 103.04 166.197 104.5C166.197 105.5 166.997 106.12 168.277 106.12C170.117 106.12 171.517 104.88 171.517 103.26ZM179.076 111.4C177.856 111.4 177.136 110.62 177.136 110.06C177.136 109.66 177.316 109.48 177.636 109.44C177.816 109.68 178.256 110.22 178.936 110.22C179.556 110.22 180.116 109.94 180.116 109.14C180.116 108.32 179.116 107.38 178.276 107.04C176.196 106.5 174.816 104.64 174.816 102.2C174.816 99.34 176.816 97.24 179.636 97.24C181.136 97.24 182.176 97.78 182.816 98.4C183.356 98.9 183.596 99.48 183.596 99.84C183.596 100.48 182.736 100.6 182.676 100.52C182.256 99.42 181.396 98.48 179.656 98.48C177.656 98.48 176.236 100.04 176.236 102.2C176.236 104.4 177.636 105.98 179.656 105.98C181.376 105.98 182.256 105.04 182.676 103.94C182.716 103.86 183.596 103.96 183.596 104.64C183.596 104.96 183.376 105.5 182.856 106.02C182.356 106.52 181.636 106.96 180.636 107.14C180.396 107.18 180.156 107.2 179.896 107.2C180.616 107.68 181.296 108.5 181.296 109.5C181.296 110.86 180.156 111.4 179.076 111.4ZM184.874 102.22C184.874 99.32 186.874 97.24 189.734 97.24C192.554 97.24 194.554 99.34 194.554 102.26C194.554 105.14 192.554 107.22 189.714 107.22C186.854 107.22 184.874 105.12 184.874 102.22ZM193.154 102.26C193.154 100.06 191.734 98.46 189.734 98.46C187.734 98.46 186.274 100.02 186.274 102.22C186.274 104.42 187.734 106 189.734 106C191.714 106 193.154 104.44 193.154 102.26ZM46.9544 127.28C46.9544 124.38 48.9344 122.24 51.6744 122.24C54.3344 122.24 56.0544 124.12 56.0544 126.94V127.08C56.0544 127.42 55.9144 127.54 55.5544 127.54H48.3344C48.3344 127.62 48.3344 127.72 48.3544 127.82C48.5344 129.74 49.9144 131.02 51.8344 131.02C53.6144 131.02 54.4544 130.18 54.9344 129.26C55.0144 129.22 55.7544 129.38 55.7544 130.02C55.7544 130.32 55.5144 130.78 54.9944 131.2C54.3944 131.72 53.2944 132.22 51.8144 132.22C48.9144 132.22 46.9544 130.2 46.9544 127.28ZM54.6344 126.5C54.5544 124.64 53.4144 123.4 51.6744 123.4C49.9344 123.4 48.6344 124.68 48.3744 126.5H54.6344ZM65.2216 132.22C62.7016 132.22 60.8216 130.22 60.8216 127.22C60.8216 124.26 62.7016 122.24 65.2616 122.24C66.9616 122.24 68.1616 123.1 68.7016 124.08V118.52C68.7016 118.46 68.9216 118.36 69.2016 118.36C69.6816 118.36 70.1416 118.6 70.1416 119.64V131.38C70.1416 131.9 69.8816 132.06 69.5016 132.06H69.3616C69.0016 132.06 68.7416 131.9 68.7416 131.42C68.7216 131.02 68.7216 130.62 68.7216 130.18C68.0416 131.4 66.9016 132.22 65.2216 132.22ZM68.7016 127.88V125.74C68.1816 124.36 67.1216 123.46 65.5016 123.46C63.5816 123.46 62.2616 124.96 62.2616 127.22C62.2616 129.44 63.6016 131 65.4816 131C67.2616 131 68.7016 129.66 68.7016 127.88ZM74.9907 121.02C74.8507 121.02 74.8107 120.98 74.8107 120.94C74.8107 120.74 76.6707 117.72 77.8507 117.72C78.2107 117.72 78.4707 118 78.4707 118.36C78.4707 119.5 75.1907 121.02 74.9907 121.02ZM72.1107 129.54C72.1107 127.38 74.1507 126.46 78.6507 126.4H78.8707V126C78.8707 124.38 77.9307 123.48 76.2907 123.48C74.7707 123.48 73.8507 124.22 73.3707 125.18C73.3307 125.2 72.4907 125.16 72.4907 124.44C72.4907 124.16 72.6907 123.74 73.0707 123.38C73.6907 122.78 74.7907 122.24 76.3707 122.24C78.9107 122.24 80.2907 123.66 80.2907 126.02V131.92C80.2907 131.98 80.0307 132.08 79.7707 132.08C79.3507 132.08 79.0107 131.88 78.9307 131.16C78.9107 130.88 78.8907 130.58 78.8907 130.28C78.2507 131.44 76.9507 132.2 75.3507 132.2C73.3507 132.2 72.1107 131.16 72.1107 129.54ZM78.8707 128.26V127.34L78.5307 127.36C75.0507 127.44 73.5507 128.04 73.5507 129.5C73.5507 130.5 74.3507 131.12 75.6307 131.12C77.4707 131.12 78.8707 129.88 78.8707 128.26ZM89.9872 132.22C87.4672 132.22 85.5872 130.22 85.5872 127.22C85.5872 124.26 87.4672 122.24 90.0272 122.24C91.7272 122.24 92.9272 123.1 93.4672 124.08V118.52C93.4672 118.46 93.6872 118.36 93.9672 118.36C94.4472 118.36 94.9072 118.6 94.9072 119.64V131.38C94.9072 131.9 94.6472 132.06 94.2672 132.06H94.1272C93.7672 132.06 93.5072 131.9 93.5072 131.42C93.4872 131.02 93.4872 130.62 93.4872 130.18C92.8072 131.4 91.6672 132.22 89.9872 132.22ZM93.4672 127.88V125.74C92.9472 124.36 91.8872 123.46 90.2672 123.46C88.3472 123.46 87.0272 124.96 87.0272 127.22C87.0272 129.44 88.3672 131 90.2472 131C92.0272 131 93.4672 129.66 93.4672 127.88ZM97.4158 119.46C97.4158 118.86 97.7558 118.54 98.3358 118.54C98.9158 118.54 99.2558 118.86 99.2558 119.46C99.2558 120.04 98.8958 120.36 98.3158 120.36C97.7558 120.36 97.4158 120.04 97.4158 119.46ZM97.5958 131.38V123.08C97.5958 122.56 97.8558 122.38 98.2358 122.38H98.3958C98.7758 122.38 99.0358 122.54 99.0358 123.08V131.38C99.0358 131.9 98.7758 132.06 98.3958 132.06H98.2358C97.8558 132.06 97.5958 131.9 97.5958 131.38ZM101.555 131.22C101.155 130.88 100.975 130.56 100.975 130.26C100.975 129.76 101.535 129.54 101.595 129.56C102.195 130.42 103.275 131.06 104.835 131.06C106.335 131.06 107.215 130.42 107.215 129.48C107.215 128.36 106.175 128.14 104.555 127.78C103.095 127.48 101.255 127.06 101.255 125.12C101.255 123.42 102.675 122.24 104.875 122.24C106.415 122.24 107.455 122.74 107.995 123.32C108.215 123.54 108.355 123.84 108.355 124.08C108.355 124.58 107.775 124.84 107.735 124.8C107.215 124 106.175 123.38 104.895 123.38C103.435 123.38 102.595 124.04 102.595 124.96C102.595 126 103.595 126.24 105.175 126.6C106.735 126.94 108.615 127.36 108.615 129.32C108.615 131.06 107.155 132.22 104.815 132.22C103.255 132.22 102.175 131.76 101.555 131.22ZM115.521 122.24C118.021 122.24 119.921 124.22 119.921 127.2C119.921 130.18 118.061 132.22 115.481 132.22C113.741 132.22 112.541 131.26 112.041 130.22V135.18C112.041 135.68 111.781 135.86 111.421 135.86H111.261C110.881 135.86 110.621 135.68 110.621 135.18V122.54C110.621 122.5 110.841 122.38 111.121 122.38C111.541 122.38 111.941 122.62 112.001 123.46C112.001 123.7 112.021 124.02 112.021 124.28C112.721 123.04 113.861 122.24 115.521 122.24ZM115.221 131C117.181 131 118.501 129.48 118.501 127.22C118.501 125 117.121 123.46 115.261 123.46C113.661 123.46 112.561 124.38 112.021 125.76V127.88C112.021 129.64 113.461 131 115.221 131ZM121.29 127.22C121.29 124.32 123.29 122.24 126.15 122.24C128.97 122.24 130.97 124.34 130.97 127.26C130.97 130.14 128.97 132.22 126.13 132.22C123.27 132.22 121.29 130.12 121.29 127.22ZM129.57 127.26C129.57 125.06 128.15 123.46 126.15 123.46C124.15 123.46 122.69 125.02 122.69 127.22C122.69 129.42 124.15 131 126.15 131C128.13 131 129.57 129.44 129.57 127.26ZM132.805 131.22C132.405 130.88 132.225 130.56 132.225 130.26C132.225 129.76 132.785 129.54 132.845 129.56C133.445 130.42 134.525 131.06 136.085 131.06C137.585 131.06 138.465 130.42 138.465 129.48C138.465 128.36 137.425 128.14 135.805 127.78C134.345 127.48 132.505 127.06 132.505 125.12C132.505 123.42 133.925 122.24 136.125 122.24C137.665 122.24 138.705 122.74 139.245 123.32C139.465 123.54 139.605 123.84 139.605 124.08C139.605 124.58 139.025 124.84 138.985 124.8C138.465 124 137.425 123.38 136.145 123.38C134.685 123.38 133.845 124.04 133.845 124.96C133.845 126 134.845 126.24 136.425 126.6C137.985 126.94 139.865 127.36 139.865 129.32C139.865 131.06 138.405 132.22 136.065 132.22C134.505 132.22 133.425 131.76 132.805 131.22ZM141.771 119.46C141.771 118.86 142.111 118.54 142.691 118.54C143.271 118.54 143.611 118.86 143.611 119.46C143.611 120.04 143.251 120.36 142.671 120.36C142.111 120.36 141.771 120.04 141.771 119.46ZM141.951 131.38V123.08C141.951 122.56 142.211 122.38 142.591 122.38H142.751C143.131 122.38 143.391 122.54 143.391 123.08V131.38C143.391 131.9 143.131 132.06 142.751 132.06H142.591C142.211 132.06 141.951 131.9 141.951 131.38ZM149.711 136.4C148.491 136.4 147.771 135.62 147.771 135.06C147.771 134.66 147.951 134.48 148.271 134.44C148.451 134.68 148.891 135.22 149.571 135.22C150.191 135.22 150.751 134.94 150.751 134.14C150.751 133.32 149.751 132.38 148.911 132.04C146.831 131.5 145.451 129.64 145.451 127.2C145.451 124.34 147.451 122.24 150.271 122.24C151.771 122.24 152.811 122.78 153.451 123.4C153.991 123.9 154.231 124.48 154.231 124.84C154.231 125.48 153.371 125.6 153.311 125.52C152.891 124.42 152.031 123.48 150.291 123.48C148.291 123.48 146.871 125.04 146.871 127.2C146.871 129.4 148.271 130.98 150.291 130.98C152.011 130.98 152.891 130.04 153.311 128.94C153.351 128.86 154.231 128.96 154.231 129.64C154.231 129.96 154.011 130.5 153.491 131.02C152.991 131.52 152.271 131.96 151.271 132.14C151.031 132.18 150.791 132.2 150.531 132.2C151.251 132.68 151.931 133.5 151.931 134.5C151.931 135.86 150.791 136.4 149.711 136.4ZM157.509 120.68C157.329 120.68 157.189 120.62 157.049 120.5C156.989 120.38 156.989 120.18 156.989 120C157.089 119.04 157.649 118.26 158.529 118.26C159.129 118.26 159.569 118.6 159.969 118.94C160.409 119.34 160.709 119.6 161.049 119.78C161.629 119.52 161.589 118.38 162.149 118.38C162.329 118.38 162.489 118.44 162.589 118.54C162.649 118.7 162.669 118.9 162.669 119.08C162.569 120.04 162.009 120.78 161.129 120.78C160.529 120.78 160.109 120.48 159.689 120.12C159.269 119.76 158.989 119.46 158.629 119.28C158.089 119.56 158.069 120.68 157.509 120.68ZM155.509 129.54C155.509 127.38 157.549 126.46 162.049 126.4H162.269V126C162.269 124.38 161.329 123.48 159.689 123.48C158.169 123.48 157.249 124.22 156.769 125.18C156.729 125.2 155.889 125.16 155.889 124.44C155.889 124.16 156.089 123.74 156.469 123.38C157.089 122.78 158.189 122.24 159.769 122.24C162.309 122.24 163.689 123.66 163.689 126.02V131.92C163.689 131.98 163.429 132.08 163.169 132.08C162.749 132.08 162.409 131.88 162.329 131.16C162.309 130.88 162.289 130.58 162.289 130.28C161.649 131.44 160.349 132.2 158.749 132.2C156.749 132.2 155.509 131.16 155.509 129.54ZM162.269 128.26V127.34L161.929 127.36C158.449 127.44 156.949 128.04 156.949 129.5C156.949 130.5 157.749 131.12 159.029 131.12C160.869 131.12 162.269 129.88 162.269 128.26ZM165.568 127.22C165.568 124.32 167.568 122.24 170.428 122.24C173.248 122.24 175.248 124.34 175.248 127.26C175.248 130.14 173.248 132.22 170.408 132.22C167.548 132.22 165.568 130.12 165.568 127.22ZM173.848 127.26C173.848 125.06 172.428 123.46 170.428 123.46C168.428 123.46 166.968 125.02 166.968 127.22C166.968 129.42 168.428 131 170.428 131C172.408 131 173.848 129.44 173.848 127.26Z" fill="#1A1A1A"/>
</svg>
