<svg width="536" height="318" viewBox="0 0 536 318" fill="none" xmlns="http://www.w3.org/2000/svg">
<path d="M394.148 218.752C395.012 231.777 400.496 242.552 411.211 250.442C418.878 256.088 427.605 258.627 437.088 258.24C457.23 257.419 475.269 241.43 476.458 218.795H534.9C534.905 219.215 534.906 219.628 534.888 220.054C533.624 249.906 521.648 274.546 498.85 293.833C485.301 305.296 469.63 312.546 452.113 315.322C422.431 320.026 395.634 313.156 372.231 294.211C354.569 279.913 343.336 261.447 338.1 239.149C336.561 232.364 335.777 225.647 335.718 218.752H394.148Z" fill="#FC5B03" stroke="#1A1A1A" stroke-width="2"/>
<path d="M375.674 250.547L372.736 252.583C371.702 253.301 372.181 254.006 371.636 254.257C371.363 254.382 371.165 254.143 370.964 253.707L370.069 251.764C369.876 251.346 369.815 251.022 370.106 250.888C370.633 250.645 370.94 251.648 372.029 250.905L374.802 248.989C376.12 248.073 377.436 247.203 376.665 245.576C376.128 244.458 374.578 243.675 372.438 244.573L370.157 245.645C368.413 246.449 369.133 247.152 368.498 247.445C368.225 247.57 368.027 247.331 367.826 246.895L366.931 244.952C366.73 244.516 366.669 244.191 366.959 244.058C367.577 243.773 367.652 244.796 369.396 243.992L371.921 242.829C373.556 242.076 374.671 241.056 373.907 239.492C373.303 238.229 371.635 237.478 369.419 238.499L367.312 239.469C365.568 240.272 366.28 240.957 365.644 241.25C365.372 241.376 365.182 241.155 364.973 240.701L364.078 238.757C363.885 238.339 363.815 237.997 364.106 237.863C364.724 237.579 364.807 238.619 366.551 237.816L370.202 236.134C370.82 235.85 371.24 235.568 371.305 234.944C371.34 234.685 371.39 234.508 371.572 234.424C371.772 234.332 371.923 234.373 372.323 234.717C372.899 235.2 373.383 235.726 373.518 235.972C373.627 236.208 373.595 236.377 373.286 236.519L371.733 237.212C373.412 237.32 374.619 238.217 375.213 239.507C375.891 240.979 375.669 242.314 374.481 243.368C376.188 243.44 377.439 244.339 378.041 245.647C378.878 247.464 378.245 248.768 375.674 250.547ZM378.479 260.843C378.966 260.935 379.019 261.424 378.49 261.526C377.438 261.702 375.405 261.201 374.044 259.081C372.53 256.725 373.214 254.052 375.435 252.625C377.976 250.993 381.074 251.523 382.674 254.014C383.852 255.848 383.581 257.757 382.328 258.99C382.068 259.251 381.79 259.335 381.389 259.046C379.515 257.682 377.764 256.287 375.871 254.746C375.1 255.693 374.572 257.387 375.577 258.952C376.301 260.079 377.451 260.648 378.479 260.843ZM381.548 254C380.558 252.496 378.692 252.625 377.464 253.414C377.043 253.684 376.734 253.907 376.502 254.174C377.842 255.262 379.123 256.294 380.383 257.22C380.657 257.424 380.89 257.417 381.161 257.172C382.096 256.334 382.176 254.904 381.548 254ZM388.138 267.854L385.843 270.594C385.048 271.575 385.683 272.113 385.223 272.499C384.994 272.692 384.752 272.529 384.431 272.147L383.067 270.524C382.758 270.156 382.613 269.86 382.858 269.654C383.302 269.281 383.864 270.167 384.718 269.162L386.886 266.582C387.928 265.366 388.903 264.102 387.717 262.722C386.865 261.74 385.089 261.43 383.221 263L381.446 264.492C379.976 265.728 380.843 266.2 380.307 266.651C380.078 266.844 379.836 266.681 379.515 266.298L378.138 264.66C377.842 264.308 377.684 263.996 377.929 263.79C378.45 263.353 378.805 264.335 380.274 263.099L383.352 260.512C383.872 260.075 384.204 259.692 384.101 259.073C384.067 258.814 384.068 258.63 384.222 258.501C384.39 258.36 384.546 258.359 385.023 258.585C385.706 258.899 386.312 259.278 386.507 259.48C386.675 259.679 386.688 259.85 386.428 260.069L385.114 261.148C386.761 260.808 388.213 261.416 389.063 262.427C390.35 263.958 390.161 265.474 388.138 267.854ZM390.724 275.709C391.134 275.711 391.203 276.133 390.855 276.3C390.185 276.603 388.844 276.714 387.752 275.686C386.558 274.562 386.703 273.299 387.951 271.973L388.362 271.536C389.966 269.832 391.255 268.492 392.148 267.63L391.595 267.109C391.304 266.835 391.27 266.638 391.461 266.434C391.557 266.332 391.64 266.273 391.88 266.251C392.995 266.147 393.959 266.203 394.782 266.291C395.138 266.351 395.21 266.419 395.312 266.515C395.502 266.693 395.437 266.879 395.216 267.084C394.913 267.348 394.638 267.611 394.075 268.18L395.532 269.551C395.779 269.784 395.969 269.99 395.568 270.271C395.152 270.567 394.892 270.376 394.658 270.129L393.403 268.865L389.643 272.743C388.696 273.691 388.363 274.394 389.164 275.148C389.558 275.518 390.242 275.696 390.724 275.709ZM398.83 280.827C399.318 280.74 399.541 281.179 399.082 281.462C398.162 281.999 396.083 282.252 394.058 280.752C391.808 279.086 391.499 276.344 393.07 274.222C394.868 271.795 397.952 271.192 400.331 272.954C402.083 274.251 402.506 276.133 401.772 277.729C401.622 278.066 401.391 278.244 400.914 278.115C398.678 277.504 396.546 276.821 394.229 276.051C393.844 277.209 393.951 278.981 395.446 280.088C396.523 280.885 397.8 281.01 398.83 280.827ZM399.273 273.34C397.815 272.285 396.115 273.068 395.246 274.241C394.949 274.643 394.739 274.96 394.617 275.293C396.256 275.835 397.819 276.345 399.326 276.764C399.654 276.858 399.87 276.769 400.036 276.444C400.613 275.328 400.181 273.963 399.273 273.34ZM419.966 286.485L419.316 290C419.089 291.238 419.925 291.401 419.715 291.963C419.61 292.244 419.301 292.214 418.851 292.046L416.846 291.298C416.415 291.138 416.143 290.951 416.255 290.651C416.458 290.107 417.383 290.602 417.632 289.307L418.249 285.994C418.539 284.416 418.859 282.87 417.166 282.26C415.997 281.845 414.345 282.382 413.459 284.527L412.597 286.895C411.926 288.694 412.933 288.685 412.688 289.341C412.583 289.622 412.274 289.592 411.824 289.425L409.819 288.677C409.37 288.509 409.098 288.322 409.21 288.022C409.447 287.385 410.221 288.058 410.892 286.259L411.864 283.654C412.493 281.968 412.565 280.458 410.921 279.887C409.603 279.417 407.89 280.059 407.037 282.345L406.226 284.518C405.555 286.317 406.543 286.301 406.298 286.957C406.193 287.238 405.903 287.215 405.435 287.041L403.43 286.293C402.999 286.132 402.708 285.938 402.82 285.638C403.058 285.001 403.85 285.681 404.521 283.882L405.926 280.116C406.164 279.479 406.264 278.982 405.87 278.494C405.713 278.285 405.623 278.124 405.693 277.937C405.77 277.731 405.906 277.653 406.432 277.615C407.181 277.553 407.895 277.584 408.165 277.663C408.408 277.754 408.505 277.897 408.386 278.215L407.773 279.801C409.04 278.694 410.528 278.481 411.858 278.977C413.376 279.544 414.16 280.647 414.06 282.232C415.322 281.081 416.843 280.837 418.192 281.341C420.066 282.04 420.536 283.411 419.966 286.485ZM430.153 292.554C430.371 292.584 430.547 292.629 430.517 292.847C430.448 293.342 429.588 293.869 428.697 293.746C427.766 293.618 427.587 293.008 427.54 292.032C426.566 292.947 425.122 293.314 423.973 293.155C421.556 292.821 420.355 291.283 420.588 289.599C420.85 287.697 422.734 286.624 425.151 286.958C425.984 287.073 426.527 287.228 427.256 287.511C427.078 285.871 426.976 284.706 425.253 284.468C424.123 284.312 423.341 284.568 422.443 284.929C422.034 285.114 421.758 284.773 422.07 284.413C422.642 283.785 424.188 283.11 425.991 283.359C428.171 283.66 428.834 285.144 428.972 286.92L429.291 291.345C429.369 292.385 429.777 292.502 430.153 292.554ZM424.566 292.227C425.933 292.416 427.504 291.563 427.466 290.669C427.449 290.202 427.362 289.665 427.304 288.769C427.29 288.283 426.007 287.924 425.393 287.839C423.65 287.599 422.604 288.302 422.44 289.632C422.322 290.928 423.08 292.022 424.566 292.227ZM433.026 282.619C432.488 282.567 432.097 282.157 432.15 281.599C432.207 280.88 433.126 280.061 433.924 280.18C434.463 280.232 434.831 280.741 434.799 281.24C434.723 281.939 433.805 282.697 433.026 282.619ZM432.644 291.273L432.737 287.314C432.777 285.574 431.79 285.891 431.804 285.271C431.809 285.071 431.891 284.973 432.376 284.765C433.286 284.366 433.971 284.162 434.251 284.148C434.511 284.134 434.649 284.238 434.641 284.598L434.556 287.356L434.464 291.315C434.419 293.235 435.367 292.897 435.35 293.597C435.343 293.897 435.042 293.969 434.562 293.958L432.422 293.908C431.942 293.897 431.624 293.81 431.632 293.49C431.648 292.81 432.599 293.192 432.644 291.273ZM438.431 294.045C438.152 294.065 438.104 293.948 437.824 293.407C437.466 292.631 437.229 292.127 436.932 291.346C436.852 291.071 436.898 290.888 437.112 290.792C437.306 290.697 437.537 290.841 437.816 291.101C439.494 292.664 440.599 292.964 441.676 292.886C442.574 292.821 443.32 292.325 443.256 291.448C443.193 290.59 442.037 290.133 440.373 289.592C438.589 289.04 436.922 288.459 436.803 286.824C436.671 285.009 438.264 284.03 439.78 283.92C440.837 283.843 441.492 284.016 442.012 283.998C442.332 283.995 442.393 283.73 442.653 283.711C442.912 283.692 443.05 283.943 443.319 284.324C443.659 284.861 443.844 285.208 444.03 285.556C444.173 285.866 444.192 286.126 444.001 286.26C443.695 286.463 443.39 286.124 442.674 285.655C441.854 285.133 440.841 284.725 439.904 284.793C438.827 284.872 438.268 285.454 438.318 286.152C438.382 287.03 439.352 287.4 441.241 288.005C443.211 288.623 444.822 289.268 444.931 290.764C445.038 292.24 443.698 293.661 441.503 293.821C440.187 293.917 439.561 293.581 439.162 293.61C438.843 293.634 438.791 294.018 438.431 294.045ZM453.633 281.31C456.073 280.604 458.396 281.868 459.169 284.538C460.003 287.42 458.681 290.26 456.241 290.966C454.339 291.516 453.623 290.912 452.97 291.101C452.38 291.293 452.162 291.98 451.605 292.141C451.336 292.219 451.165 292.06 451.14 291.756C451.091 291.228 450.96 290.704 450.804 290.166L448.324 281.598C447.834 279.907 446.974 280.531 446.802 279.936C446.746 279.744 446.814 279.62 447.214 279.275C447.943 278.627 448.554 278.221 448.817 278.124C449.061 278.032 449.224 278.089 449.324 278.435L450.072 281.092L450.895 283.935C451.262 282.829 452.192 281.727 453.633 281.31ZM456.016 290.115C457.649 289.642 458.313 288.055 457.668 285.826C456.929 283.271 454.985 282.168 453.371 282.635C451.508 283.175 451.279 285.261 451.546 286.183L452.016 287.733C452.494 289.386 454.306 290.61 456.016 290.115ZM463.057 277.69C464.038 277.239 464.758 277.656 465.051 278.291C465.269 278.764 465.161 279.342 464.751 279.553C463.996 279.922 463.665 279.106 462.829 279.491C462.03 279.859 461.785 281.336 462.521 282.935L463.617 285.315C464.42 287.059 465.105 286.347 465.398 286.983C465.523 287.256 465.302 287.445 464.848 287.654L462.904 288.549C462.486 288.742 462.144 288.811 462.01 288.521C461.726 287.903 462.767 287.82 461.964 286.076L460.283 282.424C459.998 281.807 459.716 281.386 459.092 281.321C458.834 281.286 458.656 281.235 458.573 281.054C458.481 280.854 458.521 280.703 458.865 280.303C459.349 279.728 459.875 279.243 460.121 279.108C460.357 278.999 460.526 279.032 460.668 279.34L461.328 280.82C461.397 279.489 461.985 278.184 463.057 277.69ZM465.425 274.769C464.94 275.009 464.392 274.868 464.141 274.366C463.81 273.726 464.157 272.545 464.897 272.224C465.382 271.983 465.963 272.22 466.2 272.661C466.505 273.294 466.127 274.424 465.425 274.769ZM469.676 282.316L467.661 278.906C466.776 277.409 466.105 278.2 465.79 277.666C465.688 277.494 465.706 277.367 466.008 276.934C466.569 276.114 467.042 275.579 467.273 275.419C467.487 275.269 467.658 275.284 467.841 275.594L469.228 277.98L471.243 281.39C472.22 283.042 472.846 282.254 473.202 282.857C473.355 283.115 473.137 283.337 472.724 283.581L470.882 284.67C470.469 284.914 470.152 285.008 469.99 284.732C469.644 284.147 470.653 283.968 469.676 282.316ZM474.272 279.431L469.441 272.608C468.428 271.169 467.834 272.028 467.477 271.521C467.362 271.357 467.386 271.218 467.652 270.762C468.129 269.912 468.559 269.34 468.792 269.151C468.994 268.985 469.166 268.986 469.373 269.281L470.946 271.549L475.76 278.383C476.865 279.953 477.41 279.129 477.813 279.701C477.986 279.947 477.803 280.173 477.394 280.461L475.645 281.694C475.269 281.958 474.945 282.089 474.76 281.827C474.369 281.271 475.377 281.001 474.272 279.431ZM482.943 268.233L485.754 270.441C486.76 271.204 487.277 270.553 487.678 271C487.878 271.223 487.723 271.469 487.35 271.803L485.772 273.218C485.414 273.538 485.122 273.692 484.909 273.454C484.522 273.022 485.39 272.432 484.358 271.611L481.711 269.526C480.463 268.522 479.168 267.588 477.826 268.817C476.871 269.7 476.618 271.485 478.246 273.302L479.795 275.029C481.076 276.459 481.521 275.577 481.988 276.098C482.188 276.322 482.033 276.568 481.661 276.902L480.067 278.33C479.725 278.637 479.418 278.805 479.204 278.566C478.751 278.06 479.721 277.674 478.439 276.244L472.845 270.032C471.67 268.721 471.181 269.643 470.767 269.181C470.634 269.032 470.641 268.891 470.852 268.407C471.227 267.507 471.587 266.889 471.797 266.674C471.977 266.486 472.148 266.467 472.388 266.735L474.215 268.804L476.271 271.097C476.041 269.612 476.58 268.296 477.489 267.482C478.978 266.147 480.5 266.287 482.943 268.233ZM493.864 262.434C494.006 262.267 494.138 262.142 494.306 262.285C494.687 262.609 494.669 263.618 494.086 264.303C493.477 265.019 492.867 264.842 492.019 264.357C492.267 265.671 491.8 267.085 491.048 267.968C489.468 269.827 487.525 270.013 486.23 268.912C484.767 267.668 484.875 265.503 486.456 263.644C487 263.004 487.424 262.629 488.053 262.167C486.575 261.435 485.538 260.894 484.411 262.22C483.673 263.089 483.468 263.885 483.289 264.836C483.226 265.281 482.79 265.331 482.654 264.874C482.431 264.054 482.694 262.387 483.873 261.001C485.298 259.325 486.906 259.564 488.478 260.401L492.38 262.512C493.3 263.005 493.618 262.724 493.864 262.434ZM490.584 266.97C491.478 265.919 491.604 264.135 490.83 263.687C490.427 263.45 489.928 263.235 489.14 262.802C488.723 262.552 487.731 263.441 487.329 263.914C486.189 265.254 486.22 266.515 487.254 267.367C488.283 268.164 489.613 268.113 490.584 266.97ZM496.446 250.779L499.722 252.21C500.887 252.696 501.224 251.936 501.724 252.268C501.974 252.434 501.886 252.711 501.609 253.128L500.436 254.894C500.171 255.293 499.927 255.516 499.661 255.339C499.177 255.018 499.869 254.229 498.665 253.693L495.578 252.339C494.118 251.682 492.631 251.102 491.64 252.629C490.938 253.723 491.141 255.514 493.173 256.864L495.106 258.148C496.705 259.21 496.914 258.245 497.497 258.632C497.747 258.798 497.659 259.075 497.382 259.492L496.198 261.274C495.944 261.658 495.689 261.897 495.423 261.72C494.856 261.343 495.698 260.726 494.099 259.664L490.75 257.44C490.184 257.064 489.723 256.854 489.158 257.126C488.919 257.232 488.742 257.282 488.575 257.172C488.392 257.05 488.347 256.9 488.43 256.379C488.539 255.635 488.732 254.947 488.871 254.703C489.014 254.486 489.175 254.425 489.458 254.613L490.863 255.57C490.073 254.085 490.248 252.521 490.978 251.421C492.085 249.755 493.593 249.508 496.446 250.779ZM503.412 246.114C503.308 245.717 503.698 245.541 503.949 245.835C504.415 246.404 504.868 247.671 504.156 248.991C503.379 250.435 502.12 250.62 500.518 249.757L499.99 249.472C497.93 248.362 496.302 247.462 495.239 246.821L494.878 247.49C494.688 247.843 494.507 247.926 494.26 247.794C494.137 247.727 494.058 247.662 493.976 247.436C493.587 246.386 493.393 245.441 493.266 244.622C493.232 244.263 493.279 244.175 493.346 244.052C493.469 243.823 493.665 243.838 493.92 243.998C494.253 244.223 494.578 244.421 495.273 244.818L496.222 243.057C496.383 242.758 496.533 242.521 496.909 242.837C497.301 243.162 497.185 243.463 497.006 243.752L496.109 245.291L500.824 247.923C501.985 248.594 502.75 248.733 503.272 247.765C503.528 247.29 503.523 246.583 503.412 246.114ZM506.665 237.011C506.474 236.554 506.854 236.242 507.229 236.628C507.954 237.41 508.652 239.383 507.629 241.686C506.491 244.245 503.882 245.142 501.469 244.069C498.71 242.843 497.451 239.963 498.654 237.258C499.539 235.266 501.284 234.444 503.002 234.814C503.363 234.887 503.586 235.074 503.564 235.567C503.454 237.882 503.251 240.112 503.003 242.541C504.217 242.665 505.923 242.175 506.678 240.476C507.223 239.251 507.067 237.978 506.665 237.011ZM499.261 238.207C498.548 239.859 499.681 241.348 501.015 241.941C501.472 242.144 501.827 242.28 502.178 242.327C502.351 240.609 502.51 238.973 502.591 237.411C502.611 237.07 502.477 236.879 502.124 236.787C500.91 236.466 499.671 237.185 499.261 238.207Z" fill="#FFFFF3"/>
<path d="M228.641 218.326C282.944 218.326 327.026 262.079 327.563 316.255H129.718C130.254 262.079 174.338 218.326 228.641 218.326Z" fill="#FFE57B" stroke="#1A1A1A" stroke-width="2"/>
<path d="M188.392 272.066C191.104 272.066 192.796 274.257 192.796 277.229C192.796 280.505 190.778 282.892 188.088 282.913C186.808 282.935 185.485 282.458 184.66 281.763L184.682 284.172C184.682 286.254 185.68 285.864 185.68 286.623C185.68 286.948 185.376 287.035 184.834 287.035H182.513C182.014 287.035 181.667 286.948 181.667 286.623C181.667 285.864 182.708 286.254 182.708 284.172L182.665 275.385C182.665 274.669 182.578 274.127 182.014 273.78C181.775 273.628 181.623 273.498 181.623 273.281C181.623 273.02 181.732 272.89 182.252 272.652C182.99 272.326 183.728 272.087 184.031 272.066C184.313 272.044 184.465 272.153 184.465 272.543L184.444 274.3C185.138 273.129 186.439 272.066 188.392 272.066ZM188.088 281.937C189.976 281.915 190.844 280.18 190.844 278.097C190.844 274.973 189.325 273.433 187.676 273.433C185.68 273.433 184.66 275.32 184.66 276.904V278.422C184.66 280.679 186.57 281.959 188.088 281.937ZM204.62 281.351C204.859 281.351 205.054 281.373 205.054 281.612C205.054 282.154 204.208 282.848 203.231 282.848C202.212 282.848 201.93 282.219 201.735 281.178C200.823 282.306 199.326 282.913 198.068 282.913C195.421 282.913 193.903 281.438 193.903 279.594C193.903 277.511 195.768 276.079 198.415 276.079C199.326 276.079 199.934 276.166 200.758 276.361C200.324 274.626 200.042 273.389 198.155 273.389C196.918 273.389 196.116 273.78 195.204 274.3C194.792 274.561 194.445 274.235 194.727 273.801C195.248 273.042 196.81 272.087 198.784 272.087C201.17 272.087 202.103 273.584 202.516 275.472L203.514 280.18C203.752 281.286 204.208 281.351 204.62 281.351ZM198.567 281.828C200.064 281.828 201.626 280.679 201.453 279.724C201.366 279.225 201.192 278.661 200.997 277.706C200.91 277.186 199.478 276.991 198.806 276.991C196.897 276.991 195.877 277.902 195.899 279.355C195.964 280.765 196.94 281.828 198.567 281.828ZM212.317 272.066C213.489 272.066 214.01 272.803 214.01 273.563C214.01 274.127 213.641 274.647 213.142 274.669C212.231 274.691 212.274 273.736 211.276 273.736C210.321 273.736 209.41 275.081 209.41 276.991V279.833C209.41 281.915 210.408 281.525 210.408 282.284C210.408 282.61 210.105 282.696 209.562 282.696H207.241C206.742 282.696 206.373 282.61 206.373 282.262C206.373 281.525 207.436 281.915 207.436 279.833V275.472C207.436 274.734 207.349 274.192 206.764 273.845C206.525 273.693 206.373 273.563 206.373 273.346C206.373 273.107 206.481 272.977 207.002 272.738C207.74 272.391 208.477 272.153 208.781 272.131C209.063 272.131 209.215 272.239 209.215 272.608L209.193 274.365C209.866 273.085 211.037 272.066 212.317 272.066ZM225.319 281.351C225.558 281.351 225.753 281.373 225.753 281.612C225.753 282.154 224.907 282.848 223.931 282.848C222.911 282.848 222.629 282.219 222.434 281.178C221.523 282.306 220.026 282.913 218.767 282.913C216.12 282.913 214.602 281.438 214.602 279.594C214.602 277.511 216.468 276.079 219.114 276.079C220.026 276.079 220.633 276.166 221.457 276.361C221.024 274.626 220.741 273.389 218.854 273.389C217.617 273.389 216.815 273.78 215.904 274.3C215.491 274.561 215.144 274.235 215.426 273.801C215.947 273.042 217.509 272.087 219.483 272.087C221.87 272.087 222.803 273.584 223.215 275.472L224.213 280.18C224.451 281.286 224.907 281.351 225.319 281.351ZM219.266 281.828C220.763 281.828 222.325 280.679 222.152 279.724C222.065 279.225 221.891 278.661 221.696 277.706C221.609 277.186 220.177 276.991 219.505 276.991C217.596 276.991 216.576 277.902 216.598 279.355C216.663 280.765 217.639 281.828 219.266 281.828ZM241.786 272.543L241.764 275.537V279.854C241.764 281.503 243.044 281.004 243.044 281.633C243.044 281.85 242.871 282.067 242.502 282.262C241.938 282.588 241.092 282.913 240.571 282.913C240.05 282.913 239.855 282.523 239.834 281.785L239.812 280.896C238.857 282.241 237.339 282.913 236.145 282.913C233.998 282.913 232.479 281.612 232.479 278.596V275.537C232.479 273.628 231.394 274.018 231.394 273.346C231.394 273.129 231.503 273.02 232.023 272.782C232.978 272.326 233.737 272.087 234.041 272.066C234.323 272.044 234.475 272.153 234.475 272.543L234.453 275.537V278.379C234.453 280.332 235.104 281.655 236.753 281.612C238.141 281.59 239.79 280.288 239.79 278.162V275.537C239.79 273.628 238.705 274.018 238.705 273.346C238.705 273.129 238.814 273.02 239.335 272.782C240.289 272.326 241.027 272.087 241.352 272.066C241.634 272.044 241.786 272.153 241.786 272.543ZM262.043 276.622L262.716 280.44C262.954 281.785 263.866 281.633 263.866 282.284C263.866 282.61 263.54 282.696 263.019 282.696H260.698C260.199 282.696 259.852 282.61 259.852 282.262C259.852 281.633 260.98 281.785 260.741 280.375L260.112 276.774C259.809 275.06 259.548 273.367 257.596 273.389C256.251 273.411 254.775 274.582 254.689 277.099L254.71 279.833C254.71 281.915 255.73 281.525 255.73 282.284C255.73 282.61 255.405 282.696 254.884 282.696H252.563C252.042 282.696 251.695 282.61 251.695 282.262C251.695 281.525 252.736 281.915 252.736 279.833V276.817C252.736 274.864 252.237 273.302 250.35 273.346C248.831 273.367 247.334 274.669 247.334 277.316V279.833C247.334 281.915 248.332 281.525 248.332 282.284C248.332 282.61 248.028 282.696 247.486 282.696H245.165C244.666 282.696 244.297 282.61 244.297 282.262C244.297 281.525 245.36 281.915 245.36 279.833V275.472C245.36 274.734 245.273 274.192 244.687 273.845C244.449 273.693 244.297 273.563 244.297 273.346C244.297 273.107 244.405 272.977 244.926 272.738C245.664 272.391 246.401 272.153 246.705 272.131C246.987 272.131 247.139 272.239 247.139 272.608L247.117 274.452C247.985 272.847 249.417 272.066 250.957 272.066C252.714 272.066 253.929 272.89 254.428 274.539C255.274 272.89 256.728 272.066 258.29 272.066C260.459 272.066 261.457 273.281 262.043 276.622ZM275.34 281.351C275.579 281.351 275.774 281.373 275.774 281.612C275.774 282.154 274.928 282.848 273.952 282.848C272.932 282.848 272.65 282.219 272.455 281.178C271.544 282.306 270.047 282.913 268.788 282.913C266.142 282.913 264.623 281.438 264.623 279.594C264.623 277.511 266.489 276.079 269.136 276.079C270.047 276.079 270.654 276.166 271.479 276.361C271.045 274.626 270.763 273.389 268.875 273.389C267.639 273.389 266.836 273.78 265.925 274.3C265.513 274.561 265.165 274.235 265.447 273.801C265.968 273.042 267.53 272.087 269.504 272.087C271.891 272.087 272.824 273.584 273.236 275.472L274.234 280.18C274.473 281.286 274.928 281.351 275.34 281.351ZM269.287 281.828C270.784 281.828 272.346 280.679 272.173 279.724C272.086 279.225 271.913 278.661 271.717 277.706C271.63 277.186 270.199 276.991 269.526 276.991C267.617 276.991 266.597 277.902 266.619 279.355C266.684 280.765 267.66 281.828 269.287 281.828Z" fill="#1A1A1A"/>
<rect x="1.71201" y="267.752" width="120" height="49" rx="24.5" fill="#FFE47B"/>
<rect x="1.71201" y="267.752" width="120" height="49" rx="24.5" stroke="#1A1A1A" stroke-width="2"/>
<path d="M20.112 299.452C18.592 299.452 17.892 299.192 17.292 299.192C16.832 299.192 16.712 299.432 16.392 299.432C16.012 299.432 15.812 299.172 15.672 298.332C15.552 297.692 15.372 296.832 15.232 295.532C15.192 295.132 15.252 294.832 15.572 294.832C15.852 294.832 16.072 295.032 16.312 295.512C16.892 296.852 17.972 298.472 20.312 298.492C22.252 298.492 23.132 297.352 23.192 296.092C23.292 294.412 21.452 293.752 19.732 292.932C17.712 291.952 15.532 291.132 15.532 288.692C15.532 286.832 17.152 285.092 20.232 285.092C21.112 285.092 21.832 285.312 22.392 285.312C22.852 285.312 22.972 285.092 23.292 285.092C23.672 285.092 23.772 285.312 23.972 286.152C24.112 286.732 24.292 287.432 24.452 288.412C24.512 288.792 24.452 289.072 24.132 289.072C23.852 289.072 23.612 288.872 23.352 288.432C22.712 287.412 21.572 286.032 19.792 286.032C18.152 286.032 17.292 286.932 17.292 288.152C17.292 289.692 18.752 290.232 20.652 291.172C22.792 292.212 25.012 292.952 25.092 295.332C25.172 297.872 22.752 299.432 20.112 299.452ZM35.0931 296.672C35.4331 296.312 35.8731 296.532 35.6731 297.032C35.2531 298.012 33.7331 299.452 31.2131 299.452C28.4131 299.452 26.5331 297.432 26.5331 294.792C26.5331 291.772 28.6531 289.452 31.6131 289.452C33.7931 289.452 35.2531 290.712 35.6131 292.432C35.6931 292.792 35.6131 293.072 35.1531 293.252C32.9931 294.092 30.8731 294.812 28.5531 295.572C28.9331 296.732 30.0731 298.092 31.9331 298.092C33.2731 298.092 34.3731 297.432 35.0931 296.672ZM30.9931 290.392C29.1931 290.412 28.2931 292.052 28.2931 293.512C28.2931 294.012 28.3131 294.392 28.4131 294.732C30.0531 294.192 31.6131 293.672 33.0731 293.112C33.3931 292.992 33.5131 292.792 33.4531 292.432C33.2531 291.192 32.0931 290.352 30.9931 290.392ZM46.9209 289.892L46.9009 292.652V296.632C46.9009 298.152 48.0809 297.692 48.0809 298.272C48.0809 298.472 47.9209 298.672 47.5809 298.852C47.0609 299.152 46.2809 299.452 45.8009 299.452C45.3209 299.452 45.1409 299.092 45.1209 298.412L45.1009 297.592C44.2209 298.832 42.8209 299.452 41.7209 299.452C39.7409 299.452 38.3409 298.252 38.3409 295.472V292.652C38.3409 290.892 37.3409 291.252 37.3409 290.632C37.3409 290.432 37.4409 290.332 37.9209 290.112C38.8009 289.692 39.5009 289.472 39.7809 289.452C40.0409 289.432 40.1809 289.532 40.1809 289.892L40.1609 292.652V295.272C40.1609 297.072 40.7609 298.292 42.2809 298.252C43.5609 298.232 45.0809 297.032 45.0809 295.072V292.652C45.0809 290.892 44.0809 291.252 44.0809 290.632C44.0809 290.432 44.1809 290.332 44.6609 290.112C45.5409 289.692 46.2209 289.472 46.5209 289.452C46.7809 289.432 46.9209 289.532 46.9209 289.892ZM62.6194 298.012C62.8393 298.012 63.0194 298.032 63.0194 298.252C63.0194 298.752 62.2393 299.392 61.3393 299.392C60.3993 299.392 60.1393 298.812 59.9593 297.852C59.1193 298.892 57.7393 299.452 56.5793 299.452C54.1393 299.452 52.7393 298.092 52.7393 296.392C52.7393 294.472 54.4593 293.152 56.8993 293.152C57.7393 293.152 58.2993 293.232 59.0593 293.412C58.6593 291.812 58.3993 290.672 56.6593 290.672C55.5193 290.672 54.7793 291.032 53.9393 291.512C53.5593 291.752 53.2393 291.452 53.4993 291.052C53.9793 290.352 55.4193 289.472 57.2393 289.472C59.4393 289.472 60.2993 290.852 60.6793 292.592L61.5993 296.932C61.8194 297.952 62.2393 298.012 62.6194 298.012ZM57.0393 298.452C58.4193 298.452 59.8593 297.392 59.6993 296.512C59.6193 296.052 59.4593 295.532 59.2793 294.652C59.1993 294.172 57.8793 293.992 57.2593 293.992C55.4993 293.992 54.5593 294.832 54.5793 296.172C54.6393 297.472 55.5393 298.452 57.0393 298.452ZM65.1359 296.612L65.1159 288.252C65.1159 286.492 64.1359 286.852 64.1359 286.232C64.1359 286.032 64.2359 285.932 64.7159 285.712C65.5959 285.292 66.2759 285.072 66.5759 285.052C66.8359 285.032 66.9759 285.132 66.9759 285.492L66.9559 288.252V296.612C66.9559 298.532 67.8759 298.172 67.8759 298.872C67.8759 299.172 67.5959 299.252 67.0959 299.252H64.9559C64.4959 299.252 64.1559 299.172 64.1559 298.852C64.1559 298.172 65.1359 298.532 65.1359 296.612ZM70.9623 287.952C70.4223 287.912 70.0223 287.512 70.0623 286.952C70.1023 286.232 71.0023 285.392 71.8023 285.492C72.3423 285.532 72.7223 286.032 72.7023 286.532C72.6423 287.232 71.7423 288.012 70.9623 287.952ZM70.7823 296.612V292.652C70.7823 290.912 69.8023 291.252 69.8023 290.632C69.8023 290.432 69.8823 290.332 70.3623 290.112C71.2623 289.692 71.9423 289.472 72.2223 289.452C72.4823 289.432 72.6223 289.532 72.6223 289.892L72.6023 292.652V296.612C72.6023 298.532 73.5423 298.172 73.5423 298.872C73.5423 299.172 73.2423 299.252 72.7623 299.252H70.6223C70.1423 299.252 69.8223 299.172 69.8223 298.852C69.8223 298.172 70.7823 298.532 70.7823 296.612ZM84.885 298.012C85.105 298.012 85.285 298.032 85.285 298.252C85.285 298.752 84.505 299.392 83.605 299.392C82.665 299.392 82.405 298.812 82.225 297.852C81.385 298.892 80.005 299.452 78.845 299.452C76.405 299.452 75.005 298.092 75.005 296.392C75.005 294.472 76.725 293.152 79.165 293.152C80.005 293.152 80.565 293.232 81.325 293.412C80.925 291.812 80.665 290.672 78.925 290.672C77.785 290.672 77.045 291.032 76.205 291.512C75.825 291.752 75.505 291.452 75.765 291.052C76.245 290.352 77.685 289.472 79.505 289.472C81.705 289.472 82.565 290.852 82.945 292.592L83.865 296.932C84.085 297.952 84.505 298.012 84.885 298.012ZM79.305 298.452C80.685 298.452 82.125 297.392 81.965 296.512C81.885 296.052 81.725 295.532 81.545 294.652C81.465 294.172 80.145 293.992 79.525 293.992C77.765 293.992 76.825 294.832 76.845 296.172C76.905 297.472 77.805 298.452 79.305 298.452ZM95.6448 285.492L95.6248 288.252L95.6048 296.632C95.6048 298.132 96.8048 297.692 96.8048 298.272C96.8048 298.472 96.6448 298.652 96.2848 298.852C95.7848 299.132 95.0048 299.452 94.5248 299.452C94.0448 299.452 93.8648 299.092 93.8448 298.412L93.8248 297.692C93.1248 298.692 91.9048 299.472 90.3248 299.452C87.7048 299.432 86.0448 297.392 86.0448 294.832C86.0448 291.712 88.4248 289.452 91.0248 289.452C92.0048 289.452 93.0448 289.752 93.8048 290.412V288.252C93.8048 286.512 92.8248 286.852 92.8248 286.232C92.8248 286.032 92.9048 285.932 93.3848 285.712C94.2848 285.292 94.9648 285.072 95.2648 285.052C95.5048 285.032 95.6448 285.132 95.6448 285.492ZM91.0048 298.172C92.6648 298.172 93.6448 296.832 93.7848 295.652V294.652C93.7448 293.832 93.6248 292.792 93.1648 292.032C92.5848 290.992 91.7248 290.432 90.5848 290.432C88.8648 290.432 87.8248 291.892 87.8248 293.892C87.8248 296.792 89.5248 298.172 91.0048 298.172ZM102.444 299.452C99.744 299.452 97.744 297.652 97.744 294.812C97.744 291.792 99.924 289.452 103.024 289.452C105.684 289.452 107.624 291.512 107.624 294.212C107.624 297.172 105.504 299.452 102.444 299.452ZM103.064 298.492C104.764 298.492 105.824 297.132 105.824 295.212C105.824 292.712 104.324 290.472 102.324 290.472C100.544 290.472 99.564 291.952 99.564 293.852C99.564 296.472 101.024 298.492 103.064 298.492Z" fill="#1A1A1A"/>
<rect x="1.71201" y="218.752" width="42" height="42" rx="21" fill="#FC5B03"/>
<rect x="1.71201" y="218.752" width="42" height="42" rx="21" stroke="#1A1A1A" stroke-width="2"/>
<rect x="328.712" y="130.752" width="153" height="50" rx="25" fill="#FFFFF3"/>
<path d="M351.492 162.252C350.992 162.252 350.672 161.912 350.672 161.392V150.192C350.672 149.672 350.992 149.312 351.492 149.312H358.932C359.392 149.312 359.632 149.532 359.632 149.932V150.032C359.632 150.452 359.392 150.652 358.932 150.652H352.172V154.972H357.352C357.832 154.972 358.072 155.192 358.072 155.572V155.652C358.072 156.072 357.832 156.272 357.352 156.272H352.172V160.912H359.092C359.552 160.912 359.792 161.112 359.792 161.512V161.612C359.792 162.032 359.552 162.252 359.092 162.252H351.492ZM361.902 161.632V150.112C361.902 149.592 362.262 149.252 362.802 149.252H363.202C363.842 149.252 364.002 149.492 364.262 150.092L367.762 157.412L371.262 150.092C371.502 149.472 371.702 149.252 372.282 149.252H372.662C373.242 149.252 373.582 149.592 373.582 150.112V161.632C373.582 162.072 373.402 162.312 372.962 162.312H372.782C372.362 162.312 372.162 162.072 372.162 161.632V158.112L372.182 151.072L368.762 158.232C368.582 158.672 368.382 158.952 367.742 158.952C367.062 158.952 366.902 158.672 366.702 158.232L363.302 151.092L363.322 158.072V161.632C363.322 162.072 363.142 162.312 362.702 162.312H362.482C362.062 162.312 361.902 162.072 361.902 161.632ZM390.112 155.692C390.672 155.692 390.992 156.052 390.972 156.632V162.172C390.972 162.212 390.772 162.312 390.492 162.312C390.052 162.312 389.712 162.112 389.692 161.132C389.692 160.752 389.672 160.372 389.672 159.972C388.972 161.492 387.372 162.472 385.232 162.472C381.592 162.472 379.292 159.652 379.292 155.812C379.292 151.892 381.852 149.092 385.652 149.092C387.432 149.092 388.732 149.712 389.492 150.372C390.092 150.872 390.392 151.432 390.392 151.772C390.392 152.552 389.552 152.652 389.472 152.592C388.812 151.292 387.372 150.392 385.632 150.392C382.792 150.392 380.852 152.592 380.852 155.812C380.852 158.972 382.592 161.212 385.512 161.212C387.772 161.212 389.432 159.812 389.652 157.812V156.952H386.232C385.712 156.952 385.452 156.772 385.452 156.372V156.272C385.452 155.872 385.712 155.692 386.232 155.692H390.112ZM393.422 157.152V149.932C393.422 149.472 393.662 149.252 394.062 149.252H394.282C394.702 149.252 394.942 149.472 394.942 149.932V157.132C394.942 159.752 396.102 161.112 398.442 161.112C400.802 161.112 401.922 159.792 401.922 157.112V149.932C401.922 149.452 402.142 149.252 402.562 149.252H402.822C403.242 149.252 403.422 149.452 403.422 149.932V157.112C403.422 160.612 401.682 162.472 398.402 162.472C395.142 162.472 393.422 160.652 393.422 157.152ZM406.16 161.632V150.112C406.16 149.592 406.52 149.252 407.06 149.252H407.46C408.1 149.252 408.26 149.492 408.52 150.092L412.02 157.412L415.52 150.092C415.76 149.472 415.96 149.252 416.54 149.252H416.92C417.5 149.252 417.84 149.592 417.84 150.112V161.632C417.84 162.072 417.66 162.312 417.22 162.312H417.04C416.62 162.312 416.42 162.072 416.42 161.632V158.112L416.44 151.072L413.02 158.232C412.84 158.672 412.64 158.952 412 158.952C411.32 158.952 411.16 158.672 410.96 158.232L407.56 151.092L407.58 158.072V161.632C407.58 162.072 407.4 162.312 406.96 162.312H406.74C406.32 162.312 406.16 162.072 406.16 161.632ZM420.789 161.632V150.112C420.789 149.592 421.149 149.252 421.689 149.252H422.089C422.729 149.252 422.889 149.492 423.149 150.092L426.649 157.412L430.149 150.092C430.389 149.472 430.589 149.252 431.169 149.252H431.549C432.129 149.252 432.469 149.592 432.469 150.112V161.632C432.469 162.072 432.289 162.312 431.849 162.312H431.669C431.249 162.312 431.049 162.072 431.049 161.632V158.112L431.069 151.072L427.649 158.232C427.469 158.672 427.269 158.952 426.629 158.952C425.949 158.952 425.789 158.672 425.589 158.232L422.189 151.092L422.209 158.072V161.632C422.209 162.072 422.029 162.312 421.589 162.312H421.369C420.949 162.312 420.789 162.072 420.789 161.632ZM435.618 161.632V149.932C435.618 149.472 435.818 149.252 436.238 149.252H436.458C436.878 149.252 437.118 149.472 437.118 149.932V161.632C437.118 162.072 436.878 162.312 436.458 162.312H436.238C435.818 162.312 435.618 162.072 435.618 161.632ZM441.043 162.252C440.543 162.252 440.223 161.912 440.223 161.392V150.192C440.223 149.672 440.543 149.312 441.043 149.312H448.483C448.943 149.312 449.183 149.532 449.183 149.932V150.032C449.183 150.452 448.943 150.652 448.483 150.652H441.723V154.972H446.903C447.383 154.972 447.623 155.192 447.623 155.572V155.652C447.623 156.072 447.383 156.272 446.903 156.272H441.723V160.912H448.643C449.103 160.912 449.343 161.112 449.343 161.512V161.612C449.343 162.032 449.103 162.252 448.643 162.252H441.043ZM451.333 161.112C450.913 160.692 450.713 160.232 450.713 159.892C450.713 159.352 451.373 158.992 451.433 159.052C452.033 160.152 453.293 161.212 455.313 161.212C457.213 161.212 458.393 160.332 458.393 158.852C458.393 157.192 456.793 156.792 454.973 156.352C452.993 155.852 451.033 155.192 451.033 152.692C451.033 150.572 452.873 149.092 455.393 149.092C457.073 149.092 458.293 149.632 458.973 150.252C459.373 150.632 459.593 151.052 459.593 151.392C459.593 151.972 458.893 152.312 458.853 152.252C458.293 151.252 457.113 150.352 455.393 150.352C453.693 150.352 452.493 151.252 452.493 152.652C452.493 154.232 453.853 154.552 455.713 155.012C457.813 155.512 459.873 156.292 459.873 158.772C459.873 161.032 458.093 162.472 455.333 162.472C453.433 162.472 452.073 161.852 451.333 161.112Z" fill="#FC5B03"/>
<mask id="path-10-outside-1_1_1047" maskUnits="userSpaceOnUse" x="-0.287994" y="22.752" width="392" height="88" fill="black">
<rect fill="white" x="-0.287994" y="22.752" width="392" height="88"/>
<path d="M23.416 44.9439C20.248 44.9439 17.872 42.832 17.872 39.84C17.872 33.9439 27.464 28.048 32.92 26.7279C38.552 28.136 47.968 33.9439 47.968 39.84C47.968 42.832 45.68 44.9439 42.424 44.9439C38.552 44.9439 35.208 41.864 32.92 37.1999C30.456 42.0399 27.024 44.9439 23.416 44.9439ZM32.92 106.984C15.408 106.984 3.00001 94.664 3.00001 77.328C3.00001 59.9919 15.584 47.584 32.92 47.584C50.432 47.584 62.84 59.904 62.84 77.24C62.84 94.664 50.344 106.984 32.92 106.984ZM32.92 91.232C40.488 91.232 45.416 85.776 45.416 77.328C45.416 68.792 40.4 63.16 32.92 63.16C25.352 63.16 20.424 68.528 20.424 77.24C20.424 85.776 25.44 91.232 32.92 91.232ZM71.7651 98.008V56.8239C71.7651 51.28 74.5811 48.376 79.6851 48.376H84.6131C89.2771 48.376 90.8611 49.5199 92.4451 53.1279L101.685 75.832L110.837 53.1279C112.597 49.256 114.445 48.376 118.405 48.376H123.421C128.613 48.376 131.517 51.28 131.517 56.8239V98.008C131.517 103.376 129.669 106.192 124.565 106.192H121.837C116.909 106.192 114.885 103.376 114.885 98.008V90.352L114.973 73.544L109.077 90.352C108.197 92.552 108.109 94.664 101.597 94.664C94.9971 94.664 95.1731 92.64 94.2051 90.352L88.3971 74.336V98.008C88.3971 103.376 86.5491 106.192 81.5331 106.192H78.6291C73.7891 106.192 71.7651 103.376 71.7651 98.008ZM151.102 105.752C145.294 105.752 142.038 102.496 142.038 96.072V58.672C142.038 52.2479 145.294 48.816 151.102 48.816H181.198C186.742 48.816 189.294 51.0159 189.294 55.68V56.12C189.294 60.96 186.742 62.896 181.198 62.896H159.726V70.376H173.982C179.79 70.376 182.166 72.224 182.166 76.536V76.8C182.166 81.464 179.702 83.4 173.982 83.4H159.726V91.848H181.55C187.182 91.848 189.734 93.608 189.734 98.184V98.624C189.734 103.464 187.182 105.752 181.55 105.752H151.102ZM247.966 73.104C253.07 73.104 254.038 75.48 254.038 80.584V104.432C254.038 104.96 251.31 106.192 248.054 106.192C244.886 106.192 241.454 104.872 239.958 100.032L239.43 98.536C236.614 103.464 230.982 106.72 222.71 106.72C206.958 106.72 196.046 94.312 196.046 77.328C196.046 59.9919 208.366 47.584 227.022 47.584C234.15 47.584 239.694 48.9919 243.566 51.368C247.438 53.656 249.462 57 249.462 60.696C249.462 67.208 241.102 69.32 240.574 68.792C237.582 64.832 233.006 62.632 228.078 62.632C220.07 62.632 213.822 68.792 213.822 78.12C213.822 87.536 219.454 93.52 227.286 93.52C232.302 93.52 236.086 91.32 237.406 87.976C237.582 87.448 237.758 86.744 237.846 86.04H232.566C227.022 86.04 224.294 84.808 224.294 79.968V79.176C224.294 74.16 227.022 73.104 232.566 73.104H247.966ZM269.913 106.544C265.073 106.544 260.233 102.672 260.849 101.088L279.153 53.216C280.033 50.4 282.409 48.376 290.417 48.376C298.425 48.376 300.449 50.4 301.329 53.216L320.425 100.912C321.041 102.496 316.289 106.456 311.009 106.456C307.225 106.456 303.353 104.432 300.889 98.184L299.305 94.048H281.177L279.505 98.36C277.393 104.432 273.697 106.544 269.913 106.544ZM284.081 81.288H296.137L290.153 64.832L284.081 81.288ZM362.84 106.984C355.8 106.984 350.08 105.488 346.12 103.112C342.16 100.648 340.048 97.304 340.048 93.696C340.048 84.896 350.256 85.072 350.432 85.688C351.928 90.968 356.328 93.696 362.576 93.696C368.12 93.696 371.464 91.496 371.464 87.888C371.464 84.368 369.352 82.696 364.776 82.696H363.104C357.384 82.696 355.008 80.848 355.008 77.064V76.096C355.008 72.136 357.648 70.288 362.928 70.288H365.92C369 70.288 370.936 68.616 370.936 65.976C370.936 62.808 367.68 60.7839 362.4 60.7839C354.92 60.7839 352.192 64.92 351.224 68.44C351.136 69.056 341.104 69.32 341.104 60.4319C341.104 56.8239 343.128 53.656 346.912 51.28C350.608 48.9919 356.064 47.584 362.752 47.584C378.68 47.584 387.216 53.216 387.216 63.512C387.216 69.144 383.608 73.104 377.008 75.128C384.136 77.504 388.096 82.432 388.096 89.296C388.096 100.56 379.032 106.984 362.84 106.984Z"/>
</mask>
<path d="M23.416 44.9439C20.248 44.9439 17.872 42.832 17.872 39.84C17.872 33.9439 27.464 28.048 32.92 26.7279C38.552 28.136 47.968 33.9439 47.968 39.84C47.968 42.832 45.68 44.9439 42.424 44.9439C38.552 44.9439 35.208 41.864 32.92 37.1999C30.456 42.0399 27.024 44.9439 23.416 44.9439ZM32.92 106.984C15.408 106.984 3.00001 94.664 3.00001 77.328C3.00001 59.9919 15.584 47.584 32.92 47.584C50.432 47.584 62.84 59.904 62.84 77.24C62.84 94.664 50.344 106.984 32.92 106.984ZM32.92 91.232C40.488 91.232 45.416 85.776 45.416 77.328C45.416 68.792 40.4 63.16 32.92 63.16C25.352 63.16 20.424 68.528 20.424 77.24C20.424 85.776 25.44 91.232 32.92 91.232ZM71.7651 98.008V56.8239C71.7651 51.28 74.5811 48.376 79.6851 48.376H84.6131C89.2771 48.376 90.8611 49.5199 92.4451 53.1279L101.685 75.832L110.837 53.1279C112.597 49.256 114.445 48.376 118.405 48.376H123.421C128.613 48.376 131.517 51.28 131.517 56.8239V98.008C131.517 103.376 129.669 106.192 124.565 106.192H121.837C116.909 106.192 114.885 103.376 114.885 98.008V90.352L114.973 73.544L109.077 90.352C108.197 92.552 108.109 94.664 101.597 94.664C94.9971 94.664 95.1731 92.64 94.2051 90.352L88.3971 74.336V98.008C88.3971 103.376 86.5491 106.192 81.5331 106.192H78.6291C73.7891 106.192 71.7651 103.376 71.7651 98.008ZM151.102 105.752C145.294 105.752 142.038 102.496 142.038 96.072V58.672C142.038 52.2479 145.294 48.816 151.102 48.816H181.198C186.742 48.816 189.294 51.0159 189.294 55.68V56.12C189.294 60.96 186.742 62.896 181.198 62.896H159.726V70.376H173.982C179.79 70.376 182.166 72.224 182.166 76.536V76.8C182.166 81.464 179.702 83.4 173.982 83.4H159.726V91.848H181.55C187.182 91.848 189.734 93.608 189.734 98.184V98.624C189.734 103.464 187.182 105.752 181.55 105.752H151.102ZM247.966 73.104C253.07 73.104 254.038 75.48 254.038 80.584V104.432C254.038 104.96 251.31 106.192 248.054 106.192C244.886 106.192 241.454 104.872 239.958 100.032L239.43 98.536C236.614 103.464 230.982 106.72 222.71 106.72C206.958 106.72 196.046 94.312 196.046 77.328C196.046 59.9919 208.366 47.584 227.022 47.584C234.15 47.584 239.694 48.9919 243.566 51.368C247.438 53.656 249.462 57 249.462 60.696C249.462 67.208 241.102 69.32 240.574 68.792C237.582 64.832 233.006 62.632 228.078 62.632C220.07 62.632 213.822 68.792 213.822 78.12C213.822 87.536 219.454 93.52 227.286 93.52C232.302 93.52 236.086 91.32 237.406 87.976C237.582 87.448 237.758 86.744 237.846 86.04H232.566C227.022 86.04 224.294 84.808 224.294 79.968V79.176C224.294 74.16 227.022 73.104 232.566 73.104H247.966ZM269.913 106.544C265.073 106.544 260.233 102.672 260.849 101.088L279.153 53.216C280.033 50.4 282.409 48.376 290.417 48.376C298.425 48.376 300.449 50.4 301.329 53.216L320.425 100.912C321.041 102.496 316.289 106.456 311.009 106.456C307.225 106.456 303.353 104.432 300.889 98.184L299.305 94.048H281.177L279.505 98.36C277.393 104.432 273.697 106.544 269.913 106.544ZM284.081 81.288H296.137L290.153 64.832L284.081 81.288ZM362.84 106.984C355.8 106.984 350.08 105.488 346.12 103.112C342.16 100.648 340.048 97.304 340.048 93.696C340.048 84.896 350.256 85.072 350.432 85.688C351.928 90.968 356.328 93.696 362.576 93.696C368.12 93.696 371.464 91.496 371.464 87.888C371.464 84.368 369.352 82.696 364.776 82.696H363.104C357.384 82.696 355.008 80.848 355.008 77.064V76.096C355.008 72.136 357.648 70.288 362.928 70.288H365.92C369 70.288 370.936 68.616 370.936 65.976C370.936 62.808 367.68 60.7839 362.4 60.7839C354.92 60.7839 352.192 64.92 351.224 68.44C351.136 69.056 341.104 69.32 341.104 60.4319C341.104 56.8239 343.128 53.656 346.912 51.28C350.608 48.9919 356.064 47.584 362.752 47.584C378.68 47.584 387.216 53.216 387.216 63.512C387.216 69.144 383.608 73.104 377.008 75.128C384.136 77.504 388.096 82.432 388.096 89.296C388.096 100.56 379.032 106.984 362.84 106.984Z" fill="#FC5B03"/>
<path d="M32.92 26.728L33.6476 23.8175L32.9318 23.6386L32.2146 23.8121L32.92 26.728ZM32.92 37.2L35.6134 35.8787L32.9697 30.4897L30.2465 35.8389L32.92 37.2ZM23.416 44.944V41.944C21.6359 41.944 20.872 40.9184 20.872 39.84H17.872H14.872C14.872 44.7455 18.8601 47.944 23.416 47.944V44.944ZM17.872 39.84H20.872C20.872 39.1852 21.144 38.3064 21.9114 37.2131C22.6718 36.1299 23.8004 35.0094 25.1824 33.9433C27.9795 31.7855 31.3648 30.1908 33.6255 29.6438L32.92 26.728L32.2146 23.8121C29.0192 24.5851 24.8805 26.5984 21.5176 29.1926C19.8196 30.5025 18.2093 32.044 17.0006 33.7658C15.7991 35.4775 14.872 37.5467 14.872 39.84H17.872ZM32.92 26.728L32.1924 29.6384C34.5647 30.2314 37.9554 31.8354 40.7207 33.9741C42.0894 35.0326 43.1998 36.1422 43.9459 37.2149C44.6973 38.295 44.968 39.1726 44.968 39.84H47.968H50.968C50.968 37.5593 50.0618 35.4999 48.8716 33.7888C47.6762 32.0702 46.0807 30.5343 44.3913 29.2278C41.0407 26.6365 36.9073 24.6325 33.6476 23.8175L32.92 26.728ZM47.968 39.84H44.968C44.968 40.5329 44.7213 40.9971 44.3842 41.3076C44.0301 41.6339 43.4011 41.944 42.424 41.944V44.944V47.944C44.7029 47.944 46.8459 47.198 48.4498 45.7203C50.0707 44.2268 50.968 42.139 50.968 39.84H47.968ZM42.424 44.944V41.944C40.2901 41.944 37.7265 40.1862 35.6134 35.8787L32.92 37.2L30.2266 38.5212C32.6895 43.5417 36.8139 47.944 42.424 47.944V44.944ZM32.92 37.2L30.2465 35.8389C27.9668 40.317 25.3202 41.944 23.416 41.944V44.944V47.944C28.7278 47.944 32.9452 43.7629 35.5935 38.561L32.92 37.2ZM32.92 106.984V103.984C24.885 103.984 18.1866 101.169 13.5055 96.5268C8.82587 91.8861 6.00001 85.2592 6.00001 77.328H3.00001H5.66244e-06C5.66244e-06 86.7327 3.37814 94.9338 9.28056 100.787C15.1814 106.639 23.443 109.984 32.92 109.984V106.984ZM3.00001 77.328H6.00001C6.00001 61.6723 17.2173 50.584 32.92 50.584V47.584V44.584C13.9507 44.584 5.66244e-06 58.3116 5.66244e-06 77.328H3.00001ZM32.92 47.584V50.584C40.955 50.584 47.6534 53.3989 52.3346 58.0411C57.0141 62.6818 59.84 69.3087 59.84 77.24H62.84H65.84C65.84 67.8352 62.4619 59.6341 56.5595 53.7808C50.6586 47.929 42.397 44.584 32.92 44.584V47.584ZM62.84 77.24H59.84C59.84 92.9836 48.7108 103.984 32.92 103.984V106.984V109.984C51.9772 109.984 65.84 96.3443 65.84 77.24H62.84ZM32.92 91.232V94.232C37.465 94.232 41.4317 92.5706 44.2359 89.4548C47.0116 86.3707 48.416 82.1251 48.416 77.328H45.416H42.416C42.416 80.9788 41.3564 83.6852 39.7761 85.4411C38.2243 87.1653 35.943 88.232 32.92 88.232V91.232ZM45.416 77.328H48.416C48.416 72.4826 46.9878 68.1847 44.2202 65.0554C41.4233 61.8932 37.4598 60.16 32.92 60.16V63.16V66.16C35.8603 66.16 38.1447 67.2427 39.7258 69.0305C41.3362 70.8512 42.416 73.6374 42.416 77.328H45.416ZM32.92 63.16V60.16C28.3884 60.16 24.4133 61.7905 21.5996 64.9311C18.8168 68.0372 17.424 72.3319 17.424 77.24H20.424H23.424C23.424 73.436 24.4952 70.6907 26.0684 68.9348C27.6107 67.2134 29.8836 66.16 32.92 66.16V63.16ZM20.424 77.24H17.424C17.424 82.0873 18.8538 86.3529 21.6376 89.4444C24.4476 92.565 28.4108 94.232 32.92 94.232V91.232V88.232C29.9492 88.232 27.6645 87.1709 26.0964 85.4295C24.5022 83.659 23.424 80.9286 23.424 77.24H20.424ZM92.4451 53.1279L95.2238 51.9971L95.2085 51.9593L95.1921 51.922L92.4451 53.1279ZM101.685 75.832L98.9064 76.9628L101.698 83.8232L104.468 76.9536L101.685 75.832ZM110.837 53.1279L108.106 51.8865L108.079 51.9459L108.055 52.0063L110.837 53.1279ZM114.885 90.352L111.885 90.3362L111.885 90.3441V90.352H114.885ZM114.973 73.5439L117.973 73.5597L112.142 72.5509L114.973 73.5439ZM109.077 90.352L111.863 91.4661L111.887 91.406L111.908 91.345L109.077 90.352ZM94.2051 90.352L91.3848 91.3747L91.4116 91.4485L91.4422 91.5209L94.2051 90.352ZM88.3971 74.336L91.2174 73.3132L85.3971 74.336H88.3971ZM71.7651 98.008H74.7651V56.8239H71.7651H68.7651V98.008H71.7651ZM71.7651 56.8239H74.7651C74.7651 54.5266 75.3468 53.2632 75.9908 52.5823C76.609 51.9286 77.6973 51.376 79.6851 51.376V48.376V45.376C76.569 45.376 73.6972 46.2753 71.6315 48.4596C69.5914 50.6167 68.7651 53.5773 68.7651 56.8239H71.7651ZM79.6851 48.376V51.376H84.6131V48.376V45.376H79.6851V48.376ZM84.6131 48.376V51.376C86.787 51.376 87.6471 51.663 88.092 51.9416C88.4945 52.1936 88.9818 52.7022 89.6982 54.3339L92.4451 53.1279L95.1921 51.922C94.3244 49.9457 93.2278 48.0783 91.2763 46.8563C89.3672 45.6609 87.1033 45.376 84.6131 45.376V48.376ZM92.4451 53.1279L89.6664 54.2588L98.9064 76.9628L101.685 75.832L104.464 74.7011L95.2238 51.9971L92.4451 53.1279ZM101.685 75.832L104.468 76.9536L113.62 54.2496L110.837 53.1279L108.055 52.0063L98.9027 74.7103L101.685 75.832ZM110.837 53.1279L113.568 54.3694C114.338 52.6769 114.914 52.1267 115.336 51.8746C115.797 51.5989 116.572 51.376 118.405 51.376V48.376V45.376C116.278 45.376 114.149 45.593 112.256 46.7253C110.324 47.8812 109.097 49.707 108.106 51.8865L110.837 53.1279ZM118.405 48.376V51.376H123.421V48.376V45.376H118.405V48.376ZM123.421 48.376V51.376C125.468 51.376 126.612 51.9379 127.262 52.6086C127.926 53.294 128.517 54.5497 128.517 56.8239H131.517H134.517C134.517 53.5542 133.656 50.5859 131.571 48.4333C129.471 46.266 126.566 45.376 123.421 45.376V48.376ZM131.517 56.8239H128.517V98.008H131.517H134.517V56.8239H131.517ZM131.517 98.008H128.517C128.517 100.462 128.072 101.665 127.613 102.239C127.275 102.661 126.568 103.192 124.565 103.192V106.192V109.192C127.666 109.192 130.435 108.315 132.298 105.987C134.038 103.811 134.517 100.922 134.517 98.008H131.517ZM124.565 106.192V103.192H121.837V106.192V109.192H124.565V106.192ZM121.837 106.192V103.192C119.953 103.192 119.214 102.677 118.837 102.216C118.356 101.626 117.885 100.41 117.885 98.008H114.885H111.885C111.885 100.974 112.427 103.85 114.189 106.01C116.057 108.299 118.793 109.192 121.837 109.192V106.192ZM114.885 98.008H117.885V90.352H114.885H111.885V98.008H114.885ZM114.885 90.352L117.885 90.3677L117.973 73.5597L114.973 73.5439L111.973 73.5282L111.885 90.3362L114.885 90.352ZM114.973 73.5439L112.142 72.5509L106.246 89.3589L109.077 90.352L111.908 91.345L117.804 74.537L114.973 73.5439ZM109.077 90.352L106.292 89.2378C106.162 89.5608 106.04 89.9027 105.957 90.1272C105.863 90.3819 105.794 90.555 105.728 90.6985C105.61 90.9555 105.543 91.0156 105.508 91.0458C105.405 91.1332 104.674 91.664 101.597 91.664V94.664V97.664C105.032 97.664 107.601 97.1387 109.391 95.6201C111.076 94.1893 111.646 92.0063 111.863 91.4661L109.077 90.352ZM101.597 94.664V91.664C98.4234 91.664 97.7965 91.1362 97.7685 91.1116C97.7617 91.1056 97.7504 91.0954 97.7282 91.062C97.7014 91.0217 97.6567 90.9444 97.5909 90.7932C97.5204 90.6313 97.4513 90.4466 97.3461 90.1601C97.25 89.8982 97.1222 89.5473 96.968 89.183L94.2051 90.352L91.4422 91.5209C91.5301 91.7286 91.6085 91.9414 91.7138 92.2281C91.8101 92.4903 91.9376 92.8391 92.0899 93.1888C92.4094 93.9224 92.9045 94.8254 93.8097 95.6203C95.5858 97.1797 98.1709 97.664 101.597 97.664V94.664ZM94.2051 90.352L97.0254 89.3292L91.2174 73.3132L88.3971 74.336L85.5768 75.3587L91.3848 91.3747L94.2051 90.352ZM88.3971 74.336H85.3971V98.008H88.3971H91.3971V74.336H88.3971ZM88.3971 98.008H85.3971C85.3971 100.461 84.9524 101.672 84.4944 102.25C84.1615 102.671 83.4756 103.192 81.5331 103.192V106.192V109.192C84.6066 109.192 87.3527 108.305 89.1979 105.976C90.9179 103.804 91.3971 100.923 91.3971 98.008H88.3971ZM81.5331 106.192V103.192H78.6291V106.192V109.192H81.5331V106.192ZM78.6291 106.192V103.192C76.806 103.192 76.0875 102.688 75.7156 102.228C75.235 101.633 74.7651 100.409 74.7651 98.008H71.7651H68.7651C68.7651 100.975 69.3072 103.843 71.0487 105.998C72.8987 108.288 75.6123 109.192 78.6291 109.192V106.192ZM159.726 62.896V59.896H156.726V62.896H159.726ZM159.726 70.376H156.726V73.376H159.726V70.376ZM159.726 83.4V80.4H156.726V83.4H159.726ZM159.726 91.848H156.726V94.848H159.726V91.848ZM151.102 105.752V102.752C148.75 102.752 147.376 102.104 146.564 101.252C145.73 100.376 145.038 98.8106 145.038 96.072H142.038H139.038C139.038 99.7573 139.974 103.032 142.22 105.39C144.488 107.772 147.646 108.752 151.102 108.752V105.752ZM142.038 96.072H145.038V58.672H142.038H139.038V96.072H142.038ZM142.038 58.672H145.038C145.038 55.9332 145.731 54.3033 146.592 53.3746C147.42 52.4817 148.794 51.816 151.102 51.816V48.816V45.816C147.602 45.816 144.444 46.8662 142.192 49.2953C139.973 51.6886 139.038 54.9867 139.038 58.672H142.038ZM151.102 48.816V51.816H181.198V48.816V45.816H151.102V48.816ZM181.198 48.816V51.816C183.662 51.816 184.836 52.3202 185.38 52.7834C185.821 53.1584 186.294 53.8887 186.294 55.68H189.294H192.294C192.294 52.8072 191.491 50.1055 189.27 48.2145C187.152 46.4117 184.278 45.816 181.198 45.816V48.816ZM189.294 55.68H186.294V56.12H189.294H192.294V55.68H189.294ZM189.294 56.12H186.294C186.294 58.0297 185.806 58.6896 185.425 59.0011C184.902 59.4291 183.738 59.896 181.198 59.896V62.896V65.896C184.202 65.896 187.086 65.3948 189.225 63.6448C191.506 61.7783 192.294 59.0502 192.294 56.12H189.294ZM181.198 62.896V59.896H159.726V62.896V65.896H181.198V62.896ZM159.726 62.896H156.726V70.376H159.726H162.726V62.896H159.726ZM159.726 70.376V73.376H173.982V70.376V67.376H159.726V70.376ZM173.982 70.376V73.376C176.699 73.376 177.919 73.8351 178.439 74.2294C178.754 74.4679 179.166 74.9399 179.166 76.536H182.166H185.166C185.166 73.8201 184.39 71.212 182.065 69.4485C179.945 67.8408 177.073 67.376 173.982 67.376V70.376ZM182.166 76.536H179.166V76.8H182.166H185.166V76.536H182.166ZM182.166 76.8H179.166C179.166 78.6167 178.704 79.2187 178.342 79.5082C177.82 79.9272 176.627 80.4 173.982 80.4V83.4V86.4C177.057 86.4 179.956 85.9047 182.095 84.1897C184.396 82.3452 185.166 79.6472 185.166 76.8H182.166ZM173.982 83.4V80.4H159.726V83.4V86.4H173.982V83.4ZM159.726 83.4H156.726V91.848H159.726H162.726V83.4H159.726ZM159.726 91.848V94.848H181.55V91.848V88.848H159.726V91.848ZM181.55 91.848V94.848C184.185 94.848 185.406 95.2871 185.948 95.6952C186.282 95.9477 186.734 96.4633 186.734 98.184H189.734H192.734C192.734 95.3286 191.909 92.6762 189.56 90.9047C187.417 89.2888 184.547 88.848 181.55 88.848V91.848ZM189.734 98.184H186.734V98.624H189.734H192.734V98.184H189.734ZM189.734 98.624H186.734C186.734 100.536 186.242 101.339 185.776 101.748C185.225 102.231 184.046 102.752 181.55 102.752V105.752V108.752C184.686 108.752 187.599 108.129 189.732 106.258C191.95 104.313 192.734 101.552 192.734 98.624H189.734ZM181.55 105.752V102.752H151.102V105.752V108.752H181.55V105.752ZM239.958 100.032L242.824 99.146L242.807 99.0894L242.787 99.0335L239.958 100.032ZM239.43 98.536L242.259 97.5375L240.077 91.3563L236.825 97.0475L239.43 98.536ZM243.566 51.368L241.997 53.9249L242.018 53.938L242.04 53.9507L243.566 51.368ZM240.574 68.792L238.18 70.6004L238.306 70.7663L238.453 70.9133L240.574 68.792ZM237.406 87.976L240.196 89.0775L240.226 89.0018L240.252 88.9247L237.406 87.976ZM237.846 86.04L240.823 86.4121L241.244 83.04H237.846V86.04ZM247.966 73.104V76.104C250.135 76.104 250.429 76.6094 250.475 76.6737C250.738 77.0422 251.038 77.9975 251.038 80.584H254.038H257.038C257.038 78.0664 256.854 75.2817 255.357 73.1862C253.643 70.7865 250.9 70.104 247.966 70.104V73.104ZM254.038 80.584H251.038V104.432H254.038H257.038V80.584H254.038ZM254.038 104.432H251.038C251.038 103.82 251.232 103.359 251.374 103.1C251.517 102.838 251.669 102.666 251.751 102.58C251.91 102.415 252.021 102.354 251.982 102.379C251.924 102.415 251.702 102.532 251.292 102.673C250.492 102.947 249.325 103.192 248.054 103.192V106.192V109.192C250.038 109.192 251.863 108.821 253.241 108.347C253.921 108.114 254.584 107.824 255.139 107.481C255.407 107.315 255.756 107.072 256.077 106.738C256.295 106.512 257.038 105.704 257.038 104.432H254.038ZM248.054 106.192V103.192C246.868 103.192 245.834 102.944 245.012 102.41C244.234 101.906 243.392 100.985 242.824 99.146L239.958 100.032L237.092 100.918C238.019 103.919 239.641 106.078 241.746 107.444C243.806 108.78 246.072 109.192 248.054 109.192V106.192ZM239.958 100.032L242.787 99.0335L242.259 97.5375L239.43 98.536L236.601 99.5344L237.129 101.03L239.958 100.032ZM239.43 98.536L236.825 97.0475C234.659 100.839 230.16 103.72 222.71 103.72V106.72V109.72C231.803 109.72 238.569 106.089 242.035 100.024L239.43 98.536ZM222.71 106.72V103.72C208.907 103.72 199.046 92.9637 199.046 77.328H196.046H193.046C193.046 95.6602 205.008 109.72 222.71 109.72V106.72ZM196.046 77.328H199.046C199.046 69.3923 201.852 62.757 206.631 58.1045C211.413 53.4488 218.372 50.584 227.022 50.584V47.584V44.584C217.015 44.584 208.487 47.9231 202.445 53.8054C196.4 59.6909 193.046 67.9277 193.046 77.328H196.046ZM227.022 47.584V50.584C233.795 50.584 238.742 51.9274 241.997 53.9249L243.566 51.368L245.135 48.811C240.646 46.0565 234.505 44.584 227.022 44.584V47.584ZM243.566 51.368L242.04 53.9507C245.163 55.7961 246.462 58.2389 246.462 60.6959H249.462H252.462C252.462 55.761 249.713 51.5158 245.092 48.7852L243.566 51.368ZM249.462 60.6959H246.462C246.462 62.4594 245.378 63.802 243.688 64.8022C242.866 65.2888 242.032 65.604 241.423 65.764C241.111 65.8458 240.933 65.8676 240.894 65.8704C240.865 65.8724 240.969 65.861 241.154 65.8855C241.171 65.8877 241.982 65.9579 242.695 66.6706L240.574 68.792L238.453 70.9133C239.231 71.692 240.17 71.8076 240.367 71.8336C240.733 71.882 241.07 71.873 241.321 71.8551C241.84 71.8181 242.401 71.7106 242.948 71.5669C244.055 71.2759 245.41 70.7551 246.744 69.9657C249.366 68.4139 252.462 65.4445 252.462 60.6959H249.462ZM240.574 68.792L242.967 66.9835C239.391 62.25 233.917 59.632 228.078 59.632V62.632V65.632C232.095 65.632 235.773 67.4139 238.18 70.6004L240.574 68.792ZM228.078 62.632V59.632C218.262 59.632 210.822 67.2906 210.822 78.12H213.822H216.822C216.822 70.2933 221.878 65.632 228.078 65.632V62.632ZM213.822 78.12H210.822C210.822 83.4212 212.413 88.0278 215.379 91.3492C218.367 94.6949 222.564 96.52 227.286 96.52V93.52V90.52C224.176 90.52 221.641 89.353 219.855 87.3527C218.047 85.3281 216.822 82.2347 216.822 78.12H213.822ZM227.286 93.52V96.52C233.074 96.52 238.276 93.9419 240.196 89.0775L237.406 87.976L234.615 86.8745C233.896 88.698 231.53 90.52 227.286 90.52V93.52ZM237.406 87.976L240.252 88.9247C240.482 88.2335 240.707 87.336 240.823 86.4121L237.846 86.04L234.869 85.6679C234.809 86.1519 234.681 86.6624 234.56 87.0273L237.406 87.976ZM237.846 86.04V83.04H232.566V86.04V89.04H237.846V86.04ZM232.566 86.04V83.04C229.839 83.04 228.58 82.6979 228.01 82.3197C227.772 82.1614 227.294 81.805 227.294 79.968H224.294H221.294C221.294 82.9709 222.18 85.6505 224.691 87.3182C226.872 88.766 229.749 89.04 232.566 89.04V86.04ZM224.294 79.968H227.294V79.1759H224.294H221.294V79.968H224.294ZM224.294 79.1759H227.294C227.294 77.2126 227.793 76.8992 227.982 76.7766C228.542 76.4139 229.785 76.104 232.566 76.104V73.104V70.104C229.803 70.104 226.91 70.322 224.719 71.7413C222.159 73.4007 221.294 76.1233 221.294 79.1759H224.294ZM232.566 73.104V76.104H247.966V73.104V70.104H232.566V73.104ZM260.849 101.088L263.645 102.175L263.648 102.167L263.651 102.159L260.849 101.088ZM279.153 53.216L281.955 54.2874L281.988 54.2L282.016 54.1108L279.153 53.216ZM301.329 53.216L298.465 54.1108L298.5 54.2224L298.544 54.331L301.329 53.216ZM320.425 100.912L323.221 99.8246L323.216 99.8107L323.21 99.7969L320.425 100.912ZM300.889 98.184L298.087 99.2569L298.093 99.2708L298.098 99.2846L300.889 98.184ZM299.305 94.048L302.107 92.975L301.368 91.048H299.305V94.048ZM281.177 94.048V91.048H279.123L278.38 92.9634L281.177 94.048ZM279.505 98.36L276.708 97.2754L276.689 97.3246L276.671 97.3744L279.505 98.36ZM284.081 81.2879L281.266 80.2494L279.776 84.2879H284.081V81.2879ZM296.137 81.2879V84.2879H300.42L298.956 80.2627L296.137 81.2879ZM290.153 64.832L292.972 63.8067L290.173 56.11L287.338 63.7934L290.153 64.832ZM269.913 106.544V103.544C268.232 103.544 266.384 102.843 265.006 101.919C264.323 101.46 263.903 101.044 263.718 100.8C263.624 100.676 263.666 100.695 263.719 100.858C263.771 101.022 263.894 101.534 263.645 102.175L260.849 101.088L258.053 100.001C257.65 101.038 257.789 102.017 258.007 102.696C258.226 103.375 258.582 103.956 258.931 104.418C259.632 105.345 260.609 106.194 261.664 106.901C263.761 108.309 266.754 109.544 269.913 109.544V106.544ZM260.849 101.088L263.651 102.159L281.955 54.2874L279.153 53.216L276.351 52.1445L258.047 100.017L260.849 101.088ZM279.153 53.216L282.016 54.1108C282.249 53.368 282.579 52.8636 283.46 52.4198C284.546 51.8735 286.587 51.376 290.417 51.376V48.376V45.376C286.239 45.376 283.088 45.8904 280.763 47.0601C278.235 48.3323 276.937 50.248 276.289 52.3211L279.153 53.216ZM290.417 48.376V51.376C294.259 51.376 296.174 51.8778 297.14 52.39C297.879 52.7822 298.193 53.2373 298.465 54.1108L301.329 53.216L304.192 52.3211C303.585 50.3786 302.447 48.4137 299.952 47.0899C297.683 45.8861 294.583 45.376 290.417 45.376V48.376ZM301.329 53.216L298.544 54.331L317.64 102.027L320.425 100.912L323.21 99.7969L304.114 52.1009L301.329 53.216ZM320.425 100.912L317.629 101.999C317.384 101.369 317.501 100.867 317.551 100.709C317.601 100.549 317.64 100.533 317.548 100.657C317.366 100.902 316.948 101.323 316.257 101.787C314.875 102.713 312.939 103.456 311.009 103.456V106.456V109.456C314.359 109.456 317.438 108.219 319.599 106.769C320.679 106.045 321.663 105.179 322.364 104.236C322.713 103.766 323.064 103.18 323.277 102.501C323.489 101.823 323.62 100.851 323.221 99.8246L320.425 100.912ZM311.009 106.456V103.456C309.676 103.456 308.404 103.109 307.232 102.247C306.04 101.37 304.757 99.8146 303.68 97.0833L300.889 98.184L298.098 99.2846C299.485 102.801 301.37 105.382 303.676 107.079C306.001 108.791 308.558 109.456 311.009 109.456V106.456ZM300.889 98.184L303.691 97.111L302.107 92.975L299.305 94.048L296.503 95.1209L298.087 99.2569L300.889 98.184ZM299.305 94.048V91.048H281.177V94.048V97.048H299.305V94.048ZM281.177 94.048L278.38 92.9634L276.708 97.2754L279.505 98.36L282.302 99.4445L283.974 95.1325L281.177 94.048ZM279.505 98.36L276.671 97.3744C275.757 100.005 274.594 101.509 273.498 102.358C272.424 103.19 271.221 103.544 269.913 103.544V106.544V109.544C272.389 109.544 274.926 108.842 277.173 107.1C279.4 105.375 281.141 102.787 282.338 99.3455L279.505 98.36ZM284.081 81.2879V84.2879H296.137V81.2879V78.288H284.081V81.2879ZM296.137 81.2879L298.956 80.2627L292.972 63.8067L290.153 64.832L287.334 65.8572L293.318 82.3132L296.137 81.2879ZM290.153 64.832L287.338 63.7934L281.266 80.2494L284.081 81.2879L286.895 82.3265L292.967 65.8705L290.153 64.832ZM346.12 103.112L344.535 105.659L344.555 105.672L344.576 105.684L346.12 103.112ZM350.432 85.688L353.318 84.8701L353.316 84.8638L350.432 85.688ZM351.224 68.4399L348.331 67.6445L348.281 67.8276L348.254 68.0157L351.224 68.4399ZM346.912 51.28L345.332 48.7292L345.324 48.7342L345.316 48.7393L346.912 51.28ZM377.008 75.128L376.128 72.2598L367.164 75.0089L376.059 77.974L377.008 75.128ZM362.84 106.984V103.984C356.187 103.984 351.039 102.565 347.663 100.539L346.12 103.112L344.576 105.684C349.12 108.411 355.412 109.984 362.84 109.984V106.984ZM346.12 103.112L347.704 100.565C344.365 98.487 343.048 95.9949 343.048 93.696H340.048H337.048C337.048 98.613 339.954 102.809 344.535 105.659L346.12 103.112ZM340.048 93.696H343.048C343.048 92.1186 343.489 91.1492 343.997 90.5086C344.536 89.8282 345.313 89.3176 346.24 88.965C347.172 88.6105 348.132 88.4648 348.84 88.44C349.199 88.4274 349.412 88.4489 349.468 88.4578C349.513 88.4648 349.394 88.4522 349.194 88.3741C349.099 88.3368 348.867 88.2397 348.601 88.0424C348.37 87.8717 347.799 87.3941 347.547 86.5121L350.432 85.688L353.316 84.8638C353.053 83.9433 352.451 83.4281 352.172 83.2211C351.857 82.9875 351.557 82.8556 351.377 82.7853C351.009 82.6413 350.653 82.5703 350.401 82.5307C349.865 82.4464 349.252 82.4219 348.63 82.4437C347.374 82.4876 345.749 82.7324 344.107 83.3569C342.46 83.9833 340.674 85.0402 339.294 86.7826C337.882 88.5647 337.048 90.8733 337.048 93.696H340.048ZM350.432 85.688L347.545 86.5058C348.479 89.8016 350.374 92.4268 353.088 94.1885C355.761 95.9227 359.031 96.696 362.576 96.696V93.696V90.696C359.872 90.696 357.818 90.1052 356.355 89.1554C354.933 88.2331 353.88 86.8543 353.318 84.8701L350.432 85.688ZM362.576 93.696V96.696C365.685 96.696 368.553 96.088 370.742 94.6549C373.058 93.1386 374.464 90.7731 374.464 87.888H371.464H368.464C368.464 88.6108 368.197 89.1493 367.455 89.635C366.586 90.2039 365.01 90.696 362.576 90.696V93.696ZM371.464 87.888H374.464C374.464 85.4974 373.713 83.192 371.681 81.6064C369.806 80.1443 367.33 79.696 364.776 79.696V82.696V85.696C366.797 85.696 367.665 86.0836 367.99 86.3375C368.158 86.4679 368.464 86.7585 368.464 87.888H371.464ZM364.776 82.696V79.696H363.104V82.696V85.696H364.776V82.696ZM363.104 82.696V79.696C360.451 79.696 359.196 79.2449 358.654 78.8577C358.336 78.6305 358.008 78.266 358.008 77.064H355.008H352.008C352.008 79.6459 352.867 82.0974 355.167 83.7402C357.243 85.223 360.036 85.696 363.104 85.696V82.696ZM355.008 77.064H358.008V76.096H355.008H352.008V77.064H355.008ZM355.008 76.096H358.008C358.008 74.8554 358.371 74.4098 358.748 74.1358C359.317 73.7238 360.54 73.288 362.928 73.288V70.288V67.288C360.035 67.288 357.298 67.7761 355.227 69.2781C352.965 70.9181 352.008 73.3765 352.008 76.096H355.008ZM362.928 70.288V73.288H365.92V70.288V67.288H362.928V70.288ZM365.92 70.288V73.288C367.98 73.288 369.993 72.7267 371.54 71.3957C373.135 70.0221 373.936 68.0804 373.936 65.976H370.936H367.936C367.936 66.5115 367.768 66.7258 367.625 66.8482C367.434 67.0132 366.939 67.288 365.92 67.288V70.288ZM370.936 65.976H373.936C373.936 63.1826 372.428 60.9882 370.213 59.633C368.106 58.3437 365.366 57.784 362.4 57.784V60.784V63.784C364.713 63.784 366.241 64.2362 367.082 64.7509C367.815 65.1997 367.936 65.6013 367.936 65.976H370.936ZM362.4 60.784V57.784C358.076 57.784 354.799 58.9943 352.429 61.004C350.098 62.9814 348.921 65.4976 348.331 67.6445L351.224 68.4399L354.116 69.2354C354.494 67.8623 355.166 66.5505 356.31 65.5799C357.416 64.6416 359.243 63.784 362.4 63.784V60.784ZM351.224 68.4399L348.254 68.0157C348.395 67.0258 348.974 66.4398 349.246 66.2088C349.538 65.9613 349.804 65.839 349.912 65.7923C350.043 65.7363 350.141 65.7085 350.182 65.6975C350.206 65.691 350.225 65.6868 350.235 65.6845C350.246 65.6821 350.253 65.6811 350.253 65.681C350.253 65.6809 350.239 65.6833 350.209 65.6865C350.18 65.6897 350.14 65.6932 350.089 65.696C349.986 65.7018 349.853 65.7043 349.692 65.6997C349.023 65.6804 348.102 65.5438 347.207 65.1996C346.319 64.8584 345.569 64.3592 345.044 63.6819C344.546 63.0399 344.104 62.0515 344.104 60.4319H341.104H338.104C338.104 63.2564 338.915 65.568 340.301 67.357C341.66 69.1107 343.423 70.1735 345.054 70.8003C346.678 71.4241 348.282 71.6615 349.519 71.6972C350.13 71.7148 350.739 71.6859 351.274 71.5935C351.521 71.5508 351.893 71.4716 352.278 71.3061C352.466 71.2258 352.793 71.0681 353.128 70.784C353.443 70.5164 354.047 69.8926 354.193 68.8642L351.224 68.4399ZM341.104 60.4319H344.104C344.104 58.1202 345.347 55.8047 348.507 53.8206L346.912 51.28L345.316 48.7393C340.908 51.5072 338.104 55.5277 338.104 60.4319H341.104ZM346.912 51.28L348.491 53.8307C351.575 51.9214 356.434 50.584 362.752 50.584V47.584V44.584C355.693 44.584 349.64 46.0625 345.332 48.7292L346.912 51.28ZM362.752 47.584V50.584C370.441 50.584 375.885 51.957 379.316 54.1985C382.563 56.3199 384.216 59.3406 384.216 63.512H387.216H390.216C390.216 57.3873 387.6 52.4441 382.597 49.1755C377.778 46.0269 370.99 44.584 362.752 44.584V47.584ZM387.216 63.512H384.216C384.216 65.633 383.557 67.3124 382.342 68.6822C381.084 70.1008 379.073 71.3568 376.128 72.2598L377.008 75.128L377.887 77.9961C381.543 76.8751 384.635 75.1391 386.831 72.6637C389.07 70.1395 390.216 67.0229 390.216 63.512H387.216ZM377.008 75.128L376.059 77.974C379.196 79.0196 381.425 80.5548 382.868 82.3858C384.293 84.1938 385.096 86.4713 385.096 89.296H388.096H391.096C391.096 85.2566 389.918 81.6381 387.581 78.6721C385.262 75.7291 381.948 73.6123 377.956 72.2819L377.008 75.128ZM388.096 89.296H385.096C385.096 94.0056 383.262 97.4877 379.815 99.9092C376.223 102.433 370.605 103.984 362.84 103.984V106.984V109.984C371.266 109.984 378.276 108.323 383.264 104.819C388.397 101.212 391.096 95.8503 391.096 89.296H388.096Z" fill="white" mask="url(#path-10-outside-1_1_1047)"/>
<path d="M8.80801 23.072C4.58401 23.072 1.92801 20.16 1.92801 16.448C1.92801 11.328 5.89601 7.07195 10.824 7.07195C14.952 7.07195 16.776 10.048 16.392 12.352C16.2 13.568 15.368 14.336 14.408 14.336C13.544 14.304 12.936 13.76 13.064 12.64C13.224 11.008 12.776 8.57595 10.024 8.57595C6.92001 8.57595 4.96801 12.064 4.96801 15.424C4.96801 18.528 6.82401 20.768 9.89601 20.768C12.136 20.768 13.8 19.904 15.112 18.688C15.784 18.112 16.328 18.496 15.944 19.264C15.08 20.864 12.36 23.072 8.80801 23.072ZM25.3668 23.072C21.3348 23.072 18.6148 20.352 18.6148 16.576C18.6148 11.52 22.8388 7.07195 27.8628 7.07195C32.0548 7.07195 34.4228 10.016 34.4228 13.408C34.4228 18.752 30.4228 23.072 25.3668 23.072ZM25.8468 21.6C29.2388 21.6 31.1268 17.44 31.1268 13.728C31.1268 11.008 30.2308 8.51195 27.4468 8.51195C23.7668 8.51195 21.7828 12.704 21.7508 16.128C21.7828 19.136 22.9348 21.6 25.8468 21.6ZM53.5703 19.968C53.7623 19.968 53.9223 20.128 53.8903 20.416C53.7623 21.6 52.4823 22.976 50.8183 22.976C49.0903 22.976 48.6103 21.696 48.7383 19.84L49.1223 12.736C49.2183 10.688 48.6743 9.27995 46.9143 9.27995C44.3223 9.27995 41.6343 13.312 40.7703 18.368L40.1623 21.856C40.0983 22.272 39.9063 22.464 39.5543 22.56L37.9223 22.976C37.4743 23.104 37.1863 22.848 37.2503 22.336L38.8503 11.264C39.1063 9.50395 37.7623 9.82395 37.7623 9.05595C37.7623 8.60795 38.0503 8.38395 39.5543 7.71195C40.5783 7.26395 41.0583 7.19995 41.4743 7.19995C41.9223 7.19995 42.1463 7.45595 42.0823 7.90395L41.4423 12.192C43.1063 9.08795 45.5063 7.16795 48.2263 7.16795C50.8823 7.16795 52.2263 9.02395 52.0343 12.544L51.6503 19.68C51.6183 20.352 51.6183 20.864 52.1623 20.864C52.7703 20.864 53.1863 19.968 53.5703 19.968ZM72.908 19.968C73.1 19.968 73.26 20.128 73.228 20.416C73.1 21.6 71.82 22.976 70.156 22.976C68.428 22.976 67.948 21.696 68.076 19.84L68.46 12.736C68.556 10.688 68.012 9.27995 66.252 9.27995C63.66 9.27995 60.908 13.312 60.108 18.368L59.5 22.112C59.436 22.464 59.084 22.688 58.796 22.752L57.356 23.072C56.78 23.2 56.46 22.784 56.556 22.304L59.276 3.90395C59.5 2.30395 58.092 2.52795 58.092 1.79195C58.092 1.43995 58.348 1.11995 59.884 0.543953C61.1 0.0639515 61.612 -4.76837e-05 62.028 -4.76837e-05C62.476 -4.76837e-05 62.732 0.255953 62.636 0.735952L60.876 12.096C62.54 9.05595 64.908 7.16795 67.564 7.16795C70.22 7.16795 71.564 9.02395 71.372 12.544L70.988 19.68C70.956 20.352 70.956 20.864 71.5 20.864C72.108 20.864 72.524 19.968 72.908 19.968ZM88.254 18.496C88.862 17.952 89.534 18.272 89.086 19.072C88.222 20.672 85.502 23.072 81.95 23.072C78.654 23.072 75.646 20.896 75.646 16.512C75.646 12.384 79.198 7.07195 85.022 7.07195C87.55 7.07195 89.63 8.35195 89.63 10.72C89.63 14.72 84.734 16.832 78.942 17.664C79.422 19.52 80.99 20.896 83.07 20.896C85.246 20.896 86.942 19.712 88.254 18.496ZM83.998 8.57595C81.214 8.57595 78.718 11.584 78.718 15.456C78.718 15.872 78.91 16.256 79.71 16.128C83.806 15.488 86.75 13.76 86.75 11.2C86.75 9.66395 85.63 8.57595 83.998 8.57595ZM104.377 14.336C103.513 14.304 102.905 13.76 103.033 12.64C103.193 11.008 102.745 8.57595 99.9928 8.57595C96.8888 8.57595 94.9368 12.064 94.9368 15.424C94.9368 18.528 96.7928 20.768 99.8648 20.768C102.105 20.768 103.769 19.904 105.081 18.688C105.753 18.112 106.297 18.496 105.913 19.264C105.049 20.864 102.361 23.04 98.8408 23.072L98.1048 24.448C99.7368 24.736 101.081 25.44 101.081 26.976C101.081 28.48 99.7368 29.504 98.1368 29.504C96.7608 29.504 95.9608 28.992 95.5448 28.48C95.2568 28.128 95.6088 27.68 96.0568 27.968C96.5048 28.224 96.9848 28.512 97.7848 28.512C98.7768 28.512 99.2568 27.872 99.2568 27.168C99.2568 26.112 98.1368 25.696 97.0808 25.44C96.7608 25.376 96.5368 25.184 96.6968 24.896L97.7208 23.008C94.1048 22.56 91.8968 19.84 91.8968 16.448C91.8968 11.328 95.8648 7.07195 100.793 7.07195C104.921 7.07195 106.745 10.048 106.361 12.352C106.169 13.568 105.337 14.336 104.377 14.336ZM125.245 19.968C125.437 19.968 125.597 20.128 125.565 20.416C125.405 21.6 124.125 22.976 122.493 22.976C121.149 22.976 120.061 22.464 120.349 19.2C119.069 21.28 116.861 23.072 114.173 23.072C111.357 23.072 108.957 21.12 108.957 17.376C108.957 11.968 112.541 7.07195 117.277 7.07195C118.749 7.07195 120.157 7.74395 120.957 7.74395C121.981 7.74395 122.621 7.07195 123.293 7.07195C123.901 7.07195 124.029 7.51995 123.965 8.38395L123.293 19.68C123.261 20.352 123.293 20.864 123.869 20.864C124.413 20.864 124.829 19.968 125.245 19.968ZM115.485 20.864C118.109 20.864 120.541 17.632 120.797 13.504L120.861 12.576C121.053 9.91995 119.229 8.47995 117.213 8.47995C113.789 8.47995 112.029 12.992 111.997 16.192C111.997 19.904 113.949 20.864 115.485 20.864ZM141.398 23.072C137.366 23.072 134.646 20.352 134.646 16.576C134.646 11.52 138.87 7.07195 143.894 7.07195C148.086 7.07195 150.454 10.016 150.454 13.408C150.454 18.752 146.454 23.072 141.398 23.072ZM141.878 21.6C145.27 21.6 147.158 17.44 147.158 13.728C147.158 11.008 146.262 8.51195 143.478 8.51195C139.798 8.51195 137.814 12.704 137.782 16.128C137.814 19.136 138.966 21.6 141.878 21.6Z" fill="#1A1A1A"/>
</svg>
