<svg width="362" height="170" viewBox="0 0 362 170" fill="none" xmlns="http://www.w3.org/2000/svg">
<path d="M266.046 102.896C266.629 111.685 270.329 118.956 277.56 124.28C282.733 128.089 288.622 129.802 295.021 129.542C308.612 128.987 320.782 118.198 321.585 102.925H361.021C361.024 103.209 361.024 103.487 361.012 103.774C360.159 123.917 352.079 140.544 336.696 153.558C327.554 161.293 316.979 166.185 305.159 168.058C285.131 171.232 267.049 166.596 251.258 153.813C239.712 144.467 232.238 132.482 228.57 118.063L228.228 116.66C227.189 112.081 226.659 107.549 226.619 102.896H266.046Z" fill="#FC5B03" stroke="#1A1A1A" stroke-width="1.34953"/>
<path d="M252.691 122.389L250.581 123.733C249.838 124.208 250.153 124.714 249.765 124.874C249.571 124.955 249.439 124.782 249.311 124.472L248.737 123.088C248.614 122.791 248.58 122.562 248.786 122.476C249.162 122.321 249.35 123.031 250.131 122.54L252.123 121.275C253.07 120.671 254.014 120.097 253.519 118.939C253.173 118.142 252.11 117.552 250.589 118.122L248.964 118.811C247.723 119.326 248.208 119.837 247.755 120.025C247.561 120.105 247.429 119.932 247.3 119.622L246.727 118.238C246.598 117.928 246.564 117.699 246.771 117.614C247.211 117.431 247.235 118.149 248.477 117.634L250.274 116.889C251.438 116.406 252.246 115.723 251.754 114.608C251.366 113.708 250.22 113.138 248.642 113.792L247.142 114.414C245.9 114.928 246.38 115.427 245.927 115.614C245.733 115.695 245.606 115.535 245.472 115.212L244.898 113.828C244.775 113.531 244.736 113.289 244.943 113.203C245.382 113.021 245.412 113.751 246.654 113.237L249.253 112.159C249.693 111.977 249.995 111.791 250.057 111.356C250.089 111.176 250.129 111.054 250.258 111C250.4 110.941 250.505 110.974 250.776 111.225C251.165 111.579 251.489 111.96 251.577 112.135C251.647 112.304 251.62 112.421 251.4 112.512L250.295 112.955C251.467 113.075 252.286 113.736 252.667 114.654C253.101 115.702 252.91 116.63 252.05 117.335C253.242 117.432 254.093 118.094 254.479 119.026C255.015 120.319 254.537 121.214 252.691 122.389ZM254.408 129.626C254.746 129.701 254.773 130.044 254.4 130.104C253.661 130.205 252.249 129.81 251.343 128.297C250.335 126.615 250.872 124.76 252.457 123.81C254.27 122.723 256.426 123.162 257.491 124.939C258.276 126.248 258.044 127.578 257.141 128.413C256.954 128.591 256.757 128.643 256.483 128.432C255.202 127.437 254.007 126.423 252.715 125.304C252.156 125.949 251.749 127.123 252.418 128.24C252.901 129.044 253.693 129.467 254.408 129.626ZM256.704 124.905C256.044 123.831 254.736 123.881 253.859 124.406C253.559 124.586 253.338 124.735 253.169 124.917C254.084 125.708 254.957 126.457 255.819 127.133C256.006 127.282 256.169 127.282 256.364 127.116C257.036 126.55 257.124 125.551 256.704 124.905ZM261.018 134.733L259.354 136.602C258.778 137.272 259.211 137.662 258.881 137.922C258.716 138.052 258.551 137.933 258.334 137.659L257.413 136.495C257.205 136.231 257.11 136.021 257.286 135.882C257.604 135.63 257.979 136.262 258.597 135.577L260.168 133.817C260.923 132.988 261.632 132.124 260.83 131.133C260.255 130.428 259.019 130.174 257.679 131.233L256.405 132.241C255.351 133.074 255.948 133.423 255.564 133.727C255.399 133.857 255.234 133.738 255.017 133.464L254.087 132.289C253.888 132.036 253.784 131.815 253.96 131.676C254.333 131.381 254.561 132.075 255.615 131.242L257.822 129.496C258.196 129.201 258.435 128.94 258.377 128.504C258.358 128.323 258.363 128.194 258.473 128.107C258.594 128.011 258.703 128.014 259.032 128.182C259.503 128.417 259.919 128.695 260.052 128.84C260.165 128.982 260.171 129.103 259.984 129.25L259.042 129.977C260.202 129.774 261.205 130.23 261.778 130.955C262.647 132.053 262.483 133.11 261.018 134.733ZM262.662 140.282C262.95 140.292 262.989 140.589 262.742 140.698C262.267 140.896 261.326 140.946 260.584 140.204C259.771 139.393 259.899 138.512 260.8 137.61L261.096 137.313C262.254 136.154 263.184 135.243 263.827 134.658L263.451 134.282C263.253 134.084 263.233 133.946 263.371 133.807C263.44 133.738 263.5 133.698 263.668 133.688C264.45 133.638 265.123 133.697 265.698 133.776C265.945 133.825 265.995 133.875 266.064 133.944C266.193 134.073 266.143 134.201 265.985 134.34C265.767 134.518 265.569 134.697 265.164 135.083L266.154 136.072C266.323 136.241 266.452 136.389 266.165 136.577C265.868 136.775 265.689 136.637 265.531 136.459L264.679 135.549L261.968 138.184C261.286 138.827 261.038 139.313 261.583 139.857C261.851 140.124 262.326 140.262 262.662 140.282ZM268.227 144.033C268.569 143.982 268.716 144.294 268.389 144.482C267.734 144.839 266.274 144.972 264.889 143.88C263.35 142.667 263.191 140.741 264.335 139.29C265.644 137.63 267.815 137.273 269.442 138.556C270.641 139.5 270.897 140.826 270.35 141.927C270.238 142.16 270.072 142.279 269.742 142.179C268.19 141.705 266.713 141.182 265.108 140.594C264.814 141.397 264.851 142.638 265.874 143.444C266.611 144.025 267.501 144.139 268.227 144.033ZM268.694 138.804C267.696 138.035 266.49 138.546 265.858 139.349C265.641 139.624 265.487 139.841 265.395 140.072C266.53 140.486 267.613 140.876 268.659 141.2C268.887 141.273 269.039 141.215 269.162 140.991C269.59 140.223 269.316 139.258 268.694 138.804ZM282.905 148.303L282.401 150.754C282.225 151.618 282.808 151.743 282.653 152.133C282.576 152.329 282.36 152.303 282.047 152.18L280.655 151.628C280.355 151.51 280.168 151.375 280.25 151.167C280.4 150.789 281.04 151.148 281.232 150.246L281.711 147.935C281.936 146.835 282.181 145.758 281.005 145.307C280.193 145 279.029 145.353 278.379 146.842L277.743 148.487C277.248 149.737 277.952 149.745 277.772 150.2C277.695 150.396 277.479 150.37 277.166 150.247L275.774 149.695C275.461 149.571 275.273 149.437 275.356 149.229C275.531 148.786 276.063 149.268 276.558 148.018L277.275 146.209C277.739 145.037 277.81 143.982 276.668 143.559C275.751 143.211 274.544 143.637 273.915 145.225L273.317 146.735C272.822 147.984 273.514 147.987 273.333 148.443C273.256 148.638 273.053 148.618 272.728 148.489L271.335 147.937C271.036 147.819 270.835 147.679 270.917 147.471C271.093 147.028 271.638 147.515 272.132 146.266L273.169 143.649C273.344 143.207 273.421 142.861 273.152 142.513C273.045 142.365 272.984 142.251 273.036 142.121C273.093 141.978 273.189 141.925 273.558 141.906C274.083 141.873 274.582 141.905 274.769 141.964C274.939 142.031 275.004 142.132 274.916 142.354L274.465 143.455C275.367 142.698 276.412 142.57 277.336 142.936C278.391 143.353 278.924 144.136 278.831 145.244C279.731 144.456 280.799 144.307 281.736 144.678C283.037 145.193 283.347 146.159 282.905 148.303ZM289.948 152.637C290.101 152.66 290.223 152.692 290.2 152.845C290.148 153.191 289.541 153.552 288.919 153.458C288.268 153.36 288.148 152.932 288.124 152.249C287.434 152.881 286.42 153.124 285.617 153.003C283.929 152.749 283.101 151.661 283.279 150.485C283.479 149.156 284.807 148.421 286.496 148.676C287.078 148.764 287.457 148.877 287.964 149.081C287.854 147.932 287.793 147.116 286.589 146.934C285.8 146.815 285.25 146.987 284.619 147.232C284.33 147.358 284.14 147.117 284.362 146.868C284.767 146.433 285.856 145.974 287.116 146.164C288.638 146.394 289.09 147.439 289.171 148.683L289.355 151.783C289.401 152.512 289.685 152.597 289.948 152.637ZM286.04 152.359C286.995 152.503 288.103 151.92 288.084 151.294C288.076 150.967 288.02 150.591 287.987 149.963C287.982 149.622 287.087 149.36 286.658 149.295C285.44 149.111 284.701 149.595 284.575 150.524C284.481 151.43 285.002 152.203 286.04 152.359ZM291.979 145.693C291.601 145.654 291.329 145.367 291.368 144.976C291.41 144.473 292.056 143.902 292.613 143.988C292.991 144.026 293.247 144.383 293.223 144.732C293.168 145.221 292.523 145.75 291.979 145.693ZM291.687 151.749L291.763 148.978C291.796 147.761 291.104 147.98 291.116 147.546C291.119 147.406 291.177 147.337 291.517 147.193C292.155 146.916 292.635 146.775 292.832 146.767C293.014 146.758 293.11 146.83 293.103 147.082L293.036 149.013L292.96 151.784C292.924 153.127 293.588 152.894 293.575 153.383C293.569 153.593 293.358 153.643 293.022 153.634L291.524 153.593C291.188 153.584 290.966 153.522 290.972 153.298C290.985 152.822 291.65 153.093 291.687 151.749ZM295.73 153.704C295.535 153.718 295.501 153.636 295.306 153.256C295.058 152.712 294.893 152.359 294.686 151.812C294.631 151.62 294.664 151.491 294.813 151.424C294.949 151.359 295.111 151.46 295.306 151.643C296.477 152.74 297.25 152.953 298.004 152.9C298.632 152.856 299.156 152.511 299.113 151.896C299.071 151.296 298.262 150.973 297.099 150.591C295.851 150.201 294.686 149.791 294.606 148.646C294.517 147.375 295.634 146.694 296.696 146.62C297.436 146.568 297.894 146.691 298.258 146.679C298.482 146.678 298.525 146.492 298.707 146.479C298.888 146.467 298.985 146.643 299.172 146.91C299.409 147.287 299.538 147.53 299.667 147.774C299.767 147.991 299.779 148.173 299.645 148.266C299.431 148.408 299.218 148.17 298.718 147.84C298.145 147.473 297.437 147.186 296.78 147.231C296.026 147.284 295.634 147.69 295.668 148.179C295.711 148.794 296.388 149.055 297.709 149.482C299.087 149.919 300.213 150.374 300.287 151.422C300.359 152.455 299.417 153.447 297.881 153.554C296.959 153.618 296.522 153.382 296.242 153.402C296.019 153.417 295.982 153.687 295.73 153.704ZM306.338 144.786C308.043 144.284 309.673 145.162 310.223 147.029C310.816 149.043 309.899 151.035 308.193 151.537C306.863 151.928 306.36 151.507 305.903 151.642C305.491 151.778 305.341 152.26 304.951 152.374C304.763 152.43 304.643 152.319 304.624 152.106C304.589 151.737 304.495 151.37 304.385 150.994L302.622 145.004C302.274 143.822 301.674 144.262 301.551 143.845C301.512 143.711 301.559 143.624 301.838 143.382C302.346 142.926 302.772 142.639 302.956 142.571C303.127 142.506 303.241 142.545 303.312 142.787L303.844 144.644L304.429 146.632C304.682 145.857 305.33 145.083 306.338 144.786ZM308.032 150.942C309.174 150.606 309.634 149.493 309.176 147.935C308.65 146.149 307.286 145.383 306.158 145.715C304.856 146.098 304.702 147.559 304.891 148.204L305.225 149.287C305.565 150.442 306.837 151.294 308.032 150.942ZM312.873 142.216C313.556 141.893 314.063 142.179 314.273 142.622C314.429 142.951 314.357 143.357 314.072 143.507C313.547 143.771 313.309 143.202 312.726 143.478C312.17 143.741 312.009 144.777 312.536 145.891L313.321 147.549C313.896 148.764 314.37 148.26 314.58 148.703C314.669 148.893 314.516 149.028 314.2 149.177L312.846 149.818C312.555 149.956 312.316 150.007 312.22 149.805C312.016 149.374 312.744 149.309 312.169 148.094L310.966 145.55C310.762 145.12 310.562 144.828 310.124 144.787C309.943 144.764 309.819 144.73 309.759 144.603C309.693 144.464 309.72 144.358 309.958 144.075C310.292 143.669 310.657 143.327 310.828 143.23C310.993 143.152 311.111 143.174 311.213 143.389L311.685 144.42C311.724 143.487 312.126 142.569 312.873 142.216ZM314.484 140.163C314.147 140.336 313.762 140.242 313.582 139.893C313.344 139.448 313.575 138.618 314.09 138.386C314.427 138.213 314.837 138.374 315.007 138.68C315.226 139.12 314.972 139.914 314.484 140.163ZM317.533 145.404L316.09 143.037C315.455 141.997 314.994 142.558 314.768 142.187C314.695 142.068 314.706 141.979 314.913 141.672C315.298 141.093 315.624 140.714 315.784 140.6C315.932 140.493 316.052 140.502 316.183 140.717L317.177 142.374L318.62 144.741C319.32 145.888 319.751 145.331 320.006 145.749C320.115 145.928 319.965 146.085 319.678 146.26L318.399 147.04C318.112 147.215 317.892 147.284 317.775 147.093C317.527 146.686 318.232 146.552 317.533 145.404ZM320.707 143.341L317.23 138.634C316.501 137.641 316.097 138.25 315.84 137.901C315.757 137.788 315.772 137.69 315.952 137.367C316.274 136.765 316.566 136.359 316.727 136.224C316.866 136.104 316.986 136.103 317.135 136.306L318.268 137.871L321.733 142.587C322.529 143.67 322.899 143.085 323.189 143.48C323.313 143.65 323.189 143.811 322.907 144.018L321.699 144.905C321.44 145.096 321.215 145.191 321.082 145.011C320.801 144.627 321.503 144.424 320.707 143.341ZM326.635 135.388L328.63 136.898C329.344 137.42 329.698 136.957 329.984 137.265C330.127 137.419 330.021 137.593 329.765 137.831L328.678 138.841C328.432 139.07 328.229 139.181 328.077 139.017C327.801 138.72 328.401 138.296 327.668 137.734L325.789 136.308C324.903 135.622 323.986 134.983 323.062 135.861C322.405 136.49 322.249 137.743 323.412 138.994L324.517 140.184C325.432 141.169 325.732 140.546 326.066 140.905C326.209 141.059 326.103 141.233 325.847 141.471L324.749 142.491C324.513 142.71 324.301 142.831 324.148 142.667C323.824 142.318 324.499 142.036 323.584 141.051L319.591 136.773C318.752 135.87 318.421 136.522 318.126 136.204C318.03 136.101 318.034 136.003 318.175 135.661C318.427 135.026 318.671 134.59 318.815 134.436C318.939 134.302 319.058 134.287 319.23 134.471L320.534 135.896L322.002 137.476C321.822 136.439 322.183 135.511 322.809 134.93C323.834 133.977 324.901 134.056 326.635 135.388ZM334.185 131.18C334.282 131.061 334.373 130.972 334.492 131.069C334.764 131.29 334.766 131.996 334.368 132.485C333.953 132.995 333.523 132.88 332.923 132.553C333.116 133.469 332.81 134.465 332.297 135.095C331.218 136.419 329.861 136.578 328.939 135.827C327.897 134.978 327.94 133.461 329.019 132.136C329.39 131.681 329.681 131.412 330.115 131.079C329.07 130.589 328.336 130.226 327.567 131.17C327.063 131.789 326.931 132.35 326.82 133.018C326.783 133.331 326.478 133.372 326.376 133.054C326.208 132.484 326.367 131.313 327.172 130.325C328.144 129.131 329.273 129.274 330.386 129.837L333.148 131.256C333.799 131.588 334.017 131.386 334.185 131.18ZM331.958 134.403C332.568 133.654 332.629 132.404 332.08 132.102C331.795 131.942 331.442 131.799 330.885 131.508C330.589 131.339 329.908 131.976 329.634 132.312C328.856 133.268 328.896 134.149 329.633 134.731C330.365 135.273 331.294 135.217 331.958 134.403ZM335.773 122.981L338.091 123.921C338.916 124.239 339.138 123.7 339.494 123.923C339.672 124.035 339.615 124.231 339.429 124.527L338.642 125.785C338.464 126.07 338.297 126.23 338.107 126.111C337.763 125.896 338.233 125.331 337.38 124.978L335.194 124.089C334.16 123.656 333.109 123.278 332.444 124.366C331.973 125.144 332.149 126.394 333.596 127.3L334.973 128.162C336.112 128.876 336.24 128.196 336.655 128.456C336.833 128.567 336.777 128.763 336.591 129.06L335.796 130.33C335.625 130.602 335.452 130.774 335.262 130.656C334.858 130.403 335.436 129.955 334.297 129.242L331.912 127.749C331.508 127.496 331.182 127.358 330.791 127.559C330.627 127.638 330.503 127.676 330.385 127.602C330.254 127.52 330.22 127.416 330.268 127.05C330.331 126.527 330.453 126.042 330.545 125.869C330.642 125.714 330.753 125.669 330.955 125.795L331.956 126.438C331.375 125.414 331.468 124.316 331.958 123.533C332.701 122.346 333.752 122.145 335.773 122.981ZM340.587 119.591C340.508 119.315 340.779 119.186 340.958 119.388C341.292 119.78 341.628 120.66 341.149 121.594C340.625 122.616 339.747 122.764 338.613 122.182L338.24 121.991C336.782 121.244 335.63 120.637 334.877 120.204L334.634 120.677C334.506 120.927 334.38 120.988 334.206 120.898C334.119 120.854 334.063 120.809 334.002 120.652C333.715 119.923 333.565 119.264 333.464 118.693C333.435 118.443 333.467 118.38 333.512 118.293C333.595 118.131 333.733 118.139 333.913 118.247C334.15 118.4 334.38 118.533 334.872 118.801L335.511 117.555C335.619 117.344 335.721 117.176 335.988 117.391C336.268 117.613 336.19 117.825 336.069 118.031L335.463 119.12L338.802 120.895C339.624 121.347 340.161 121.434 340.513 120.749C340.685 120.413 340.671 119.918 340.587 119.591ZM342.658 113.166C342.514 112.85 342.773 112.623 343.044 112.885C343.569 113.416 344.101 114.781 343.436 116.415C342.696 118.23 340.891 118.916 339.179 118.219C337.221 117.422 336.277 115.435 337.058 113.516C337.634 112.102 338.836 111.489 340.046 111.709C340.3 111.752 340.461 111.878 340.456 112.224C340.431 113.846 340.338 115.41 340.218 117.115C341.07 117.175 342.253 116.795 342.744 115.589C343.098 114.72 342.96 113.833 342.658 113.166ZM337.504 114.166C337.042 115.338 337.867 116.355 338.814 116.74C339.138 116.872 339.39 116.959 339.636 116.984C339.719 115.778 339.794 114.63 339.816 113.535C339.823 113.296 339.725 113.166 339.476 113.11C338.619 112.912 337.768 113.442 337.504 114.166Z" fill="#FFFFF3"/>
<path d="M154.367 102.609C191.009 102.609 220.754 132.132 221.116 168.688H87.6182C87.98 132.132 117.725 102.609 154.367 102.609Z" stroke="#1A1A1A" stroke-width="1.34953"/>
<path d="M126.982 138.688C128.732 138.688 129.824 140.102 129.824 142.02C129.824 144.134 128.522 145.674 126.786 145.688C125.96 145.702 125.106 145.394 124.574 144.946L124.588 146.5C124.588 147.844 125.232 147.592 125.232 148.082C125.232 148.292 125.036 148.348 124.686 148.348H123.188C122.866 148.348 122.642 148.292 122.642 148.082C122.642 147.592 123.314 147.844 123.314 146.5L123.286 140.83C123.286 140.368 123.23 140.018 122.866 139.794C122.712 139.696 122.614 139.612 122.614 139.472C122.614 139.304 122.684 139.22 123.02 139.066C123.496 138.856 123.972 138.702 124.168 138.688C124.35 138.674 124.448 138.744 124.448 138.996L124.434 140.13C124.882 139.374 125.722 138.688 126.982 138.688ZM126.786 145.058C128.004 145.044 128.564 143.924 128.564 142.58C128.564 140.564 127.584 139.57 126.52 139.57C125.232 139.57 124.574 140.788 124.574 141.81V142.79C124.574 144.246 125.806 145.072 126.786 145.058ZM137.454 144.68C137.608 144.68 137.734 144.694 137.734 144.848C137.734 145.198 137.188 145.646 136.558 145.646C135.9 145.646 135.718 145.24 135.592 144.568C135.004 145.296 134.038 145.688 133.226 145.688C131.518 145.688 130.538 144.736 130.538 143.546C130.538 142.202 131.742 141.278 133.45 141.278C134.038 141.278 134.43 141.334 134.962 141.46C134.682 140.34 134.5 139.542 133.282 139.542C132.484 139.542 131.966 139.794 131.378 140.13C131.112 140.298 130.888 140.088 131.07 139.808C131.406 139.318 132.414 138.702 133.688 138.702C135.228 138.702 135.83 139.668 136.096 140.886L136.74 143.924C136.894 144.638 137.188 144.68 137.454 144.68ZM133.548 144.988C134.514 144.988 135.522 144.246 135.41 143.63C135.354 143.308 135.242 142.944 135.116 142.328C135.06 141.992 134.136 141.866 133.702 141.866C132.47 141.866 131.812 142.454 131.826 143.392C131.868 144.302 132.498 144.988 133.548 144.988ZM142.422 138.688C143.178 138.688 143.514 139.164 143.514 139.654C143.514 140.018 143.276 140.354 142.954 140.368C142.366 140.382 142.394 139.766 141.75 139.766C141.134 139.766 140.546 140.634 140.546 141.866V143.7C140.546 145.044 141.19 144.792 141.19 145.282C141.19 145.492 140.994 145.548 140.644 145.548H139.146C138.824 145.548 138.586 145.492 138.586 145.268C138.586 144.792 139.272 145.044 139.272 143.7V140.886C139.272 140.41 139.216 140.06 138.838 139.836C138.684 139.738 138.586 139.654 138.586 139.514C138.586 139.36 138.656 139.276 138.992 139.122C139.468 138.898 139.944 138.744 140.14 138.73C140.322 138.73 140.42 138.8 140.42 139.038L140.406 140.172C140.84 139.346 141.596 138.688 142.422 138.688ZM150.812 144.68C150.966 144.68 151.092 144.694 151.092 144.848C151.092 145.198 150.546 145.646 149.916 145.646C149.258 145.646 149.076 145.24 148.95 144.568C148.362 145.296 147.396 145.688 146.584 145.688C144.876 145.688 143.896 144.736 143.896 143.546C143.896 142.202 145.1 141.278 146.808 141.278C147.396 141.278 147.788 141.334 148.32 141.46C148.04 140.34 147.858 139.542 146.64 139.542C145.842 139.542 145.324 139.794 144.736 140.13C144.47 140.298 144.246 140.088 144.428 139.808C144.764 139.318 145.772 138.702 147.046 138.702C148.586 138.702 149.188 139.668 149.454 140.886L150.098 143.924C150.252 144.638 150.546 144.68 150.812 144.68ZM146.906 144.988C147.872 144.988 148.88 144.246 148.768 143.63C148.712 143.308 148.6 142.944 148.474 142.328C148.418 141.992 147.494 141.866 147.06 141.866C145.828 141.866 145.17 142.454 145.184 143.392C145.226 144.302 145.856 144.988 146.906 144.988ZM161.438 138.996L161.424 140.928V143.714C161.424 144.778 162.25 144.456 162.25 144.862C162.25 145.002 162.138 145.142 161.9 145.268C161.536 145.478 160.99 145.688 160.654 145.688C160.318 145.688 160.192 145.436 160.178 144.96L160.164 144.386C159.548 145.254 158.568 145.688 157.798 145.688C156.412 145.688 155.432 144.848 155.432 142.902V140.928C155.432 139.696 154.732 139.948 154.732 139.514C154.732 139.374 154.802 139.304 155.138 139.15C155.754 138.856 156.244 138.702 156.44 138.688C156.622 138.674 156.72 138.744 156.72 138.996L156.706 140.928V142.762C156.706 144.022 157.126 144.876 158.19 144.848C159.086 144.834 160.15 143.994 160.15 142.622V140.928C160.15 139.696 159.45 139.948 159.45 139.514C159.45 139.374 159.52 139.304 159.856 139.15C160.472 138.856 160.948 138.702 161.158 138.688C161.34 138.674 161.438 138.744 161.438 138.996ZM174.51 141.628L174.944 144.092C175.098 144.96 175.686 144.862 175.686 145.282C175.686 145.492 175.476 145.548 175.14 145.548H173.642C173.32 145.548 173.096 145.492 173.096 145.268C173.096 144.862 173.824 144.96 173.67 144.05L173.264 141.726C173.068 140.62 172.9 139.528 171.64 139.542C170.772 139.556 169.82 140.312 169.764 141.936L169.778 143.7C169.778 145.044 170.436 144.792 170.436 145.282C170.436 145.492 170.226 145.548 169.89 145.548H168.392C168.056 145.548 167.832 145.492 167.832 145.268C167.832 144.792 168.504 145.044 168.504 143.7V141.754C168.504 140.494 168.182 139.486 166.964 139.514C165.984 139.528 165.018 140.368 165.018 142.076V143.7C165.018 145.044 165.662 144.792 165.662 145.282C165.662 145.492 165.466 145.548 165.116 145.548H163.618C163.296 145.548 163.058 145.492 163.058 145.268C163.058 144.792 163.744 145.044 163.744 143.7V140.886C163.744 140.41 163.688 140.06 163.31 139.836C163.156 139.738 163.058 139.654 163.058 139.514C163.058 139.36 163.128 139.276 163.464 139.122C163.94 138.898 164.416 138.744 164.612 138.73C164.794 138.73 164.892 138.8 164.892 139.038L164.878 140.228C165.438 139.192 166.362 138.688 167.356 138.688C168.49 138.688 169.274 139.22 169.596 140.284C170.142 139.22 171.08 138.688 172.088 138.688C173.488 138.688 174.132 139.472 174.51 141.628ZM183.091 144.68C183.245 144.68 183.371 144.694 183.371 144.848C183.371 145.198 182.825 145.646 182.195 145.646C181.537 145.646 181.355 145.24 181.229 144.568C180.641 145.296 179.675 145.688 178.863 145.688C177.155 145.688 176.175 144.736 176.175 143.546C176.175 142.202 177.379 141.278 179.087 141.278C179.675 141.278 180.067 141.334 180.599 141.46C180.319 140.34 180.137 139.542 178.919 139.542C178.121 139.542 177.603 139.794 177.015 140.13C176.749 140.298 176.525 140.088 176.707 139.808C177.043 139.318 178.051 138.702 179.325 138.702C180.865 138.702 181.467 139.668 181.733 140.886L182.377 143.924C182.531 144.638 182.825 144.68 183.091 144.68ZM179.185 144.988C180.151 144.988 181.159 144.246 181.047 143.63C180.991 143.308 180.879 142.944 180.753 142.328C180.697 141.992 179.773 141.866 179.339 141.866C178.107 141.866 177.449 142.454 177.463 143.392C177.505 144.302 178.135 144.988 179.185 144.988Z" fill="#1A1A1A"/>
<rect x="1.24313" y="135.959" width="80.972" height="33.0636" rx="16.5318" stroke="#1A1A1A" stroke-width="1.34953"/>
<path d="M12.859 157.631C11.795 157.631 11.305 157.449 10.885 157.449C10.563 157.449 10.479 157.617 10.255 157.617C9.989 157.617 9.849 157.435 9.751 156.847C9.667 156.399 9.541 155.797 9.443 154.887C9.415 154.607 9.457 154.397 9.681 154.397C9.877 154.397 10.031 154.537 10.199 154.873C10.605 155.811 11.361 156.945 12.999 156.959C14.357 156.959 14.973 156.161 15.015 155.279C15.085 154.103 13.797 153.641 12.593 153.067C11.179 152.381 9.653 151.807 9.653 150.099C9.653 148.797 10.787 147.579 12.943 147.579C13.559 147.579 14.063 147.733 14.455 147.733C14.777 147.733 14.861 147.579 15.085 147.579C15.351 147.579 15.421 147.733 15.561 148.321C15.659 148.727 15.785 149.217 15.897 149.903C15.939 150.169 15.897 150.365 15.673 150.365C15.477 150.365 15.309 150.225 15.127 149.917C14.679 149.203 13.881 148.237 12.635 148.237C11.487 148.237 10.885 148.867 10.885 149.721C10.885 150.799 11.907 151.177 13.237 151.835C14.735 152.563 16.289 153.081 16.345 154.747C16.401 156.525 14.707 157.617 12.859 157.631ZM23.3458 155.685C23.5838 155.433 23.8918 155.587 23.7518 155.937C23.4578 156.623 22.3938 157.631 20.6298 157.631C18.6698 157.631 17.3538 156.217 17.3538 154.369C17.3538 152.255 18.8378 150.631 20.9098 150.631C22.4358 150.631 23.4578 151.513 23.7098 152.717C23.7658 152.969 23.7098 153.165 23.3878 153.291C21.8758 153.879 20.3918 154.383 18.7678 154.915C19.0338 155.727 19.8318 156.679 21.1338 156.679C22.0718 156.679 22.8418 156.217 23.3458 155.685ZM20.4758 151.289C19.2158 151.303 18.5858 152.451 18.5858 153.473C18.5858 153.823 18.5998 154.089 18.6698 154.327C19.8178 153.949 20.9098 153.585 21.9318 153.193C22.1558 153.109 22.2398 152.969 22.1978 152.717C22.0578 151.849 21.2458 151.261 20.4758 151.289ZM31.6252 150.939L31.6112 152.871V155.657C31.6112 156.721 32.4372 156.399 32.4372 156.805C32.4372 156.945 32.3252 157.085 32.0872 157.211C31.7232 157.421 31.1772 157.631 30.8412 157.631C30.5052 157.631 30.3792 157.379 30.3652 156.903L30.3512 156.329C29.7352 157.197 28.7552 157.631 27.9852 157.631C26.5992 157.631 25.6192 156.791 25.6192 154.845V152.871C25.6192 151.639 24.9192 151.891 24.9192 151.457C24.9192 151.317 24.9892 151.247 25.3252 151.093C25.9412 150.799 26.4312 150.645 26.6272 150.631C26.8092 150.617 26.9072 150.687 26.9072 150.939L26.8932 152.871V154.705C26.8932 155.965 27.3132 156.819 28.3772 156.791C29.2732 156.777 30.3372 155.937 30.3372 154.565V152.871C30.3372 151.639 29.6372 151.891 29.6372 151.457C29.6372 151.317 29.7072 151.247 30.0432 151.093C30.6592 150.799 31.1352 150.645 31.3452 150.631C31.5272 150.617 31.6252 150.687 31.6252 150.939ZM42.6141 156.623C42.7681 156.623 42.8941 156.637 42.8941 156.791C42.8941 157.141 42.3481 157.589 41.7181 157.589C41.0601 157.589 40.8781 157.183 40.7521 156.511C40.1641 157.239 39.1981 157.631 38.3861 157.631C36.6781 157.631 35.6981 156.679 35.6981 155.489C35.6981 154.145 36.9021 153.221 38.6101 153.221C39.1981 153.221 39.5901 153.277 40.1221 153.403C39.8421 152.283 39.6601 151.485 38.4421 151.485C37.6441 151.485 37.1261 151.737 36.5381 152.073C36.2721 152.241 36.0481 152.031 36.2301 151.751C36.5661 151.261 37.5741 150.645 38.8481 150.645C40.3881 150.645 40.9901 151.611 41.2561 152.829L41.9001 155.867C42.0541 156.581 42.3481 156.623 42.6141 156.623ZM38.7081 156.931C39.6741 156.931 40.6821 156.189 40.5701 155.573C40.5141 155.251 40.4021 154.887 40.2761 154.271C40.2201 153.935 39.2961 153.809 38.8621 153.809C37.6301 153.809 36.9721 154.397 36.9861 155.335C37.0281 156.245 37.6581 156.931 38.7081 156.931ZM44.3757 155.643L44.3617 149.791C44.3617 148.559 43.6757 148.811 43.6757 148.377C43.6757 148.237 43.7457 148.167 44.0817 148.013C44.6977 147.719 45.1737 147.565 45.3837 147.551C45.5657 147.537 45.6637 147.607 45.6637 147.859L45.6497 149.791V155.643C45.6497 156.987 46.2937 156.735 46.2937 157.225C46.2937 157.435 46.0977 157.491 45.7477 157.491H44.2497C43.9277 157.491 43.6897 157.435 43.6897 157.211C43.6897 156.735 44.3757 156.987 44.3757 155.643ZM48.4542 149.581C48.0762 149.553 47.7962 149.273 47.8242 148.881C47.8522 148.377 48.4822 147.789 49.0422 147.859C49.4202 147.887 49.6862 148.237 49.6722 148.587C49.6302 149.077 49.0002 149.623 48.4542 149.581ZM48.3282 155.643V152.871C48.3282 151.653 47.6422 151.891 47.6422 151.457C47.6422 151.317 47.6982 151.247 48.0342 151.093C48.6642 150.799 49.1402 150.645 49.3362 150.631C49.5182 150.617 49.6162 150.687 49.6162 150.939L49.6022 152.871V155.643C49.6022 156.987 50.2602 156.735 50.2602 157.225C50.2602 157.435 50.0502 157.491 49.7142 157.491H48.2162C47.8802 157.491 47.6562 157.435 47.6562 157.211C47.6562 156.735 48.3282 156.987 48.3282 155.643ZM58.2001 156.623C58.3541 156.623 58.4801 156.637 58.4801 156.791C58.4801 157.141 57.9341 157.589 57.3041 157.589C56.6461 157.589 56.4641 157.183 56.3381 156.511C55.7501 157.239 54.7841 157.631 53.9721 157.631C52.2641 157.631 51.2841 156.679 51.2841 155.489C51.2841 154.145 52.4881 153.221 54.1961 153.221C54.7841 153.221 55.1761 153.277 55.7081 153.403C55.4281 152.283 55.2461 151.485 54.0281 151.485C53.2301 151.485 52.7121 151.737 52.1241 152.073C51.8581 152.241 51.6341 152.031 51.8161 151.751C52.1521 151.261 53.1601 150.645 54.4341 150.645C55.9741 150.645 56.5761 151.611 56.8421 152.829L57.4861 155.867C57.6401 156.581 57.9341 156.623 58.2001 156.623ZM54.2941 156.931C55.2601 156.931 56.2681 156.189 56.1561 155.573C56.1001 155.251 55.9881 154.887 55.8621 154.271C55.8061 153.935 54.8821 153.809 54.4481 153.809C53.2161 153.809 52.5581 154.397 52.5721 155.335C52.6141 156.245 53.2441 156.931 54.2941 156.931ZM65.732 147.859L65.718 149.791L65.704 155.657C65.704 156.707 66.544 156.399 66.544 156.805C66.544 156.945 66.432 157.071 66.18 157.211C65.83 157.407 65.284 157.631 64.948 157.631C64.612 157.631 64.486 157.379 64.472 156.903L64.458 156.399C63.968 157.099 63.114 157.645 62.008 157.631C60.174 157.617 59.012 156.189 59.012 154.397C59.012 152.213 60.678 150.631 62.498 150.631C63.184 150.631 63.912 150.841 64.444 151.303V149.791C64.444 148.573 63.758 148.811 63.758 148.377C63.758 148.237 63.814 148.167 64.15 148.013C64.78 147.719 65.256 147.565 65.466 147.551C65.634 147.537 65.732 147.607 65.732 147.859ZM62.484 156.735C63.646 156.735 64.332 155.797 64.43 154.971V154.271C64.402 153.697 64.318 152.969 63.996 152.437C63.59 151.709 62.988 151.317 62.19 151.317C60.986 151.317 60.258 152.339 60.258 153.739C60.258 155.769 61.448 156.735 62.484 156.735ZM70.4914 157.631C68.6014 157.631 67.2014 156.371 67.2014 154.383C67.2014 152.269 68.7274 150.631 70.8974 150.631C72.7594 150.631 74.1174 152.073 74.1174 153.963C74.1174 156.035 72.6334 157.631 70.4914 157.631ZM70.9254 156.959C72.1154 156.959 72.8574 156.007 72.8574 154.663C72.8574 152.913 71.8074 151.345 70.4074 151.345C69.1614 151.345 68.4754 152.381 68.4754 153.711C68.4754 155.545 69.4974 156.959 70.9254 156.959Z" fill="#1A1A1A"/>
<rect x="1.24313" y="102.895" width="28.3402" height="28.3402" rx="14.1701" fill="#FC5B03"/>
<rect x="1.24313" y="102.895" width="28.3402" height="28.3402" rx="14.1701" stroke="#1A1A1A" stroke-width="1.34953"/>
<rect x="258.568" y="37.2202" width="103" height="25" rx="12.5" fill="#FFFFF3"/>
<path d="M272.164 54.2202C271.814 54.2202 271.59 53.9822 271.59 53.6182V45.7782C271.59 45.4142 271.814 45.1622 272.164 45.1622H277.372C277.694 45.1622 277.862 45.3162 277.862 45.5962V45.6662C277.862 45.9602 277.694 46.1002 277.372 46.1002H272.64V49.1242H276.266C276.602 49.1242 276.77 49.2782 276.77 49.5442V49.6002C276.77 49.8942 276.602 50.0342 276.266 50.0342H272.64V53.2822H277.484C277.806 53.2822 277.974 53.4222 277.974 53.7022V53.7722C277.974 54.0662 277.806 54.2202 277.484 54.2202H272.164ZM279.452 53.7862V45.7222C279.452 45.3582 279.704 45.1202 280.082 45.1202H280.362C280.81 45.1202 280.922 45.2882 281.104 45.7082L283.554 50.8322L286.004 45.7082C286.172 45.2742 286.312 45.1202 286.718 45.1202H286.984C287.39 45.1202 287.628 45.3582 287.628 45.7222V53.7862C287.628 54.0942 287.502 54.2622 287.194 54.2622H287.068C286.774 54.2622 286.634 54.0942 286.634 53.7862V51.3222L286.648 46.3942L284.254 51.4062C284.128 51.7142 283.988 51.9102 283.54 51.9102C283.064 51.9102 282.952 51.7142 282.812 51.4062L280.432 46.4082L280.446 51.2942V53.7862C280.446 54.0942 280.32 54.2622 280.012 54.2622H279.858C279.564 54.2622 279.452 54.0942 279.452 53.7862ZM299.198 49.6282C299.59 49.6282 299.814 49.8802 299.8 50.2862V54.1642C299.8 54.1922 299.66 54.2622 299.464 54.2622C299.156 54.2622 298.918 54.1222 298.904 53.4362C298.904 53.1702 298.89 52.9042 298.89 52.6242C298.4 53.6882 297.28 54.3742 295.782 54.3742C293.234 54.3742 291.624 52.4002 291.624 49.7122C291.624 46.9682 293.416 45.0082 296.076 45.0082C297.322 45.0082 298.232 45.4422 298.764 45.9042C299.184 46.2542 299.394 46.6462 299.394 46.8842C299.394 47.4302 298.806 47.5002 298.75 47.4582C298.288 46.5482 297.28 45.9182 296.062 45.9182C294.074 45.9182 292.716 47.4582 292.716 49.7122C292.716 51.9242 293.934 53.4922 295.978 53.4922C297.56 53.4922 298.722 52.5122 298.876 51.1122V50.5102H296.482C296.118 50.5102 295.936 50.3842 295.936 50.1042V50.0342C295.936 49.7542 296.118 49.6282 296.482 49.6282H299.198ZM301.515 50.6502V45.5962C301.515 45.2742 301.683 45.1202 301.963 45.1202H302.117C302.411 45.1202 302.579 45.2742 302.579 45.5962V50.6362C302.579 52.4702 303.391 53.4222 305.029 53.4222C306.681 53.4222 307.465 52.4982 307.465 50.6222V45.5962C307.465 45.2602 307.619 45.1202 307.913 45.1202H308.095C308.389 45.1202 308.515 45.2602 308.515 45.5962V50.6222C308.515 53.0722 307.297 54.3742 305.001 54.3742C302.719 54.3742 301.515 53.1002 301.515 50.6502ZM310.432 53.7862V45.7222C310.432 45.3582 310.684 45.1202 311.062 45.1202H311.342C311.79 45.1202 311.902 45.2882 312.084 45.7082L314.534 50.8322L316.984 45.7082C317.152 45.2742 317.292 45.1202 317.698 45.1202H317.964C318.37 45.1202 318.608 45.3582 318.608 45.7222V53.7862C318.608 54.0942 318.482 54.2622 318.174 54.2622H318.048C317.754 54.2622 317.614 54.0942 317.614 53.7862V51.3222L317.628 46.3942L315.234 51.4062C315.108 51.7142 314.968 51.9102 314.52 51.9102C314.044 51.9102 313.932 51.7142 313.792 51.4062L311.412 46.4082L311.426 51.2942V53.7862C311.426 54.0942 311.3 54.2622 310.992 54.2622H310.838C310.544 54.2622 310.432 54.0942 310.432 53.7862ZM320.672 53.7862V45.7222C320.672 45.3582 320.924 45.1202 321.302 45.1202H321.582C322.03 45.1202 322.142 45.2882 322.324 45.7082L324.774 50.8322L327.224 45.7082C327.392 45.2742 327.532 45.1202 327.938 45.1202H328.204C328.61 45.1202 328.848 45.3582 328.848 45.7222V53.7862C328.848 54.0942 328.722 54.2622 328.414 54.2622H328.288C327.994 54.2622 327.854 54.0942 327.854 53.7862V51.3222L327.868 46.3942L325.474 51.4062C325.348 51.7142 325.208 51.9102 324.76 51.9102C324.284 51.9102 324.172 51.7142 324.032 51.4062L321.652 46.4082L321.666 51.2942V53.7862C321.666 54.0942 321.54 54.2622 321.232 54.2622H321.078C320.784 54.2622 320.672 54.0942 320.672 53.7862ZM331.053 53.7862V45.5962C331.053 45.2742 331.193 45.1202 331.487 45.1202H331.641C331.935 45.1202 332.103 45.2742 332.103 45.5962V53.7862C332.103 54.0942 331.935 54.2622 331.641 54.2622H331.487C331.193 54.2622 331.053 54.0942 331.053 53.7862ZM334.85 54.2202C334.5 54.2202 334.276 53.9822 334.276 53.6182V45.7782C334.276 45.4142 334.5 45.1622 334.85 45.1622H340.058C340.38 45.1622 340.548 45.3162 340.548 45.5962V45.6662C340.548 45.9602 340.38 46.1002 340.058 46.1002H335.326V49.1242H338.952C339.288 49.1242 339.456 49.2782 339.456 49.5442V49.6002C339.456 49.8942 339.288 50.0342 338.952 50.0342H335.326V53.2822H340.17C340.492 53.2822 340.66 53.4222 340.66 53.7022V53.7722C340.66 54.0662 340.492 54.2202 340.17 54.2202H334.85ZM342.053 53.4222C341.759 53.1282 341.619 52.8062 341.619 52.5682C341.619 52.1902 342.081 51.9382 342.123 51.9802C342.543 52.7502 343.425 53.4922 344.839 53.4922C346.169 53.4922 346.995 52.8762 346.995 51.8402C346.995 50.6782 345.875 50.3982 344.601 50.0902C343.215 49.7402 341.843 49.2782 341.843 47.5282C341.843 46.0442 343.131 45.0082 344.895 45.0082C346.071 45.0082 346.925 45.3862 347.401 45.8202C347.681 46.0862 347.835 46.3802 347.835 46.6182C347.835 47.0242 347.345 47.2622 347.317 47.2202C346.925 46.5202 346.099 45.8902 344.895 45.8902C343.705 45.8902 342.865 46.5202 342.865 47.5002C342.865 48.6062 343.817 48.8302 345.119 49.1522C346.589 49.5022 348.031 50.0482 348.031 51.7842C348.031 53.3662 346.785 54.3742 344.853 54.3742C343.523 54.3742 342.571 53.9402 342.053 53.4222Z" fill="#FC5B03"/>
<mask id="path-10-outside-1_1_1729" maskUnits="userSpaceOnUse" x="-0.431641" y="14.2202" width="250" height="56" fill="black">
<rect fill="white" x="-0.431641" y="14.2202" width="250" height="56"/>
<path d="M15.0164 28.5242C13.0004 28.5242 11.4884 27.1802 11.4884 25.2762C11.4884 21.5242 17.5924 17.7722 21.0644 16.9322C24.6484 17.8282 30.6404 21.5242 30.6404 25.2762C30.6404 27.1802 29.1844 28.5242 27.1124 28.5242C24.6484 28.5242 22.5204 26.5642 21.0644 23.5962C19.4964 26.6762 17.3124 28.5242 15.0164 28.5242ZM21.0644 68.0042C9.92036 68.0042 2.02436 60.1642 2.02436 49.1322C2.02436 38.1002 10.0324 30.2042 21.0644 30.2042C32.2084 30.2042 40.1044 38.0442 40.1044 49.0762C40.1044 60.1642 32.1524 68.0042 21.0644 68.0042ZM21.0644 57.9802C25.8804 57.9802 29.0164 54.5082 29.0164 49.1322C29.0164 43.7002 25.8244 40.1162 21.0644 40.1162C16.2484 40.1162 13.1124 43.5322 13.1124 49.0762C13.1124 54.5082 16.3044 57.9802 21.0644 57.9802ZM45.784 62.2922V36.0842C45.784 32.5562 47.576 30.7082 50.824 30.7082H53.96C56.928 30.7082 57.936 31.4362 58.944 33.7322L64.824 48.1802L70.648 33.7322C71.768 31.2682 72.944 30.7082 75.464 30.7082H78.656C81.96 30.7082 83.808 32.5562 83.808 36.0842V62.2922C83.808 65.7082 82.632 67.5002 79.384 67.5002H77.648C74.512 67.5002 73.224 65.7082 73.224 62.2922V57.4202L73.28 46.7242L69.528 57.4202C68.968 58.8202 68.912 60.1642 64.768 60.1642C60.568 60.1642 60.68 58.8762 60.064 57.4202L56.368 47.2282V62.2922C56.368 65.7082 55.192 67.5002 52 67.5002H50.152C47.072 67.5002 45.784 65.7082 45.784 62.2922ZM96.271 67.2202C92.575 67.2202 90.503 65.1482 90.503 61.0602V37.2602C90.503 33.1722 92.575 30.9882 96.271 30.9882H115.423C118.951 30.9882 120.575 32.3882 120.575 35.3562V35.6362C120.575 38.7162 118.951 39.9482 115.423 39.9482H101.759V44.7082H110.831C114.527 44.7082 116.039 45.8842 116.039 48.6282V48.7962C116.039 51.7642 114.471 52.9962 110.831 52.9962H101.759V58.3722H115.647C119.231 58.3722 120.855 59.4922 120.855 62.4042V62.6842C120.855 65.7642 119.231 67.2202 115.647 67.2202H96.271ZM157.912 46.4442C161.16 46.4442 161.776 47.9562 161.776 51.2042V66.3802C161.776 66.7162 160.04 67.5002 157.968 67.5002C155.952 67.5002 153.768 66.6602 152.816 63.5802L152.48 62.6282C150.688 65.7642 147.104 67.8362 141.84 67.8362C131.816 67.8362 124.872 59.9402 124.872 49.1322C124.872 38.1002 132.712 30.2042 144.584 30.2042C149.12 30.2042 152.648 31.1002 155.112 32.6122C157.576 34.0682 158.864 36.1962 158.864 38.5482C158.864 42.6922 153.544 44.0362 153.208 43.7002C151.304 41.1802 148.392 39.7802 145.256 39.7802C140.16 39.7802 136.184 43.7002 136.184 49.6362C136.184 55.6282 139.768 59.4362 144.752 59.4362C147.944 59.4362 150.352 58.0362 151.192 55.9082C151.304 55.5722 151.416 55.1242 151.472 54.6762H148.112C144.584 54.6762 142.848 53.8922 142.848 50.8122V50.3082C142.848 47.1162 144.584 46.4442 148.112 46.4442H157.912ZM171.878 67.7242C168.798 67.7242 165.718 65.2602 166.11 64.2522L177.758 33.7882C178.318 31.9962 179.83 30.7082 184.926 30.7082C190.022 30.7082 191.31 31.9962 191.87 33.7882L204.022 64.1402C204.414 65.1482 201.39 67.6682 198.03 67.6682C195.622 67.6682 193.158 66.3802 191.59 62.4042L190.582 59.7722H179.046L177.982 62.5162C176.638 66.3802 174.286 67.7242 171.878 67.7242ZM180.894 51.6522H188.566L184.758 41.1802L180.894 51.6522ZM231.013 68.0042C226.533 68.0042 222.893 67.0522 220.373 65.5402C217.853 63.9722 216.509 61.8442 216.509 59.5482C216.509 53.9482 223.005 54.0602 223.117 54.4522C224.069 57.8122 226.869 59.5482 230.845 59.5482C234.373 59.5482 236.501 58.1482 236.501 55.8522C236.501 53.6122 235.157 52.5482 232.245 52.5482H231.181C227.541 52.5482 226.029 51.3722 226.029 48.9642V48.3482C226.029 45.8282 227.709 44.6522 231.069 44.6522H232.973C234.933 44.6522 236.165 43.5882 236.165 41.9082C236.165 39.8922 234.093 38.6042 230.733 38.6042C225.973 38.6042 224.237 41.2362 223.621 43.4762C223.565 43.8682 217.181 44.0362 217.181 38.3802C217.181 36.0842 218.469 34.0682 220.877 32.5562C223.229 31.1002 226.701 30.2042 230.957 30.2042C241.093 30.2042 246.525 33.7882 246.525 40.3402C246.525 43.9242 244.229 46.4442 240.029 47.7322C244.565 49.2442 247.085 52.3802 247.085 56.7482C247.085 63.9162 241.317 68.0042 231.013 68.0042Z"/>
</mask>
<path d="M15.0164 28.5242C13.0004 28.5242 11.4884 27.1802 11.4884 25.2762C11.4884 21.5242 17.5924 17.7722 21.0644 16.9322C24.6484 17.8282 30.6404 21.5242 30.6404 25.2762C30.6404 27.1802 29.1844 28.5242 27.1124 28.5242C24.6484 28.5242 22.5204 26.5642 21.0644 23.5962C19.4964 26.6762 17.3124 28.5242 15.0164 28.5242ZM21.0644 68.0042C9.92036 68.0042 2.02436 60.1642 2.02436 49.1322C2.02436 38.1002 10.0324 30.2042 21.0644 30.2042C32.2084 30.2042 40.1044 38.0442 40.1044 49.0762C40.1044 60.1642 32.1524 68.0042 21.0644 68.0042ZM21.0644 57.9802C25.8804 57.9802 29.0164 54.5082 29.0164 49.1322C29.0164 43.7002 25.8244 40.1162 21.0644 40.1162C16.2484 40.1162 13.1124 43.5322 13.1124 49.0762C13.1124 54.5082 16.3044 57.9802 21.0644 57.9802ZM45.784 62.2922V36.0842C45.784 32.5562 47.576 30.7082 50.824 30.7082H53.96C56.928 30.7082 57.936 31.4362 58.944 33.7322L64.824 48.1802L70.648 33.7322C71.768 31.2682 72.944 30.7082 75.464 30.7082H78.656C81.96 30.7082 83.808 32.5562 83.808 36.0842V62.2922C83.808 65.7082 82.632 67.5002 79.384 67.5002H77.648C74.512 67.5002 73.224 65.7082 73.224 62.2922V57.4202L73.28 46.7242L69.528 57.4202C68.968 58.8202 68.912 60.1642 64.768 60.1642C60.568 60.1642 60.68 58.8762 60.064 57.4202L56.368 47.2282V62.2922C56.368 65.7082 55.192 67.5002 52 67.5002H50.152C47.072 67.5002 45.784 65.7082 45.784 62.2922ZM96.271 67.2202C92.575 67.2202 90.503 65.1482 90.503 61.0602V37.2602C90.503 33.1722 92.575 30.9882 96.271 30.9882H115.423C118.951 30.9882 120.575 32.3882 120.575 35.3562V35.6362C120.575 38.7162 118.951 39.9482 115.423 39.9482H101.759V44.7082H110.831C114.527 44.7082 116.039 45.8842 116.039 48.6282V48.7962C116.039 51.7642 114.471 52.9962 110.831 52.9962H101.759V58.3722H115.647C119.231 58.3722 120.855 59.4922 120.855 62.4042V62.6842C120.855 65.7642 119.231 67.2202 115.647 67.2202H96.271ZM157.912 46.4442C161.16 46.4442 161.776 47.9562 161.776 51.2042V66.3802C161.776 66.7162 160.04 67.5002 157.968 67.5002C155.952 67.5002 153.768 66.6602 152.816 63.5802L152.48 62.6282C150.688 65.7642 147.104 67.8362 141.84 67.8362C131.816 67.8362 124.872 59.9402 124.872 49.1322C124.872 38.1002 132.712 30.2042 144.584 30.2042C149.12 30.2042 152.648 31.1002 155.112 32.6122C157.576 34.0682 158.864 36.1962 158.864 38.5482C158.864 42.6922 153.544 44.0362 153.208 43.7002C151.304 41.1802 148.392 39.7802 145.256 39.7802C140.16 39.7802 136.184 43.7002 136.184 49.6362C136.184 55.6282 139.768 59.4362 144.752 59.4362C147.944 59.4362 150.352 58.0362 151.192 55.9082C151.304 55.5722 151.416 55.1242 151.472 54.6762H148.112C144.584 54.6762 142.848 53.8922 142.848 50.8122V50.3082C142.848 47.1162 144.584 46.4442 148.112 46.4442H157.912ZM171.878 67.7242C168.798 67.7242 165.718 65.2602 166.11 64.2522L177.758 33.7882C178.318 31.9962 179.83 30.7082 184.926 30.7082C190.022 30.7082 191.31 31.9962 191.87 33.7882L204.022 64.1402C204.414 65.1482 201.39 67.6682 198.03 67.6682C195.622 67.6682 193.158 66.3802 191.59 62.4042L190.582 59.7722H179.046L177.982 62.5162C176.638 66.3802 174.286 67.7242 171.878 67.7242ZM180.894 51.6522H188.566L184.758 41.1802L180.894 51.6522ZM231.013 68.0042C226.533 68.0042 222.893 67.0522 220.373 65.5402C217.853 63.9722 216.509 61.8442 216.509 59.5482C216.509 53.9482 223.005 54.0602 223.117 54.4522C224.069 57.8122 226.869 59.5482 230.845 59.5482C234.373 59.5482 236.501 58.1482 236.501 55.8522C236.501 53.6122 235.157 52.5482 232.245 52.5482H231.181C227.541 52.5482 226.029 51.3722 226.029 48.9642V48.3482C226.029 45.8282 227.709 44.6522 231.069 44.6522H232.973C234.933 44.6522 236.165 43.5882 236.165 41.9082C236.165 39.8922 234.093 38.6042 230.733 38.6042C225.973 38.6042 224.237 41.2362 223.621 43.4762C223.565 43.8682 217.181 44.0362 217.181 38.3802C217.181 36.0842 218.469 34.0682 220.877 32.5562C223.229 31.1002 226.701 30.2042 230.957 30.2042C241.093 30.2042 246.525 33.7882 246.525 40.3402C246.525 43.9242 244.229 46.4442 240.029 47.7322C244.565 49.2442 247.085 52.3802 247.085 56.7482C247.085 63.9162 241.317 68.0042 231.013 68.0042Z" fill="#FC5B03"/>
<path d="M21.0644 16.9322L21.5553 14.9684L21.0723 14.8476L20.5883 14.9647L21.0644 16.9322ZM21.0644 23.5962L22.8818 22.7047L21.0979 19.0684L19.2604 22.6778L21.0644 23.5962ZM15.0164 28.5242V26.4999C13.9369 26.4999 13.5127 25.889 13.5127 25.2762H11.4884H9.46406C9.46406 28.4714 12.0638 30.5485 15.0164 30.5485V28.5242ZM11.4884 25.2762H13.5127C13.5127 24.891 13.6731 24.3546 14.1532 23.6708C14.6284 22.9937 15.3374 22.2888 16.2108 21.615C17.9799 20.2503 20.1197 19.2435 21.5404 18.8997L21.0644 16.9322L20.5883 14.9647C18.537 15.461 15.8888 16.7501 13.7379 18.4094C12.6513 19.2477 11.6173 20.2367 10.8395 21.3447C10.0666 22.4458 9.46406 23.7854 9.46406 25.2762H11.4884ZM21.0644 16.9322L20.5734 18.8961C22.066 19.2692 24.2094 20.2822 25.958 21.6345C26.8228 22.3033 27.5201 23.0013 27.9863 23.6715C28.456 24.3467 28.6161 24.8825 28.6161 25.2762H30.6404H32.6647C32.6647 23.7939 32.0758 22.4607 31.3099 21.3597C30.5406 20.2536 29.516 19.2681 28.4348 18.4319C26.2913 16.7742 23.6467 15.4912 21.5553 14.9684L21.0644 16.9322ZM30.6404 25.2762H28.6161C28.6161 25.6864 28.4715 25.9506 28.2817 26.1255C28.0803 26.311 27.7092 26.4999 27.1124 26.4999V28.5242V30.5485C28.5876 30.5485 29.9804 30.0654 31.025 29.103C32.0812 28.1299 32.6647 26.7701 32.6647 25.2762H30.6404ZM27.1124 28.5242V26.4999C25.8212 26.4999 24.2197 25.4321 22.8818 22.7047L21.0644 23.5962L19.247 24.4878C20.821 27.6963 23.4755 30.5485 27.1124 30.5485V28.5242ZM21.0644 23.5962L19.2604 22.6778C17.8167 25.5136 16.1627 26.4999 15.0164 26.4999V28.5242V30.5485C18.462 30.5485 21.176 27.8388 22.8683 24.5146L21.0644 23.5962ZM21.0644 68.0042V65.9799C15.9789 65.9799 11.7462 64.1988 8.79077 61.2679C5.83633 58.338 4.04866 54.1511 4.04866 49.1322H2.02436H6.02603e-05C6.02603e-05 55.1454 2.16039 60.3944 5.93995 64.1426C9.71848 67.8897 15.0058 70.0285 21.0644 70.0285V68.0042ZM2.02436 49.1322H4.04866C4.04866 39.234 11.1344 32.2285 21.0644 32.2285V30.2042V28.1799C8.93027 28.1799 6.02603e-05 36.9664 6.02603e-05 49.1322H2.02436ZM21.0644 30.2042V32.2285C26.1498 32.2285 30.3825 34.0097 33.338 36.9406C36.2924 39.8704 38.0801 44.0574 38.0801 49.0762H40.1044H42.1287C42.1287 43.0631 39.9683 37.814 36.1888 34.0659C32.4102 30.3188 27.1229 28.1799 21.0644 28.1799V30.2042ZM40.1044 49.0762H38.0801C38.0801 59.0304 31.0503 65.9799 21.0644 65.9799V68.0042V70.0285C33.2544 70.0285 42.1287 61.2981 42.1287 49.0762H40.1044ZM21.0644 57.9802V60.0045C23.9859 60.0045 26.5425 58.9358 28.351 56.9264C30.1403 54.9383 31.0407 52.207 31.0407 49.1322H29.0164H26.9921C26.9921 51.4335 26.3244 53.1262 25.3417 54.218C24.3782 55.2886 22.9589 55.9559 21.0644 55.9559V57.9802ZM29.0164 49.1322H31.0407C31.0407 46.0266 30.1251 43.2626 28.3417 41.2461C26.5385 39.2074 23.984 38.0919 21.0644 38.0919V40.1162V42.1405C22.9047 42.1405 24.3262 42.8171 25.309 43.9283C26.3116 45.0619 26.9921 46.8058 26.9921 49.1322H29.0164ZM21.0644 40.1162V38.0919C18.1519 38.0919 15.5896 39.1406 13.7747 41.1664C11.9806 43.1689 11.0881 45.9317 11.0881 49.0762H13.1124H15.1367C15.1367 46.6767 15.8122 44.9595 16.7901 43.868C17.7471 42.7998 19.1608 42.1405 21.0644 42.1405V40.1162ZM13.1124 49.0762H11.0881C11.0881 52.1831 12.0047 54.9271 13.799 56.9198C15.611 58.9321 18.1653 60.0045 21.0644 60.0045V57.9802V55.9559C19.2034 55.9559 17.7817 55.2924 16.8077 54.2107C15.816 53.1094 15.1367 51.4013 15.1367 49.0762H13.1124ZM58.944 33.7322L60.819 32.9691L60.8086 32.9437L60.7975 32.9185L58.944 33.7322ZM64.824 48.1802L62.949 48.9433L64.833 53.5724L66.7015 48.937L64.824 48.1802ZM70.648 33.7322L68.8051 32.8946L68.7869 32.9346L68.7705 32.9754L70.648 33.7322ZM73.224 57.4202L71.1997 57.4096V57.4202H73.224ZM73.28 46.7242L75.3043 46.7348L71.3698 46.0541L73.28 46.7242ZM69.528 57.4202L71.4075 58.172L71.4237 58.1315L71.4382 58.0903L69.528 57.4202ZM60.064 57.4202L58.161 58.1103L58.179 58.1602L58.1997 58.209L60.064 57.4202ZM56.368 47.2282L58.271 46.5381L54.3437 47.2282H56.368ZM45.784 62.2922H47.8083V36.0842H45.784H43.7597V62.2922H45.784ZM45.784 36.0842H47.8083C47.8083 34.6405 48.1738 33.8691 48.5567 33.4641C48.9224 33.0775 49.5807 32.7325 50.824 32.7325V30.7082V28.6839C48.8193 28.6839 46.9576 29.2629 45.6152 30.6823C44.2902 32.0833 43.7597 33.9999 43.7597 36.0842H45.784ZM50.824 30.7082V32.7325H53.96V30.7082V28.6839H50.824V30.7082ZM53.96 30.7082V32.7325C55.3373 32.7325 55.8577 32.9152 56.1127 33.0749C56.3391 33.2167 56.6375 33.5142 57.0904 34.546L58.944 33.7322L60.7975 32.9185C60.2425 31.6542 59.5329 30.4398 58.2613 29.6435C57.0183 28.8652 55.5507 28.6839 53.96 28.6839V30.7082ZM58.944 33.7322L57.069 34.4953L62.949 48.9433L64.824 48.1802L66.699 47.4171L60.819 32.9691L58.944 33.7322ZM64.824 48.1802L66.7015 48.937L72.5255 34.489L70.648 33.7322L68.7705 32.9754L62.9465 47.4234L64.824 48.1802ZM70.648 33.7322L72.4908 34.5699C72.9762 33.5022 73.3308 33.1766 73.5701 33.0335C73.8358 32.8745 74.303 32.7325 75.464 32.7325V30.7082V28.6839C74.105 28.6839 72.7242 28.8219 71.4919 29.559C70.2332 30.3118 69.4398 31.4982 68.8051 32.8946L70.648 33.7322ZM75.464 30.7082V32.7325H78.656V30.7082V28.6839H75.464V30.7082ZM78.656 30.7082V32.7325C79.9375 32.7325 80.6315 33.0838 81.0172 33.4819C81.4126 33.8899 81.7837 34.6561 81.7837 36.0842H83.808H85.8323C85.8323 33.9843 85.2794 32.0626 83.9247 30.6645C82.5605 29.2566 80.6785 28.6839 78.656 28.6839V30.7082ZM83.808 36.0842H81.7837V62.2922H83.808H85.8323V36.0842H83.808ZM83.808 62.2922H81.7837C81.7837 63.845 81.5009 64.5781 81.2333 64.9126C81.0479 65.1443 80.6377 65.4759 79.384 65.4759V67.5002V69.5245C81.3783 69.5245 83.1801 68.9601 84.3947 67.4418C85.527 66.0264 85.8323 64.1555 85.8323 62.2922H83.808ZM79.384 67.5002V65.4759H77.648V67.5002V69.5245H79.384V67.5002ZM77.648 67.5002V65.4759C76.4712 65.4759 76.0391 65.1557 75.8284 64.8974C75.5462 64.5516 75.2483 63.8102 75.2483 62.2922H73.224H71.1997C71.1997 64.1902 71.5457 66.0528 72.6916 67.457C73.9089 68.9488 75.6888 69.5245 77.648 69.5245V67.5002ZM73.224 62.2922H75.2483V57.4202H73.224H71.1997V62.2922H73.224ZM73.224 57.4202L75.2483 57.4308L75.3043 46.7348L73.28 46.7242L71.2557 46.7136L71.1997 57.4096L73.224 57.4202ZM73.28 46.7242L71.3698 46.0541L67.6178 56.7501L69.528 57.4202L71.4382 58.0903L75.1902 47.3943L73.28 46.7242ZM69.528 57.4202L67.6485 56.6684C67.5655 56.8758 67.4866 57.096 67.4343 57.2372C67.3745 57.3988 67.3323 57.5054 67.2922 57.5926C67.2213 57.7465 67.1879 57.769 67.182 57.7739C67.1489 57.802 66.7194 58.1399 64.768 58.1399V60.1642V62.1885C66.9606 62.1885 68.6311 61.8544 69.802 60.8605C70.9031 59.9259 71.2786 58.4943 71.4075 58.172L69.528 57.4202ZM64.768 60.1642V58.1399C63.8059 58.1399 63.2013 58.0645 62.8263 57.9733C62.6451 57.9292 62.5362 57.8858 62.4764 57.8569C62.4469 57.8427 62.4289 57.8318 62.4195 57.8256C62.4147 57.8225 62.4116 57.8202 62.4099 57.8189C62.4091 57.8183 62.4085 57.8178 62.4081 57.8175C62.4079 57.8173 62.4078 57.8172 62.4077 57.8172C62.4077 57.8171 62.4077 57.8171 62.4076 57.8171C62.4071 57.8166 62.4082 57.8176 62.4076 57.8171C62.4071 57.8166 62.4082 57.8176 62.4076 57.8171C62.4071 57.8166 62.4082 57.8176 62.4076 57.8171C62.4071 57.8166 62.4082 57.8176 62.4076 57.8171C62.4077 57.8171 62.4077 57.8171 62.4077 57.8172C62.4078 57.8172 62.4079 57.8173 62.408 57.8174C62.4082 57.8176 62.4084 57.8178 62.4087 57.8181C62.4093 57.8187 62.4096 57.8191 62.4097 57.8192C62.41 57.8196 62.4075 57.8167 62.4019 57.8083C62.3897 57.79 62.3643 57.7472 62.3242 57.655C62.2809 57.5556 62.2381 57.4412 62.171 57.2584C62.1099 57.0923 62.0276 56.8663 61.9283 56.6315L60.064 57.4202L58.1997 58.209C58.2543 58.3381 58.3033 58.4709 58.3704 58.6539C58.4315 58.8202 58.5138 59.0454 58.6123 59.2715C58.8193 59.7468 59.1428 60.3382 59.7364 60.8594C60.9001 61.8812 62.5828 62.1885 64.768 62.1885V60.1642ZM60.064 57.4202L61.967 56.7301L58.271 46.5381L56.368 47.2282L54.465 47.9183L58.161 58.1103L60.064 57.4202ZM56.368 47.2282H54.3437V62.2922H56.368H58.3923V47.2282H56.368ZM56.368 62.2922H54.3437C54.3437 63.8441 54.0613 64.583 53.7941 64.9204C53.6113 65.1512 53.2144 65.4759 52 65.4759V67.5002V69.5245C53.9776 69.5245 55.7646 68.9533 56.9679 67.434C58.0866 66.0214 58.3923 64.1563 58.3923 62.2922H56.368ZM52 67.5002V65.4759H50.152V67.5002V69.5245H52V67.5002ZM50.152 67.5002V65.4759C49.0147 65.4759 48.5958 65.1628 48.3875 64.905C48.1059 64.5564 47.8083 63.8095 47.8083 62.2922H45.784H43.7597C43.7597 64.191 44.1061 66.048 45.2384 67.4495C46.4441 68.9417 48.2092 69.5245 50.152 69.5245V67.5002ZM101.759 39.9482V37.9239H99.7347V39.9482H101.759ZM101.759 44.7082H99.7347V46.7325H101.759V44.7082ZM101.759 52.9962V50.9719H99.7347V52.9962H101.759ZM101.759 58.3722H99.7347V60.3965H101.759V58.3722ZM96.271 67.2202V65.1959C94.7953 65.1959 93.9554 64.7901 93.4669 64.2771C92.9632 63.7482 92.5273 62.7848 92.5273 61.0602H90.503H88.4788C88.4788 63.4236 89.0789 65.5402 90.5352 67.0693C92.0067 68.6144 94.0508 69.2445 96.271 69.2445V67.2202ZM90.503 61.0602H92.5273V37.2602H90.503H88.4788V61.0602H90.503ZM90.503 37.2602H92.5273C92.5273 35.5356 92.9636 34.5304 93.4855 33.9675C93.985 33.4288 94.8251 33.0125 96.271 33.0125V30.9882V28.9639C94.021 28.9639 91.9771 29.6397 90.5166 31.2149C89.0785 32.7661 88.4788 34.8969 88.4788 37.2602H90.503ZM96.271 30.9882V33.0125H115.423V30.9882V28.9639H96.271V30.9882ZM115.423 30.9882V33.0125C116.979 33.0125 117.694 33.3316 118.01 33.6007C118.256 33.8102 118.551 34.2371 118.551 35.3562H120.575H122.599C122.599 33.5074 122.082 31.7502 120.634 30.5178C119.256 29.3448 117.395 28.9639 115.423 28.9639V30.9882ZM120.575 35.3562H118.551V35.6362H120.575H122.599V35.3562H120.575ZM120.575 35.6362H118.551C118.551 36.8319 118.246 37.2121 118.04 37.3805C117.738 37.6275 117.03 37.9239 115.423 37.9239V39.9482V41.9725C117.344 41.9725 119.212 41.6529 120.604 40.5139C122.092 39.2963 122.599 37.5205 122.599 35.6362H120.575ZM115.423 39.9482V37.9239H101.759V39.9482V41.9725H115.423V39.9482ZM101.759 39.9482H99.7347V44.7082H101.759H103.783V39.9482H101.759ZM101.759 44.7082V46.7325H110.831V44.7082V42.6839H101.759V44.7082ZM110.831 44.7082V46.7325C112.553 46.7325 113.298 47.0246 113.598 47.2522C113.759 47.3747 114.015 47.634 114.015 48.6282H116.039H118.063C118.063 46.8784 117.563 45.1777 116.044 44.0262C114.664 42.9799 112.805 42.6839 110.831 42.6839V44.7082ZM116.039 48.6282H114.015V48.7962H116.039H118.063V48.6282H116.039ZM116.039 48.7962H114.015C114.015 49.9326 113.726 50.2754 113.534 50.4298C113.232 50.6715 112.506 50.9719 110.831 50.9719V52.9962V55.0205C112.796 55.0205 114.674 54.7049 116.066 53.5887C117.568 52.385 118.063 50.6279 118.063 48.7962H116.039ZM110.831 52.9962V50.9719H101.759V52.9962V55.0205H110.831V52.9962ZM101.759 52.9962H99.7347V58.3722H101.759H103.783V52.9962H101.759ZM101.759 58.3722V60.3965H115.647V58.3722V56.3479H101.759V58.3722ZM115.647 58.3722V60.3965C117.317 60.3965 118.063 60.6759 118.376 60.9125C118.551 61.044 118.831 61.3311 118.831 62.4042H120.855H122.879C122.879 60.5654 122.347 58.8365 120.814 57.68C119.42 56.6285 117.561 56.3479 115.647 56.3479V58.3722ZM120.855 62.4042H118.831V62.6842H120.855H122.879V62.4042H120.855ZM120.855 62.6842H118.831C118.831 63.8814 118.523 64.3548 118.26 64.5853C117.94 64.8662 117.223 65.1959 115.647 65.1959V67.2202V69.2445C117.655 69.2445 119.542 68.8463 120.93 67.6291C122.375 66.3616 122.879 64.567 122.879 62.6842H120.855ZM115.647 67.2202V65.1959H96.271V67.2202V69.2445H115.647V67.2202ZM152.816 63.5802L154.75 62.9824L154.738 62.9442L154.725 62.9065L152.816 63.5802ZM152.48 62.6282L154.389 61.9545L152.917 57.7837L150.722 61.6239L152.48 62.6282ZM155.112 32.6122L154.053 34.3376L154.067 34.3464L154.082 34.355L155.112 32.6122ZM153.208 43.7002L151.593 44.9205L151.677 45.0324L151.776 45.1316L153.208 43.7002ZM151.192 55.9082L153.075 56.6515L153.095 56.6004L153.112 56.5484L151.192 55.9082ZM151.472 54.6762L153.48 54.9273L153.765 52.6519H151.472V54.6762ZM157.912 46.4442V48.4685C158.585 48.4685 158.969 48.5495 159.176 48.6272C159.346 48.6905 159.388 48.7453 159.414 48.7828C159.463 48.8511 159.561 49.0305 159.637 49.4513C159.714 49.8754 159.751 50.4398 159.751 51.2042H161.776H163.8C163.8 49.6035 163.685 47.7963 162.709 46.4296C161.586 44.8576 159.794 44.4199 157.912 44.4199V46.4442ZM161.776 51.2042H159.751V66.3802H161.776H163.8V51.2042H161.776ZM161.776 66.3802H159.751C159.751 65.9662 159.883 65.6537 159.979 65.4776C160.077 65.2991 160.181 65.1813 160.238 65.122C160.348 65.0071 160.427 64.9629 160.407 64.9756C160.379 64.9927 160.247 65.064 159.991 65.1517C159.493 65.3227 158.763 65.4759 157.968 65.4759V67.5002V69.5245C159.244 69.5245 160.418 69.2857 161.306 68.9808C161.744 68.8305 162.175 68.6428 162.537 68.4183C162.712 68.3102 162.943 68.1497 163.157 67.9276C163.3 67.778 163.8 67.2359 163.8 66.3802H161.776ZM157.968 67.5002V65.4759C157.228 65.4759 156.594 65.3211 156.095 64.9971C155.625 64.6926 155.104 64.1301 154.75 62.9824L152.816 63.5802L150.882 64.178C151.479 66.1103 152.526 67.5078 153.891 68.3934C155.226 69.2594 156.691 69.5245 157.968 69.5245V67.5002ZM152.816 63.5802L154.725 62.9065L154.389 61.9545L152.48 62.6282L150.571 63.3019L150.907 64.2539L152.816 63.5802ZM152.48 62.6282L150.722 61.6239C149.369 63.9927 146.549 65.8119 141.84 65.8119V67.8362V69.8605C147.658 69.8605 152.007 67.5357 154.237 63.6325L152.48 62.6282ZM141.84 67.8362V65.8119C133.131 65.8119 126.896 59.0305 126.896 49.1322H124.872H122.847C122.847 60.85 130.5 69.8605 141.84 69.8605V67.8362ZM124.872 49.1322H126.896C126.896 44.1103 128.671 39.9187 131.688 36.9816C134.707 34.0425 139.106 32.2285 144.584 32.2285V30.2042V28.1799C138.19 28.1799 132.733 30.3139 128.864 34.0808C124.992 37.8498 122.847 43.1221 122.847 49.1322H124.872ZM144.584 30.2042V32.2285C148.88 32.2285 152.005 33.0809 154.053 34.3376L155.112 32.6122L156.17 30.8869C153.29 29.1195 149.359 28.1799 144.584 28.1799V30.2042ZM155.112 32.6122L154.082 34.355C156.04 35.5123 156.839 37.0322 156.839 38.5482H158.864H160.888C160.888 35.3602 159.111 32.6241 156.142 30.8694L155.112 32.6122ZM158.864 38.5482H156.839C156.839 39.6131 156.188 40.4363 155.131 41.0621C154.617 41.366 154.096 41.5626 153.719 41.6619C153.628 41.6858 153.552 41.7022 153.494 41.7127C153.465 41.7179 153.443 41.7213 153.427 41.7234C153.41 41.7256 153.402 41.7262 153.403 41.7261C153.403 41.7261 153.418 41.725 153.444 41.7253C153.469 41.7255 153.521 41.727 153.592 41.7365C153.607 41.7384 154.157 41.7866 154.639 42.2688L153.208 43.7002L151.776 45.1316C152.301 45.6558 152.932 45.7329 153.061 45.75C153.304 45.7823 153.528 45.7761 153.691 45.7644C154.031 45.7402 154.395 45.6701 154.748 45.5775C155.462 45.3898 156.334 45.0544 157.193 44.5463C158.879 43.5482 160.888 41.6274 160.888 38.5482H158.864ZM153.208 43.7002L154.823 42.4799C152.525 39.438 149.007 37.7559 145.256 37.7559V39.7802V41.8045C147.777 41.8045 150.083 42.9224 151.593 44.9205L153.208 43.7002ZM145.256 39.7802V37.7559C138.94 37.7559 134.159 42.6872 134.159 49.6362H136.184H138.208C138.208 44.7132 141.38 41.8045 145.256 41.8045V39.7802ZM136.184 49.6362H134.159C134.159 53.0325 135.179 55.993 137.089 58.1316C139.013 60.2865 141.716 61.4605 144.752 61.4605V59.4362V57.4119C142.804 57.4119 141.222 56.6819 140.109 55.4349C138.98 54.1714 138.208 52.2319 138.208 49.6362H136.184ZM144.752 59.4362V61.4605C148.465 61.4605 151.83 59.8054 153.075 56.6515L151.192 55.9082L149.309 55.165C148.874 56.267 147.423 57.4119 144.752 57.4119V59.4362ZM151.192 55.9082L153.112 56.5484C153.261 56.1023 153.406 55.5237 153.48 54.9273L151.472 54.6762L149.463 54.4251C149.426 54.7248 149.347 55.0421 149.271 55.2681L151.192 55.9082ZM151.472 54.6762V52.6519H148.112V54.6762V56.7005H151.472V54.6762ZM148.112 54.6762V52.6519C146.378 52.6519 145.608 52.433 145.277 52.2128C145.168 52.1411 144.872 51.9589 144.872 50.8122H142.848H140.823C140.823 52.7456 141.395 54.4954 143.037 55.5856C144.455 56.5275 146.317 56.7005 148.112 56.7005V54.6762ZM142.848 50.8122H144.872V50.3082H142.848H140.823V50.8122H142.848ZM142.848 50.3082H144.872C144.872 49.0797 145.183 48.9266 145.258 48.878C145.582 48.6675 146.342 48.4685 148.112 48.4685V46.4442V44.4199C146.354 44.4199 144.481 44.5569 143.056 45.4804C141.381 46.5659 140.823 48.3447 140.823 50.3082H142.848ZM148.112 46.4442V48.4685H157.912V46.4442V44.4199H148.112V46.4442ZM166.11 64.2522L167.997 64.9859L168.001 64.9752L166.11 64.2522ZM177.758 33.7882L179.649 34.5112L179.671 34.4522L179.69 34.392L177.758 33.7882ZM191.87 33.7882L189.938 34.392L189.961 34.4673L189.991 34.5406L191.87 33.7882ZM204.022 64.1402L205.909 63.4065L205.905 63.3971L205.901 63.3878L204.022 64.1402ZM191.59 62.4042L189.7 63.1282L189.703 63.1376L189.707 63.1469L191.59 62.4042ZM190.582 59.7722L192.472 59.0482L191.974 57.7479H190.582V59.7722ZM179.046 59.7722V57.7479H177.66L177.159 59.0404L179.046 59.7722ZM177.982 62.5162L176.095 61.7844L176.082 61.8176L176.07 61.8512L177.982 62.5162ZM180.894 51.6522L178.995 50.9515L177.989 53.6765H180.894V51.6522ZM188.566 51.6522V53.6765H191.456L190.468 50.9604L188.566 51.6522ZM184.758 41.1802L186.66 40.4884L184.772 35.2949L182.859 40.4795L184.758 41.1802ZM171.878 67.7242V65.6999C170.837 65.6999 169.683 65.2642 168.82 64.6852C168.392 64.3981 168.135 64.1416 168.028 63.9993C167.973 63.9269 168.007 63.9504 168.046 64.0708C168.085 64.1911 168.168 64.5456 167.997 64.9859L166.11 64.2522L164.223 63.5185C163.954 64.2109 164.048 64.8629 164.192 65.3108C164.336 65.7589 164.571 66.1403 164.798 66.4406C165.254 67.0438 165.886 67.5923 166.564 68.0473C167.913 68.9522 169.84 69.7485 171.878 69.7485V67.7242ZM166.11 64.2522L168.001 64.9752L179.649 34.5112L177.758 33.7882L175.867 33.0653L164.219 63.5293L166.11 64.2522ZM177.758 33.7882L179.69 34.392C179.83 33.9449 180.021 33.651 180.551 33.3845C181.218 33.0488 182.495 32.7325 184.926 32.7325V30.7082V28.6839C182.261 28.6839 180.234 29.0116 178.731 29.768C177.091 30.5935 176.246 31.8396 175.826 33.1844L177.758 33.7882ZM184.926 30.7082V32.7325C187.365 32.7325 188.561 33.0517 189.15 33.3644C189.587 33.5961 189.771 33.8567 189.938 34.392L191.87 33.7882L193.802 33.1844C193.41 31.9278 192.669 30.6484 191.048 29.7881C189.579 29.0087 187.583 28.6839 184.926 28.6839V30.7082ZM191.87 33.7882L189.991 34.5406L202.143 64.8926L204.022 64.1402L205.901 63.3878L193.749 33.0358L191.87 33.7882ZM204.022 64.1402L202.135 64.8739C201.967 64.4408 202.047 64.0933 202.083 63.9768C202.12 63.859 202.153 63.837 202.099 63.9094C201.993 64.0518 201.738 64.3111 201.305 64.6011C200.441 65.1807 199.231 65.6439 198.03 65.6439V67.6682V69.6925C200.189 69.6925 202.171 68.8957 203.561 67.9633C204.255 67.4973 204.893 66.9376 205.349 66.3241C205.576 66.0185 205.807 65.6341 205.947 65.1856C206.087 64.7384 206.175 64.0917 205.909 63.4065L204.022 64.1402ZM198.03 67.6682V65.6439C197.203 65.6439 196.419 65.4295 195.695 64.8968C194.958 64.3544 194.153 63.3846 193.473 61.6616L191.59 62.4042L189.707 63.1469C190.595 65.3999 191.806 67.0621 193.295 68.1577C194.797 69.2629 196.449 69.6925 198.03 69.6925V67.6682ZM191.59 62.4042L193.48 61.6802L192.472 59.0482L190.582 59.7722L188.692 60.4962L189.7 63.1282L191.59 62.4042ZM190.582 59.7722V57.7479H179.046V59.7722V61.7965H190.582V59.7722ZM179.046 59.7722L177.159 59.0404L176.095 61.7844L177.982 62.5162L179.869 63.2481L180.933 60.5041L179.046 59.7722ZM177.982 62.5162L176.07 61.8512C175.493 63.5093 174.765 64.4458 174.089 64.9691C173.428 65.4813 172.688 65.6999 171.878 65.6999V67.7242V69.7485C173.476 69.7485 175.116 69.2952 176.569 68.1694C178.008 67.0547 179.127 65.3871 179.894 63.1812L177.982 62.5162ZM180.894 51.6522V53.6765H188.566V51.6522V49.6279H180.894V51.6522ZM188.566 51.6522L190.468 50.9604L186.66 40.4884L184.758 41.1802L182.856 41.872L186.664 52.344L188.566 51.6522ZM184.758 41.1802L182.859 40.4795L178.995 50.9515L180.894 51.6522L182.793 52.353L186.657 41.881L184.758 41.1802ZM220.373 65.5402L219.304 67.259L219.318 67.2676L219.332 67.276L220.373 65.5402ZM223.117 54.4522L225.065 53.9004L225.064 53.8961L223.117 54.4522ZM223.621 43.4762L221.669 42.9395L221.635 43.063L221.617 43.1899L223.621 43.4762ZM220.877 32.5562L219.812 30.835L219.801 30.8419L220.877 32.5562ZM240.029 47.7322L239.436 45.7969L233.387 47.6519L239.389 49.6526L240.029 47.7322ZM231.013 68.0042V65.9799C226.795 65.9799 223.54 65.0799 221.415 63.8044L220.373 65.5402L219.332 67.276C222.246 69.0245 226.272 70.0285 231.013 70.0285V68.0042ZM220.373 65.5402L221.443 63.8215C219.341 62.5141 218.533 60.9609 218.533 59.5482H216.509H214.485C214.485 62.7275 216.365 65.4303 219.304 67.259L220.373 65.5402ZM216.509 59.5482H218.533C218.533 58.5684 218.807 57.9772 219.113 57.5914C219.439 57.1789 219.915 56.8644 220.491 56.6453C221.07 56.4249 221.669 56.334 222.108 56.3186C222.332 56.3108 222.46 56.3245 222.486 56.3286C222.511 56.3325 222.426 56.3228 222.288 56.2689C222.222 56.2431 222.064 56.1769 221.883 56.0431C221.727 55.9272 221.341 55.6042 221.171 55.0083L223.117 54.4522L225.064 53.8961C224.886 53.2757 224.481 52.9288 224.293 52.7898C224.081 52.6329 223.881 52.5446 223.761 52.4977C223.515 52.4018 223.28 52.3551 223.116 52.3293C222.766 52.2742 222.368 52.2585 221.967 52.2725C221.157 52.3009 220.11 52.4585 219.052 52.8611C217.99 53.265 216.834 53.9481 215.939 55.0773C215.023 56.2332 214.485 57.7281 214.485 59.5482H216.509ZM223.117 54.4522L221.17 55.004C221.771 57.1266 222.993 58.8211 224.745 59.9583C226.469 61.0769 228.573 61.5725 230.845 61.5725V59.5482V57.5239C229.141 57.5239 227.857 57.1515 226.949 56.5621C226.07 55.9913 225.415 55.1379 225.065 53.9004L223.117 54.4522ZM230.845 59.5482V61.5725C232.837 61.5725 234.687 61.1834 236.105 60.2548C237.609 59.2702 238.525 57.7297 238.525 55.8522H236.501H234.477C234.477 56.2707 234.329 56.5783 233.887 56.8676C233.36 57.2131 232.381 57.5239 230.845 57.5239V59.5482ZM236.501 55.8522H238.525C238.525 54.3068 238.04 52.801 236.71 51.764C235.488 50.8104 233.881 50.5239 232.245 50.5239V52.5482V54.5725C233.521 54.5725 234.043 54.818 234.22 54.9564C234.291 55.0114 234.477 55.1577 234.477 55.8522H236.501ZM232.245 52.5482V50.5239H231.181V52.5482V54.5725H232.245V52.5482ZM231.181 52.5482V50.5239C229.501 50.5239 228.732 50.2373 228.417 50.012C228.252 49.8945 228.053 49.7026 228.053 48.9642H226.029H224.005C224.005 50.6338 224.562 52.2339 226.064 53.3065C227.414 54.2711 229.221 54.5725 231.181 54.5725V52.5482ZM226.029 48.9642H228.053V48.3482H226.029H224.005V48.9642H226.029ZM226.029 48.3482H228.053C228.053 47.5872 228.273 47.3422 228.477 47.1941C228.81 46.9529 229.56 46.6765 231.069 46.6765V44.6522V42.6279C229.219 42.6279 227.448 42.9395 226.101 43.9163C224.625 44.9862 224.005 46.5892 224.005 48.3482H226.029ZM231.069 44.6522V46.6765H232.973V44.6522V42.6279H231.069V44.6522ZM232.973 44.6522V46.6765C234.305 46.6765 235.615 46.3138 236.625 45.4444C237.668 44.5463 238.189 43.2776 238.189 41.9082H236.165H234.141C234.141 42.2189 234.046 42.3221 233.984 42.376C233.888 42.4586 233.602 42.6279 232.973 42.6279V44.6522ZM236.165 41.9082H238.189C238.189 40.0842 237.204 38.6534 235.766 37.7736C234.401 36.9382 232.633 36.5799 230.733 36.5799V38.6042V40.6285C232.193 40.6285 233.142 40.9143 233.653 41.2269C234.091 41.4951 234.141 41.7162 234.141 41.9082H236.165ZM230.733 38.6042V36.5799C227.959 36.5799 225.846 37.3569 224.314 38.6564C222.807 39.9341 222.049 41.5584 221.669 42.9395L223.621 43.4762L225.573 44.013C225.809 43.154 226.227 42.3423 226.933 41.7441C227.612 41.1675 228.747 40.6285 230.733 40.6285V38.6042ZM223.621 43.4762L221.617 43.1899C221.713 42.5212 222.104 42.1251 222.288 41.9685C222.486 41.8008 222.666 41.7176 222.741 41.6854C222.831 41.647 222.899 41.6277 222.929 41.6197C222.962 41.6107 222.982 41.6073 222.984 41.607C222.987 41.6066 222.957 41.6114 222.893 41.615C222.831 41.6185 222.749 41.6201 222.65 41.6173C222.235 41.6053 221.662 41.5203 221.106 41.3066C220.556 41.095 220.098 40.7882 219.78 40.3778C219.48 39.9913 219.205 39.3877 219.205 38.3802H217.181H215.157C215.157 40.2007 215.68 41.6972 216.579 42.8576C217.46 43.9943 218.602 44.6815 219.654 45.0858C220.701 45.4881 221.735 45.6411 222.533 45.6642C222.927 45.6755 223.323 45.657 223.673 45.5966C223.834 45.5687 224.081 45.5164 224.338 45.406C224.463 45.3524 224.682 45.2467 224.907 45.0557C225.119 44.8759 225.526 44.4557 225.625 43.7625L223.621 43.4762ZM217.181 38.3802H219.205C219.205 36.9589 219.967 35.5181 221.954 34.2706L220.877 32.5562L219.801 30.8419C216.972 32.6183 215.157 35.2095 215.157 38.3802H217.181ZM220.877 32.5562L221.943 34.2774C223.882 33.0769 226.951 32.2285 230.957 32.2285V30.2042V28.1799C226.451 28.1799 222.576 29.1235 219.812 30.835L220.877 32.5562ZM230.957 30.2042V32.2285C235.84 32.2285 239.278 33.1009 241.435 34.5099C243.468 35.8378 244.501 37.7232 244.501 40.3402H246.525H248.549C248.549 36.4052 246.867 33.2226 243.649 31.1205C240.556 29.0995 236.21 28.1799 230.957 28.1799V30.2042ZM246.525 40.3402H244.501C244.501 41.6633 244.091 42.7044 243.338 43.5539C242.555 44.4363 241.296 45.2264 239.436 45.7969L240.029 47.7322L240.623 49.6676C242.963 48.95 244.951 47.8361 246.367 46.2405C247.811 44.612 248.549 42.6011 248.549 40.3402H246.525ZM240.029 47.7322L239.389 49.6526C241.369 50.3125 242.767 51.2783 243.668 52.4221C244.557 53.5505 245.061 54.974 245.061 56.7482H247.085H249.109C249.109 54.1544 248.353 51.826 246.848 49.9163C245.355 48.0221 243.226 46.6639 240.669 45.8118L240.029 47.7322ZM247.085 56.7482H245.061C245.061 59.7098 243.91 61.8896 241.749 63.4078C239.49 64.9951 235.942 65.9799 231.013 65.9799V68.0042V70.0285C236.388 70.0285 240.876 68.9693 244.077 66.7206C247.376 64.4028 249.109 60.9546 249.109 56.7482H247.085Z" fill="white" mask="url(#path-10-outside-1_1_1729)"/>
<path d="M5.62836 14.4202C2.98836 14.4202 1.32836 12.6002 1.32836 10.2802C1.32836 7.08021 3.80836 4.42021 6.88836 4.42021C9.46836 4.42021 10.6084 6.28021 10.3684 7.72021C10.2484 8.48021 9.72836 8.96021 9.12836 8.96021C8.58836 8.94021 8.20836 8.60021 8.28836 7.90021C8.38836 6.88021 8.10836 5.36021 6.38836 5.36021C4.44836 5.36021 3.22836 7.54021 3.22836 9.64021C3.22836 11.5802 4.38836 12.9802 6.30836 12.9802C7.70836 12.9802 8.74836 12.4402 9.56836 11.6802C9.98836 11.3202 10.3284 11.5602 10.0884 12.0402C9.54836 13.0402 7.84836 14.4202 5.62836 14.4202ZM15.9776 14.4202C13.4576 14.4202 11.7576 12.7202 11.7576 10.3602C11.7576 7.20021 14.3976 4.42021 17.5376 4.42021C20.1576 4.42021 21.6376 6.26021 21.6376 8.38021C21.6376 11.7202 19.1376 14.4202 15.9776 14.4202ZM16.2776 13.5002C18.3976 13.5002 19.5776 10.9002 19.5776 8.58021C19.5776 6.88021 19.0176 5.32021 17.2776 5.32021C14.9776 5.32021 13.7376 7.94021 13.7176 10.0802C13.7376 11.9602 14.4576 13.5002 16.2776 13.5002ZM33.6048 12.4802C33.7248 12.4802 33.8248 12.5802 33.8048 12.7602C33.7248 13.5002 32.9248 14.3602 31.8848 14.3602C30.8048 14.3602 30.5048 13.5602 30.5848 12.4002L30.8248 7.96021C30.8848 6.68021 30.5448 5.80021 29.4448 5.80021C27.8248 5.80021 26.1448 8.32021 25.6048 11.4802L25.2248 13.6602C25.1848 13.9202 25.0648 14.0402 24.8448 14.1002L23.8248 14.3602C23.5448 14.4402 23.3648 14.2802 23.4048 13.9602L24.4048 7.04021C24.5648 5.94021 23.7248 6.14021 23.7248 5.66021C23.7248 5.38021 23.9048 5.24021 24.8448 4.82021C25.4848 4.54021 25.7848 4.50021 26.0448 4.50021C26.3248 4.50021 26.4648 4.66021 26.4248 4.94021L26.0248 7.62021C27.0648 5.68021 28.5648 4.48021 30.2648 4.48021C31.9248 4.48021 32.7648 5.64021 32.6448 7.84021L32.4048 12.3002C32.3848 12.7202 32.3848 13.0402 32.7248 13.0402C33.1048 13.0402 33.3648 12.4802 33.6048 12.4802ZM45.6909 12.4802C45.8109 12.4802 45.9109 12.5802 45.8909 12.7602C45.8109 13.5002 45.0109 14.3602 43.9709 14.3602C42.8909 14.3602 42.5909 13.5602 42.6709 12.4002L42.9109 7.96021C42.9709 6.68021 42.6309 5.80021 41.5309 5.80021C39.9109 5.80021 38.1909 8.32021 37.6909 11.4802L37.3109 13.8202C37.2709 14.0402 37.0509 14.1802 36.8709 14.2202L35.9709 14.4202C35.6109 14.5002 35.4109 14.2402 35.4709 13.9402L37.1709 2.44021C37.3109 1.44021 36.4309 1.58021 36.4309 1.12021C36.4309 0.900215 36.5909 0.700214 37.5509 0.340215C38.3109 0.0402138 38.6309 0.000214338 38.8909 0.000214338C39.1709 0.000214338 39.3309 0.160215 39.2709 0.460214L38.1709 7.56021C39.2109 5.66021 40.6909 4.48021 42.3509 4.48021C44.0109 4.48021 44.8509 5.64021 44.7309 7.84021L44.4909 12.3002C44.4709 12.7202 44.4709 13.0402 44.8109 13.0402C45.1909 13.0402 45.4509 12.4802 45.6909 12.4802ZM55.2821 11.5602C55.6621 11.2202 56.0821 11.4202 55.8021 11.9202C55.2621 12.9202 53.5621 14.4202 51.3421 14.4202C49.2821 14.4202 47.4021 13.0602 47.4021 10.3202C47.4021 7.74021 49.6221 4.42021 53.2621 4.42021C54.8421 4.42021 56.1421 5.22021 56.1421 6.70021C56.1421 9.20021 53.0821 10.5202 49.4621 11.0402C49.7621 12.2002 50.7421 13.0602 52.0421 13.0602C53.4021 13.0602 54.4621 12.3202 55.2821 11.5602ZM52.6221 5.36021C50.8821 5.36021 49.3221 7.24021 49.3221 9.66021C49.3221 9.92021 49.4421 10.1602 49.9421 10.0802C52.5021 9.68021 54.3421 8.60021 54.3421 7.00021C54.3421 6.04021 53.6421 5.36021 52.6221 5.36021ZM65.3588 8.96021C64.8188 8.94021 64.4388 8.60021 64.5188 7.90021C64.6188 6.88021 64.3388 5.36021 62.6188 5.36021C60.6788 5.36021 59.4588 7.54021 59.4588 9.64021C59.4588 11.5802 60.6188 12.9802 62.5388 12.9802C63.9388 12.9802 64.9788 12.4402 65.7988 11.6802C66.2188 11.3202 66.5588 11.5602 66.3188 12.0402C65.7788 13.0402 64.0988 14.4002 61.8988 14.4202L61.4388 15.2802C62.4588 15.4602 63.2988 15.9002 63.2988 16.8602C63.2988 17.8002 62.4588 18.4402 61.4588 18.4402C60.5988 18.4402 60.0988 18.1202 59.8388 17.8002C59.6588 17.5802 59.8788 17.3002 60.1588 17.4802C60.4388 17.6402 60.7388 17.8202 61.2388 17.8202C61.8588 17.8202 62.1588 17.4202 62.1588 16.9802C62.1588 16.3202 61.4588 16.0602 60.7988 15.9002C60.5988 15.8602 60.4588 15.7402 60.5588 15.5602L61.1988 14.3802C58.9388 14.1002 57.5588 12.4002 57.5588 10.2802C57.5588 7.08021 60.0388 4.42021 63.1188 4.42021C65.6988 4.42021 66.8388 6.28021 66.5988 7.72021C66.4788 8.48021 65.9588 8.96021 65.3588 8.96021ZM78.4015 12.4802C78.5215 12.4802 78.6215 12.5802 78.6015 12.7602C78.5015 13.5002 77.7015 14.3602 76.6815 14.3602C75.8415 14.3602 75.1615 14.0402 75.3415 12.0002C74.5415 13.3002 73.1615 14.4202 71.4815 14.4202C69.7215 14.4202 68.2215 13.2002 68.2215 10.8602C68.2215 7.48021 70.4615 4.42021 73.4215 4.42021C74.3415 4.42021 75.2215 4.84021 75.7215 4.84021C76.3615 4.84021 76.7615 4.42021 77.1815 4.42021C77.5615 4.42021 77.6415 4.70021 77.6015 5.24021L77.1815 12.3002C77.1615 12.7202 77.1815 13.0402 77.5415 13.0402C77.8815 13.0402 78.1415 12.4802 78.4015 12.4802ZM72.3015 13.0402C73.9415 13.0402 75.4615 11.0202 75.6215 8.44021L75.6615 7.86021C75.7815 6.20021 74.6415 5.30021 73.3815 5.30021C71.2415 5.30021 70.1415 8.12021 70.1215 10.1202C70.1215 12.4402 71.3415 13.0402 72.3015 13.0402ZM88.4971 14.4202C85.9771 14.4202 84.2771 12.7202 84.2771 10.3602C84.2771 7.20021 86.9171 4.42021 90.0571 4.42021C92.6771 4.42021 94.1571 6.26021 94.1571 8.38021C94.1571 11.7202 91.6571 14.4202 88.4971 14.4202ZM88.7971 13.5002C90.9171 13.5002 92.0971 10.9002 92.0971 8.58021C92.0971 6.88021 91.5371 5.32021 89.7971 5.32021C87.4971 5.32021 86.2571 7.94021 86.2371 10.0802C86.2571 11.9602 86.9771 13.5002 88.7971 13.5002Z" fill="#1A1A1A"/>
</svg>
