<svg width="453" height="316" viewBox="0 0 453 316" fill="none" xmlns="http://www.w3.org/2000/svg">
<rect x="230.892" y="163" width="220" height="152" rx="15" fill="#FFE57B" stroke="#1A1A1A" stroke-width="2"/>
<path d="M262.812 268.38V256.86C262.812 256.34 263.172 256 263.712 256H264.112C264.752 256 264.912 256.24 265.172 256.84L268.672 264.16L272.172 256.84C272.412 256.22 272.612 256 273.192 256H273.572C274.152 256 274.492 256.34 274.492 256.86V268.38C274.492 268.82 274.312 269.06 273.872 269.06H273.692C273.272 269.06 273.072 268.82 273.072 268.38V264.86L273.092 257.82L269.672 264.98C269.492 265.42 269.292 265.7 268.652 265.7C267.972 265.7 267.812 265.42 267.612 264.98L264.212 257.84L264.232 264.82V268.38C264.232 268.82 264.052 269.06 263.612 269.06H263.392C262.972 269.06 262.812 268.82 262.812 268.38ZM276.66 266.54C276.66 264.38 278.7 263.46 283.2 263.4H283.42V263C283.42 261.38 282.48 260.48 280.84 260.48C279.32 260.48 278.4 261.22 277.92 262.18C277.88 262.2 277.04 262.16 277.04 261.44C277.04 261.16 277.24 260.74 277.62 260.38C278.24 259.78 279.34 259.24 280.92 259.24C283.46 259.24 284.84 260.66 284.84 263.02V268.92C284.84 268.98 284.58 269.08 284.32 269.08C283.9 269.08 283.56 268.88 283.48 268.16C283.46 267.88 283.44 267.58 283.44 267.28C282.8 268.44 281.5 269.2 279.9 269.2C277.9 269.2 276.66 268.16 276.66 266.54ZM283.42 265.26V264.34L283.08 264.36C279.6 264.44 278.1 265.04 278.1 266.5C278.1 267.5 278.9 268.12 280.18 268.12C282.02 268.12 283.42 266.88 283.42 265.26ZM287.239 256.46C287.239 255.86 287.579 255.54 288.159 255.54C288.739 255.54 289.079 255.86 289.079 256.46C289.079 257.04 288.719 257.36 288.139 257.36C287.579 257.36 287.239 257.04 287.239 256.46ZM287.419 268.38V260.08C287.419 259.56 287.679 259.38 288.059 259.38H288.219C288.599 259.38 288.859 259.54 288.859 260.08V268.38C288.859 268.9 288.599 269.06 288.219 269.06H288.059C287.679 269.06 287.419 268.9 287.419 268.38ZM291.378 268.22C290.978 267.88 290.798 267.56 290.798 267.26C290.798 266.76 291.358 266.54 291.418 266.56C292.018 267.42 293.098 268.06 294.658 268.06C296.158 268.06 297.038 267.42 297.038 266.48C297.038 265.36 295.998 265.14 294.378 264.78C292.918 264.48 291.078 264.06 291.078 262.12C291.078 260.42 292.498 259.24 294.698 259.24C296.238 259.24 297.278 259.74 297.818 260.32C298.038 260.54 298.178 260.84 298.178 261.08C298.178 261.58 297.598 261.84 297.558 261.8C297.038 261 295.998 260.38 294.718 260.38C293.258 260.38 292.418 261.04 292.418 261.96C292.418 263 293.418 263.24 294.998 263.6C296.558 263.94 298.438 264.36 298.438 266.32C298.438 268.06 296.978 269.22 294.638 269.22C293.078 269.22 291.998 268.76 291.378 268.22ZM303.243 264.2C303.243 261.34 305.243 259.24 308.063 259.24C309.563 259.24 310.603 259.78 311.243 260.4C311.783 260.9 312.023 261.48 312.023 261.84C312.023 262.48 311.163 262.6 311.103 262.52C310.683 261.42 309.823 260.48 308.083 260.48C306.083 260.48 304.663 262.04 304.663 264.2C304.663 266.4 306.063 267.98 308.083 267.98C309.803 267.98 310.683 267.04 311.103 265.94C311.143 265.86 312.023 265.96 312.023 266.64C312.023 266.96 311.783 267.52 311.243 268.04C310.623 268.7 309.563 269.22 308.043 269.22C305.243 269.22 303.243 267.12 303.243 264.2ZM313.321 264.22C313.321 261.32 315.321 259.24 318.181 259.24C321.001 259.24 323.001 261.34 323.001 264.26C323.001 267.14 321.001 269.22 318.161 269.22C315.301 269.22 313.321 267.12 313.321 264.22ZM321.601 264.26C321.601 262.06 320.181 260.46 318.181 260.46C316.181 260.46 314.721 262.02 314.721 264.22C314.721 266.42 316.181 268 318.181 268C320.161 268 321.601 266.44 321.601 264.26ZM329.655 259.24C332.115 259.24 333.315 260.94 333.315 263.38V268.38C333.315 268.9 333.055 269.06 332.695 269.06H332.515C332.135 269.06 331.875 268.9 331.875 268.38V263.5C331.875 261.66 330.995 260.52 329.375 260.52C327.975 260.52 326.935 261.3 326.415 262.44V268.38C326.415 268.9 326.155 269.06 325.795 269.06H325.615C325.235 269.06 324.975 268.9 324.975 268.38V259.54C324.975 259.5 325.215 259.38 325.495 259.38C325.935 259.38 326.335 259.6 326.375 260.58V261.14C327.015 260 328.135 259.24 329.655 259.24ZM335.196 264.2C335.196 261.34 337.196 259.24 340.016 259.24C341.516 259.24 342.556 259.78 343.196 260.4C343.736 260.9 343.976 261.48 343.976 261.84C343.976 262.48 343.116 262.6 343.056 262.52C342.636 261.42 341.776 260.48 340.036 260.48C338.036 260.48 336.616 262.04 336.616 264.2C336.616 266.4 338.016 267.98 340.036 267.98C341.756 267.98 342.636 267.04 343.056 265.94C343.096 265.86 343.976 265.96 343.976 266.64C343.976 266.96 343.736 267.52 343.196 268.04C342.576 268.7 341.516 269.22 339.996 269.22C337.196 269.22 335.196 267.12 335.196 264.2ZM345.274 264.28C345.274 261.38 347.254 259.24 349.994 259.24C352.654 259.24 354.374 261.12 354.374 263.94V264.08C354.374 264.42 354.234 264.54 353.874 264.54H346.654C346.654 264.62 346.654 264.72 346.674 264.82C346.854 266.74 348.234 268.02 350.154 268.02C351.934 268.02 352.774 267.18 353.254 266.26C353.334 266.22 354.074 266.38 354.074 267.02C354.074 267.32 353.834 267.78 353.314 268.2C352.714 268.72 351.614 269.22 350.134 269.22C347.234 269.22 345.274 267.2 345.274 264.28ZM352.954 263.5C352.874 261.64 351.734 260.4 349.994 260.4C348.254 260.4 346.954 261.68 346.694 263.5H352.954ZM361.003 259.24C363.463 259.24 364.663 260.94 364.663 263.38V268.38C364.663 268.9 364.403 269.06 364.043 269.06H363.863C363.483 269.06 363.223 268.9 363.223 268.38V263.5C363.223 261.66 362.343 260.52 360.723 260.52C359.323 260.52 358.283 261.3 357.763 262.44V268.38C357.763 268.9 357.503 269.06 357.143 269.06H356.963C356.583 269.06 356.323 268.9 356.323 268.38V259.54C356.323 259.5 356.563 259.38 356.843 259.38C357.283 259.38 357.683 259.6 357.723 260.58V261.14C358.363 260 359.483 259.24 361.003 259.24ZM370.383 269.22C368.623 269.22 367.763 268.24 367.763 266.22V260.68H366.823C366.363 260.68 366.203 260.48 366.203 260.14V260C366.203 259.66 366.363 259.46 366.823 259.46H367.763V257.78C367.763 257.28 368.023 257.08 368.403 257.08H368.563C368.943 257.08 369.183 257.26 369.183 257.78V259.46H371.603C372.043 259.46 372.223 259.64 372.223 260V260.12C372.223 260.48 372.043 260.68 371.583 260.68H369.163V266C369.163 267.4 369.583 268 370.583 268C371.223 268 371.703 267.7 372.003 267.26C372.063 267.22 372.403 267.42 372.403 267.92C372.403 268.16 372.303 268.42 372.043 268.66C371.703 268.98 371.163 269.22 370.383 269.22ZM377.879 259.24C378.739 259.24 379.299 259.66 379.299 260.28C379.299 260.86 378.899 261.1 378.859 261.06C378.619 260.82 378.239 260.66 377.719 260.66C376.159 260.66 375.439 262.2 375.439 264.6V268.38C375.439 268.88 375.179 269.06 374.819 269.06H374.659C374.259 269.06 373.999 268.9 373.999 268.38V259.54C373.999 259.5 374.219 259.38 374.519 259.38C374.919 259.38 375.279 259.58 375.359 260.34C375.379 260.68 375.399 261.02 375.399 261.38C375.779 259.94 376.659 259.24 377.879 259.24ZM380.098 266.54C380.098 264.38 382.138 263.46 386.638 263.4H386.858V263C386.858 261.38 385.918 260.48 384.278 260.48C382.758 260.48 381.838 261.22 381.358 262.18C381.318 262.2 380.478 262.16 380.478 261.44C380.478 261.16 380.678 260.74 381.058 260.38C381.678 259.78 382.778 259.24 384.358 259.24C386.898 259.24 388.278 260.66 388.278 263.02V268.92C388.278 268.98 388.018 269.08 387.758 269.08C387.338 269.08 386.998 268.88 386.918 268.16C386.898 267.88 386.878 267.58 386.878 267.28C386.238 268.44 384.938 269.2 383.338 269.2C381.338 269.2 380.098 268.16 380.098 266.54ZM386.858 265.26V264.34L386.518 264.36C383.038 264.44 381.538 265.04 381.538 266.5C381.538 267.5 382.338 268.12 383.618 268.12C385.458 268.12 386.858 266.88 386.858 265.26ZM394.417 273.4C393.197 273.4 392.477 272.62 392.477 272.06C392.477 271.66 392.657 271.48 392.977 271.44C393.157 271.68 393.597 272.22 394.277 272.22C394.897 272.22 395.457 271.94 395.457 271.14C395.457 270.32 394.457 269.38 393.617 269.04C391.537 268.5 390.157 266.64 390.157 264.2C390.157 261.34 392.157 259.24 394.977 259.24C396.477 259.24 397.517 259.78 398.157 260.4C398.697 260.9 398.937 261.48 398.937 261.84C398.937 262.48 398.077 262.6 398.017 262.52C397.597 261.42 396.737 260.48 394.997 260.48C392.997 260.48 391.577 262.04 391.577 264.2C391.577 266.4 392.977 267.98 394.997 267.98C396.717 267.98 397.597 267.04 398.017 265.94C398.057 265.86 398.937 265.96 398.937 266.64C398.937 266.96 398.717 267.5 398.197 268.02C397.697 268.52 396.977 268.96 395.977 269.14C395.737 269.18 395.497 269.2 395.237 269.2C395.957 269.68 396.637 270.5 396.637 271.5C396.637 272.86 395.497 273.4 394.417 273.4ZM402.215 257.68C402.035 257.68 401.895 257.62 401.755 257.5C401.695 257.38 401.695 257.18 401.695 257C401.795 256.04 402.355 255.26 403.235 255.26C403.835 255.26 404.275 255.6 404.675 255.94C405.115 256.34 405.415 256.6 405.755 256.78C406.335 256.52 406.295 255.38 406.855 255.38C407.035 255.38 407.195 255.44 407.295 255.54C407.355 255.7 407.375 255.9 407.375 256.08C407.275 257.04 406.715 257.78 405.835 257.78C405.235 257.78 404.815 257.48 404.395 257.12C403.975 256.76 403.695 256.46 403.335 256.28C402.795 256.56 402.775 257.68 402.215 257.68ZM400.215 266.54C400.215 264.38 402.255 263.46 406.755 263.4H406.975V263C406.975 261.38 406.035 260.48 404.395 260.48C402.875 260.48 401.955 261.22 401.475 262.18C401.435 262.2 400.595 262.16 400.595 261.44C400.595 261.16 400.795 260.74 401.175 260.38C401.795 259.78 402.895 259.24 404.475 259.24C407.015 259.24 408.395 260.66 408.395 263.02V268.92C408.395 268.98 408.135 269.08 407.875 269.08C407.455 269.08 407.115 268.88 407.035 268.16C407.015 267.88 406.995 267.58 406.995 267.28C406.355 268.44 405.055 269.2 403.455 269.2C401.455 269.2 400.215 268.16 400.215 266.54ZM406.975 265.26V264.34L406.635 264.36C403.155 264.44 401.655 265.04 401.655 266.5C401.655 267.5 402.455 268.12 403.735 268.12C405.575 268.12 406.975 266.88 406.975 265.26ZM410.274 264.22C410.274 261.32 412.274 259.24 415.134 259.24C417.954 259.24 419.954 261.34 419.954 264.26C419.954 267.14 417.954 269.22 415.114 269.22C412.254 269.22 410.274 267.12 410.274 264.22ZM418.554 264.26C418.554 262.06 417.134 260.46 415.134 260.46C413.134 260.46 411.674 262.02 411.674 264.22C411.674 266.42 413.134 268 415.134 268C417.114 268 418.554 266.44 418.554 264.26ZM280.134 284.24C282.594 284.24 283.794 285.94 283.794 288.38V293.38C283.794 293.9 283.534 294.06 283.174 294.06H282.994C282.614 294.06 282.354 293.9 282.354 293.38V288.5C282.354 286.66 281.474 285.52 279.854 285.52C278.454 285.52 277.414 286.3 276.894 287.44V293.38C276.894 293.9 276.634 294.06 276.274 294.06H276.094C275.714 294.06 275.454 293.9 275.454 293.38V284.54C275.454 284.5 275.694 284.38 275.974 284.38C276.414 284.38 276.814 284.6 276.854 285.58V286.14C277.494 285 278.614 284.24 280.134 284.24ZM285.674 291.54C285.674 289.38 287.714 288.46 292.214 288.4H292.434V288C292.434 286.38 291.494 285.48 289.854 285.48C288.334 285.48 287.414 286.22 286.934 287.18C286.894 287.2 286.054 287.16 286.054 286.44C286.054 286.16 286.254 285.74 286.634 285.38C287.254 284.78 288.354 284.24 289.934 284.24C292.474 284.24 293.854 285.66 293.854 288.02V293.92C293.854 293.98 293.594 294.08 293.334 294.08C292.914 294.08 292.574 293.88 292.494 293.16C292.474 292.88 292.454 292.58 292.454 292.28C291.814 293.44 290.514 294.2 288.914 294.2C286.914 294.2 285.674 293.16 285.674 291.54ZM292.434 290.26V289.34L292.094 289.36C288.614 289.44 287.114 290.04 287.114 291.5C287.114 292.5 287.914 293.12 289.194 293.12C291.034 293.12 292.434 291.88 292.434 290.26ZM296.193 293.22C295.793 292.88 295.613 292.56 295.613 292.26C295.613 291.76 296.173 291.54 296.233 291.56C296.833 292.42 297.913 293.06 299.473 293.06C300.973 293.06 301.853 292.42 301.853 291.48C301.853 290.36 300.813 290.14 299.193 289.78C297.733 289.48 295.893 289.06 295.893 287.12C295.893 285.42 297.313 284.24 299.513 284.24C301.053 284.24 302.093 284.74 302.633 285.32C302.853 285.54 302.993 285.84 302.993 286.08C302.993 286.58 302.413 286.84 302.373 286.8C301.853 286 300.813 285.38 299.533 285.38C298.073 285.38 297.233 286.04 297.233 286.96C297.233 288 298.233 288.24 299.813 288.6C301.373 288.94 303.253 289.36 303.253 291.32C303.253 293.06 301.793 294.22 299.453 294.22C297.893 294.22 296.813 293.76 296.193 293.22ZM308.517 293.22C308.117 292.88 307.937 292.56 307.937 292.26C307.937 291.76 308.497 291.54 308.557 291.56C309.157 292.42 310.237 293.06 311.797 293.06C313.297 293.06 314.177 292.42 314.177 291.48C314.177 290.36 313.137 290.14 311.517 289.78C310.057 289.48 308.217 289.06 308.217 287.12C308.217 285.42 309.637 284.24 311.837 284.24C313.377 284.24 314.417 284.74 314.957 285.32C315.177 285.54 315.317 285.84 315.317 286.08C315.317 286.58 314.737 286.84 314.697 286.8C314.177 286 313.137 285.38 311.857 285.38C310.397 285.38 309.557 286.04 309.557 286.96C309.557 288 310.557 288.24 312.137 288.6C313.697 288.94 315.577 289.36 315.577 291.32C315.577 293.06 314.117 294.22 311.777 294.22C310.217 294.22 309.137 293.76 308.517 293.22ZM325.183 284.38C325.563 284.38 325.823 284.54 325.823 285.06V293.92C325.823 293.96 325.583 294.08 325.303 294.08C324.903 294.08 324.543 293.88 324.463 293.14C324.443 292.88 324.423 292.62 324.423 292.36C323.783 293.42 322.683 294.22 321.143 294.22C318.683 294.22 317.483 292.52 317.483 290.06V285.06C317.483 284.54 317.743 284.38 318.123 284.38H318.283C318.663 284.38 318.923 284.54 318.923 285.06V289.96C318.923 291.8 319.823 292.94 321.443 292.94C322.823 292.94 323.863 292.16 324.383 291V285.06C324.383 284.54 324.643 284.38 325.003 284.38H325.183ZM327.412 291.54C327.412 289.38 329.452 288.46 333.952 288.4H334.172V288C334.172 286.38 333.232 285.48 331.592 285.48C330.072 285.48 329.152 286.22 328.672 287.18C328.632 287.2 327.792 287.16 327.792 286.44C327.792 286.16 327.992 285.74 328.372 285.38C328.992 284.78 330.092 284.24 331.672 284.24C334.212 284.24 335.592 285.66 335.592 288.02V293.92C335.592 293.98 335.332 294.08 335.072 294.08C334.652 294.08 334.312 293.88 334.232 293.16C334.212 292.88 334.192 292.58 334.192 292.28C333.552 293.44 332.252 294.2 330.652 294.2C328.652 294.2 327.412 293.16 327.412 291.54ZM334.172 290.26V289.34L333.832 289.36C330.352 289.44 328.852 290.04 328.852 291.5C328.852 292.5 329.652 293.12 330.932 293.12C332.772 293.12 334.172 291.88 334.172 290.26ZM337.931 293.22C337.531 292.88 337.351 292.56 337.351 292.26C337.351 291.76 337.911 291.54 337.971 291.56C338.571 292.42 339.651 293.06 341.211 293.06C342.711 293.06 343.591 292.42 343.591 291.48C343.591 290.36 342.551 290.14 340.931 289.78C339.471 289.48 337.631 289.06 337.631 287.12C337.631 285.42 339.051 284.24 341.251 284.24C342.791 284.24 343.831 284.74 344.371 285.32C344.591 285.54 344.731 285.84 344.731 286.08C344.731 286.58 344.151 286.84 344.111 286.8C343.591 286 342.551 285.38 341.271 285.38C339.811 285.38 338.971 286.04 338.971 286.96C338.971 288 339.971 288.24 341.551 288.6C343.111 288.94 344.991 289.36 344.991 291.32C344.991 293.06 343.531 294.22 341.191 294.22C339.631 294.22 338.551 293.76 337.931 293.22ZM353.303 294.22C351.543 294.22 350.683 293.24 350.683 291.22V285.68H349.743C349.283 285.68 349.123 285.48 349.123 285.14V285C349.123 284.66 349.283 284.46 349.743 284.46H350.683V282.78C350.683 282.28 350.943 282.08 351.323 282.08H351.483C351.863 282.08 352.103 282.26 352.103 282.78V284.46H354.523C354.963 284.46 355.143 284.64 355.143 285V285.12C355.143 285.48 354.963 285.68 354.503 285.68H352.083V291C352.083 292.4 352.503 293 353.503 293C354.143 293 354.623 292.7 354.923 292.26C354.983 292.22 355.323 292.42 355.323 292.92C355.323 293.16 355.223 293.42 354.963 293.66C354.623 293.98 354.083 294.22 353.303 294.22ZM356.319 291.54C356.319 289.38 358.359 288.46 362.859 288.4H363.079V288C363.079 286.38 362.139 285.48 360.499 285.48C358.979 285.48 358.059 286.22 357.579 287.18C357.539 287.2 356.699 287.16 356.699 286.44C356.699 286.16 356.899 285.74 357.279 285.38C357.899 284.78 358.999 284.24 360.579 284.24C363.119 284.24 364.499 285.66 364.499 288.02V293.92C364.499 293.98 364.239 294.08 363.979 294.08C363.559 294.08 363.219 293.88 363.139 293.16C363.119 292.88 363.099 292.58 363.099 292.28C362.459 293.44 361.159 294.2 359.559 294.2C357.559 294.2 356.319 293.16 356.319 291.54ZM363.079 290.26V289.34L362.739 289.36C359.259 289.44 357.759 290.04 357.759 291.5C357.759 292.5 358.559 293.12 359.839 293.12C361.679 293.12 363.079 291.88 363.079 290.26ZM370.857 284.24C371.717 284.24 372.277 284.66 372.277 285.28C372.277 285.86 371.877 286.1 371.837 286.06C371.597 285.82 371.217 285.66 370.697 285.66C369.137 285.66 368.417 287.2 368.417 289.6V293.38C368.417 293.88 368.157 294.06 367.797 294.06H367.637C367.237 294.06 366.977 293.9 366.977 293.38V284.54C366.977 284.5 367.197 284.38 367.497 284.38C367.897 284.38 368.257 284.58 368.337 285.34C368.357 285.68 368.377 286.02 368.377 286.38C368.757 284.94 369.637 284.24 370.857 284.24ZM372.764 289.28C372.764 286.38 374.744 284.24 377.484 284.24C380.144 284.24 381.864 286.12 381.864 288.94V289.08C381.864 289.42 381.724 289.54 381.364 289.54H374.144C374.144 289.62 374.144 289.72 374.164 289.82C374.344 291.74 375.724 293.02 377.644 293.02C379.424 293.02 380.264 292.18 380.744 291.26C380.824 291.22 381.564 291.38 381.564 292.02C381.564 292.32 381.324 292.78 380.804 293.2C380.204 293.72 379.104 294.22 377.624 294.22C374.724 294.22 372.764 292.2 372.764 289.28ZM380.444 288.5C380.364 286.64 379.224 285.4 377.484 285.4C375.744 285.4 374.444 286.68 374.184 288.5H380.444ZM384.673 293.38V285.68H383.333C382.873 285.68 382.713 285.48 382.713 285.12V285C382.713 284.64 382.873 284.46 383.333 284.46H384.673V283.5C384.673 281.28 385.693 280.18 387.453 280.18C388.213 280.18 388.733 280.36 389.073 280.66C389.293 280.84 389.393 281.08 389.393 281.34C389.393 281.78 389.073 282.02 389.033 281.98C388.753 281.66 388.173 281.4 387.593 281.4C386.553 281.4 386.053 282.06 386.053 283.62V284.46H387.893C388.353 284.46 388.533 284.66 388.533 285V285.12C388.533 285.48 388.353 285.68 387.893 285.68H386.093V293.38C386.093 293.88 385.853 294.06 385.473 294.06H385.313C384.933 294.06 384.673 293.9 384.673 293.38ZM389.541 291.54C389.541 289.38 391.581 288.46 396.081 288.4H396.301V288C396.301 286.38 395.361 285.48 393.721 285.48C392.201 285.48 391.281 286.22 390.801 287.18C390.761 287.2 389.921 287.16 389.921 286.44C389.921 286.16 390.121 285.74 390.501 285.38C391.121 284.78 392.221 284.24 393.801 284.24C396.341 284.24 397.721 285.66 397.721 288.02V293.92C397.721 293.98 397.461 294.08 397.201 294.08C396.781 294.08 396.441 293.88 396.361 293.16C396.341 292.88 396.321 292.58 396.321 292.28C395.681 293.44 394.381 294.2 392.781 294.2C390.781 294.2 389.541 293.16 389.541 291.54ZM396.301 290.26V289.34L395.961 289.36C392.481 289.44 390.981 290.04 390.981 291.5C390.981 292.5 391.781 293.12 393.061 293.12C394.901 293.12 396.301 291.88 396.301 290.26ZM400.06 293.22C399.66 292.88 399.48 292.56 399.48 292.26C399.48 291.76 400.04 291.54 400.1 291.56C400.7 292.42 401.78 293.06 403.34 293.06C404.84 293.06 405.72 292.42 405.72 291.48C405.72 290.36 404.68 290.14 403.06 289.78C401.6 289.48 399.76 289.06 399.76 287.12C399.76 285.42 401.18 284.24 403.38 284.24C404.92 284.24 405.96 284.74 406.5 285.32C406.72 285.54 406.86 285.84 406.86 286.08C406.86 286.58 406.28 286.84 406.24 286.8C405.72 286 404.68 285.38 403.4 285.38C401.94 285.38 401.1 286.04 401.1 286.96C401.1 288 402.1 288.24 403.68 288.6C405.24 288.94 407.12 289.36 407.12 291.32C407.12 293.06 405.66 294.22 403.32 294.22C401.76 294.22 400.68 293.76 400.06 293.22Z" fill="#1A1A1A"/>
<mask id="path-3-inside-1_1_1012" fill="white">
<path d="M373 210C373 227.673 358.673 242 341 242C323.327 242 309 227.673 309 210C309 192.327 323.327 178 341 178C358.673 178 373 192.327 373 210ZM321.587 210C321.587 220.722 330.278 229.413 341 229.413C351.722 229.413 360.413 220.722 360.413 210C360.413 199.278 351.722 190.587 341 190.587C330.278 190.587 321.587 199.278 321.587 210Z"/>
</mask>
<path d="M373 210C373 227.673 358.673 242 341 242C323.327 242 309 227.673 309 210C309 192.327 323.327 178 341 178C358.673 178 373 192.327 373 210ZM321.587 210C321.587 220.722 330.278 229.413 341 229.413C351.722 229.413 360.413 220.722 360.413 210C360.413 199.278 351.722 190.587 341 190.587C330.278 190.587 321.587 199.278 321.587 210Z" fill="#FC5B03" stroke="#1A1A1A" stroke-width="4" mask="url(#path-3-inside-1_1_1012)"/>
<circle cx="341" cy="210" r="11" fill="#FC5B03" stroke="#1A1A1A" stroke-width="2"/>
<path d="M341.5 210L377.633 194.07" stroke="#1A1A1A" stroke-width="2"/>
<rect x="1" y="163" width="220" height="152" rx="15" fill="#FFE57B" stroke="#1A1A1A" stroke-width="2"/>
<path d="M125.588 184C131.146 184 135.718 187.677 138.077 192.85C140.434 198.017 140.5 204.529 137.15 209.949C133.228 216.292 126.099 222.708 119.869 227.577C116.768 230.001 113.915 232.021 111.838 233.436C110.8 234.143 109.955 234.699 109.372 235.076C109.238 235.163 109.116 235.24 109.01 235.308C108.918 235.246 108.814 235.177 108.7 235.101C108.154 234.733 107.363 234.191 106.389 233.499C104.44 232.114 101.76 230.128 98.8361 227.729C92.9654 222.91 86.2039 216.495 82.3615 209.968C79.3709 204.888 79.1 198.349 81.2638 193.094C83.4117 187.877 87.9149 184 94.5001 184C99.7726 184 103.451 185.674 105.802 187.319C106.981 188.145 107.833 188.968 108.384 189.577C108.659 189.882 108.859 190.132 108.987 190.302C109.051 190.387 109.098 190.451 109.126 190.492C109.14 190.512 109.15 190.527 109.155 190.535C109.157 190.537 109.158 190.539 109.158 190.54V190.541L110.109 192.019L110.894 190.446H110.895C110.898 190.44 110.905 190.427 110.915 190.408C110.936 190.371 110.972 190.31 111.023 190.229C111.124 190.066 111.287 189.823 111.522 189.525C111.99 188.931 112.741 188.122 113.853 187.307C116.063 185.685 119.752 184 125.588 184Z" fill="#FC5B03" stroke="#1A1A1A" stroke-width="2"/>
<path d="M33.8379 268.38V256.86C33.8379 256.34 34.1979 256 34.7379 256H35.1379C35.7779 256 35.9379 256.24 36.1979 256.84L39.6979 264.16L43.1979 256.84C43.4379 256.22 43.6379 256 44.2179 256H44.5979C45.1779 256 45.5179 256.34 45.5179 256.86V268.38C45.5179 268.82 45.3379 269.06 44.8979 269.06H44.7179C44.2979 269.06 44.0979 268.82 44.0979 268.38V264.86L44.1179 257.82L40.6979 264.98C40.5179 265.42 40.3179 265.7 39.6779 265.7C38.9979 265.7 38.8379 265.42 38.6379 264.98L35.2379 257.84L35.2579 264.82V268.38C35.2579 268.82 35.0779 269.06 34.6379 269.06H34.4179C33.9979 269.06 33.8379 268.82 33.8379 268.38ZM47.6868 266.54C47.6868 264.38 49.7268 263.46 54.2268 263.4H54.4468V263C54.4468 261.38 53.5068 260.48 51.8668 260.48C50.3468 260.48 49.4268 261.22 48.9468 262.18C48.9068 262.2 48.0668 262.16 48.0668 261.44C48.0668 261.16 48.2668 260.74 48.6468 260.38C49.2668 259.78 50.3668 259.24 51.9468 259.24C54.4868 259.24 55.8668 260.66 55.8668 263.02V268.92C55.8668 268.98 55.6068 269.08 55.3468 269.08C54.9268 269.08 54.5868 268.88 54.5068 268.16C54.4868 267.88 54.4668 267.58 54.4668 267.28C53.8268 268.44 52.5268 269.2 50.9268 269.2C48.9268 269.2 47.6868 268.16 47.6868 266.54ZM54.4468 265.26V264.34L54.1068 264.36C50.6268 264.44 49.1268 265.04 49.1268 266.5C49.1268 267.5 49.9268 268.12 51.2068 268.12C53.0468 268.12 54.4468 266.88 54.4468 265.26ZM63.0254 259.24C65.4854 259.24 66.6854 260.94 66.6854 263.38V268.38C66.6854 268.9 66.4254 269.06 66.0654 269.06H65.8854C65.5054 269.06 65.2454 268.9 65.2454 268.38V263.5C65.2454 261.66 64.3654 260.52 62.7454 260.52C61.3454 260.52 60.3054 261.3 59.7854 262.44V268.38C59.7854 268.9 59.5254 269.06 59.1654 269.06H58.9854C58.6054 269.06 58.3454 268.9 58.3454 268.38V259.54C58.3454 259.5 58.5854 259.38 58.8654 259.38C59.3054 259.38 59.7054 259.6 59.7454 260.58V261.14C60.3854 260 61.5054 259.24 63.0254 259.24ZM72.4057 269.22C70.6457 269.22 69.7857 268.24 69.7857 266.22V260.68H68.8457C68.3857 260.68 68.2257 260.48 68.2257 260.14V260C68.2257 259.66 68.3857 259.46 68.8457 259.46H69.7857V257.78C69.7857 257.28 70.0457 257.08 70.4257 257.08H70.5857C70.9657 257.08 71.2057 257.26 71.2057 257.78V259.46H73.6257C74.0657 259.46 74.2457 259.64 74.2457 260V260.12C74.2457 260.48 74.0657 260.68 73.6057 260.68H71.1857V266C71.1857 267.4 71.6057 268 72.6057 268C73.2457 268 73.7257 267.7 74.0257 267.26C74.0857 267.22 74.4257 267.42 74.4257 267.92C74.4257 268.16 74.3257 268.42 74.0657 268.66C73.7257 268.98 73.1857 269.22 72.4057 269.22ZM78.7612 258.02C78.6212 258.02 78.5812 257.98 78.5812 257.94C78.5812 257.74 80.4412 254.72 81.6212 254.72C81.9812 254.72 82.2412 255 82.2412 255.36C82.2412 256.5 78.9612 258.02 78.7612 258.02ZM75.4212 264.28C75.4212 261.38 77.4012 259.24 80.1412 259.24C82.8012 259.24 84.5212 261.12 84.5212 263.94V264.08C84.5212 264.42 84.3812 264.54 84.0212 264.54H76.8012C76.8012 264.62 76.8012 264.72 76.8212 264.82C77.0012 266.74 78.3812 268.02 80.3012 268.02C82.0812 268.02 82.9212 267.18 83.4012 266.26C83.4812 266.22 84.2212 266.38 84.2212 267.02C84.2212 267.32 83.9812 267.78 83.4612 268.2C82.8612 268.72 81.7612 269.22 80.2812 269.22C77.3812 269.22 75.4212 267.2 75.4212 264.28ZM83.1012 263.5C83.0212 261.64 81.8812 260.4 80.1412 260.4C78.4012 260.4 77.1012 261.68 76.8412 263.5H83.1012ZM97.3904 259.24C99.7304 259.24 100.93 260.74 100.93 263.26V268.38C100.93 268.9 100.67 269.06 100.29 269.06H100.13C99.7504 269.06 99.4904 268.9 99.4904 268.38V263.38C99.4904 261.54 98.6704 260.52 97.0904 260.52C95.9704 260.52 94.8904 261.24 94.4304 262.42V268.38C94.4304 268.9 94.1504 269.06 93.7904 269.06H93.6304C93.2504 269.06 92.9904 268.9 92.9904 268.38V263.26C92.9904 261.52 92.1904 260.52 90.5904 260.52C89.4904 260.52 88.4104 261.24 87.9104 262.42V268.38C87.9104 268.9 87.6504 269.06 87.2904 269.06H87.1104C86.7504 269.06 86.4704 268.9 86.4704 268.38V259.54C86.4704 259.5 86.7104 259.38 86.9904 259.38C87.4304 259.38 87.8304 259.6 87.8704 260.56L87.8904 261.04C88.5104 259.98 89.5904 259.24 90.9104 259.24C92.5304 259.24 93.6104 260.06 94.0704 261.36C94.6504 260.12 95.8104 259.24 97.3904 259.24ZM106.222 264.22C106.222 261.32 108.222 259.24 111.082 259.24C113.902 259.24 115.902 261.34 115.902 264.26C115.902 267.14 113.902 269.22 111.062 269.22C108.202 269.22 106.222 267.12 106.222 264.22ZM114.502 264.26C114.502 262.06 113.082 260.46 111.082 260.46C109.082 260.46 107.622 262.02 107.622 264.22C107.622 266.42 109.082 268 111.082 268C113.062 268 114.502 266.44 114.502 264.26ZM125.175 259.24C126.035 259.24 126.595 259.66 126.595 260.28C126.595 260.86 126.195 261.1 126.155 261.06C125.915 260.82 125.535 260.66 125.015 260.66C123.455 260.66 122.735 262.2 122.735 264.6V268.38C122.735 268.88 122.475 269.06 122.115 269.06H121.955C121.555 269.06 121.295 268.9 121.295 268.38V259.54C121.295 259.5 121.515 259.38 121.815 259.38C122.215 259.38 122.575 259.58 122.655 260.34C122.675 260.68 122.695 261.02 122.695 261.38C123.075 259.94 123.955 259.24 125.175 259.24ZM128.07 256.46C128.07 255.86 128.41 255.54 128.99 255.54C129.57 255.54 129.91 255.86 129.91 256.46C129.91 257.04 129.55 257.36 128.97 257.36C128.41 257.36 128.07 257.04 128.07 256.46ZM128.25 268.38V260.08C128.25 259.56 128.51 259.38 128.89 259.38H129.05C129.43 259.38 129.69 259.54 129.69 260.08V268.38C129.69 268.9 129.43 269.06 129.05 269.06H128.89C128.51 269.06 128.25 268.9 128.25 268.38ZM135.589 269.22C133.829 269.22 132.969 268.24 132.969 266.22V260.68H132.029C131.569 260.68 131.409 260.48 131.409 260.14V260C131.409 259.66 131.569 259.46 132.029 259.46H132.969V257.78C132.969 257.28 133.229 257.08 133.609 257.08H133.769C134.149 257.08 134.389 257.26 134.389 257.78V259.46H136.809C137.249 259.46 137.429 259.64 137.429 260V260.12C137.429 260.48 137.249 260.68 136.789 260.68H134.369V266C134.369 267.4 134.789 268 135.789 268C136.429 268 136.909 267.7 137.209 267.26C137.269 267.22 137.609 267.42 137.609 267.92C137.609 268.16 137.509 268.42 137.249 268.66C136.909 268.98 136.369 269.22 135.589 269.22ZM150.125 259.24C152.465 259.24 153.665 260.74 153.665 263.26V268.38C153.665 268.9 153.405 269.06 153.025 269.06H152.865C152.485 269.06 152.225 268.9 152.225 268.38V263.38C152.225 261.54 151.405 260.52 149.825 260.52C148.705 260.52 147.625 261.24 147.165 262.42V268.38C147.165 268.9 146.885 269.06 146.525 269.06H146.365C145.985 269.06 145.725 268.9 145.725 268.38V263.26C145.725 261.52 144.925 260.52 143.325 260.52C142.225 260.52 141.145 261.24 140.645 262.42V268.38C140.645 268.9 140.385 269.06 140.025 269.06H139.845C139.485 269.06 139.205 268.9 139.205 268.38V259.54C139.205 259.5 139.445 259.38 139.725 259.38C140.165 259.38 140.565 259.6 140.605 260.56L140.625 261.04C141.245 259.98 142.325 259.24 143.645 259.24C145.265 259.24 146.345 260.06 146.805 261.36C147.385 260.12 148.545 259.24 150.125 259.24ZM155.538 264.22C155.538 261.32 157.538 259.24 160.398 259.24C163.218 259.24 165.218 261.34 165.218 264.26C165.218 267.14 163.218 269.22 160.378 269.22C157.518 269.22 155.538 267.12 155.538 264.22ZM163.818 264.26C163.818 262.06 162.398 260.46 160.398 260.46C158.398 260.46 156.938 262.02 156.938 264.22C156.938 266.42 158.398 268 160.398 268C162.378 268 163.818 266.44 163.818 264.26ZM170.011 264.28C170.011 261.38 171.991 259.24 174.731 259.24C177.391 259.24 179.111 261.12 179.111 263.94V264.08C179.111 264.42 178.971 264.54 178.611 264.54H171.391C171.391 264.62 171.391 264.72 171.411 264.82C171.591 266.74 172.971 268.02 174.891 268.02C176.671 268.02 177.511 267.18 177.991 266.26C178.071 266.22 178.811 266.38 178.811 267.02C178.811 267.32 178.571 267.78 178.051 268.2C177.451 268.72 176.351 269.22 174.871 269.22C171.971 269.22 170.011 267.2 170.011 264.28ZM177.691 263.5C177.611 261.64 176.471 260.4 174.731 260.4C172.991 260.4 171.691 261.68 171.431 263.5H177.691ZM183.878 266.54C183.878 264.38 185.918 263.46 190.418 263.4H190.638V263C190.638 261.38 189.698 260.48 188.058 260.48C186.538 260.48 185.618 261.22 185.138 262.18C185.098 262.2 184.258 262.16 184.258 261.44C184.258 261.16 184.458 260.74 184.838 260.38C185.458 259.78 186.558 259.24 188.138 259.24C190.678 259.24 192.058 260.66 192.058 263.02V268.92C192.058 268.98 191.798 269.08 191.538 269.08C191.118 269.08 190.778 268.88 190.698 268.16C190.678 267.88 190.658 267.58 190.658 267.28C190.018 268.44 188.718 269.2 187.118 269.2C185.118 269.2 183.878 268.16 183.878 266.54ZM190.638 265.26V264.34L190.298 264.36C186.818 264.44 185.318 265.04 185.318 266.5C185.318 267.5 186.118 268.12 187.398 268.12C189.238 268.12 190.638 266.88 190.638 265.26ZM37.3656 293.22C36.9656 292.88 36.7856 292.56 36.7856 292.26C36.7856 291.76 37.3456 291.54 37.4056 291.56C38.0056 292.42 39.0856 293.06 40.6456 293.06C42.1456 293.06 43.0256 292.42 43.0256 291.48C43.0256 290.36 41.9856 290.14 40.3656 289.78C38.9056 289.48 37.0656 289.06 37.0656 287.12C37.0656 285.42 38.4856 284.24 40.6856 284.24C42.2256 284.24 43.2656 284.74 43.8056 285.32C44.0256 285.54 44.1656 285.84 44.1656 286.08C44.1656 286.58 43.5856 286.84 43.5456 286.8C43.0256 286 41.9856 285.38 40.7056 285.38C39.2456 285.38 38.4056 286.04 38.4056 286.96C38.4056 288 39.4056 288.24 40.9856 288.6C42.5456 288.94 44.4256 289.36 44.4256 291.32C44.4256 293.06 42.9656 294.22 40.6256 294.22C39.0656 294.22 37.9856 293.76 37.3656 293.22ZM45.8118 291.54C45.8118 289.38 47.8518 288.46 52.3518 288.4H52.5718V288C52.5718 286.38 51.6318 285.48 49.9918 285.48C48.4718 285.48 47.5518 286.22 47.0718 287.18C47.0318 287.2 46.1918 287.16 46.1918 286.44C46.1918 286.16 46.3918 285.74 46.7718 285.38C47.3918 284.78 48.4918 284.24 50.0718 284.24C52.6118 284.24 53.9918 285.66 53.9918 288.02V293.92C53.9918 293.98 53.7318 294.08 53.4718 294.08C53.0518 294.08 52.7118 293.88 52.6318 293.16C52.6118 292.88 52.5918 292.58 52.5918 292.28C51.9518 293.44 50.6518 294.2 49.0518 294.2C47.0518 294.2 45.8118 293.16 45.8118 291.54ZM52.5718 290.26V289.34L52.2318 289.36C48.7518 289.44 47.2518 290.04 47.2518 291.5C47.2518 292.5 48.0518 293.12 49.3318 293.12C51.1718 293.12 52.5718 291.88 52.5718 290.26ZM59.1704 283.02C59.0304 283.02 58.9904 282.98 58.9904 282.94C58.9904 282.74 60.8504 279.72 62.0304 279.72C62.3904 279.72 62.6504 280 62.6504 280.36C62.6504 281.5 59.3704 283.02 59.1704 283.02ZM64.0904 284.38C64.4704 284.38 64.7304 284.54 64.7304 285.06V293.92C64.7304 293.96 64.4904 294.08 64.2104 294.08C63.8104 294.08 63.4504 293.88 63.3704 293.14C63.3504 292.88 63.3304 292.62 63.3304 292.36C62.6904 293.42 61.5904 294.22 60.0504 294.22C57.5904 294.22 56.3904 292.52 56.3904 290.06V285.06C56.3904 284.54 56.6504 284.38 57.0304 284.38H57.1904C57.5704 284.38 57.8304 284.54 57.8304 285.06V289.96C57.8304 291.8 58.7304 292.94 60.3504 292.94C61.7304 292.94 62.7704 292.16 63.2904 291V285.06C63.2904 284.54 63.5504 284.38 63.9104 284.38H64.0904ZM71.0907 294.22C68.5707 294.22 66.6907 292.22 66.6907 289.22C66.6907 286.26 68.5707 284.24 71.1307 284.24C72.8307 284.24 74.0307 285.1 74.5707 286.08V280.52C74.5707 280.46 74.7907 280.36 75.0707 280.36C75.5507 280.36 76.0107 280.6 76.0107 281.64V293.38C76.0107 293.9 75.7507 294.06 75.3707 294.06H75.2307C74.8707 294.06 74.6107 293.9 74.6107 293.42C74.5907 293.02 74.5907 292.62 74.5907 292.18C73.9107 293.4 72.7707 294.22 71.0907 294.22ZM74.5707 289.88V287.74C74.0507 286.36 72.9907 285.46 71.3707 285.46C69.4507 285.46 68.1307 286.96 68.1307 289.22C68.1307 291.44 69.4707 293 71.3507 293C73.1307 293 74.5707 291.66 74.5707 289.88ZM77.9798 289.28C77.9798 286.38 79.9598 284.24 82.6998 284.24C85.3598 284.24 87.0798 286.12 87.0798 288.94V289.08C87.0798 289.42 86.9398 289.54 86.5798 289.54H79.3598C79.3598 289.62 79.3598 289.72 79.3798 289.82C79.5598 291.74 80.9398 293.02 82.8598 293.02C84.6398 293.02 85.4798 292.18 85.9598 291.26C86.0398 291.22 86.7798 291.38 86.7798 292.02C86.7798 292.32 86.5398 292.78 86.0198 293.2C85.4198 293.72 84.3198 294.22 82.8398 294.22C79.9398 294.22 77.9798 292.2 77.9798 289.28ZM85.6598 288.5C85.5798 286.64 84.4398 285.4 82.6998 285.4C80.9598 285.4 79.6598 286.68 79.3998 288.5H85.6598ZM96.247 294.22C93.727 294.22 91.847 292.22 91.847 289.22C91.847 286.26 93.727 284.24 96.287 284.24C97.987 284.24 99.187 285.1 99.727 286.08V280.52C99.727 280.46 99.947 280.36 100.227 280.36C100.707 280.36 101.167 280.6 101.167 281.64V293.38C101.167 293.9 100.907 294.06 100.527 294.06H100.387C100.027 294.06 99.767 293.9 99.767 293.42C99.747 293.02 99.747 292.62 99.747 292.18C99.067 293.4 97.927 294.22 96.247 294.22ZM99.727 289.88V287.74C99.207 286.36 98.147 285.46 96.527 285.46C94.607 285.46 93.287 286.96 93.287 289.22C93.287 291.44 94.627 293 96.507 293C98.287 293 99.727 291.66 99.727 289.88ZM103.136 289.22C103.136 286.32 105.136 284.24 107.996 284.24C110.816 284.24 112.816 286.34 112.816 289.26C112.816 292.14 110.816 294.22 107.976 294.22C105.116 294.22 103.136 292.12 103.136 289.22ZM111.416 289.26C111.416 287.06 109.996 285.46 107.996 285.46C105.996 285.46 104.536 287.02 104.536 289.22C104.536 291.42 105.996 293 107.996 293C109.976 293 111.416 291.44 111.416 289.26ZM117.609 289.2C117.609 286.34 119.609 284.24 122.429 284.24C123.929 284.24 124.969 284.78 125.609 285.4C126.149 285.9 126.389 286.48 126.389 286.84C126.389 287.48 125.529 287.6 125.469 287.52C125.049 286.42 124.189 285.48 122.449 285.48C120.449 285.48 119.029 287.04 119.029 289.2C119.029 291.4 120.429 292.98 122.449 292.98C124.169 292.98 125.049 292.04 125.469 290.94C125.509 290.86 126.389 290.96 126.389 291.64C126.389 291.96 126.149 292.52 125.609 293.04C124.989 293.7 123.929 294.22 122.409 294.22C119.609 294.22 117.609 292.12 117.609 289.2ZM127.687 289.22C127.687 286.32 129.687 284.24 132.547 284.24C135.367 284.24 137.367 286.34 137.367 289.26C137.367 292.14 135.367 294.22 132.527 294.22C129.667 294.22 127.687 292.12 127.687 289.22ZM135.967 289.26C135.967 287.06 134.547 285.46 132.547 285.46C130.547 285.46 129.087 287.02 129.087 289.22C129.087 291.42 130.547 293 132.547 293C134.527 293 135.967 291.44 135.967 289.26ZM143.222 284.24C144.082 284.24 144.642 284.66 144.642 285.28C144.642 285.86 144.242 286.1 144.202 286.06C143.962 285.82 143.582 285.66 143.062 285.66C141.502 285.66 140.782 287.2 140.782 289.6V293.38C140.782 293.88 140.522 294.06 140.162 294.06H140.002C139.602 294.06 139.342 293.9 139.342 293.38V284.54C139.342 284.5 139.562 284.38 139.862 284.38C140.262 284.38 140.622 284.58 140.702 285.34C140.722 285.68 140.742 286.02 140.742 286.38C141.122 284.94 142.002 284.24 143.222 284.24ZM145.441 291.54C145.441 289.38 147.481 288.46 151.981 288.4H152.201V288C152.201 286.38 151.261 285.48 149.621 285.48C148.101 285.48 147.181 286.22 146.701 287.18C146.661 287.2 145.821 287.16 145.821 286.44C145.821 286.16 146.021 285.74 146.401 285.38C147.021 284.78 148.121 284.24 149.701 284.24C152.241 284.24 153.621 285.66 153.621 288.02V293.92C153.621 293.98 153.361 294.08 153.101 294.08C152.681 294.08 152.341 293.88 152.261 293.16C152.241 292.88 152.221 292.58 152.221 292.28C151.581 293.44 150.281 294.2 148.681 294.2C146.681 294.2 145.441 293.16 145.441 291.54ZM152.201 290.26V289.34L151.861 289.36C148.381 289.44 146.881 290.04 146.881 291.5C146.881 292.5 147.681 293.12 148.961 293.12C150.801 293.12 152.201 291.88 152.201 290.26ZM159.759 298.4C158.539 298.4 157.819 297.62 157.819 297.06C157.819 296.66 157.999 296.48 158.319 296.44C158.499 296.68 158.939 297.22 159.619 297.22C160.239 297.22 160.799 296.94 160.799 296.14C160.799 295.32 159.799 294.38 158.959 294.04C156.879 293.5 155.499 291.64 155.499 289.2C155.499 286.34 157.499 284.24 160.319 284.24C161.819 284.24 162.859 284.78 163.499 285.4C164.039 285.9 164.279 286.48 164.279 286.84C164.279 287.48 163.419 287.6 163.359 287.52C162.939 286.42 162.079 285.48 160.339 285.48C158.339 285.48 156.919 287.04 156.919 289.2C156.919 291.4 158.319 292.98 160.339 292.98C162.059 292.98 162.939 292.04 163.359 290.94C163.399 290.86 164.279 290.96 164.279 291.64C164.279 291.96 164.059 292.5 163.539 293.02C163.039 293.52 162.319 293.96 161.319 294.14C161.079 294.18 160.839 294.2 160.579 294.2C161.299 294.68 161.979 295.5 161.979 296.5C161.979 297.86 160.839 298.4 159.759 298.4ZM167.558 282.68C167.378 282.68 167.238 282.62 167.098 282.5C167.038 282.38 167.038 282.18 167.038 282C167.138 281.04 167.698 280.26 168.578 280.26C169.178 280.26 169.618 280.6 170.018 280.94C170.458 281.34 170.758 281.6 171.098 281.78C171.678 281.52 171.638 280.38 172.198 280.38C172.378 280.38 172.538 280.44 172.638 280.54C172.698 280.7 172.718 280.9 172.718 281.08C172.618 282.04 172.058 282.78 171.178 282.78C170.578 282.78 170.158 282.48 169.738 282.12C169.318 281.76 169.038 281.46 168.678 281.28C168.138 281.56 168.118 282.68 167.558 282.68ZM165.558 291.54C165.558 289.38 167.598 288.46 172.098 288.4H172.318V288C172.318 286.38 171.378 285.48 169.738 285.48C168.218 285.48 167.298 286.22 166.818 287.18C166.778 287.2 165.938 287.16 165.938 286.44C165.938 286.16 166.138 285.74 166.518 285.38C167.138 284.78 168.238 284.24 169.818 284.24C172.358 284.24 173.738 285.66 173.738 288.02V293.92C173.738 293.98 173.478 294.08 173.218 294.08C172.798 294.08 172.458 293.88 172.378 293.16C172.358 292.88 172.338 292.58 172.338 292.28C171.698 293.44 170.398 294.2 168.798 294.2C166.798 294.2 165.558 293.16 165.558 291.54ZM172.318 290.26V289.34L171.978 289.36C168.498 289.44 166.998 290.04 166.998 291.5C166.998 292.5 167.798 293.12 169.078 293.12C170.918 293.12 172.318 291.88 172.318 290.26ZM175.617 289.22C175.617 286.32 177.617 284.24 180.477 284.24C183.297 284.24 185.297 286.34 185.297 289.26C185.297 292.14 183.297 294.22 180.457 294.22C177.597 294.22 175.617 292.12 175.617 289.22ZM183.897 289.26C183.897 287.06 182.477 285.46 180.477 285.46C178.477 285.46 177.017 287.02 177.017 289.22C177.017 291.42 178.477 293 180.477 293C182.457 293 183.897 291.44 183.897 289.26Z" fill="#1A1A1A"/>
<rect x="231.217" y="1" width="220" height="152" rx="15" fill="#FC5B03" stroke="#1A1A1A" stroke-width="2"/>
<path d="M271.476 103.38L270.976 104.64C270.356 106.26 271.476 105.98 271.476 106.58C271.476 106.92 271.156 107 270.736 107H269.116C268.616 107 268.276 106.92 268.276 106.62C268.276 105.96 269.276 106.32 269.936 104.64L273.716 95.02C274.156 93.92 273.016 94.06 273.016 93.42C273.016 93.16 273.136 93 273.576 93H275.396C275.656 93 275.836 93.12 275.916 93.36L280.356 104.62C281.016 106.26 281.836 105.96 281.836 106.56C281.836 106.9 281.556 107 280.856 107H278.516C278.036 107 277.716 106.9 277.716 106.62C277.716 105.96 278.956 106.18 278.336 104.62L277.836 103.36C277.616 102.78 277.616 102.78 274.736 102.78C271.696 102.78 271.696 102.78 271.476 103.38ZM274.756 101.92C277.276 101.92 277.276 101.92 277.076 101.4L274.636 95.2L272.216 101.46C272.036 101.92 272.036 101.92 274.756 101.92ZM284.667 95.7C284.127 95.66 283.727 95.26 283.767 94.7C283.807 93.98 284.707 93.14 285.507 93.24C286.047 93.28 286.427 93.78 286.407 94.28C286.347 94.98 285.447 95.76 284.667 95.7ZM284.247 107.48V100.38C284.247 98.64 283.267 98.98 283.267 98.36C283.267 98.16 283.367 98.06 283.847 97.84C284.727 97.42 285.407 97.2 285.707 97.18C285.967 97.16 286.107 97.26 286.107 97.62L286.087 100.38L286.067 107.48V108.32C286.067 110.24 285.147 111.22 283.687 111.22C281.987 111.22 281.747 110.26 282.527 110.26C284.007 110.26 284.247 109.26 284.247 107.48ZM298.056 97.64L298.036 100.4V104.38C298.036 105.9 299.216 105.44 299.216 106.02C299.216 106.22 299.056 106.42 298.716 106.6C298.196 106.9 297.416 107.2 296.936 107.2C296.456 107.2 296.276 106.84 296.256 106.16L296.236 105.34C295.356 106.58 293.956 107.2 292.856 107.2C290.876 107.2 289.476 106 289.476 103.22V100.4C289.476 98.64 288.476 99 288.476 98.38C288.476 98.18 288.576 98.08 289.056 97.86C289.936 97.44 290.636 97.22 290.916 97.2C291.176 97.18 291.316 97.28 291.316 97.64L291.296 100.4V103.02C291.296 104.82 291.896 106.04 293.416 106C294.696 105.98 296.216 104.78 296.216 102.82V100.4C296.216 98.64 295.216 99 295.216 98.38C295.216 98.18 295.316 98.08 295.796 97.86C296.676 97.44 297.356 97.22 297.656 97.2C297.916 97.18 298.056 97.28 298.056 97.64ZM309.67 93.24L309.65 96L309.63 104.38C309.63 105.88 310.83 105.44 310.83 106.02C310.83 106.22 310.67 106.4 310.31 106.6C309.81 106.88 309.03 107.2 308.55 107.2C308.07 107.2 307.89 106.84 307.87 106.16L307.85 105.44C307.15 106.44 305.93 107.22 304.35 107.2C301.73 107.18 300.07 105.14 300.07 102.58C300.07 99.46 302.45 97.2 305.05 97.2C306.03 97.2 307.07 97.5 307.83 98.16V96C307.83 94.26 306.85 94.6 306.85 93.98C306.85 93.78 306.93 93.68 307.41 93.46C308.31 93.04 308.99 92.82 309.29 92.8C309.53 92.78 309.67 92.88 309.67 93.24ZM305.03 105.92C306.69 105.92 307.67 104.58 307.81 103.4V102.4C307.77 101.58 307.65 100.54 307.19 99.78C306.61 98.74 305.75 98.18 304.61 98.18C302.89 98.18 301.85 99.64 301.85 101.64C301.85 104.54 303.55 105.92 305.03 105.92ZM321.488 105.76C321.708 105.76 321.888 105.78 321.888 106C321.888 106.5 321.108 107.14 320.208 107.14C319.268 107.14 319.008 106.56 318.828 105.6C317.988 106.64 316.608 107.2 315.448 107.2C313.008 107.2 311.608 105.84 311.608 104.14C311.608 102.22 313.328 100.9 315.768 100.9C316.608 100.9 317.168 100.98 317.928 101.16C317.528 99.56 317.268 98.42 315.528 98.42C314.388 98.42 313.648 98.78 312.808 99.26C312.428 99.5 312.108 99.2 312.368 98.8C312.848 98.1 314.288 97.22 316.108 97.22C318.308 97.22 319.168 98.6 319.548 100.34L320.468 104.68C320.688 105.7 321.108 105.76 321.488 105.76ZM315.908 106.2C317.288 106.2 318.728 105.14 318.568 104.26C318.488 103.8 318.328 103.28 318.148 102.4C318.068 101.92 316.748 101.74 316.128 101.74C314.368 101.74 313.428 102.58 313.448 103.92C313.508 105.22 314.408 106.2 315.908 106.2ZM333.169 97.2C335.669 97.2 337.229 99.22 337.229 101.96C337.229 104.98 335.369 107.18 332.889 107.2C331.709 107.22 330.489 106.78 329.729 106.14L329.749 108.36C329.749 110.28 330.669 109.92 330.669 110.62C330.669 110.92 330.389 111 329.889 111H327.749C327.289 111 326.969 110.92 326.969 110.62C326.969 109.92 327.929 110.28 327.929 108.36L327.889 100.26C327.889 99.6 327.809 99.1 327.289 98.78C327.069 98.64 326.929 98.52 326.929 98.32C326.929 98.08 327.029 97.96 327.509 97.74C328.189 97.44 328.869 97.22 329.149 97.2C329.409 97.18 329.549 97.28 329.549 97.64L329.529 99.26C330.169 98.18 331.369 97.2 333.169 97.2ZM332.889 106.3C334.629 106.28 335.429 104.68 335.429 102.76C335.429 99.88 334.029 98.46 332.509 98.46C330.669 98.46 329.729 100.2 329.729 101.66V103.06C329.729 105.14 331.489 106.32 332.889 106.3ZM348.129 105.76C348.349 105.76 348.529 105.78 348.529 106C348.529 106.5 347.749 107.14 346.849 107.14C345.909 107.14 345.649 106.56 345.469 105.6C344.629 106.64 343.249 107.2 342.089 107.2C339.649 107.2 338.249 105.84 338.249 104.14C338.249 102.22 339.969 100.9 342.409 100.9C343.249 100.9 343.809 100.98 344.569 101.16C344.169 99.56 343.909 98.42 342.169 98.42C341.029 98.42 340.289 98.78 339.449 99.26C339.069 99.5 338.749 99.2 339.009 98.8C339.489 98.1 340.929 97.22 342.749 97.22C344.949 97.22 345.809 98.6 346.189 100.34L347.109 104.68C347.329 105.7 347.749 105.76 348.129 105.76ZM342.549 106.2C343.929 106.2 345.369 105.14 345.209 104.26C345.129 103.8 344.969 103.28 344.789 102.4C344.709 101.92 343.389 101.74 342.769 101.74C341.009 101.74 340.069 102.58 340.089 103.92C340.149 105.22 341.049 106.2 342.549 106.2ZM355.225 97.2C356.305 97.2 356.785 97.88 356.785 98.58C356.785 99.1 356.445 99.58 355.985 99.6C355.145 99.62 355.185 98.74 354.265 98.74C353.385 98.74 352.545 99.98 352.545 101.74V104.36C352.545 106.28 353.465 105.92 353.465 106.62C353.465 106.92 353.185 107 352.685 107H350.545C350.085 107 349.745 106.92 349.745 106.6C349.745 105.92 350.725 106.28 350.725 104.36V100.34C350.725 99.66 350.645 99.16 350.105 98.84C349.885 98.7 349.745 98.58 349.745 98.38C349.745 98.16 349.845 98.04 350.325 97.82C351.005 97.5 351.685 97.28 351.965 97.26C352.225 97.26 352.365 97.36 352.365 97.7L352.345 99.32C352.965 98.14 354.045 97.2 355.225 97.2ZM367.211 105.76C367.431 105.76 367.611 105.78 367.611 106C367.611 106.5 366.831 107.14 365.931 107.14C364.991 107.14 364.731 106.56 364.551 105.6C363.711 106.64 362.331 107.2 361.171 107.2C358.731 107.2 357.331 105.84 357.331 104.14C357.331 102.22 359.051 100.9 361.491 100.9C362.331 100.9 362.891 100.98 363.651 101.16C363.251 99.56 362.991 98.42 361.251 98.42C360.111 98.42 359.371 98.78 358.531 99.26C358.151 99.5 357.831 99.2 358.091 98.8C358.571 98.1 360.011 97.22 361.831 97.22C364.031 97.22 364.891 98.6 365.271 100.34L366.191 104.68C366.411 105.7 366.831 105.76 367.211 105.76ZM361.631 106.2C363.011 106.2 364.451 105.14 364.291 104.26C364.211 103.8 364.051 103.28 363.871 102.4C363.791 101.92 362.471 101.74 361.851 101.74C360.091 101.74 359.151 102.58 359.171 103.92C359.231 105.22 360.131 106.2 361.631 106.2ZM382.392 97.64L382.372 100.4V104.38C382.372 105.9 383.552 105.44 383.552 106.02C383.552 106.22 383.392 106.42 383.052 106.6C382.532 106.9 381.752 107.2 381.272 107.2C380.792 107.2 380.612 106.84 380.592 106.16L380.572 105.34C379.692 106.58 378.292 107.2 377.192 107.2C375.212 107.2 373.812 106 373.812 103.22V100.4C373.812 98.64 372.812 99 372.812 98.38C372.812 98.18 372.912 98.08 373.392 97.86C374.272 97.44 374.972 97.22 375.252 97.2C375.512 97.18 375.652 97.28 375.652 97.64L375.632 100.4V103.02C375.632 104.82 376.232 106.04 377.752 106C379.032 105.98 380.552 104.78 380.552 102.82V100.4C380.552 98.64 379.552 99 379.552 98.38C379.552 98.18 379.652 98.08 380.132 97.86C381.012 97.44 381.692 97.22 381.992 97.2C382.252 97.18 382.392 97.28 382.392 97.64ZM401.066 101.4L401.686 104.92C401.906 106.16 402.746 106.02 402.746 106.62C402.746 106.92 402.446 107 401.966 107H399.826C399.366 107 399.046 106.92 399.046 106.6C399.046 106.02 400.086 106.16 399.866 104.86L399.286 101.54C399.006 99.96 398.766 98.4 396.966 98.42C395.726 98.44 394.366 99.52 394.286 101.84L394.306 104.36C394.306 106.28 395.246 105.92 395.246 106.62C395.246 106.92 394.946 107 394.466 107H392.326C391.846 107 391.526 106.92 391.526 106.6C391.526 105.92 392.486 106.28 392.486 104.36V101.58C392.486 99.78 392.026 98.34 390.286 98.38C388.886 98.4 387.506 99.6 387.506 102.04V104.36C387.506 106.28 388.426 105.92 388.426 106.62C388.426 106.92 388.146 107 387.646 107H385.506C385.046 107 384.706 106.92 384.706 106.6C384.706 105.92 385.686 106.28 385.686 104.36V100.34C385.686 99.66 385.606 99.16 385.066 98.84C384.846 98.7 384.706 98.58 384.706 98.38C384.706 98.16 384.806 98.04 385.286 97.82C385.966 97.5 386.646 97.28 386.926 97.26C387.186 97.26 387.326 97.36 387.326 97.7L387.306 99.4C388.106 97.92 389.426 97.2 390.846 97.2C392.466 97.2 393.586 97.96 394.046 99.48C394.826 97.96 396.166 97.2 397.606 97.2C399.606 97.2 400.526 98.32 401.066 101.4ZM413.324 105.76C413.544 105.76 413.724 105.78 413.724 106C413.724 106.5 412.944 107.14 412.044 107.14C411.104 107.14 410.844 106.56 410.664 105.6C409.824 106.64 408.444 107.2 407.284 107.2C404.844 107.2 403.444 105.84 403.444 104.14C403.444 102.22 405.164 100.9 407.604 100.9C408.444 100.9 409.004 100.98 409.764 101.16C409.364 99.56 409.104 98.42 407.364 98.42C406.224 98.42 405.484 98.78 404.644 99.26C404.264 99.5 403.944 99.2 404.204 98.8C404.684 98.1 406.124 97.22 407.944 97.22C410.144 97.22 411.004 98.6 411.384 100.34L412.304 104.68C412.524 105.7 412.944 105.76 413.324 105.76ZM407.744 106.2C409.124 106.2 410.564 105.14 410.404 104.26C410.324 103.8 410.164 103.28 409.984 102.4C409.904 101.92 408.584 101.74 407.964 101.74C406.204 101.74 405.264 102.58 405.284 103.92C405.344 105.22 406.244 106.2 407.744 106.2ZM264.166 123.4H265.246C265.726 123.4 266.046 123.48 266.046 123.78C266.046 124.3 265.306 124.2 264.686 125.78L262.126 132.46C262.006 132.78 261.926 132.92 261.226 133.08C260.466 133.26 260.266 133.14 260.126 132.78L257.366 125.78C256.746 124.2 256.046 124.3 256.046 123.78C256.046 123.48 256.326 123.4 256.826 123.4H259.066C259.526 123.4 259.846 123.48 259.846 123.78C259.846 124.3 258.666 124.2 259.286 125.78L261.546 131.62L263.786 125.78C264.406 124.2 263.366 124.3 263.366 123.78C263.366 123.48 263.666 123.4 264.166 123.4ZM268.454 121.7C267.914 121.66 267.514 121.26 267.554 120.7C267.594 119.98 268.494 119.14 269.294 119.24C269.834 119.28 270.214 119.78 270.194 120.28C270.134 120.98 269.234 121.76 268.454 121.7ZM268.274 130.36V126.4C268.274 124.66 267.294 125 267.294 124.38C267.294 124.18 267.374 124.08 267.854 123.86C268.754 123.44 269.434 123.22 269.714 123.2C269.974 123.18 270.114 123.28 270.114 123.64L270.094 126.4V130.36C270.094 132.28 271.034 131.92 271.034 132.62C271.034 132.92 270.734 133 270.254 133H268.114C267.634 133 267.314 132.92 267.314 132.6C267.314 131.92 268.274 132.28 268.274 130.36ZM274.117 133.2C273.837 133.2 273.797 133.08 273.557 132.52C273.257 131.72 273.057 131.2 272.817 130.4C272.757 130.12 272.817 129.94 273.037 129.86C273.237 129.78 273.457 129.94 273.717 130.22C275.277 131.9 276.357 132.28 277.437 132.28C278.337 132.28 279.117 131.84 279.117 130.96C279.117 130.1 277.997 129.56 276.377 128.9C274.637 128.22 273.017 127.52 273.017 125.88C273.017 124.06 274.677 123.2 276.197 123.2C277.257 123.2 277.897 123.42 278.417 123.44C278.737 123.46 278.817 123.2 279.077 123.2C279.337 123.2 279.457 123.46 279.697 123.86C279.997 124.42 280.157 124.78 280.317 125.14C280.437 125.46 280.437 125.72 280.237 125.84C279.917 126.02 279.637 125.66 278.957 125.14C278.177 124.56 277.197 124.08 276.257 124.08C275.177 124.08 274.577 124.62 274.577 125.32C274.577 126.2 275.517 126.64 277.357 127.38C279.277 128.14 280.837 128.9 280.837 130.4C280.837 131.88 279.397 133.2 277.197 133.2C275.877 133.2 275.277 132.82 274.877 132.82C274.557 132.82 274.477 133.2 274.117 133.2ZM284.249 121.92C284.249 122.4 283.669 122.12 283.669 121.38C283.669 120.68 284.169 120.18 285.049 120.18C286.329 120.18 287.629 121.02 288.309 121.02C288.789 121.02 289.009 120.82 289.009 120.44C289.009 119.94 289.589 120.22 289.589 120.96C289.589 121.66 289.069 122.18 288.189 122.18C287.249 122.18 285.949 121.34 284.949 121.34C284.489 121.34 284.249 121.52 284.249 121.92ZM291.869 131.76C292.089 131.76 292.269 131.78 292.269 132C292.269 132.5 291.489 133.14 290.589 133.14C289.649 133.14 289.389 132.56 289.209 131.6C288.369 132.64 286.989 133.2 285.829 133.2C283.389 133.2 281.989 131.84 281.989 130.14C281.989 128.22 283.709 126.9 286.149 126.9C286.989 126.9 287.549 126.98 288.309 127.16C287.909 125.56 287.649 124.42 285.909 124.42C284.769 124.42 284.029 124.78 283.189 125.26C282.809 125.5 282.489 125.2 282.749 124.8C283.229 124.1 284.669 123.22 286.489 123.22C288.689 123.22 289.549 124.6 289.929 126.34L290.849 130.68C291.069 131.7 291.489 131.76 291.869 131.76ZM286.289 132.2C287.669 132.2 289.109 131.14 288.949 130.26C288.869 129.8 288.709 129.28 288.529 128.4C288.449 127.92 287.129 127.74 286.509 127.74C284.749 127.74 283.809 128.58 283.829 129.92C283.889 131.22 284.789 132.2 286.289 132.2ZM297.729 133.2C295.029 133.2 293.029 131.4 293.029 128.56C293.029 125.54 295.209 123.2 298.309 123.2C300.969 123.2 302.909 125.26 302.909 127.96C302.909 130.92 300.789 133.2 297.729 133.2ZM298.349 132.24C300.049 132.24 301.109 130.88 301.109 128.96C301.109 126.46 299.609 124.22 297.609 124.22C295.829 124.22 294.849 125.7 294.849 127.6C294.849 130.22 296.309 132.24 298.349 132.24ZM317.961 119.24L317.941 122L317.921 130.38C317.921 131.88 319.121 131.44 319.121 132.02C319.121 132.22 318.961 132.4 318.601 132.6C318.101 132.88 317.321 133.2 316.841 133.2C316.361 133.2 316.181 132.84 316.161 132.16L316.141 131.44C315.441 132.44 314.221 133.22 312.641 133.2C310.021 133.18 308.361 131.14 308.361 128.58C308.361 125.46 310.741 123.2 313.341 123.2C314.321 123.2 315.361 123.5 316.121 124.16V122C316.121 120.26 315.141 120.6 315.141 119.98C315.141 119.78 315.221 119.68 315.701 119.46C316.601 119.04 317.281 118.82 317.581 118.8C317.821 118.78 317.961 118.88 317.961 119.24ZM313.321 131.92C314.981 131.92 315.961 130.58 316.101 129.4V128.4C316.061 127.58 315.941 126.54 315.481 125.78C314.901 124.74 314.041 124.18 312.901 124.18C311.181 124.18 310.141 125.64 310.141 127.64C310.141 130.54 311.841 131.92 313.321 131.92ZM328.62 130.42C328.96 130.06 329.4 130.28 329.2 130.78C328.78 131.76 327.26 133.2 324.74 133.2C321.94 133.2 320.06 131.18 320.06 128.54C320.06 125.52 322.18 123.2 325.14 123.2C327.32 123.2 328.78 124.46 329.14 126.18C329.22 126.54 329.14 126.82 328.68 127C326.52 127.84 324.4 128.56 322.08 129.32C322.46 130.48 323.6 131.84 325.46 131.84C326.8 131.84 327.9 131.18 328.62 130.42ZM324.52 124.14C322.72 124.16 321.82 125.8 321.82 127.26C321.82 127.76 321.84 128.14 321.94 128.48C323.58 127.94 325.14 127.42 326.6 126.86C326.92 126.74 327.04 126.54 326.98 126.18C326.78 124.94 325.62 124.1 324.52 124.14ZM331.988 133.2C331.708 133.2 331.668 133.08 331.428 132.52C331.128 131.72 330.928 131.2 330.688 130.4C330.628 130.12 330.688 129.94 330.908 129.86C331.108 129.78 331.328 129.94 331.588 130.22C333.148 131.9 334.228 132.28 335.308 132.28C336.208 132.28 336.988 131.84 336.988 130.96C336.988 130.1 335.868 129.56 334.248 128.9C332.508 128.22 330.888 127.52 330.888 125.88C330.888 124.06 332.548 123.2 334.068 123.2C335.128 123.2 335.768 123.42 336.288 123.44C336.608 123.46 336.688 123.2 336.948 123.2C337.208 123.2 337.328 123.46 337.568 123.86C337.868 124.42 338.028 124.78 338.188 125.14C338.308 125.46 338.308 125.72 338.108 125.84C337.788 126.02 337.508 125.66 336.828 125.14C336.048 124.56 335.068 124.08 334.128 124.08C333.048 124.08 332.448 124.62 332.448 125.32C332.448 126.2 333.388 126.64 335.228 127.38C337.148 128.14 338.708 128.9 338.708 130.4C338.708 131.88 337.268 133.2 335.068 133.2C333.748 133.2 333.148 132.82 332.748 132.82C332.428 132.82 332.348 133.2 331.988 133.2ZM348.601 130.42C348.941 130.06 349.381 130.28 349.181 130.78C348.761 131.76 347.241 133.2 344.721 133.2C341.921 133.2 340.041 131.18 340.041 128.54C340.041 125.52 342.161 123.2 345.121 123.2C347.301 123.2 348.761 124.46 349.121 126.18C349.201 126.54 349.121 126.82 348.661 127C346.501 127.84 344.381 128.56 342.061 129.32C342.441 130.48 343.581 131.84 345.441 131.84C346.781 131.84 347.881 131.18 348.601 130.42ZM344.501 124.14C342.701 124.16 341.801 125.8 341.801 127.26C341.801 127.76 341.821 128.14 341.921 128.48C343.561 127.94 345.121 127.42 346.581 126.86C346.901 126.74 347.021 126.54 346.961 126.18C346.761 124.94 345.601 124.1 344.501 124.14ZM360.529 127.4L361.149 130.92C361.389 132.16 362.209 132.02 362.209 132.62C362.209 132.92 361.929 133 361.429 133H359.309C358.829 133 358.509 132.92 358.509 132.6C358.509 132.02 359.549 132.16 359.329 130.86L358.749 127.54C358.489 125.96 358.149 124.4 356.329 124.42C355.029 124.44 353.649 125.6 353.649 128.04V130.36C353.649 132.28 354.569 131.92 354.569 132.62C354.569 132.92 354.289 133 353.789 133H351.649C351.189 133 350.849 132.92 350.849 132.6C350.849 131.92 351.829 132.28 351.829 130.36V126.34C351.829 125.66 351.749 125.16 351.209 124.84C350.989 124.7 350.849 124.58 350.849 124.38C350.849 124.16 350.949 124.04 351.429 123.82C352.109 123.5 352.789 123.28 353.069 123.26C353.329 123.26 353.469 123.36 353.469 123.7L353.449 125.4C354.249 123.92 355.649 123.2 356.969 123.2C358.969 123.2 360.009 124.32 360.529 127.4ZM369.908 123.4H370.988C371.468 123.4 371.788 123.48 371.788 123.78C371.788 124.3 371.048 124.2 370.428 125.78L367.868 132.46C367.748 132.78 367.668 132.92 366.968 133.08C366.208 133.26 366.008 133.14 365.868 132.78L363.108 125.78C362.488 124.2 361.788 124.3 361.788 123.78C361.788 123.48 362.068 123.4 362.568 123.4H364.808C365.268 123.4 365.588 123.48 365.588 123.78C365.588 124.3 364.408 124.2 365.028 125.78L367.288 131.62L369.528 125.78C370.148 124.2 369.108 124.3 369.108 123.78C369.108 123.48 369.408 123.4 369.908 123.4ZM376.596 133.2C373.896 133.2 371.896 131.4 371.896 128.56C371.896 125.54 374.076 123.2 377.176 123.2C379.836 123.2 381.776 125.26 381.776 127.96C381.776 130.92 379.656 133.2 376.596 133.2ZM377.216 132.24C378.916 132.24 379.976 130.88 379.976 128.96C379.976 126.46 378.476 124.22 376.476 124.22C374.696 124.22 373.716 125.7 373.716 127.6C373.716 130.22 375.176 132.24 377.216 132.24ZM384.249 130.36L384.229 122C384.229 120.24 383.249 120.6 383.249 119.98C383.249 119.78 383.349 119.68 383.829 119.46C384.709 119.04 385.389 118.82 385.689 118.8C385.949 118.78 386.089 118.88 386.089 119.24L386.069 122V130.36C386.069 132.28 386.989 131.92 386.989 132.62C386.989 132.92 386.709 133 386.209 133H384.069C383.609 133 383.269 132.92 383.269 132.6C383.269 131.92 384.249 132.28 384.249 130.36ZM395.885 123.4H396.965C397.445 123.4 397.765 123.48 397.765 123.78C397.765 124.3 397.025 124.2 396.405 125.78L393.845 132.46C393.725 132.78 393.645 132.92 392.945 133.08C392.185 133.26 391.985 133.14 391.845 132.78L389.085 125.78C388.465 124.2 387.765 124.3 387.765 123.78C387.765 123.48 388.045 123.4 388.545 123.4H390.785C391.245 123.4 391.565 123.48 391.565 123.78C391.565 124.3 390.385 124.2 391.005 125.78L393.265 131.62L395.505 125.78C396.125 124.2 395.085 124.3 395.085 123.78C395.085 123.48 395.385 123.4 395.885 123.4ZM400.173 121.7C399.633 121.66 399.233 121.26 399.273 120.7C399.313 119.98 400.213 119.14 401.013 119.24C401.553 119.28 401.933 119.78 401.913 120.28C401.853 120.98 400.953 121.76 400.173 121.7ZM399.993 130.36V126.4C399.993 124.66 399.013 125 399.013 124.38C399.013 124.18 399.093 124.08 399.573 123.86C400.473 123.44 401.153 123.22 401.433 123.2C401.693 123.18 401.833 123.28 401.833 123.64L401.813 126.4V130.36C401.813 132.28 402.753 131.92 402.753 132.62C402.753 132.92 402.453 133 401.973 133H399.833C399.353 133 399.033 132.92 399.033 132.6C399.033 131.92 399.993 132.28 399.993 130.36ZM414.016 119.24L413.996 122L413.976 130.38C413.976 131.88 415.176 131.44 415.176 132.02C415.176 132.22 415.016 132.4 414.656 132.6C414.156 132.88 413.376 133.2 412.896 133.2C412.416 133.2 412.236 132.84 412.216 132.16L412.196 131.44C411.496 132.44 410.276 133.22 408.696 133.2C406.076 133.18 404.416 131.14 404.416 128.58C404.416 125.46 406.796 123.2 409.396 123.2C410.376 123.2 411.416 123.5 412.176 124.16V122C412.176 120.26 411.196 120.6 411.196 119.98C411.196 119.78 411.276 119.68 411.756 119.46C412.656 119.04 413.336 118.82 413.636 118.8C413.876 118.78 414.016 118.88 414.016 119.24ZM409.376 131.92C411.036 131.92 412.016 130.58 412.156 129.4V128.4C412.116 127.58 411.996 126.54 411.536 125.78C410.956 124.74 410.096 124.18 408.956 124.18C407.236 124.18 406.196 125.64 406.196 127.64C406.196 130.54 407.896 131.92 409.376 131.92ZM425.834 131.76C426.054 131.76 426.234 131.78 426.234 132C426.234 132.5 425.454 133.14 424.554 133.14C423.614 133.14 423.354 132.56 423.174 131.6C422.334 132.64 420.954 133.2 419.794 133.2C417.354 133.2 415.954 131.84 415.954 130.14C415.954 128.22 417.674 126.9 420.114 126.9C420.954 126.9 421.514 126.98 422.274 127.16C421.874 125.56 421.614 124.42 419.874 124.42C418.734 124.42 417.994 124.78 417.154 125.26C416.774 125.5 416.454 125.2 416.714 124.8C417.194 124.1 418.634 123.22 420.454 123.22C422.654 123.22 423.514 124.6 423.894 126.34L424.814 130.68C425.034 131.7 425.454 131.76 425.834 131.76ZM420.254 132.2C421.634 132.2 423.074 131.14 422.914 130.26C422.834 129.8 422.674 129.28 422.494 128.4C422.414 127.92 421.094 127.74 420.474 127.74C418.714 127.74 417.774 128.58 417.794 129.92C417.854 131.22 418.754 132.2 420.254 132.2Z" fill="#FFFFF3"/>
<path d="M319.567 68.3954C327.217 68.3954 333.418 62.1985 333.418 54.5541C333.418 46.9098 327.217 40.7129 319.567 40.7129C311.917 40.7129 305.716 46.9098 305.716 54.5541C305.716 62.1985 311.917 68.3954 319.567 68.3954Z" fill="white"/>
<path d="M319.567 69.1105C311.536 69.1105 305 62.5817 305 54.5542C305 46.5267 311.534 40 319.567 40C327.6 40 334.134 46.5288 334.134 54.5542C334.134 62.5796 327.6 69.1105 319.567 69.1105ZM319.567 41.4301C312.324 41.4301 306.431 47.3187 306.431 54.5542C306.431 61.7897 312.324 67.6804 319.567 67.6804C326.81 67.6804 332.703 61.7918 332.703 54.5542C332.703 47.3166 326.81 41.4301 319.567 41.4301Z" fill="#1A1A1A"/>
<path d="M305.718 54.554C305.718 62.1969 311.918 68.3953 319.569 68.3953V40.7148C311.92 40.7148 305.718 46.9111 305.718 54.5561V54.554Z" fill="#1A1A1A"/>
<path d="M362.365 68.3954C370.015 68.3954 376.216 62.1985 376.216 54.5541C376.216 46.9098 370.015 40.7129 362.365 40.7129C354.715 40.7129 348.514 46.9098 348.514 54.5541C348.514 62.1985 354.715 68.3954 362.365 68.3954Z" fill="white"/>
<path d="M362.365 69.1105C354.334 69.1105 347.798 62.5817 347.798 54.5542C347.798 46.5267 354.332 40 362.365 40C370.398 40 376.93 46.5288 376.93 54.5542C376.93 62.5796 370.396 69.1105 362.365 69.1105ZM362.365 41.4301C355.122 41.4301 349.229 47.3187 349.229 54.5542C349.229 61.7897 355.122 67.6804 362.365 67.6804C369.608 67.6804 375.501 61.7918 375.501 54.5542C375.501 47.3166 369.608 41.4301 362.365 41.4301Z" fill="#1A1A1A"/>
<path d="M348.514 54.554C348.514 62.1969 354.714 68.3953 362.365 68.3953V40.7148C354.716 40.7148 348.514 46.9111 348.514 54.5561V54.554Z" fill="#1A1A1A"/>
<rect x="1" y="1" width="220" height="152" rx="15" fill="#FFE57B" stroke="#1A1A1A" stroke-width="2"/>
<rect x="107.108" y="54" width="17" height="17" rx="8.5" fill="#FC5B03"/>
<rect x="107.108" y="54" width="17" height="17" rx="8.5" stroke="#1A1A1A" stroke-width="2"/>
<mask id="path-19-inside-2_1_1012" fill="white">
<path d="M95.1084 62C95.1084 59.3736 95.6257 56.7728 96.6308 54.3463C97.6359 51.9198 99.1091 49.715 100.966 47.8579C102.823 46.0007 105.028 44.5275 107.455 43.5224C109.881 42.5173 112.482 42 115.108 42C117.735 42 120.336 42.5173 122.762 43.5224C125.189 44.5275 127.393 46.0007 129.251 47.8579C131.108 49.715 132.581 51.9198 133.586 54.3463C134.591 56.7729 135.108 59.3736 135.108 62L128.097 62C128.097 60.2944 127.761 58.6054 127.108 57.0296C126.455 55.4538 125.499 54.022 124.293 52.8159C123.086 51.6098 121.655 50.6531 120.079 50.0004C118.503 49.3477 116.814 49.0117 115.108 49.0117C113.403 49.0117 111.714 49.3477 110.138 50.0004C108.562 50.6531 107.13 51.6098 105.924 52.8159C104.718 54.022 103.762 55.4538 103.109 57.0296C102.456 58.6054 102.12 60.2944 102.12 62L95.1084 62Z"/>
</mask>
<path d="M95.1084 62C95.1084 59.3736 95.6257 56.7728 96.6308 54.3463C97.6359 51.9198 99.1091 49.715 100.966 47.8579C102.823 46.0007 105.028 44.5275 107.455 43.5224C109.881 42.5173 112.482 42 115.108 42C117.735 42 120.336 42.5173 122.762 43.5224C125.189 44.5275 127.393 46.0007 129.251 47.8579C131.108 49.715 132.581 51.9198 133.586 54.3463C134.591 56.7729 135.108 59.3736 135.108 62L128.097 62C128.097 60.2944 127.761 58.6054 127.108 57.0296C126.455 55.4538 125.499 54.022 124.293 52.8159C123.086 51.6098 121.655 50.6531 120.079 50.0004C118.503 49.3477 116.814 49.0117 115.108 49.0117C113.403 49.0117 111.714 49.3477 110.138 50.0004C108.562 50.6531 107.13 51.6098 105.924 52.8159C104.718 54.022 103.762 55.4538 103.109 57.0296C102.456 58.6054 102.12 60.2944 102.12 62L95.1084 62Z" fill="#FC5B03" stroke="#1A1A1A" stroke-width="4" mask="url(#path-19-inside-2_1_1012)"/>
<mask id="path-20-inside-3_1_1012" fill="white">
<path d="M83.1084 61C83.1084 56.929 83.9361 52.8979 85.5443 49.1368C87.1524 45.3757 89.5095 41.9583 92.481 39.0797C95.4525 36.2011 98.9801 33.9176 102.863 32.3597C106.745 30.8018 110.906 30 115.108 30C119.311 30 123.472 30.8018 127.354 32.3597C131.237 33.9176 134.764 36.2011 137.736 39.0797C140.707 41.9583 143.064 45.3757 144.673 49.1368C146.281 52.8979 147.108 56.929 147.108 61L140.331 61C140.331 57.7912 139.679 54.6138 138.412 51.6492C137.144 48.6846 135.286 45.9909 132.944 43.722C130.602 41.453 127.821 39.6531 124.761 38.4251C121.701 37.1972 118.421 36.5651 115.108 36.5651C111.796 36.5651 108.516 37.1972 105.456 38.4251C102.396 39.6531 99.6152 41.4529 97.273 43.7219C94.9308 45.9909 93.0729 48.6846 91.8053 51.6492C90.5377 54.6138 89.8853 57.7912 89.8853 61L83.1084 61Z"/>
</mask>
<path d="M83.1084 61C83.1084 56.929 83.9361 52.8979 85.5443 49.1368C87.1524 45.3757 89.5095 41.9583 92.481 39.0797C95.4525 36.2011 98.9801 33.9176 102.863 32.3597C106.745 30.8018 110.906 30 115.108 30C119.311 30 123.472 30.8018 127.354 32.3597C131.237 33.9176 134.764 36.2011 137.736 39.0797C140.707 41.9583 143.064 45.3757 144.673 49.1368C146.281 52.8979 147.108 56.929 147.108 61L140.331 61C140.331 57.7912 139.679 54.6138 138.412 51.6492C137.144 48.6846 135.286 45.9909 132.944 43.722C130.602 41.453 127.821 39.6531 124.761 38.4251C121.701 37.1972 118.421 36.5651 115.108 36.5651C111.796 36.5651 108.516 37.1972 105.456 38.4251C102.396 39.6531 99.6152 41.4529 97.273 43.7219C94.9308 45.9909 93.0729 48.6846 91.8053 51.6492C90.5377 54.6138 89.8853 57.7912 89.8853 61L83.1084 61Z" fill="#FC5B03" stroke="#1A1A1A" stroke-width="4" mask="url(#path-20-inside-3_1_1012)"/>
<path d="M31.9141 106.38V94.86C31.9141 94.34 32.2741 94 32.8141 94H33.2141C33.8541 94 34.0141 94.24 34.2741 94.84L37.7741 102.16L41.2741 94.84C41.5141 94.22 41.7141 94 42.2941 94H42.6741C43.2541 94 43.5941 94.34 43.5941 94.86V106.38C43.5941 106.82 43.4141 107.06 42.9741 107.06H42.7941C42.3741 107.06 42.1741 106.82 42.1741 106.38V102.86L42.1941 95.82L38.7741 102.98C38.5941 103.42 38.3941 103.7 37.7541 103.7C37.0741 103.7 36.9141 103.42 36.7141 102.98L33.3141 95.84L33.3341 102.82V106.38C33.3341 106.82 33.1541 107.06 32.7141 107.06H32.4941C32.0741 107.06 31.9141 106.82 31.9141 106.38ZM45.763 102.28C45.763 99.38 47.743 97.24 50.483 97.24C53.143 97.24 54.863 99.12 54.863 101.94V102.08C54.863 102.42 54.723 102.54 54.363 102.54H47.143C47.143 102.62 47.143 102.72 47.163 102.82C47.343 104.74 48.723 106.02 50.643 106.02C52.423 106.02 53.263 105.18 53.743 104.26C53.823 104.22 54.563 104.38 54.563 105.02C54.563 105.32 54.323 105.78 53.803 106.2C53.203 106.72 52.103 107.22 50.623 107.22C47.723 107.22 45.763 105.2 45.763 102.28ZM53.443 101.5C53.363 99.64 52.223 98.4 50.483 98.4C48.743 98.4 47.443 99.68 47.183 101.5H53.443ZM57.5522 107.06C57.1722 107.06 56.9122 106.9 56.9122 106.38V93.52C56.9122 93.46 57.1522 93.36 57.4322 93.36C57.8922 93.36 58.3522 93.6 58.3522 94.64V106.38C58.3522 106.9 58.0922 107.06 57.7122 107.06H57.5522ZM65.691 97.24C68.171 97.24 69.371 98.94 69.371 101.4V106.38C69.371 106.9 69.111 107.06 68.751 107.06H68.571C68.191 107.06 67.931 106.9 67.931 106.38V101.5C67.931 99.66 67.031 98.54 65.411 98.54C63.711 98.54 62.491 99.7 62.471 101.48V106.38C62.471 106.9 62.211 107.06 61.851 107.06H61.671C61.291 107.06 61.031 106.9 61.031 106.38V93.52C61.031 93.46 61.271 93.36 61.551 93.36C62.011 93.36 62.471 93.6 62.471 94.64V99.2C63.071 98.02 64.191 97.24 65.691 97.24ZM71.2513 102.22C71.2513 99.32 73.2513 97.24 76.1113 97.24C78.9313 97.24 80.9313 99.34 80.9313 102.26C80.9313 105.14 78.9313 107.22 76.0913 107.22C73.2313 107.22 71.2513 105.12 71.2513 102.22ZM79.5313 102.26C79.5313 100.06 78.1113 98.46 76.1113 98.46C74.1113 98.46 72.6513 100.02 72.6513 102.22C72.6513 104.42 74.1113 106 76.1113 106C78.0913 106 79.5313 104.44 79.5313 102.26ZM86.786 97.24C87.646 97.24 88.206 97.66 88.206 98.28C88.206 98.86 87.806 99.1 87.766 99.06C87.526 98.82 87.146 98.66 86.626 98.66C85.066 98.66 84.346 100.2 84.346 102.6V106.38C84.346 106.88 84.086 107.06 83.726 107.06H83.566C83.166 107.06 82.906 106.9 82.906 106.38V97.54C82.906 97.5 83.126 97.38 83.426 97.38C83.826 97.38 84.186 97.58 84.266 98.34C84.286 98.68 84.306 99.02 84.306 99.38C84.686 97.94 85.566 97.24 86.786 97.24ZM89.0052 104.54C89.0052 102.38 91.0452 101.46 95.5452 101.4H95.7652V101C95.7652 99.38 94.8252 98.48 93.1852 98.48C91.6652 98.48 90.7452 99.22 90.2652 100.18C90.2252 100.2 89.3852 100.16 89.3852 99.44C89.3852 99.16 89.5852 98.74 89.9652 98.38C90.5852 97.78 91.6852 97.24 93.2652 97.24C95.8052 97.24 97.1852 98.66 97.1852 101.02V106.92C97.1852 106.98 96.9252 107.08 96.6652 107.08C96.2452 107.08 95.9052 106.88 95.8252 106.16C95.8052 105.88 95.7852 105.58 95.7852 105.28C95.1452 106.44 93.8452 107.2 92.2452 107.2C90.2452 107.2 89.0052 106.16 89.0052 104.54ZM95.7652 103.26V102.34L95.4252 102.36C91.9452 102.44 90.4452 103.04 90.4452 104.5C90.4452 105.5 91.2452 106.12 92.5252 106.12C94.3652 106.12 95.7652 104.88 95.7652 103.26ZM102.482 104.54C102.482 102.38 104.522 101.46 109.022 101.4H109.242V101C109.242 99.38 108.302 98.48 106.662 98.48C105.142 98.48 104.222 99.22 103.742 100.18C103.702 100.2 102.862 100.16 102.862 99.44C102.862 99.16 103.062 98.74 103.442 98.38C104.062 97.78 105.162 97.24 106.742 97.24C109.282 97.24 110.662 98.66 110.662 101.02V106.92C110.662 106.98 110.402 107.08 110.142 107.08C109.722 107.08 109.382 106.88 109.302 106.16C109.282 105.88 109.262 105.58 109.262 105.28C108.622 106.44 107.322 107.2 105.722 107.2C103.722 107.2 102.482 106.16 102.482 104.54ZM109.242 103.26V102.34L108.902 102.36C105.422 102.44 103.922 103.04 103.922 104.5C103.922 105.5 104.722 106.12 106.002 106.12C107.842 106.12 109.242 104.88 109.242 103.26ZM127.478 97.24C129.818 97.24 131.018 98.74 131.018 101.26V106.38C131.018 106.9 130.758 107.06 130.378 107.06H130.218C129.838 107.06 129.578 106.9 129.578 106.38V101.38C129.578 99.54 128.758 98.52 127.178 98.52C126.058 98.52 124.978 99.24 124.518 100.42V106.38C124.518 106.9 124.238 107.06 123.878 107.06H123.718C123.338 107.06 123.078 106.9 123.078 106.38V101.26C123.078 99.52 122.278 98.52 120.678 98.52C119.578 98.52 118.498 99.24 117.998 100.42V106.38C117.998 106.9 117.738 107.06 117.378 107.06H117.198C116.838 107.06 116.558 106.9 116.558 106.38V97.54C116.558 97.5 116.798 97.38 117.078 97.38C117.518 97.38 117.918 97.6 117.958 98.56L117.978 99.04C118.598 97.98 119.678 97.24 120.998 97.24C122.618 97.24 123.698 98.06 124.158 99.36C124.738 98.12 125.898 97.24 127.478 97.24ZM132.892 102.28C132.892 99.38 134.872 97.24 137.612 97.24C140.272 97.24 141.992 99.12 141.992 101.94V102.08C141.992 102.42 141.852 102.54 141.492 102.54H134.272C134.272 102.62 134.272 102.72 134.292 102.82C134.472 104.74 135.852 106.02 137.772 106.02C139.552 106.02 140.392 105.18 140.872 104.26C140.952 104.22 141.692 104.38 141.692 105.02C141.692 105.32 141.452 105.78 140.932 106.2C140.332 106.72 139.232 107.22 137.752 107.22C134.852 107.22 132.892 105.2 132.892 102.28ZM140.572 101.5C140.492 99.64 139.352 98.4 137.612 98.4C135.872 98.4 134.572 99.68 134.312 101.5H140.572ZM154.861 97.24C157.201 97.24 158.401 98.74 158.401 101.26V106.38C158.401 106.9 158.141 107.06 157.761 107.06H157.601C157.221 107.06 156.961 106.9 156.961 106.38V101.38C156.961 99.54 156.141 98.52 154.561 98.52C153.441 98.52 152.361 99.24 151.901 100.42V106.38C151.901 106.9 151.621 107.06 151.261 107.06H151.101C150.721 107.06 150.461 106.9 150.461 106.38V101.26C150.461 99.52 149.661 98.52 148.061 98.52C146.961 98.52 145.881 99.24 145.381 100.42V106.38C145.381 106.9 145.121 107.06 144.761 107.06H144.581C144.221 107.06 143.941 106.9 143.941 106.38V97.54C143.941 97.5 144.181 97.38 144.461 97.38C144.901 97.38 145.301 97.6 145.341 98.56L145.361 99.04C145.981 97.98 147.061 97.24 148.381 97.24C150.001 97.24 151.081 98.06 151.541 99.36C152.121 98.12 153.281 97.24 154.861 97.24ZM163.735 96.02C163.595 96.02 163.555 95.98 163.555 95.94C163.555 95.74 165.415 92.72 166.595 92.72C166.955 92.72 167.215 93 167.215 93.36C167.215 94.5 163.935 96.02 163.735 96.02ZM160.275 102.22C160.275 99.32 162.275 97.24 165.135 97.24C167.955 97.24 169.955 99.34 169.955 102.26C169.955 105.14 167.955 107.22 165.115 107.22C162.255 107.22 160.275 105.12 160.275 102.22ZM168.555 102.26C168.555 100.06 167.135 98.46 165.135 98.46C163.135 98.46 161.675 100.02 161.675 102.22C161.675 104.42 163.135 106 165.135 106C167.115 106 168.555 104.44 168.555 102.26ZM175.809 97.24C176.669 97.24 177.229 97.66 177.229 98.28C177.229 98.86 176.829 99.1 176.789 99.06C176.549 98.82 176.169 98.66 175.649 98.66C174.089 98.66 173.369 100.2 173.369 102.6V106.38C173.369 106.88 173.109 107.06 172.749 107.06H172.589C172.189 107.06 171.929 106.9 171.929 106.38V97.54C171.929 97.5 172.149 97.38 172.449 97.38C172.849 97.38 173.209 97.58 173.289 98.34C173.309 98.68 173.329 99.02 173.329 99.38C173.709 97.94 174.589 97.24 175.809 97.24ZM178.705 94.46C178.705 93.86 179.045 93.54 179.625 93.54C180.205 93.54 180.545 93.86 180.545 94.46C180.545 95.04 180.185 95.36 179.605 95.36C179.045 95.36 178.705 95.04 178.705 94.46ZM178.885 106.38V98.08C178.885 97.56 179.145 97.38 179.525 97.38H179.685C180.065 97.38 180.325 97.54 180.325 98.08V106.38C180.325 106.9 180.065 107.06 179.685 107.06H179.525C179.145 107.06 178.885 106.9 178.885 106.38ZM182.384 104.54C182.384 102.38 184.424 101.46 188.924 101.4H189.144V101C189.144 99.38 188.204 98.48 186.564 98.48C185.044 98.48 184.124 99.22 183.644 100.18C183.604 100.2 182.764 100.16 182.764 99.44C182.764 99.16 182.964 98.74 183.344 98.38C183.964 97.78 185.064 97.24 186.644 97.24C189.184 97.24 190.564 98.66 190.564 101.02V106.92C190.564 106.98 190.304 107.08 190.044 107.08C189.624 107.08 189.284 106.88 189.204 106.16C189.184 105.88 189.164 105.58 189.164 105.28C188.524 106.44 187.224 107.2 185.624 107.2C183.624 107.2 182.384 106.16 182.384 104.54ZM189.144 103.26V102.34L188.804 102.36C185.324 102.44 183.824 103.04 183.824 104.5C183.824 105.5 184.624 106.12 185.904 106.12C187.744 106.12 189.144 104.88 189.144 103.26ZM44.5618 127.28C44.5618 124.38 46.5418 122.24 49.2818 122.24C51.9418 122.24 53.6618 124.12 53.6618 126.94V127.08C53.6618 127.42 53.5218 127.54 53.1618 127.54H45.9418C45.9418 127.62 45.9418 127.72 45.9618 127.82C46.1418 129.74 47.5218 131.02 49.4418 131.02C51.2218 131.02 52.0618 130.18 52.5418 129.26C52.6218 129.22 53.3618 129.38 53.3618 130.02C53.3618 130.32 53.1218 130.78 52.6018 131.2C52.0018 131.72 50.9018 132.22 49.4218 132.22C46.5218 132.22 44.5618 130.2 44.5618 127.28ZM52.2418 126.5C52.1618 124.64 51.0218 123.4 49.2818 123.4C47.5418 123.4 46.2418 124.68 45.9818 126.5H52.2418ZM58.429 127.22C58.429 124.32 60.429 122.24 63.289 122.24C66.109 122.24 68.109 124.34 68.109 127.26C68.109 130.14 66.109 132.22 63.269 132.22C60.409 132.22 58.429 130.12 58.429 127.22ZM66.709 127.26C66.709 125.06 65.289 123.46 63.289 123.46C61.289 123.46 59.829 125.02 59.829 127.22C59.829 129.42 61.289 131 63.289 131C65.269 131 66.709 129.44 66.709 127.26ZM72.9017 129.54C72.9017 127.38 74.9417 126.46 79.4417 126.4H79.6617V126C79.6617 124.38 78.7217 123.48 77.0817 123.48C75.5617 123.48 74.6417 124.22 74.1617 125.18C74.1217 125.2 73.2817 125.16 73.2817 124.44C73.2817 124.16 73.4817 123.74 73.8617 123.38C74.4817 122.78 75.5817 122.24 77.1617 122.24C79.7017 122.24 81.0817 123.66 81.0817 126.02V131.92C81.0817 131.98 80.8217 132.08 80.5617 132.08C80.1417 132.08 79.8017 131.88 79.7217 131.16C79.7017 130.88 79.6817 130.58 79.6817 130.28C79.0417 131.44 77.7417 132.2 76.1417 132.2C74.1417 132.2 72.9017 131.16 72.9017 129.54ZM79.6617 128.26V127.34L79.3217 127.36C75.8417 127.44 74.3417 128.04 74.3417 129.5C74.3417 130.5 75.1417 131.12 76.4217 131.12C78.2617 131.12 79.6617 129.88 79.6617 128.26ZM88.4803 122.24C90.9803 122.24 92.8803 124.22 92.8803 127.2C92.8803 130.18 91.0203 132.22 88.4403 132.22C86.7003 132.22 85.5003 131.26 85.0003 130.22V135.18C85.0003 135.68 84.7403 135.86 84.3803 135.86H84.2203C83.8403 135.86 83.5803 135.68 83.5803 135.18V122.54C83.5803 122.5 83.8003 122.38 84.0803 122.38C84.5003 122.38 84.9003 122.62 84.9603 123.46C84.9603 123.7 84.9803 124.02 84.9803 124.28C85.6803 123.04 86.8203 122.24 88.4803 122.24ZM88.1803 131C90.1403 131 91.4603 129.48 91.4603 127.22C91.4603 125 90.0803 123.46 88.2203 123.46C86.6203 123.46 85.5203 124.38 84.9803 125.76V127.88C84.9803 129.64 86.4203 131 88.1803 131ZM98.7293 122.24C99.5893 122.24 100.149 122.66 100.149 123.28C100.149 123.86 99.7493 124.1 99.7093 124.06C99.4693 123.82 99.0893 123.66 98.5693 123.66C97.0093 123.66 96.2893 125.2 96.2893 127.6V131.38C96.2893 131.88 96.0293 132.06 95.6693 132.06H95.5093C95.1093 132.06 94.8493 131.9 94.8493 131.38V122.54C94.8493 122.5 95.0693 122.38 95.3693 122.38C95.7693 122.38 96.1293 122.58 96.2093 123.34C96.2293 123.68 96.2493 124.02 96.2493 124.38C96.6293 122.94 97.5093 122.24 98.7293 122.24ZM100.636 127.28C100.636 124.38 102.616 122.24 105.356 122.24C108.016 122.24 109.736 124.12 109.736 126.94V127.08C109.736 127.42 109.596 127.54 109.236 127.54H102.016C102.016 127.62 102.016 127.72 102.036 127.82C102.216 129.74 103.596 131.02 105.516 131.02C107.296 131.02 108.136 130.18 108.616 129.26C108.696 129.22 109.436 129.38 109.436 130.02C109.436 130.32 109.196 130.78 108.676 131.2C108.076 131.72 106.976 132.22 105.496 132.22C102.596 132.22 100.636 130.2 100.636 127.28ZM108.316 126.5C108.236 124.64 107.096 123.4 105.356 123.4C103.616 123.4 102.316 124.68 102.056 126.5H108.316ZM116.365 122.24C118.825 122.24 120.025 123.94 120.025 126.38V131.38C120.025 131.9 119.765 132.06 119.405 132.06H119.225C118.845 132.06 118.585 131.9 118.585 131.38V126.5C118.585 124.66 117.705 123.52 116.085 123.52C114.685 123.52 113.645 124.3 113.125 125.44V131.38C113.125 131.9 112.865 132.06 112.505 132.06H112.325C111.945 132.06 111.685 131.9 111.685 131.38V122.54C111.685 122.5 111.925 122.38 112.205 122.38C112.645 122.38 113.045 122.6 113.085 123.58V124.14C113.725 123 114.845 122.24 116.365 122.24ZM126.306 132.22C123.786 132.22 121.906 130.22 121.906 127.22C121.906 124.26 123.786 122.24 126.346 122.24C128.046 122.24 129.246 123.1 129.786 124.08V118.52C129.786 118.46 130.006 118.36 130.286 118.36C130.766 118.36 131.226 118.6 131.226 119.64V131.38C131.226 131.9 130.966 132.06 130.586 132.06H130.446C130.086 132.06 129.826 131.9 129.826 131.42C129.806 131.02 129.806 130.62 129.806 130.18C129.126 131.4 127.986 132.22 126.306 132.22ZM129.786 127.88V125.74C129.266 124.36 128.206 123.46 126.586 123.46C124.666 123.46 123.346 124.96 123.346 127.22C123.346 129.44 124.686 131 126.566 131C128.346 131 129.786 129.66 129.786 127.88ZM133.734 119.46C133.734 118.86 134.074 118.54 134.654 118.54C135.234 118.54 135.574 118.86 135.574 119.46C135.574 120.04 135.214 120.36 134.634 120.36C134.074 120.36 133.734 120.04 133.734 119.46ZM133.914 131.38V123.08C133.914 122.56 134.174 122.38 134.554 122.38H134.714C135.094 122.38 135.354 122.54 135.354 123.08V131.38C135.354 131.9 135.094 132.06 134.714 132.06H134.554C134.174 132.06 133.914 131.9 133.914 131.38ZM137.433 131.42V131.28C137.433 130.98 137.553 130.8 137.893 130.38L143.293 123.66H138.133C137.673 123.66 137.473 123.48 137.473 123.12V122.98C137.473 122.64 137.673 122.46 138.133 122.46H144.493C144.973 122.46 145.133 122.72 145.133 123.02V123.12C145.133 123.38 145.013 123.56 144.693 123.98L139.193 130.8H144.613C145.093 130.8 145.293 130.98 145.293 131.34V131.46C145.293 131.82 145.093 132 144.613 132H138.073C137.613 132 137.433 131.74 137.433 131.42ZM146.613 129.54C146.613 127.38 148.653 126.46 153.153 126.4H153.373V126C153.373 124.38 152.433 123.48 150.793 123.48C149.273 123.48 148.353 124.22 147.873 125.18C147.833 125.2 146.993 125.16 146.993 124.44C146.993 124.16 147.193 123.74 147.573 123.38C148.193 122.78 149.293 122.24 150.873 122.24C153.413 122.24 154.793 123.66 154.793 126.02V131.92C154.793 131.98 154.533 132.08 154.273 132.08C153.853 132.08 153.513 131.88 153.433 131.16C153.413 130.88 153.393 130.58 153.393 130.28C152.753 131.44 151.453 132.2 149.853 132.2C147.853 132.2 146.613 131.16 146.613 129.54ZM153.373 128.26V127.34L153.033 127.36C149.553 127.44 148.053 128.04 148.053 129.5C148.053 130.5 148.853 131.12 150.133 131.12C151.973 131.12 153.373 129.88 153.373 128.26ZM161.071 132.22C158.551 132.22 156.671 130.22 156.671 127.22C156.671 124.26 158.551 122.24 161.111 122.24C162.811 122.24 164.011 123.1 164.551 124.08V118.52C164.551 118.46 164.771 118.36 165.051 118.36C165.531 118.36 165.991 118.6 165.991 119.64V131.38C165.991 131.9 165.731 132.06 165.351 132.06H165.211C164.851 132.06 164.591 131.9 164.591 131.42C164.571 131.02 164.571 130.62 164.571 130.18C163.891 131.4 162.751 132.22 161.071 132.22ZM164.551 127.88V125.74C164.031 124.36 162.971 123.46 161.351 123.46C159.431 123.46 158.111 124.96 158.111 127.22C158.111 129.44 159.451 131 161.331 131C163.111 131 164.551 129.66 164.551 127.88ZM167.96 127.22C167.96 124.32 169.96 122.24 172.82 122.24C175.64 122.24 177.64 124.34 177.64 127.26C177.64 130.14 175.64 132.22 172.8 132.22C169.94 132.22 167.96 130.12 167.96 127.22ZM176.24 127.26C176.24 125.06 174.82 123.46 172.82 123.46C170.82 123.46 169.36 125.02 169.36 127.22C169.36 129.42 170.82 131 172.82 131C174.8 131 176.24 129.44 176.24 127.26Z" fill="#1A1A1A"/>
</svg>
