<svg width="453" height="316" viewBox="0 0 453 316" fill="none" xmlns="http://www.w3.org/2000/svg">
<rect width="222" height="154" transform="translate(230 162)" fill="#9DC8FF"/>
<rect x="230.892" y="163" width="220" height="152" rx="15" stroke="#1A1A1A" stroke-width="2"/>
<path d="M339.545 198.203L339.295 199.008L340.045 199.391L365.177 212.224L332.53 238.724L341.423 217.385L341.77 216.554L340.979 216.122L314.886 201.89L345.047 180.524L339.545 198.203Z" fill="#FD86CD" stroke="#1A1A1A" stroke-width="2"/>
<path d="M257.548 268.38V256.86C257.548 256.34 257.908 256 258.448 256H258.848C259.488 256 259.648 256.24 259.908 256.84L263.408 264.16L266.908 256.84C267.148 256.22 267.348 256 267.928 256H268.308C268.888 256 269.228 256.34 269.228 256.86V268.38C269.228 268.82 269.048 269.06 268.608 269.06H268.428C268.008 269.06 267.808 268.82 267.808 268.38V264.86L267.828 257.82L264.408 264.98C264.228 265.42 264.028 265.7 263.388 265.7C262.708 265.7 262.548 265.42 262.348 264.98L258.948 257.84L258.968 264.82V268.38C258.968 268.82 258.788 269.06 258.348 269.06H258.128C257.708 269.06 257.548 268.82 257.548 268.38ZM271.397 266.54C271.397 264.38 273.437 263.46 277.937 263.4H278.157V263C278.157 261.38 277.217 260.48 275.577 260.48C274.057 260.48 273.137 261.22 272.657 262.18C272.617 262.2 271.777 262.16 271.777 261.44C271.777 261.16 271.977 260.74 272.357 260.38C272.977 259.78 274.077 259.24 275.657 259.24C278.197 259.24 279.577 260.66 279.577 263.02V268.92C279.577 268.98 279.317 269.08 279.057 269.08C278.637 269.08 278.297 268.88 278.217 268.16C278.197 267.88 278.177 267.58 278.177 267.28C277.537 268.44 276.237 269.2 274.637 269.2C272.637 269.2 271.397 268.16 271.397 266.54ZM278.157 265.26V264.34L277.817 264.36C274.337 264.44 272.837 265.04 272.837 266.5C272.837 267.5 273.637 268.12 274.917 268.12C276.757 268.12 278.157 266.88 278.157 265.26ZM281.975 256.46C281.975 255.86 282.315 255.54 282.895 255.54C283.475 255.54 283.815 255.86 283.815 256.46C283.815 257.04 283.455 257.36 282.875 257.36C282.315 257.36 281.975 257.04 281.975 256.46ZM282.155 268.38V260.08C282.155 259.56 282.415 259.38 282.795 259.38H282.955C283.335 259.38 283.595 259.54 283.595 260.08V268.38C283.595 268.9 283.335 269.06 282.955 269.06H282.795C282.415 269.06 282.155 268.9 282.155 268.38ZM286.115 268.22C285.715 267.88 285.535 267.56 285.535 267.26C285.535 266.76 286.095 266.54 286.155 266.56C286.755 267.42 287.835 268.06 289.395 268.06C290.895 268.06 291.775 267.42 291.775 266.48C291.775 265.36 290.735 265.14 289.115 264.78C287.655 264.48 285.815 264.06 285.815 262.12C285.815 260.42 287.235 259.24 289.435 259.24C290.975 259.24 292.015 259.74 292.555 260.32C292.775 260.54 292.915 260.84 292.915 261.08C292.915 261.58 292.335 261.84 292.295 261.8C291.775 261 290.735 260.38 289.455 260.38C287.995 260.38 287.155 261.04 287.155 261.96C287.155 263 288.155 263.24 289.735 263.6C291.295 263.94 293.175 264.36 293.175 266.32C293.175 268.06 291.715 269.22 289.375 269.22C287.815 269.22 286.735 268.76 286.115 268.22ZM302.379 269.22C299.859 269.22 297.979 267.22 297.979 264.22C297.979 261.26 299.859 259.24 302.419 259.24C304.119 259.24 305.319 260.1 305.859 261.08V255.52C305.859 255.46 306.079 255.36 306.359 255.36C306.839 255.36 307.299 255.6 307.299 256.64V268.38C307.299 268.9 307.039 269.06 306.659 269.06H306.519C306.159 269.06 305.899 268.9 305.899 268.42C305.879 268.02 305.879 267.62 305.879 267.18C305.199 268.4 304.059 269.22 302.379 269.22ZM305.859 264.88V262.74C305.339 261.36 304.279 260.46 302.659 260.46C300.739 260.46 299.419 261.96 299.419 264.22C299.419 266.44 300.759 268 302.639 268C304.419 268 305.859 266.66 305.859 264.88ZM309.807 256.46C309.807 255.86 310.147 255.54 310.727 255.54C311.307 255.54 311.647 255.86 311.647 256.46C311.647 257.04 311.287 257.36 310.707 257.36C310.147 257.36 309.807 257.04 309.807 256.46ZM309.987 268.38V260.08C309.987 259.56 310.247 259.38 310.627 259.38H310.787C311.167 259.38 311.427 259.54 311.427 260.08V268.38C311.427 268.9 311.167 269.06 310.787 269.06H310.627C310.247 269.06 309.987 268.9 309.987 268.38ZM313.947 268.22C313.547 267.88 313.367 267.56 313.367 267.26C313.367 266.76 313.927 266.54 313.987 266.56C314.587 267.42 315.667 268.06 317.227 268.06C318.727 268.06 319.607 267.42 319.607 266.48C319.607 265.36 318.567 265.14 316.947 264.78C315.487 264.48 313.647 264.06 313.647 262.12C313.647 260.42 315.067 259.24 317.267 259.24C318.807 259.24 319.847 259.74 320.387 260.32C320.607 260.54 320.747 260.84 320.747 261.08C320.747 261.58 320.167 261.84 320.127 261.8C319.607 261 318.567 260.38 317.287 260.38C315.827 260.38 314.987 261.04 314.987 261.96C314.987 263 315.987 263.24 317.567 263.6C319.127 263.94 321.007 264.36 321.007 266.32C321.007 268.06 319.547 269.22 317.207 269.22C315.647 269.22 314.567 268.76 313.947 268.22ZM327.913 259.24C330.413 259.24 332.313 261.22 332.313 264.2C332.313 267.18 330.453 269.22 327.873 269.22C326.133 269.22 324.933 268.26 324.433 267.22V272.18C324.433 272.68 324.173 272.86 323.813 272.86H323.653C323.273 272.86 323.013 272.68 323.013 272.18V259.54C323.013 259.5 323.233 259.38 323.513 259.38C323.933 259.38 324.333 259.62 324.393 260.46C324.393 260.7 324.413 261.02 324.413 261.28C325.113 260.04 326.253 259.24 327.913 259.24ZM327.613 268C329.573 268 330.893 266.48 330.893 264.22C330.893 262 329.513 260.46 327.653 260.46C326.053 260.46 324.953 261.38 324.413 262.76V264.88C324.413 266.64 325.853 268 327.613 268ZM333.682 264.22C333.682 261.32 335.682 259.24 338.542 259.24C341.362 259.24 343.362 261.34 343.362 264.26C343.362 267.14 341.362 269.22 338.522 269.22C335.662 269.22 333.682 267.12 333.682 264.22ZM341.962 264.26C341.962 262.06 340.542 260.46 338.542 260.46C336.542 260.46 335.082 262.02 335.082 264.22C335.082 266.42 336.542 268 338.542 268C340.522 268 341.962 266.44 341.962 264.26ZM345.197 268.22C344.797 267.88 344.617 267.56 344.617 267.26C344.617 266.76 345.177 266.54 345.237 266.56C345.837 267.42 346.917 268.06 348.477 268.06C349.977 268.06 350.857 267.42 350.857 266.48C350.857 265.36 349.817 265.14 348.197 264.78C346.737 264.48 344.897 264.06 344.897 262.12C344.897 260.42 346.317 259.24 348.517 259.24C350.057 259.24 351.097 259.74 351.637 260.32C351.857 260.54 351.997 260.84 351.997 261.08C351.997 261.58 351.417 261.84 351.377 261.8C350.857 261 349.817 260.38 348.537 260.38C347.077 260.38 346.237 261.04 346.237 261.96C346.237 263 347.237 263.24 348.817 263.6C350.377 263.94 352.257 264.36 352.257 266.32C352.257 268.06 350.797 269.22 348.457 269.22C346.897 269.22 345.817 268.76 345.197 268.22ZM354.163 256.46C354.163 255.86 354.503 255.54 355.083 255.54C355.663 255.54 356.003 255.86 356.003 256.46C356.003 257.04 355.643 257.36 355.063 257.36C354.503 257.36 354.163 257.04 354.163 256.46ZM354.343 268.38V260.08C354.343 259.56 354.603 259.38 354.983 259.38H355.143C355.523 259.38 355.783 259.54 355.783 260.08V268.38C355.783 268.9 355.523 269.06 355.143 269.06H354.983C354.603 269.06 354.343 268.9 354.343 268.38ZM362.102 273.4C360.882 273.4 360.162 272.62 360.162 272.06C360.162 271.66 360.342 271.48 360.662 271.44C360.842 271.68 361.282 272.22 361.962 272.22C362.582 272.22 363.142 271.94 363.142 271.14C363.142 270.32 362.142 269.38 361.302 269.04C359.222 268.5 357.842 266.64 357.842 264.2C357.842 261.34 359.842 259.24 362.662 259.24C364.162 259.24 365.202 259.78 365.842 260.4C366.382 260.9 366.622 261.48 366.622 261.84C366.622 262.48 365.762 262.6 365.702 262.52C365.282 261.42 364.422 260.48 362.682 260.48C360.682 260.48 359.262 262.04 359.262 264.2C359.262 266.4 360.662 267.98 362.682 267.98C364.402 267.98 365.282 267.04 365.702 265.94C365.742 265.86 366.622 265.96 366.622 266.64C366.622 266.96 366.402 267.5 365.882 268.02C365.382 268.52 364.662 268.96 363.662 269.14C363.422 269.18 363.182 269.2 362.922 269.2C363.642 269.68 364.322 270.5 364.322 271.5C364.322 272.86 363.182 273.4 362.102 273.4ZM369.901 257.68C369.721 257.68 369.581 257.62 369.441 257.5C369.381 257.38 369.381 257.18 369.381 257C369.481 256.04 370.041 255.26 370.921 255.26C371.521 255.26 371.961 255.6 372.361 255.94C372.801 256.34 373.101 256.6 373.441 256.78C374.021 256.52 373.981 255.38 374.541 255.38C374.721 255.38 374.881 255.44 374.981 255.54C375.041 255.7 375.061 255.9 375.061 256.08C374.961 257.04 374.401 257.78 373.521 257.78C372.921 257.78 372.501 257.48 372.081 257.12C371.661 256.76 371.381 256.46 371.021 256.28C370.481 256.56 370.461 257.68 369.901 257.68ZM367.901 266.54C367.901 264.38 369.941 263.46 374.441 263.4H374.661V263C374.661 261.38 373.721 260.48 372.081 260.48C370.561 260.48 369.641 261.22 369.161 262.18C369.121 262.2 368.281 262.16 368.281 261.44C368.281 261.16 368.481 260.74 368.861 260.38C369.481 259.78 370.581 259.24 372.161 259.24C374.701 259.24 376.081 260.66 376.081 263.02V268.92C376.081 268.98 375.821 269.08 375.561 269.08C375.141 269.08 374.801 268.88 374.721 268.16C374.701 267.88 374.681 267.58 374.681 267.28C374.041 268.44 372.741 269.2 371.141 269.2C369.141 269.2 367.901 268.16 367.901 266.54ZM374.661 265.26V264.34L374.321 264.36C370.841 264.44 369.341 265.04 369.341 266.5C369.341 267.5 370.141 268.12 371.421 268.12C373.261 268.12 374.661 266.88 374.661 265.26ZM377.959 264.22C377.959 261.32 379.959 259.24 382.819 259.24C385.639 259.24 387.639 261.34 387.639 264.26C387.639 267.14 385.639 269.22 382.799 269.22C379.939 269.22 377.959 267.12 377.959 264.22ZM386.239 264.26C386.239 262.06 384.819 260.46 382.819 260.46C380.819 260.46 379.359 262.02 379.359 264.22C379.359 266.42 380.819 268 382.819 268C384.799 268 386.239 266.44 386.239 264.26ZM392.432 264.28C392.432 261.38 394.412 259.24 397.152 259.24C399.812 259.24 401.532 261.12 401.532 263.94V264.08C401.532 264.42 401.392 264.54 401.032 264.54H393.812C393.812 264.62 393.812 264.72 393.832 264.82C394.012 266.74 395.392 268.02 397.312 268.02C399.092 268.02 399.932 267.18 400.412 266.26C400.492 266.22 401.232 266.38 401.232 267.02C401.232 267.32 400.992 267.78 400.472 268.2C399.872 268.72 398.772 269.22 397.292 269.22C394.392 269.22 392.432 267.2 392.432 264.28ZM400.112 263.5C400.032 261.64 398.892 260.4 397.152 260.4C395.412 260.4 394.112 261.68 393.852 263.5H400.112ZM406.079 268.52L409.339 264.22L406.119 259.92C406.079 259.84 406.359 259.38 406.859 259.38C407.319 259.38 407.559 259.6 407.819 260.02L410.279 263.4L412.699 260.04C412.999 259.54 413.299 259.38 413.639 259.38C414.159 259.38 414.459 259.86 414.399 259.92L411.159 264.22L414.359 268.52C414.419 268.62 414.139 269.08 413.599 269.08C413.159 269.08 412.919 268.84 412.679 268.44L410.199 265.04L407.779 268.42C407.519 268.84 407.239 269.08 406.839 269.08C406.339 269.08 406.019 268.6 406.079 268.52ZM418.277 258.02C417.977 258.02 417.737 257.8 417.737 257.52C417.737 256.68 419.817 254.82 420.377 254.62C420.937 254.82 423.017 256.68 423.017 257.52C423.017 257.8 422.797 258.02 422.497 258.02C422.117 258.02 421.677 257.68 420.377 255.78C419.057 257.68 418.657 258.02 418.277 258.02ZM415.537 264.22C415.537 261.32 417.537 259.24 420.397 259.24C423.217 259.24 425.217 261.34 425.217 264.26C425.217 267.14 423.217 269.22 420.377 269.22C417.517 269.22 415.537 267.12 415.537 264.22ZM423.817 264.26C423.817 262.06 422.397 260.46 420.397 260.46C418.397 260.46 416.937 262.02 416.937 264.22C416.937 266.42 418.397 268 420.397 268C422.377 268 423.817 266.44 423.817 264.26ZM308.548 284.24C311.048 284.24 312.948 286.22 312.948 289.2C312.948 292.18 311.088 294.22 308.508 294.22C306.768 294.22 305.568 293.26 305.068 292.22V297.18C305.068 297.68 304.808 297.86 304.448 297.86H304.288C303.908 297.86 303.648 297.68 303.648 297.18V284.54C303.648 284.5 303.868 284.38 304.148 284.38C304.568 284.38 304.968 284.62 305.028 285.46C305.028 285.7 305.048 286.02 305.048 286.28C305.748 285.04 306.888 284.24 308.548 284.24ZM308.248 293C310.208 293 311.528 291.48 311.528 289.22C311.528 287 310.148 285.46 308.288 285.46C306.688 285.46 305.588 286.38 305.048 287.76V289.88C305.048 291.64 306.488 293 308.248 293ZM318.797 284.24C319.657 284.24 320.217 284.66 320.217 285.28C320.217 285.86 319.817 286.1 319.777 286.06C319.537 285.82 319.157 285.66 318.637 285.66C317.077 285.66 316.357 287.2 316.357 289.6V293.38C316.357 293.88 316.097 294.06 315.737 294.06H315.577C315.177 294.06 314.917 293.9 314.917 293.38V284.54C314.917 284.5 315.137 284.38 315.437 284.38C315.837 284.38 316.197 284.58 316.277 285.34C316.297 285.68 316.317 286.02 316.317 286.38C316.697 284.94 317.577 284.24 318.797 284.24ZM320.703 289.28C320.703 286.38 322.683 284.24 325.423 284.24C328.083 284.24 329.803 286.12 329.803 288.94V289.08C329.803 289.42 329.663 289.54 329.303 289.54H322.083C322.083 289.62 322.083 289.72 322.103 289.82C322.283 291.74 323.663 293.02 325.583 293.02C327.363 293.02 328.203 292.18 328.683 291.26C328.763 291.22 329.503 291.38 329.503 292.02C329.503 292.32 329.263 292.78 328.743 293.2C328.143 293.72 327.043 294.22 325.563 294.22C322.663 294.22 320.703 292.2 320.703 289.28ZM328.383 288.5C328.303 286.64 327.163 285.4 325.423 285.4C323.683 285.4 322.383 286.68 322.123 288.5H328.383ZM334.913 298.2C331.933 298.2 330.453 297.32 330.453 295.6C330.453 294.2 331.833 293.22 333.573 292.9C333.233 292.7 332.973 292.4 332.973 291.94C332.973 291.52 333.213 291.16 333.553 290.92C332.093 290.46 331.133 289.26 331.133 287.78C331.133 285.8 332.773 284.24 334.993 284.24C335.833 284.24 336.633 284.48 337.253 284.9L337.973 283.82C338.253 283.34 338.573 283.2 338.913 283.24C339.373 283.3 339.633 283.76 339.613 283.88L338.033 285.56C338.553 286.14 338.893 286.88 338.893 287.72C338.893 289.66 337.253 291.14 335.013 291.14C334.833 291.14 334.673 291.14 334.493 291.12C334.293 291.26 334.253 291.44 334.253 291.64C334.273 292.28 335.233 292.38 336.853 292.78C338.233 293.12 339.713 293.8 339.713 295.34C339.713 297.12 337.953 298.2 334.913 298.2ZM334.993 290.14C336.433 290.14 337.453 289.18 337.453 287.74C337.453 286.32 336.473 285.32 334.973 285.32C333.533 285.32 332.533 286.3 332.533 287.74C332.533 289.18 333.553 290.14 334.993 290.14ZM334.953 297.16C337.053 297.16 338.313 296.56 338.313 295.44C338.313 294.56 337.313 294.16 336.213 293.88C335.813 293.78 335.413 293.7 335.033 293.6C333.333 293.74 331.853 294.46 331.853 295.58C331.853 296.6 332.933 297.16 334.953 297.16ZM348.572 284.38C348.952 284.38 349.212 284.54 349.212 285.06V293.92C349.212 293.96 348.972 294.08 348.692 294.08C348.292 294.08 347.932 293.88 347.852 293.14C347.832 292.88 347.812 292.62 347.812 292.36C347.172 293.42 346.072 294.22 344.532 294.22C342.072 294.22 340.872 292.52 340.872 290.06V285.06C340.872 284.54 341.132 284.38 341.512 284.38H341.672C342.052 284.38 342.312 284.54 342.312 285.06V289.96C342.312 291.8 343.212 292.94 344.832 292.94C346.212 292.94 347.252 292.16 347.772 291V285.06C347.772 284.54 348.032 284.38 348.392 284.38H348.572ZM351.692 281.46C351.692 280.86 352.032 280.54 352.612 280.54C353.192 280.54 353.532 280.86 353.532 281.46C353.532 282.04 353.172 282.36 352.592 282.36C352.032 282.36 351.692 282.04 351.692 281.46ZM351.872 293.38V285.08C351.872 284.56 352.132 284.38 352.512 284.38H352.672C353.052 284.38 353.312 284.54 353.312 285.08V293.38C353.312 293.9 353.052 294.06 352.672 294.06H352.512C352.132 294.06 351.872 293.9 351.872 293.38ZM359.631 298.4C358.411 298.4 357.691 297.62 357.691 297.06C357.691 296.66 357.871 296.48 358.191 296.44C358.371 296.68 358.811 297.22 359.491 297.22C360.111 297.22 360.671 296.94 360.671 296.14C360.671 295.32 359.671 294.38 358.831 294.04C356.751 293.5 355.371 291.64 355.371 289.2C355.371 286.34 357.371 284.24 360.191 284.24C361.691 284.24 362.731 284.78 363.371 285.4C363.911 285.9 364.151 286.48 364.151 286.84C364.151 287.48 363.291 287.6 363.231 287.52C362.811 286.42 361.951 285.48 360.211 285.48C358.211 285.48 356.791 287.04 356.791 289.2C356.791 291.4 358.191 292.98 360.211 292.98C361.931 292.98 362.811 292.04 363.231 290.94C363.271 290.86 364.151 290.96 364.151 291.64C364.151 291.96 363.931 292.5 363.411 293.02C362.911 293.52 362.191 293.96 361.191 294.14C360.951 294.18 360.711 294.2 360.451 294.2C361.171 294.68 361.851 295.5 361.851 296.5C361.851 297.86 360.711 298.4 359.631 298.4ZM365.43 291.54C365.43 289.38 367.47 288.46 371.97 288.4H372.19V288C372.19 286.38 371.25 285.48 369.61 285.48C368.09 285.48 367.17 286.22 366.69 287.18C366.65 287.2 365.81 287.16 365.81 286.44C365.81 286.16 366.01 285.74 366.39 285.38C367.01 284.78 368.11 284.24 369.69 284.24C372.23 284.24 373.61 285.66 373.61 288.02V293.92C373.61 293.98 373.35 294.08 373.09 294.08C372.67 294.08 372.33 293.88 372.25 293.16C372.23 292.88 372.21 292.58 372.21 292.28C371.57 293.44 370.27 294.2 368.67 294.2C366.67 294.2 365.43 293.16 365.43 291.54ZM372.19 290.26V289.34L371.85 289.36C368.37 289.44 366.87 290.04 366.87 291.5C366.87 292.5 367.67 293.12 368.95 293.12C370.79 293.12 372.19 291.88 372.19 290.26ZM377.149 290.36C376.909 290.36 376.829 290.18 376.809 289.84L376.349 281.88C376.289 281.26 376.549 280.96 376.989 280.96H377.449C377.909 280.96 378.169 281.26 378.109 281.88L377.669 289.86C377.629 290.18 377.569 290.36 377.309 290.36H377.149ZM377.129 294.12C376.569 294.12 376.269 293.8 376.269 293.22V293.04C376.269 292.46 376.549 292.14 377.129 292.14H377.329C377.909 292.14 378.189 292.46 378.189 293.04V293.22C378.189 293.8 377.909 294.12 377.329 294.12H377.129Z" fill="#1A1A1A"/>
<rect x="1" y="163" width="220" height="152" rx="15" fill="#9DC8FF" stroke="#1A1A1A" stroke-width="2"/>
<mask id="path-5-inside-1_1_750" fill="white">
<path d="M143.108 210C143.108 227.673 128.782 242 111.108 242C93.4353 242 79.1084 227.673 79.1084 210C79.1084 192.327 93.4353 178 111.108 178C128.782 178 143.108 192.327 143.108 210ZM91.6951 210C91.6951 220.722 100.387 229.413 111.108 229.413C121.83 229.413 130.522 220.722 130.522 210C130.522 199.278 121.83 190.587 111.108 190.587C100.387 190.587 91.6951 199.278 91.6951 210Z"/>
</mask>
<path d="M143.108 210C143.108 227.673 128.782 242 111.108 242C93.4353 242 79.1084 227.673 79.1084 210C79.1084 192.327 93.4353 178 111.108 178C128.782 178 143.108 192.327 143.108 210ZM91.6951 210C91.6951 220.722 100.387 229.413 111.108 229.413C121.83 229.413 130.522 220.722 130.522 210C130.522 199.278 121.83 190.587 111.108 190.587C100.387 190.587 91.6951 199.278 91.6951 210Z" fill="#FD86CD" stroke="#1A1A1A" stroke-width="4" mask="url(#path-5-inside-1_1_750)"/>
<circle cx="111" cy="210" r="11" fill="#FD86CD" stroke="#1A1A1A" stroke-width="2"/>
<path d="M110.5 210L147.741 194.07" stroke="#1A1A1A" stroke-width="2"/>
<path d="M26.0254 268.14V256.94C26.0254 256.42 26.3854 256.06 26.8454 256.06H29.9054C34.2254 256.06 36.7854 258.48 36.7854 262.5C36.7854 266.54 34.1454 269 29.7854 269H26.8854C26.3854 269 26.0254 268.62 26.0254 268.14ZM29.8454 267.7C33.2654 267.7 35.2254 265.82 35.2254 262.52C35.2254 259.26 33.2454 257.36 29.8654 257.36H27.5254V267.7H29.8454ZM41.2504 258.02C41.1104 258.02 41.0704 257.98 41.0704 257.94C41.0704 257.74 42.9304 254.72 44.1104 254.72C44.4704 254.72 44.7304 255 44.7304 255.36C44.7304 256.5 41.4504 258.02 41.2504 258.02ZM38.3704 266.54C38.3704 264.38 40.4104 263.46 44.9104 263.4H45.1304V263C45.1304 261.38 44.1904 260.48 42.5504 260.48C41.0304 260.48 40.1104 261.22 39.6304 262.18C39.5904 262.2 38.7504 262.16 38.7504 261.44C38.7504 261.16 38.9504 260.74 39.3304 260.38C39.9504 259.78 41.0504 259.24 42.6304 259.24C45.1704 259.24 46.5504 260.66 46.5504 263.02V268.92C46.5504 268.98 46.2904 269.08 46.0304 269.08C45.6104 269.08 45.2704 268.88 45.1904 268.16C45.1704 267.88 45.1504 267.58 45.1504 267.28C44.5104 268.44 43.2104 269.2 41.6104 269.2C39.6104 269.2 38.3704 268.16 38.3704 266.54ZM45.1304 265.26V264.34L44.7904 264.36C41.3104 264.44 39.8104 265.04 39.8104 266.5C39.8104 267.5 40.6104 268.12 41.8904 268.12C43.7304 268.12 45.1304 266.88 45.1304 265.26ZM60.067 259.38C60.447 259.38 60.707 259.54 60.707 260.06V268.92C60.707 268.96 60.467 269.08 60.187 269.08C59.787 269.08 59.427 268.88 59.347 268.14C59.327 267.88 59.307 267.62 59.307 267.36C58.667 268.42 57.567 269.22 56.027 269.22C53.567 269.22 52.367 267.52 52.367 265.06V260.06C52.367 259.54 52.627 259.38 53.007 259.38H53.167C53.547 259.38 53.807 259.54 53.807 260.06V264.96C53.807 266.8 54.707 267.94 56.327 267.94C57.707 267.94 58.747 267.16 59.267 266V260.06C59.267 259.54 59.527 259.38 59.887 259.38H60.067ZM74.1873 259.24C76.5273 259.24 77.7273 260.74 77.7273 263.26V268.38C77.7273 268.9 77.4673 269.06 77.0873 269.06H76.9273C76.5473 269.06 76.2873 268.9 76.2873 268.38V263.38C76.2873 261.54 75.4673 260.52 73.8873 260.52C72.7673 260.52 71.6873 261.24 71.2273 262.42V268.38C71.2273 268.9 70.9473 269.06 70.5873 269.06H70.4273C70.0473 269.06 69.7873 268.9 69.7873 268.38V263.26C69.7873 261.52 68.9873 260.52 67.3873 260.52C66.2873 260.52 65.2073 261.24 64.7073 262.42V268.38C64.7073 268.9 64.4473 269.06 64.0873 269.06H63.9073C63.5473 269.06 63.2673 268.9 63.2673 268.38V259.54C63.2673 259.5 63.5073 259.38 63.7873 259.38C64.2273 259.38 64.6273 259.6 64.6673 260.56L64.6873 261.04C65.3073 259.98 66.3873 259.24 67.7073 259.24C69.3273 259.24 70.4073 260.06 70.8673 261.36C71.4473 260.12 72.6073 259.24 74.1873 259.24ZM88.5389 259.24C91.0389 259.24 92.9389 261.22 92.9389 264.2C92.9389 267.18 91.0789 269.22 88.4989 269.22C86.7589 269.22 85.5589 268.26 85.0589 267.22V272.18C85.0589 272.68 84.7989 272.86 84.4389 272.86H84.2789C83.8989 272.86 83.6389 272.68 83.6389 272.18V259.54C83.6389 259.5 83.8589 259.38 84.1389 259.38C84.5589 259.38 84.9589 259.62 85.0189 260.46C85.0189 260.7 85.0389 261.02 85.0389 261.28C85.7389 260.04 86.8789 259.24 88.5389 259.24ZM88.2389 268C90.1989 268 91.5189 266.48 91.5189 264.22C91.5189 262 90.1389 260.46 88.2789 260.46C86.6789 260.46 85.5789 261.38 85.0389 262.76V264.88C85.0389 266.64 86.4789 268 88.2389 268ZM95.6479 269.06C95.2679 269.06 95.0079 268.9 95.0079 268.38V255.52C95.0079 255.46 95.2479 255.36 95.5279 255.36C95.9879 255.36 96.4479 255.6 96.4479 256.64V268.38C96.4479 268.9 96.1879 269.06 95.8079 269.06H95.6479ZM98.5071 266.54C98.5071 264.38 100.547 263.46 105.047 263.4H105.267V263C105.267 261.38 104.327 260.48 102.687 260.48C101.167 260.48 100.247 261.22 99.7671 262.18C99.7271 262.2 98.8871 262.16 98.8871 261.44C98.8871 261.16 99.0871 260.74 99.4671 260.38C100.087 259.78 101.187 259.24 102.767 259.24C105.307 259.24 106.687 260.66 106.687 263.02V268.92C106.687 268.98 106.427 269.08 106.167 269.08C105.747 269.08 105.407 268.88 105.327 268.16C105.307 267.88 105.287 267.58 105.287 267.28C104.647 268.44 103.347 269.2 101.747 269.2C99.7471 269.2 98.5071 268.16 98.5071 266.54ZM105.267 265.26V264.34L104.927 264.36C101.447 264.44 99.9471 265.04 99.9471 266.5C99.9471 267.5 100.747 268.12 102.027 268.12C103.867 268.12 105.267 266.88 105.267 265.26ZM111.406 272.84C111.006 272.84 110.646 272.54 110.666 272.44L112.306 268.46C111.926 268.44 111.726 268.34 111.586 268L108.126 259.8C108.106 259.68 108.466 259.36 108.906 259.36C109.266 259.38 109.586 259.6 109.806 260.22L112.726 267.52L115.306 260.28C115.526 259.54 115.926 259.36 116.286 259.38C116.646 259.38 117.006 259.68 116.986 259.78L112.346 271.98C112.126 272.66 111.786 272.84 111.406 272.84ZM126.58 259.24C129.04 259.24 130.24 260.94 130.24 263.38V268.38C130.24 268.9 129.98 269.06 129.62 269.06H129.44C129.06 269.06 128.8 268.9 128.8 268.38V263.5C128.8 261.66 127.92 260.52 126.3 260.52C124.9 260.52 123.86 261.3 123.34 262.44V268.38C123.34 268.9 123.08 269.06 122.72 269.06H122.54C122.16 269.06 121.9 268.9 121.9 268.38V259.54C121.9 259.5 122.14 259.38 122.42 259.38C122.86 259.38 123.26 259.6 123.3 260.58V261.14C123.94 260 125.06 259.24 126.58 259.24ZM132.12 264.22C132.12 261.32 134.12 259.24 136.98 259.24C139.8 259.24 141.8 261.34 141.8 264.26C141.8 267.14 139.8 269.22 136.96 269.22C134.1 269.22 132.12 267.12 132.12 264.22ZM140.4 264.26C140.4 262.06 138.98 260.46 136.98 260.46C134.98 260.46 133.52 262.02 133.52 264.22C133.52 266.42 134.98 268 136.98 268C138.96 268 140.4 266.44 140.4 264.26ZM147.702 268.38V260.68H146.362C145.902 260.68 145.742 260.48 145.742 260.12V260C145.742 259.64 145.902 259.46 146.362 259.46H147.702V258.5C147.702 256.28 148.722 255.18 150.482 255.18C151.242 255.18 151.762 255.36 152.102 255.66C152.322 255.84 152.422 256.08 152.422 256.34C152.422 256.78 152.102 257.02 152.062 256.98C151.782 256.66 151.202 256.4 150.622 256.4C149.582 256.4 149.082 257.06 149.082 258.62V259.46H150.922C151.382 259.46 151.562 259.66 151.562 260V260.12C151.562 260.48 151.382 260.68 150.922 260.68H149.122V268.38C149.122 268.88 148.882 269.06 148.502 269.06H148.342C147.962 269.06 147.702 268.9 147.702 268.38ZM152.277 264.22C152.277 261.32 154.277 259.24 157.137 259.24C159.957 259.24 161.957 261.34 161.957 264.26C161.957 267.14 159.957 269.22 157.117 269.22C154.257 269.22 152.277 267.12 152.277 264.22ZM160.557 264.26C160.557 262.06 159.137 260.46 157.137 260.46C155.137 260.46 153.677 262.02 153.677 264.22C153.677 266.42 155.137 268 157.137 268C159.117 268 160.557 266.44 160.557 264.26ZM163.331 264.2C163.331 261.34 165.331 259.24 168.151 259.24C169.651 259.24 170.691 259.78 171.331 260.4C171.871 260.9 172.111 261.48 172.111 261.84C172.111 262.48 171.251 262.6 171.191 262.52C170.771 261.42 169.911 260.48 168.171 260.48C166.171 260.48 164.751 262.04 164.751 264.2C164.751 266.4 166.151 267.98 168.171 267.98C169.891 267.98 170.771 267.04 171.191 265.94C171.231 265.86 172.111 265.96 172.111 266.64C172.111 266.96 171.871 267.52 171.331 268.04C170.711 268.7 169.651 269.22 168.131 269.22C165.331 269.22 163.331 267.12 163.331 264.2ZM173.409 264.22C173.409 261.32 175.409 259.24 178.269 259.24C181.089 259.24 183.089 261.34 183.089 264.26C183.089 267.14 181.089 269.22 178.249 269.22C175.389 269.22 173.409 267.12 173.409 264.22ZM181.689 264.26C181.689 262.06 180.269 260.46 178.269 260.46C176.269 260.46 174.809 262.02 174.809 264.22C174.809 266.42 176.269 268 178.269 268C180.249 268 181.689 266.44 181.689 264.26ZM187.882 264.28C187.882 261.38 189.862 259.24 192.602 259.24C195.262 259.24 196.982 261.12 196.982 263.94V264.08C196.982 264.42 196.842 264.54 196.482 264.54H189.262C189.262 264.62 189.262 264.72 189.282 264.82C189.462 266.74 190.842 268.02 192.762 268.02C194.542 268.02 195.382 267.18 195.862 266.26C195.942 266.22 196.682 266.38 196.682 267.02C196.682 267.32 196.442 267.78 195.922 268.2C195.322 268.72 194.222 269.22 192.742 269.22C189.842 269.22 187.882 267.2 187.882 264.28ZM195.562 263.5C195.482 261.64 194.342 260.4 192.602 260.4C190.862 260.4 189.562 261.68 189.302 263.5H195.562ZM56.3099 291.54C56.3099 289.38 58.3499 288.46 62.8499 288.4H63.0699V288C63.0699 286.38 62.1299 285.48 60.4899 285.48C58.9699 285.48 58.0499 286.22 57.5699 287.18C57.5299 287.2 56.6899 287.16 56.6899 286.44C56.6899 286.16 56.8899 285.74 57.2699 285.38C57.8899 284.78 58.9899 284.24 60.5699 284.24C63.1099 284.24 64.4899 285.66 64.4899 288.02V293.92C64.4899 293.98 64.2299 294.08 63.9699 294.08C63.5499 294.08 63.2099 293.88 63.1299 293.16C63.1099 292.88 63.0899 292.58 63.0899 292.28C62.4499 293.44 61.1499 294.2 59.5499 294.2C57.5499 294.2 56.3099 293.16 56.3099 291.54ZM63.0699 290.26V289.34L62.7299 289.36C59.2499 289.44 57.7499 290.04 57.7499 291.5C57.7499 292.5 58.5499 293.12 59.8299 293.12C61.6699 293.12 63.0699 291.88 63.0699 290.26ZM71.8885 284.24C74.3885 284.24 76.2885 286.22 76.2885 289.2C76.2885 292.18 74.4285 294.22 71.8485 294.22C70.1085 294.22 68.9085 293.26 68.4085 292.22V297.18C68.4085 297.68 68.1485 297.86 67.7885 297.86H67.6285C67.2485 297.86 66.9885 297.68 66.9885 297.18V284.54C66.9885 284.5 67.2085 284.38 67.4885 284.38C67.9085 284.38 68.3085 284.62 68.3685 285.46C68.3685 285.7 68.3885 286.02 68.3885 286.28C69.0885 285.04 70.2285 284.24 71.8885 284.24ZM71.5885 293C73.5485 293 74.8685 291.48 74.8685 289.22C74.8685 287 73.4885 285.46 71.6285 285.46C70.0285 285.46 68.9285 286.38 68.3885 287.76V289.88C68.3885 291.64 69.8285 293 71.5885 293ZM82.1375 284.24C82.9975 284.24 83.5575 284.66 83.5575 285.28C83.5575 285.86 83.1575 286.1 83.1175 286.06C82.8775 285.82 82.4975 285.66 81.9775 285.66C80.4175 285.66 79.6975 287.2 79.6975 289.6V293.38C79.6975 293.88 79.4375 294.06 79.0775 294.06H78.9175C78.5175 294.06 78.2575 293.9 78.2575 293.38V284.54C78.2575 284.5 78.4775 284.38 78.7775 284.38C79.1775 284.38 79.5375 284.58 79.6175 285.34C79.6375 285.68 79.6575 286.02 79.6575 286.38C80.0375 284.94 80.9175 284.24 82.1375 284.24ZM84.0443 289.28C84.0443 286.38 86.0243 284.24 88.7643 284.24C91.4243 284.24 93.1443 286.12 93.1443 288.94V289.08C93.1443 289.42 93.0043 289.54 92.6443 289.54H85.4243C85.4243 289.62 85.4243 289.72 85.4443 289.82C85.6243 291.74 87.0043 293.02 88.9243 293.02C90.7043 293.02 91.5443 292.18 92.0243 291.26C92.1043 291.22 92.8443 291.38 92.8443 292.02C92.8443 292.32 92.6043 292.78 92.0843 293.2C91.4843 293.72 90.3843 294.22 88.9043 294.22C86.0043 294.22 84.0443 292.2 84.0443 289.28ZM91.7243 288.5C91.6443 286.64 90.5043 285.4 88.7643 285.4C87.0243 285.4 85.7243 286.68 85.4643 288.5H91.7243ZM99.7735 284.24C102.233 284.24 103.433 285.94 103.433 288.38V293.38C103.433 293.9 103.173 294.06 102.813 294.06H102.633C102.253 294.06 101.993 293.9 101.993 293.38V288.5C101.993 286.66 101.113 285.52 99.4935 285.52C98.0935 285.52 97.0535 286.3 96.5335 287.44V293.38C96.5335 293.9 96.2735 294.06 95.9135 294.06H95.7335C95.3535 294.06 95.0935 293.9 95.0935 293.38V284.54C95.0935 284.5 95.3335 284.38 95.6135 284.38C96.0535 284.38 96.4535 284.6 96.4935 285.58V286.14C97.1335 285 98.2535 284.24 99.7735 284.24ZM109.714 294.22C107.194 294.22 105.314 292.22 105.314 289.22C105.314 286.26 107.194 284.24 109.754 284.24C111.454 284.24 112.654 285.1 113.194 286.08V280.52C113.194 280.46 113.414 280.36 113.694 280.36C114.174 280.36 114.634 280.6 114.634 281.64V293.38C114.634 293.9 114.374 294.06 113.994 294.06H113.854C113.494 294.06 113.234 293.9 113.234 293.42C113.214 293.02 113.214 292.62 113.214 292.18C112.534 293.4 111.394 294.22 109.714 294.22ZM113.194 289.88V287.74C112.674 286.36 111.614 285.46 109.994 285.46C108.074 285.46 106.754 286.96 106.754 289.22C106.754 291.44 108.094 293 109.974 293C111.754 293 113.194 291.66 113.194 289.88ZM117.142 281.46C117.142 280.86 117.482 280.54 118.062 280.54C118.642 280.54 118.982 280.86 118.982 281.46C118.982 282.04 118.622 282.36 118.042 282.36C117.482 282.36 117.142 282.04 117.142 281.46ZM117.322 293.38V285.08C117.322 284.56 117.582 284.38 117.962 284.38H118.122C118.502 284.38 118.762 284.54 118.762 285.08V293.38C118.762 293.9 118.502 294.06 118.122 294.06H117.962C117.582 294.06 117.322 293.9 117.322 293.38ZM120.842 293.42V293.28C120.842 292.98 120.962 292.8 121.302 292.38L126.702 285.66H121.542C121.082 285.66 120.882 285.48 120.882 285.12V284.98C120.882 284.64 121.082 284.46 121.542 284.46H127.902C128.382 284.46 128.542 284.72 128.542 285.02V285.12C128.542 285.38 128.422 285.56 128.102 285.98L122.602 292.8H128.022C128.502 292.8 128.702 292.98 128.702 293.34V293.46C128.702 293.82 128.502 294 128.022 294H121.482C121.022 294 120.842 293.74 120.842 293.42ZM130.021 291.54C130.021 289.38 132.061 288.46 136.561 288.4H136.781V288C136.781 286.38 135.841 285.48 134.201 285.48C132.681 285.48 131.761 286.22 131.281 287.18C131.241 287.2 130.401 287.16 130.401 286.44C130.401 286.16 130.601 285.74 130.981 285.38C131.601 284.78 132.701 284.24 134.281 284.24C136.821 284.24 138.201 285.66 138.201 288.02V293.92C138.201 293.98 137.941 294.08 137.681 294.08C137.261 294.08 136.921 293.88 136.841 293.16C136.821 292.88 136.801 292.58 136.801 292.28C136.161 293.44 134.861 294.2 133.261 294.2C131.261 294.2 130.021 293.16 130.021 291.54ZM136.781 290.26V289.34L136.441 289.36C132.961 289.44 131.461 290.04 131.461 291.5C131.461 292.5 132.261 293.12 133.541 293.12C135.381 293.12 136.781 291.88 136.781 290.26ZM144.479 294.22C141.959 294.22 140.079 292.22 140.079 289.22C140.079 286.26 141.959 284.24 144.519 284.24C146.219 284.24 147.419 285.1 147.959 286.08V280.52C147.959 280.46 148.179 280.36 148.459 280.36C148.939 280.36 149.399 280.6 149.399 281.64V293.38C149.399 293.9 149.139 294.06 148.759 294.06H148.619C148.259 294.06 147.999 293.9 147.999 293.42C147.979 293.02 147.979 292.62 147.979 292.18C147.299 293.4 146.159 294.22 144.479 294.22ZM147.959 289.88V287.74C147.439 286.36 146.379 285.46 144.759 285.46C142.839 285.46 141.519 286.96 141.519 289.22C141.519 291.44 142.859 293 144.739 293C146.519 293 147.959 291.66 147.959 289.88ZM151.368 289.22C151.368 286.32 153.368 284.24 156.228 284.24C159.048 284.24 161.048 286.34 161.048 289.26C161.048 292.14 159.048 294.22 156.208 294.22C153.348 294.22 151.368 292.12 151.368 289.22ZM159.648 289.26C159.648 287.06 158.228 285.46 156.228 285.46C154.228 285.46 152.768 287.02 152.768 289.22C152.768 291.42 154.228 293 156.228 293C158.208 293 159.648 291.44 159.648 289.26ZM164.083 290.36C163.843 290.36 163.763 290.18 163.743 289.84L163.283 281.88C163.223 281.26 163.483 280.96 163.923 280.96H164.383C164.843 280.96 165.103 281.26 165.043 281.88L164.603 289.86C164.563 290.18 164.503 290.36 164.243 290.36H164.083ZM164.063 294.12C163.503 294.12 163.203 293.8 163.203 293.22V293.04C163.203 292.46 163.483 292.14 164.063 292.14H164.263C164.843 292.14 165.123 292.46 165.123 293.04V293.22C165.123 293.8 164.843 294.12 164.263 294.12H164.063Z" fill="#1A1A1A"/>
<rect x="231.217" y="1" width="220" height="152" rx="15" fill="#FD86CD" stroke="#1A1A1A" stroke-width="2"/>
<circle cx="344.567" cy="27.3418" r="10.3418" fill="#FD86CD" stroke="#FFFFF3" stroke-width="2"/>
<circle cx="317.259" cy="62.5783" r="7.25859" fill="#FD86CD" stroke="#FFFFF3" stroke-width="2"/>
<circle cx="358.442" cy="39.0138" r="10.3418" fill="#FD86CD" stroke="#FFFFF3" stroke-width="2"/>
<circle cx="327.389" cy="71.1675" r="7.25859" fill="#FD86CD" stroke="#FFFFF3" stroke-width="2"/>
<rect x="350.05" y="29.0681" width="10.7733" height="42.7065" transform="rotate(42.4468 350.05 29.0681)" fill="#FD86CD" stroke="#FFFFF3" stroke-width="2"/>
<rect x="319.051" y="55.7747" width="19.681" height="9.17317" rx="3" transform="rotate(40.637 319.051 55.7747)" fill="#FD86CD"/>
<rect x="345.746" y="21.7701" width="23.095" height="14.0256" rx="3" transform="rotate(40.637 345.746 21.7701)" fill="#FD86CD"/>
<path d="M271.373 107.2C267.213 107.2 264.633 104.42 264.633 100.34C264.633 96.1 267.713 92.8 271.753 92.8C272.913 92.8 273.613 93.1 274.193 93.1C274.633 93.1 274.833 92.84 275.173 92.84C275.553 92.84 275.693 93.06 275.933 93.9C276.093 94.48 276.293 95.22 276.493 96.42C276.573 96.8 276.493 97.06 276.193 97.1C275.853 97.14 275.673 96.84 275.373 96.38C274.513 95.04 273.373 93.9 271.273 93.9C268.313 93.9 266.553 96.54 266.553 99.46C266.553 103.16 268.753 105.96 272.013 105.96C274.053 105.96 275.273 105.1 276.233 104.04C276.633 103.6 277.093 104.08 276.713 104.68C276.153 105.56 274.373 107.2 271.373 107.2ZM284.004 97.2C285.084 97.2 285.564 97.88 285.564 98.58C285.564 99.1 285.224 99.58 284.764 99.6C283.924 99.62 283.964 98.74 283.044 98.74C282.164 98.74 281.324 99.98 281.324 101.74V104.36C281.324 106.28 282.244 105.92 282.244 106.62C282.244 106.92 281.964 107 281.464 107H279.324C278.864 107 278.524 106.92 278.524 106.6C278.524 105.92 279.504 106.28 279.504 104.36V100.34C279.504 99.66 279.424 99.16 278.884 98.84C278.664 98.7 278.524 98.58 278.524 98.38C278.524 98.16 278.624 98.04 279.104 97.82C279.784 97.5 280.464 97.28 280.744 97.26C281.004 97.26 281.144 97.36 281.144 97.7L281.124 99.32C281.744 98.14 282.824 97.2 284.004 97.2ZM295.007 104.42C295.347 104.06 295.787 104.28 295.587 104.78C295.167 105.76 293.647 107.2 291.127 107.2C288.327 107.2 286.447 105.18 286.447 102.54C286.447 99.52 288.567 97.2 291.527 97.2C293.707 97.2 295.167 98.46 295.527 100.18C295.607 100.54 295.527 100.82 295.067 101C292.907 101.84 290.787 102.56 288.467 103.32C288.847 104.48 289.987 105.84 291.847 105.84C293.187 105.84 294.287 105.18 295.007 104.42ZM290.907 98.14C289.107 98.16 288.207 99.8 288.207 101.26C288.207 101.76 288.227 102.14 288.327 102.48C289.967 101.94 291.527 101.42 292.987 100.86C293.307 100.74 293.427 100.54 293.367 100.18C293.167 98.94 292.007 98.1 290.907 98.14ZM298.375 107.2C298.095 107.2 298.055 107.08 297.815 106.52C297.515 105.72 297.315 105.2 297.075 104.4C297.015 104.12 297.075 103.94 297.295 103.86C297.495 103.78 297.715 103.94 297.975 104.22C299.535 105.9 300.615 106.28 301.695 106.28C302.595 106.28 303.375 105.84 303.375 104.96C303.375 104.1 302.255 103.56 300.635 102.9C298.895 102.22 297.275 101.52 297.275 99.88C297.275 98.06 298.935 97.2 300.455 97.2C301.515 97.2 302.155 97.42 302.675 97.44C302.995 97.46 303.075 97.2 303.335 97.2C303.595 97.2 303.715 97.46 303.955 97.86C304.255 98.42 304.415 98.78 304.575 99.14C304.695 99.46 304.695 99.72 304.495 99.84C304.175 100.02 303.895 99.66 303.215 99.14C302.435 98.56 301.455 98.08 300.515 98.08C299.435 98.08 298.835 98.62 298.835 99.32C298.835 100.2 299.775 100.64 301.615 101.38C303.535 102.14 305.095 102.9 305.095 104.4C305.095 105.88 303.655 107.2 301.455 107.2C300.135 107.2 299.535 106.82 299.135 106.82C298.815 106.82 298.735 107.2 298.375 107.2ZM311.088 107.2C308.268 107.2 306.428 105.12 306.428 102.54C306.428 99.52 308.628 97.22 311.488 97.22C313.968 97.22 315.368 98.88 315.368 100.46C315.368 101.14 314.968 101.54 314.428 101.54C313.808 101.54 313.568 101.06 313.408 100.52C313.028 99.18 312.368 98.18 310.948 98.14C309.208 98.14 308.188 99.58 308.188 101.5C308.188 104.14 309.668 105.86 311.868 105.86C313.188 105.86 314.088 105.2 314.808 104.44C315.148 104.1 315.588 104.3 315.388 104.8C314.968 105.8 313.648 107.2 311.088 107.2ZM318.22 95.7C317.68 95.66 317.28 95.26 317.32 94.7C317.36 93.98 318.26 93.14 319.06 93.24C319.6 93.28 319.98 93.78 319.96 94.28C319.9 94.98 319 95.76 318.22 95.7ZM318.04 104.36V100.4C318.04 98.66 317.06 99 317.06 98.38C317.06 98.18 317.14 98.08 317.62 97.86C318.52 97.44 319.2 97.22 319.48 97.2C319.74 97.18 319.88 97.28 319.88 97.64L319.86 100.4V104.36C319.86 106.28 320.8 105.92 320.8 106.62C320.8 106.92 320.5 107 320.02 107H317.88C317.4 107 317.08 106.92 317.08 106.6C317.08 105.92 318.04 106.28 318.04 104.36ZM339.123 101.4L339.743 104.92C339.963 106.16 340.803 106.02 340.803 106.62C340.803 106.92 340.503 107 340.023 107H337.883C337.423 107 337.103 106.92 337.103 106.6C337.103 106.02 338.143 106.16 337.923 104.86L337.343 101.54C337.063 99.96 336.823 98.4 335.023 98.42C333.783 98.44 332.423 99.52 332.343 101.84L332.363 104.36C332.363 106.28 333.303 105.92 333.303 106.62C333.303 106.92 333.003 107 332.523 107H330.383C329.903 107 329.583 106.92 329.583 106.6C329.583 105.92 330.543 106.28 330.543 104.36V101.58C330.543 99.78 330.083 98.34 328.343 98.38C326.943 98.4 325.563 99.6 325.563 102.04V104.36C325.563 106.28 326.483 105.92 326.483 106.62C326.483 106.92 326.203 107 325.703 107H323.563C323.103 107 322.763 106.92 322.763 106.6C322.763 105.92 323.743 106.28 323.743 104.36V100.34C323.743 99.66 323.663 99.16 323.123 98.84C322.903 98.7 322.763 98.58 322.763 98.38C322.763 98.16 322.863 98.04 323.343 97.82C324.023 97.5 324.703 97.28 324.983 97.26C325.243 97.26 325.383 97.36 325.383 97.7L325.363 99.4C326.163 97.92 327.483 97.2 328.903 97.2C330.523 97.2 331.643 97.96 332.103 99.48C332.883 97.96 334.223 97.2 335.663 97.2C337.663 97.2 338.583 98.32 339.123 101.4ZM350.124 104.42C350.464 104.06 350.904 104.28 350.704 104.78C350.284 105.76 348.764 107.2 346.244 107.2C343.444 107.2 341.564 105.18 341.564 102.54C341.564 99.52 343.684 97.2 346.644 97.2C348.824 97.2 350.284 98.46 350.644 100.18C350.724 100.54 350.644 100.82 350.184 101C348.024 101.84 345.904 102.56 343.584 103.32C343.964 104.48 345.104 105.84 346.964 105.84C348.304 105.84 349.404 105.18 350.124 104.42ZM346.024 98.14C344.224 98.16 343.324 99.8 343.324 101.26C343.324 101.76 343.344 102.14 343.444 102.48C345.084 101.94 346.644 101.42 348.104 100.86C348.424 100.74 348.544 100.54 348.484 100.18C348.284 98.94 347.124 98.1 346.024 98.14ZM362.052 101.4L362.672 104.92C362.912 106.16 363.732 106.02 363.732 106.62C363.732 106.92 363.452 107 362.952 107H360.832C360.352 107 360.032 106.92 360.032 106.6C360.032 106.02 361.072 106.16 360.852 104.86L360.272 101.54C360.012 99.96 359.672 98.4 357.852 98.42C356.552 98.44 355.172 99.6 355.172 102.04V104.36C355.172 106.28 356.092 105.92 356.092 106.62C356.092 106.92 355.812 107 355.312 107H353.172C352.712 107 352.372 106.92 352.372 106.6C352.372 105.92 353.352 106.28 353.352 104.36V100.34C353.352 99.66 353.272 99.16 352.732 98.84C352.512 98.7 352.372 98.58 352.372 98.38C352.372 98.16 352.472 98.04 352.952 97.82C353.632 97.5 354.312 97.28 354.592 97.26C354.852 97.26 354.992 97.36 354.992 97.7L354.972 99.4C355.772 97.92 357.172 97.2 358.492 97.2C360.492 97.2 361.532 98.32 362.052 101.4ZM369.993 105.18C370.293 104.9 370.633 105.16 370.493 105.52C370.213 106.2 369.313 107.2 367.813 107.2C366.173 107.2 365.413 106.18 365.413 104.36V103.76C365.413 101.42 365.433 99.56 365.493 98.32H364.733C364.333 98.32 364.173 98.2 364.173 97.92C364.173 97.78 364.193 97.68 364.353 97.5C365.093 96.66 365.833 96.04 366.493 95.54C366.793 95.34 366.893 95.34 367.033 95.34C367.293 95.34 367.373 95.52 367.353 95.82C367.313 96.22 367.293 96.6 367.273 97.4H369.273C369.613 97.4 369.893 97.42 369.793 97.9C369.693 98.4 369.373 98.44 369.033 98.42L367.253 98.36L367.173 103.76C367.133 105.1 367.373 105.84 368.473 105.84C369.013 105.84 369.633 105.5 369.993 105.18ZM375.913 107.2C373.213 107.2 371.213 105.4 371.213 102.56C371.213 99.54 373.393 97.2 376.493 97.2C379.153 97.2 381.093 99.26 381.093 101.96C381.093 104.92 378.973 107.2 375.913 107.2ZM376.533 106.24C378.233 106.24 379.293 104.88 379.293 102.96C379.293 100.46 377.793 98.22 375.793 98.22C374.013 98.22 373.033 99.7 373.033 101.6C373.033 104.22 374.493 106.24 376.533 106.24ZM396.145 93.24L396.125 96L396.105 104.38C396.105 105.88 397.305 105.44 397.305 106.02C397.305 106.22 397.145 106.4 396.785 106.6C396.285 106.88 395.505 107.2 395.025 107.2C394.545 107.2 394.365 106.84 394.345 106.16L394.325 105.44C393.625 106.44 392.405 107.22 390.825 107.2C388.205 107.18 386.545 105.14 386.545 102.58C386.545 99.46 388.925 97.2 391.525 97.2C392.505 97.2 393.545 97.5 394.305 98.16V96C394.305 94.26 393.325 94.6 393.325 93.98C393.325 93.78 393.405 93.68 393.885 93.46C394.785 93.04 395.465 92.82 395.765 92.8C396.005 92.78 396.145 92.88 396.145 93.24ZM391.505 105.92C393.165 105.92 394.145 104.58 394.285 103.4V102.4C394.245 101.58 394.125 100.54 393.665 99.78C393.085 98.74 392.225 98.18 391.085 98.18C389.365 98.18 388.325 99.64 388.325 101.64C388.325 104.54 390.025 105.92 391.505 105.92ZM402.944 107.2C400.244 107.2 398.244 105.4 398.244 102.56C398.244 99.54 400.424 97.2 403.524 97.2C406.184 97.2 408.124 99.26 408.124 101.96C408.124 104.92 406.004 107.2 402.944 107.2ZM403.564 106.24C405.264 106.24 406.324 104.88 406.324 102.96C406.324 100.46 404.824 98.22 402.824 98.22C401.044 98.22 400.064 99.7 400.064 101.6C400.064 104.22 401.524 106.24 403.564 106.24ZM410.992 107.2C410.712 107.2 410.672 107.08 410.432 106.52C410.132 105.72 409.932 105.2 409.692 104.4C409.632 104.12 409.692 103.94 409.912 103.86C410.112 103.78 410.332 103.94 410.592 104.22C412.152 105.9 413.232 106.28 414.312 106.28C415.212 106.28 415.992 105.84 415.992 104.96C415.992 104.1 414.872 103.56 413.252 102.9C411.512 102.22 409.892 101.52 409.892 99.88C409.892 98.06 411.552 97.2 413.072 97.2C414.132 97.2 414.772 97.42 415.292 97.44C415.612 97.46 415.692 97.2 415.952 97.2C416.212 97.2 416.332 97.46 416.572 97.86C416.872 98.42 417.032 98.78 417.192 99.14C417.312 99.46 417.312 99.72 417.112 99.84C416.792 100.02 416.512 99.66 415.832 99.14C415.052 98.56 414.072 98.08 413.132 98.08C412.052 98.08 411.452 98.62 411.452 99.32C411.452 100.2 412.392 100.64 414.232 101.38C416.152 102.14 417.712 102.9 417.712 104.4C417.712 105.88 416.272 107.2 414.072 107.2C412.752 107.2 412.152 106.82 411.752 106.82C411.432 106.82 411.352 107.2 410.992 107.2ZM267.573 133.2C264.873 133.2 262.873 131.4 262.873 128.56C262.873 125.54 265.053 123.2 268.153 123.2C270.813 123.2 272.753 125.26 272.753 127.96C272.753 130.92 270.633 133.2 267.573 133.2ZM268.193 132.24C269.893 132.24 270.953 130.88 270.953 128.96C270.953 126.46 269.453 124.22 267.453 124.22C265.673 124.22 264.693 125.7 264.693 127.6C264.693 130.22 266.153 132.24 268.193 132.24ZM275.621 133.2C275.341 133.2 275.301 133.08 275.061 132.52C274.761 131.72 274.561 131.2 274.321 130.4C274.261 130.12 274.321 129.94 274.541 129.86C274.741 129.78 274.961 129.94 275.221 130.22C276.781 131.9 277.861 132.28 278.941 132.28C279.841 132.28 280.621 131.84 280.621 130.96C280.621 130.1 279.501 129.56 277.881 128.9C276.141 128.22 274.521 127.52 274.521 125.88C274.521 124.06 276.181 123.2 277.701 123.2C278.761 123.2 279.401 123.42 279.921 123.44C280.241 123.46 280.321 123.2 280.581 123.2C280.841 123.2 280.961 123.46 281.201 123.86C281.501 124.42 281.661 124.78 281.821 125.14C281.941 125.46 281.941 125.72 281.741 125.84C281.421 126.02 281.141 125.66 280.461 125.14C279.681 124.56 278.701 124.08 277.761 124.08C276.681 124.08 276.081 124.62 276.081 125.32C276.081 126.2 277.021 126.64 278.861 127.38C280.781 128.14 282.341 128.9 282.341 130.4C282.341 131.88 280.901 133.2 278.701 133.2C277.381 133.2 276.781 132.82 276.381 132.82C276.061 132.82 275.981 133.2 275.621 133.2ZM285.113 133.2C284.833 133.2 284.793 133.08 284.553 132.52C284.253 131.72 284.053 131.2 283.813 130.4C283.753 130.12 283.813 129.94 284.033 129.86C284.233 129.78 284.453 129.94 284.713 130.22C286.273 131.9 287.353 132.28 288.433 132.28C289.333 132.28 290.113 131.84 290.113 130.96C290.113 130.1 288.993 129.56 287.373 128.9C285.633 128.22 284.013 127.52 284.013 125.88C284.013 124.06 285.673 123.2 287.193 123.2C288.253 123.2 288.893 123.42 289.413 123.44C289.733 123.46 289.813 123.2 290.073 123.2C290.333 123.2 290.453 123.46 290.693 123.86C290.993 124.42 291.153 124.78 291.313 125.14C291.433 125.46 291.433 125.72 291.233 125.84C290.913 126.02 290.633 125.66 289.953 125.14C289.173 124.56 288.193 124.08 287.253 124.08C286.173 124.08 285.573 124.62 285.573 125.32C285.573 126.2 286.513 126.64 288.353 127.38C290.273 128.14 291.833 128.9 291.833 130.4C291.833 131.88 290.393 133.2 288.193 133.2C286.873 133.2 286.273 132.82 285.873 132.82C285.553 132.82 285.473 133.2 285.113 133.2ZM297.866 133.2C295.166 133.2 293.166 131.4 293.166 128.56C293.166 125.54 295.346 123.2 298.446 123.2C301.106 123.2 303.046 125.26 303.046 127.96C303.046 130.92 300.926 133.2 297.866 133.2ZM298.486 132.24C300.186 132.24 301.246 130.88 301.246 128.96C301.246 126.46 299.746 124.22 297.746 124.22C295.966 124.22 294.986 125.7 294.986 127.6C294.986 130.22 296.446 132.24 298.486 132.24ZM305.914 133.2C305.634 133.2 305.594 133.08 305.354 132.52C305.054 131.72 304.854 131.2 304.614 130.4C304.554 130.12 304.614 129.94 304.834 129.86C305.034 129.78 305.254 129.94 305.514 130.22C307.074 131.9 308.154 132.28 309.234 132.28C310.134 132.28 310.914 131.84 310.914 130.96C310.914 130.1 309.794 129.56 308.174 128.9C306.434 128.22 304.814 127.52 304.814 125.88C304.814 124.06 306.474 123.2 307.994 123.2C309.054 123.2 309.694 123.42 310.214 123.44C310.534 123.46 310.614 123.2 310.874 123.2C311.134 123.2 311.254 123.46 311.494 123.86C311.794 124.42 311.954 124.78 312.114 125.14C312.234 125.46 312.234 125.72 312.034 125.84C311.714 126.02 311.434 125.66 310.754 125.14C309.974 124.56 308.994 124.08 308.054 124.08C306.974 124.08 306.374 124.62 306.374 125.32C306.374 126.2 307.314 126.64 309.154 127.38C311.074 128.14 312.634 128.9 312.634 130.4C312.634 131.88 311.194 133.2 308.994 133.2C307.674 133.2 307.074 132.82 306.674 132.82C306.354 132.82 306.274 133.2 305.914 133.2ZM334.65 127.4L335.27 130.92C335.49 132.16 336.33 132.02 336.33 132.62C336.33 132.92 336.03 133 335.55 133H333.41C332.95 133 332.63 132.92 332.63 132.6C332.63 132.02 333.67 132.16 333.45 130.86L332.87 127.54C332.59 125.96 332.35 124.4 330.55 124.42C329.31 124.44 327.95 125.52 327.87 127.84L327.89 130.36C327.89 132.28 328.83 131.92 328.83 132.62C328.83 132.92 328.53 133 328.05 133H325.91C325.43 133 325.11 132.92 325.11 132.6C325.11 131.92 326.07 132.28 326.07 130.36V127.58C326.07 125.78 325.61 124.34 323.87 124.38C322.47 124.4 321.09 125.6 321.09 128.04V130.36C321.09 132.28 322.01 131.92 322.01 132.62C322.01 132.92 321.73 133 321.23 133H319.09C318.63 133 318.29 132.92 318.29 132.6C318.29 131.92 319.27 132.28 319.27 130.36V126.34C319.27 125.66 319.19 125.16 318.65 124.84C318.43 124.7 318.29 124.58 318.29 124.38C318.29 124.16 318.39 124.04 318.87 123.82C319.55 123.5 320.23 123.28 320.51 123.26C320.77 123.26 320.91 123.36 320.91 123.7L320.89 125.4C321.69 123.92 323.01 123.2 324.43 123.2C326.05 123.2 327.17 123.96 327.63 125.48C328.41 123.96 329.75 123.2 331.19 123.2C333.19 123.2 334.11 124.32 334.65 127.4ZM346.908 131.76C347.128 131.76 347.308 131.78 347.308 132C347.308 132.5 346.528 133.14 345.628 133.14C344.688 133.14 344.428 132.56 344.248 131.6C343.408 132.64 342.028 133.2 340.868 133.2C338.428 133.2 337.028 131.84 337.028 130.14C337.028 128.22 338.748 126.9 341.188 126.9C342.028 126.9 342.588 126.98 343.348 127.16C342.948 125.56 342.688 124.42 340.948 124.42C339.808 124.42 339.068 124.78 338.228 125.26C337.848 125.5 337.528 125.2 337.788 124.8C338.268 124.1 339.708 123.22 341.528 123.22C343.728 123.22 344.588 124.6 344.968 126.34L345.888 130.68C346.108 131.7 346.528 131.76 346.908 131.76ZM341.328 132.2C342.708 132.2 344.148 131.14 343.988 130.26C343.908 129.8 343.748 129.28 343.568 128.4C343.488 127.92 342.168 127.74 341.548 127.74C339.788 127.74 338.848 128.58 338.868 129.92C338.928 131.22 339.828 132.2 341.328 132.2ZM349.704 121.7C349.164 121.66 348.764 121.26 348.804 120.7C348.844 119.98 349.744 119.14 350.544 119.24C351.084 119.28 351.464 119.78 351.444 120.28C351.384 120.98 350.484 121.76 349.704 121.7ZM349.524 130.36V126.4C349.524 124.66 348.544 125 348.544 124.38C348.544 124.18 348.624 124.08 349.104 123.86C350.004 123.44 350.684 123.22 350.964 123.2C351.224 123.18 351.364 123.28 351.364 123.64L351.344 126.4V130.36C351.344 132.28 352.284 131.92 352.284 132.62C352.284 132.92 351.984 133 351.504 133H349.364C348.884 133 348.564 132.92 348.564 132.6C348.564 131.92 349.524 132.28 349.524 130.36ZM355.367 133.2C355.087 133.2 355.047 133.08 354.807 132.52C354.507 131.72 354.307 131.2 354.067 130.4C354.007 130.12 354.067 129.94 354.287 129.86C354.487 129.78 354.707 129.94 354.967 130.22C356.527 131.9 357.607 132.28 358.687 132.28C359.587 132.28 360.367 131.84 360.367 130.96C360.367 130.1 359.247 129.56 357.627 128.9C355.887 128.22 354.267 127.52 354.267 125.88C354.267 124.06 355.927 123.2 357.447 123.2C358.507 123.2 359.147 123.42 359.667 123.44C359.987 123.46 360.067 123.2 360.327 123.2C360.587 123.2 360.707 123.46 360.947 123.86C361.247 124.42 361.407 124.78 361.567 125.14C361.687 125.46 361.687 125.72 361.487 125.84C361.167 126.02 360.887 125.66 360.207 125.14C359.427 124.56 358.447 124.08 357.507 124.08C356.427 124.08 355.827 124.62 355.827 125.32C355.827 126.2 356.767 126.64 358.607 127.38C360.527 128.14 362.087 128.9 362.087 130.4C362.087 131.88 360.647 133.2 358.447 133.2C357.127 133.2 356.527 132.82 356.127 132.82C355.807 132.82 355.727 133.2 355.367 133.2ZM371.463 119.82C370.783 119.82 370.183 120.38 370.183 121.7C370.183 122.32 370.303 123.4 370.663 123.4H372.943C373.283 123.4 373.683 123.42 373.583 123.9C373.483 124.4 373.163 124.44 372.823 124.42L370.663 124.36V130.38C370.663 132.46 372.003 131.9 372.003 132.62C372.003 132.92 371.703 133 371.223 133H368.703C368.243 133 367.923 132.92 367.923 132.6C367.923 132 368.883 132.32 368.883 130.38V124.3L368.303 124.28C367.963 124.26 367.623 124.24 367.683 123.82C367.763 123.44 368.023 123.4 368.363 123.4H368.883C368.883 120.06 370.143 118.8 372.083 118.8C373.623 118.8 374.383 119.82 374.383 120.86C374.383 121.42 374.003 121.84 373.503 121.84C373.063 121.84 372.803 121.54 372.683 121.14C372.463 120.28 372.163 119.82 371.463 119.82ZM378.588 133.2C375.888 133.2 373.888 131.4 373.888 128.56C373.888 125.54 376.068 123.2 379.168 123.2C381.828 123.2 383.768 125.26 383.768 127.96C383.768 130.92 381.648 133.2 378.588 133.2ZM379.208 132.24C380.908 132.24 381.968 130.88 381.968 128.96C381.968 126.46 380.468 124.22 378.468 124.22C376.688 124.22 375.708 125.7 375.708 127.6C375.708 130.22 377.168 132.24 379.208 132.24ZM390.997 123.2C392.077 123.2 392.557 123.88 392.557 124.58C392.557 125.1 392.217 125.58 391.757 125.6C390.917 125.62 390.957 124.74 390.037 124.74C389.157 124.74 388.317 125.98 388.317 127.74V130.36C388.317 132.28 389.237 131.92 389.237 132.62C389.237 132.92 388.957 133 388.457 133H386.317C385.857 133 385.517 132.92 385.517 132.6C385.517 131.92 386.497 132.28 386.497 130.36V126.34C386.497 125.66 386.417 125.16 385.877 124.84C385.657 124.7 385.517 124.58 385.517 124.38C385.517 124.16 385.617 124.04 386.097 123.82C386.777 123.5 387.457 123.28 387.737 123.26C387.997 123.26 388.137 123.36 388.137 123.7L388.117 125.32C388.737 124.14 389.817 123.2 390.997 123.2ZM399.524 131.18C399.824 130.9 400.164 131.16 400.024 131.52C399.744 132.2 398.844 133.2 397.344 133.2C395.704 133.2 394.944 132.18 394.944 130.36V129.76C394.944 127.42 394.964 125.56 395.024 124.32H394.264C393.864 124.32 393.704 124.2 393.704 123.92C393.704 123.78 393.724 123.68 393.884 123.5C394.624 122.66 395.364 122.04 396.024 121.54C396.324 121.34 396.424 121.34 396.564 121.34C396.824 121.34 396.904 121.52 396.884 121.82C396.844 122.22 396.824 122.6 396.804 123.4H398.804C399.144 123.4 399.424 123.42 399.324 123.9C399.224 124.4 398.904 124.44 398.564 124.42L396.784 124.36L396.704 129.76C396.664 131.1 396.904 131.84 398.004 131.84C398.544 131.84 399.164 131.5 399.524 131.18ZM409.304 130.42C409.644 130.06 410.084 130.28 409.884 130.78C409.464 131.76 407.944 133.2 405.424 133.2C402.624 133.2 400.744 131.18 400.744 128.54C400.744 125.52 402.864 123.2 405.824 123.2C408.004 123.2 409.464 124.46 409.824 126.18C409.904 126.54 409.824 126.82 409.364 127C407.204 127.84 405.084 128.56 402.764 129.32C403.144 130.48 404.284 131.84 406.144 131.84C407.484 131.84 408.584 131.18 409.304 130.42ZM405.204 124.14C403.404 124.16 402.504 125.8 402.504 127.26C402.504 127.76 402.524 128.14 402.624 128.48C404.264 127.94 405.824 127.42 407.284 126.86C407.604 126.74 407.724 126.54 407.664 126.18C407.464 124.94 406.304 124.1 405.204 124.14ZM412.672 133.2C412.392 133.2 412.352 133.08 412.112 132.52C411.812 131.72 411.612 131.2 411.372 130.4C411.312 130.12 411.372 129.94 411.592 129.86C411.792 129.78 412.012 129.94 412.272 130.22C413.832 131.9 414.912 132.28 415.992 132.28C416.892 132.28 417.672 131.84 417.672 130.96C417.672 130.1 416.552 129.56 414.932 128.9C413.192 128.22 411.572 127.52 411.572 125.88C411.572 124.06 413.232 123.2 414.752 123.2C415.812 123.2 416.452 123.42 416.972 123.44C417.292 123.46 417.372 123.2 417.632 123.2C417.892 123.2 418.012 123.46 418.252 123.86C418.552 124.42 418.712 124.78 418.872 125.14C418.992 125.46 418.992 125.72 418.792 125.84C418.472 126.02 418.192 125.66 417.512 125.14C416.732 124.56 415.752 124.08 414.812 124.08C413.732 124.08 413.132 124.62 413.132 125.32C413.132 126.2 414.072 126.64 415.912 127.38C417.832 128.14 419.392 128.9 419.392 130.4C419.392 131.88 417.952 133.2 415.752 133.2C414.432 133.2 413.832 132.82 413.432 132.82C413.112 132.82 413.032 133.2 412.672 133.2Z" fill="#FFFFF3"/>
<rect x="1" y="1" width="220" height="152" rx="15" fill="#9DC8FF" stroke="#1A1A1A" stroke-width="2"/>
<path d="M125.261 20.8018V20.8027L138.108 24.4365V50.3867C138.108 61.1893 131.449 68.3256 124.613 72.8184C121.202 75.0604 117.784 76.6171 115.214 77.6133C113.931 78.1107 112.863 78.4673 112.119 78.6982C111.747 78.8137 111.456 78.8974 111.261 78.9521C111.243 78.9571 111.226 78.9614 111.21 78.9658C111.194 78.9616 111.177 78.9569 111.159 78.9521C110.962 78.8996 110.669 78.8194 110.294 78.708C109.545 78.4851 108.469 78.1401 107.176 77.6553C104.586 76.6843 101.142 75.158 97.7051 72.9365C90.8213 68.4868 84.1084 61.3512 84.1084 50.3867V24.4229L96.0996 20.8047L111.208 17.0322L125.261 20.8018Z" fill="#FD86CD" stroke="#1A1A1A" stroke-width="2"/>
<path d="M40 106.38V94.86C40 94.34 40.36 94 40.9 94H41.3C41.94 94 42.1 94.24 42.36 94.84L45.86 102.16L49.36 94.84C49.6 94.22 49.8 94 50.38 94H50.76C51.34 94 51.68 94.34 51.68 94.86V106.38C51.68 106.82 51.5 107.06 51.06 107.06H50.88C50.46 107.06 50.26 106.82 50.26 106.38V102.86L50.28 95.82L46.86 102.98C46.68 103.42 46.48 103.7 45.84 103.7C45.16 103.7 45 103.42 44.8 102.98L41.4 95.84L41.42 102.82V106.38C41.42 106.82 41.24 107.06 40.8 107.06H40.58C40.16 107.06 40 106.82 40 106.38ZM53.8489 104.54C53.8489 102.38 55.8889 101.46 60.3889 101.4H60.6089V101C60.6089 99.38 59.6689 98.48 58.0289 98.48C56.5089 98.48 55.5889 99.22 55.1089 100.18C55.0689 100.2 54.2289 100.16 54.2289 99.44C54.2289 99.16 54.4289 98.74 54.8089 98.38C55.4289 97.78 56.5289 97.24 58.1089 97.24C60.6489 97.24 62.0289 98.66 62.0289 101.02V106.92C62.0289 106.98 61.7689 107.08 61.5089 107.08C61.0889 107.08 60.7489 106.88 60.6689 106.16C60.6489 105.88 60.6289 105.58 60.6289 105.28C59.9889 106.44 58.6889 107.2 57.0889 107.2C55.0889 107.2 53.8489 106.16 53.8489 104.54ZM60.6089 103.26V102.34L60.2689 102.36C56.7889 102.44 55.2889 103.04 55.2889 104.5C55.2889 105.5 56.0889 106.12 57.3689 106.12C59.2089 106.12 60.6089 104.88 60.6089 103.26ZM64.4275 94.46C64.4275 93.86 64.7675 93.54 65.3475 93.54C65.9275 93.54 66.2675 93.86 66.2675 94.46C66.2675 95.04 65.9075 95.36 65.3275 95.36C64.7675 95.36 64.4275 95.04 64.4275 94.46ZM64.6075 106.38V98.08C64.6075 97.56 64.8675 97.38 65.2475 97.38H65.4075C65.7875 97.38 66.0475 97.54 66.0475 98.08V106.38C66.0475 106.9 65.7875 107.06 65.4075 107.06H65.2475C64.8675 107.06 64.6075 106.9 64.6075 106.38ZM68.5668 106.22C68.1668 105.88 67.9868 105.56 67.9868 105.26C67.9868 104.76 68.5468 104.54 68.6068 104.56C69.2068 105.42 70.2868 106.06 71.8468 106.06C73.3468 106.06 74.2268 105.42 74.2268 104.48C74.2268 103.36 73.1868 103.14 71.5668 102.78C70.1068 102.48 68.2668 102.06 68.2668 100.12C68.2668 98.42 69.6868 97.24 71.8868 97.24C73.4268 97.24 74.4668 97.74 75.0068 98.32C75.2268 98.54 75.3668 98.84 75.3668 99.08C75.3668 99.58 74.7868 99.84 74.7468 99.8C74.2268 99 73.1868 98.38 71.9068 98.38C70.4468 98.38 69.6068 99.04 69.6068 99.96C69.6068 101 70.6068 101.24 72.1868 101.6C73.7468 101.94 75.6268 102.36 75.6268 104.32C75.6268 106.06 74.1668 107.22 71.8268 107.22C70.2668 107.22 69.1868 106.76 68.5668 106.22ZM80.951 94.46C80.951 93.86 81.291 93.54 81.871 93.54C82.451 93.54 82.791 93.86 82.791 94.46C82.791 95.04 82.431 95.36 81.851 95.36C81.291 95.36 80.951 95.04 80.951 94.46ZM81.131 106.38V98.08C81.131 97.56 81.391 97.38 81.771 97.38H81.931C82.311 97.38 82.571 97.54 82.571 98.08V106.38C82.571 106.9 82.311 107.06 81.931 107.06H81.771C81.391 107.06 81.131 106.9 81.131 106.38ZM96.1502 97.24C98.4902 97.24 99.6902 98.74 99.6902 101.26V106.38C99.6902 106.9 99.4302 107.06 99.0502 107.06H98.8902C98.5102 107.06 98.2502 106.9 98.2502 106.38V101.38C98.2502 99.54 97.4302 98.52 95.8502 98.52C94.7302 98.52 93.6502 99.24 93.1902 100.42V106.38C93.1902 106.9 92.9102 107.06 92.5502 107.06H92.3902C92.0102 107.06 91.7502 106.9 91.7502 106.38V101.26C91.7502 99.52 90.9502 98.52 89.3502 98.52C88.2502 98.52 87.1702 99.24 86.6702 100.42V106.38C86.6702 106.9 86.4102 107.06 86.0502 107.06H85.8702C85.5102 107.06 85.2302 106.9 85.2302 106.38V97.54C85.2302 97.5 85.4702 97.38 85.7502 97.38C86.1902 97.38 86.5902 97.6 86.6302 98.56L86.6502 99.04C87.2702 97.98 88.3502 97.24 89.6702 97.24C91.2902 97.24 92.3702 98.06 92.8302 99.36C93.4102 98.12 94.5702 97.24 96.1502 97.24ZM109.784 97.38C110.164 97.38 110.424 97.54 110.424 98.06V106.92C110.424 106.96 110.184 107.08 109.904 107.08C109.504 107.08 109.144 106.88 109.064 106.14C109.044 105.88 109.024 105.62 109.024 105.36C108.384 106.42 107.284 107.22 105.744 107.22C103.284 107.22 102.084 105.52 102.084 103.06V98.06C102.084 97.54 102.344 97.38 102.724 97.38H102.884C103.264 97.38 103.524 97.54 103.524 98.06V102.96C103.524 104.8 104.424 105.94 106.044 105.94C107.424 105.94 108.464 105.16 108.984 104V98.06C108.984 97.54 109.244 97.38 109.604 97.38H109.784ZM117.664 97.24C120.124 97.24 121.324 98.94 121.324 101.38V106.38C121.324 106.9 121.064 107.06 120.704 107.06H120.524C120.144 107.06 119.884 106.9 119.884 106.38V101.5C119.884 99.66 119.004 98.52 117.384 98.52C115.984 98.52 114.944 99.3 114.424 100.44V106.38C114.424 106.9 114.164 107.06 113.804 107.06H113.624C113.244 107.06 112.984 106.9 112.984 106.38V97.54C112.984 97.5 113.224 97.38 113.504 97.38C113.944 97.38 114.344 97.6 114.384 98.58V99.14C115.024 98 116.144 97.24 117.664 97.24ZM123.724 94.46C123.724 93.86 124.064 93.54 124.644 93.54C125.224 93.54 125.564 93.86 125.564 94.46C125.564 95.04 125.204 95.36 124.624 95.36C124.064 95.36 123.724 95.04 123.724 94.46ZM123.904 106.38V98.08C123.904 97.56 124.164 97.38 124.544 97.38H124.704C125.084 97.38 125.344 97.54 125.344 98.08V106.38C125.344 106.9 125.084 107.06 124.704 107.06H124.544C124.164 107.06 123.904 106.9 123.904 106.38ZM131.804 107.22C129.284 107.22 127.404 105.22 127.404 102.22C127.404 99.26 129.284 97.24 131.844 97.24C133.544 97.24 134.744 98.1 135.284 99.08V93.52C135.284 93.46 135.504 93.36 135.784 93.36C136.264 93.36 136.724 93.6 136.724 94.64V106.38C136.724 106.9 136.464 107.06 136.084 107.06H135.944C135.584 107.06 135.324 106.9 135.324 106.42C135.304 106.02 135.304 105.62 135.304 105.18C134.624 106.4 133.484 107.22 131.804 107.22ZM135.284 102.88V100.74C134.764 99.36 133.704 98.46 132.084 98.46C130.164 98.46 128.844 99.96 128.844 102.22C128.844 104.44 130.184 106 132.064 106C133.844 106 135.284 104.66 135.284 102.88ZM138.693 104.54C138.693 102.38 140.733 101.46 145.233 101.4H145.453V101C145.453 99.38 144.513 98.48 142.873 98.48C141.353 98.48 140.433 99.22 139.953 100.18C139.913 100.2 139.073 100.16 139.073 99.44C139.073 99.16 139.273 98.74 139.653 98.38C140.273 97.78 141.373 97.24 142.953 97.24C145.493 97.24 146.873 98.66 146.873 101.02V106.92C146.873 106.98 146.613 107.08 146.353 107.08C145.933 107.08 145.593 106.88 145.513 106.16C145.493 105.88 145.473 105.58 145.473 105.28C144.833 106.44 143.533 107.2 141.933 107.2C139.933 107.2 138.693 106.16 138.693 104.54ZM145.453 103.26V102.34L145.113 102.36C141.633 102.44 140.133 103.04 140.133 104.5C140.133 105.5 140.933 106.12 142.213 106.12C144.053 106.12 145.453 104.88 145.453 103.26ZM153.151 107.22C150.631 107.22 148.751 105.22 148.751 102.22C148.751 99.26 150.631 97.24 153.191 97.24C154.891 97.24 156.091 98.1 156.631 99.08V93.52C156.631 93.46 156.851 93.36 157.131 93.36C157.611 93.36 158.071 93.6 158.071 94.64V106.38C158.071 106.9 157.811 107.06 157.431 107.06H157.291C156.931 107.06 156.671 106.9 156.671 106.42C156.651 106.02 156.651 105.62 156.651 105.18C155.971 106.4 154.831 107.22 153.151 107.22ZM156.631 102.88V100.74C156.111 99.36 155.051 98.46 153.431 98.46C151.511 98.46 150.191 99.96 150.191 102.22C150.191 104.44 151.531 106 153.411 106C155.191 106 156.631 104.66 156.631 102.88ZM160.04 102.28C160.04 99.38 162.02 97.24 164.76 97.24C167.42 97.24 169.14 99.12 169.14 101.94V102.08C169.14 102.42 169 102.54 168.64 102.54H161.42C161.42 102.62 161.42 102.72 161.44 102.82C161.62 104.74 163 106.02 164.92 106.02C166.7 106.02 167.54 105.18 168.02 104.26C168.1 104.22 168.84 104.38 168.84 105.02C168.84 105.32 168.6 105.78 168.08 106.2C167.48 106.72 166.38 107.22 164.9 107.22C162 107.22 160.04 105.2 160.04 102.28ZM167.72 101.5C167.64 99.64 166.5 98.4 164.76 98.4C163.02 98.4 161.72 99.68 161.46 101.5H167.72ZM173.908 102.28C173.908 99.38 175.888 97.24 178.628 97.24C181.288 97.24 183.008 99.12 183.008 101.94V102.08C183.008 102.42 182.868 102.54 182.508 102.54H175.288C175.288 102.62 175.288 102.72 175.308 102.82C175.488 104.74 176.868 106.02 178.788 106.02C180.568 106.02 181.408 105.18 181.888 104.26C181.968 104.22 182.708 104.38 182.708 105.02C182.708 105.32 182.468 105.78 181.948 106.2C181.348 106.72 180.248 107.22 178.768 107.22C175.868 107.22 173.908 105.2 173.908 102.28ZM181.588 101.5C181.508 99.64 180.368 98.4 178.628 98.4C176.888 98.4 175.588 99.68 175.328 101.5H181.588ZM47.8388 132.22C45.3188 132.22 43.4388 130.22 43.4388 127.22C43.4388 124.26 45.3188 122.24 47.8788 122.24C49.5788 122.24 50.7788 123.1 51.3188 124.08V118.52C51.3188 118.46 51.5388 118.36 51.8188 118.36C52.2988 118.36 52.7588 118.6 52.7588 119.64V131.38C52.7588 131.9 52.4988 132.06 52.1188 132.06H51.9788C51.6188 132.06 51.3588 131.9 51.3588 131.42C51.3388 131.02 51.3388 130.62 51.3388 130.18C50.6588 131.4 49.5188 132.22 47.8388 132.22ZM51.3188 127.88V125.74C50.7988 124.36 49.7388 123.46 48.1188 123.46C46.1988 123.46 44.8788 124.96 44.8788 127.22C44.8788 129.44 46.2188 131 48.0988 131C49.8788 131 51.3188 129.66 51.3188 127.88ZM54.7279 127.28C54.7279 124.38 56.7079 122.24 59.4479 122.24C62.1079 122.24 63.8279 124.12 63.8279 126.94V127.08C63.8279 127.42 63.6879 127.54 63.3279 127.54H56.1079C56.1079 127.62 56.1079 127.72 56.1279 127.82C56.3079 129.74 57.6879 131.02 59.6079 131.02C61.3879 131.02 62.2279 130.18 62.7079 129.26C62.7879 129.22 63.5279 129.38 63.5279 130.02C63.5279 130.32 63.2879 130.78 62.7679 131.2C62.1679 131.72 61.0679 132.22 59.5879 132.22C56.6879 132.22 54.7279 130.2 54.7279 127.28ZM62.4079 126.5C62.3279 124.64 61.1879 123.4 59.4479 123.4C57.7079 123.4 56.4079 124.68 56.1479 126.5H62.4079ZM66.6371 131.38V123.68H65.2971C64.8371 123.68 64.6771 123.48 64.6771 123.12V123C64.6771 122.64 64.8371 122.46 65.2971 122.46H66.6371V121.5C66.6371 119.28 67.6571 118.18 69.4171 118.18C70.1771 118.18 70.6971 118.36 71.0371 118.66C71.2571 118.84 71.3571 119.08 71.3571 119.34C71.3571 119.78 71.0371 120.02 70.9971 119.98C70.7171 119.66 70.1371 119.4 69.5571 119.4C68.5171 119.4 68.0171 120.06 68.0171 121.62V122.46H69.8571C70.3171 122.46 70.4971 122.66 70.4971 123V123.12C70.4971 123.48 70.3171 123.68 69.8571 123.68H68.0571V131.38C68.0571 131.88 67.8171 132.06 67.4371 132.06H67.2771C66.8971 132.06 66.6371 131.9 66.6371 131.38ZM71.2122 127.28C71.2122 124.38 73.1922 122.24 75.9322 122.24C78.5922 122.24 80.3122 124.12 80.3122 126.94V127.08C80.3122 127.42 80.1722 127.54 79.8122 127.54H72.5922C72.5922 127.62 72.5922 127.72 72.6122 127.82C72.7922 129.74 74.1722 131.02 76.0922 131.02C77.8722 131.02 78.7122 130.18 79.1922 129.26C79.2722 129.22 80.0122 129.38 80.0122 130.02C80.0122 130.32 79.7722 130.78 79.2522 131.2C78.6522 131.72 77.5522 132.22 76.0722 132.22C73.1722 132.22 71.2122 130.2 71.2122 127.28ZM78.8922 126.5C78.8122 124.64 77.6722 123.4 75.9322 123.4C74.1922 123.4 72.8922 124.68 72.6322 126.5H78.8922ZM82.1214 131.22C81.7214 130.88 81.5414 130.56 81.5414 130.26C81.5414 129.76 82.1014 129.54 82.1614 129.56C82.7614 130.42 83.8414 131.06 85.4014 131.06C86.9014 131.06 87.7814 130.42 87.7814 129.48C87.7814 128.36 86.7414 128.14 85.1214 127.78C83.6614 127.48 81.8214 127.06 81.8214 125.12C81.8214 123.42 83.2414 122.24 85.4414 122.24C86.9814 122.24 88.0214 122.74 88.5614 123.32C88.7814 123.54 88.9214 123.84 88.9214 124.08C88.9214 124.58 88.3414 124.84 88.3014 124.8C87.7814 124 86.7414 123.38 85.4614 123.38C84.0014 123.38 83.1614 124.04 83.1614 124.96C83.1614 126 84.1614 126.24 85.7414 126.6C87.3014 126.94 89.1814 127.36 89.1814 129.32C89.1814 131.06 87.7214 132.22 85.3814 132.22C83.8214 132.22 82.7414 131.76 82.1214 131.22ZM90.5677 129.54C90.5677 127.38 92.6077 126.46 97.1077 126.4H97.3277V126C97.3277 124.38 96.3877 123.48 94.7477 123.48C93.2277 123.48 92.3077 124.22 91.8277 125.18C91.7877 125.2 90.9477 125.16 90.9477 124.44C90.9477 124.16 91.1477 123.74 91.5277 123.38C92.1477 122.78 93.2477 122.24 94.8277 122.24C97.3677 122.24 98.7477 123.66 98.7477 126.02V131.92C98.7477 131.98 98.4877 132.08 98.2277 132.08C97.8077 132.08 97.4677 131.88 97.3877 131.16C97.3677 130.88 97.3477 130.58 97.3477 130.28C96.7077 131.44 95.4077 132.2 93.8077 132.2C91.8077 132.2 90.5677 131.16 90.5677 129.54ZM97.3277 128.26V127.34L96.9877 127.36C93.5077 127.44 92.0077 128.04 92.0077 129.5C92.0077 130.5 92.8077 131.12 94.0877 131.12C95.9277 131.12 97.3277 129.88 97.3277 128.26ZM108.444 132.22C105.924 132.22 104.044 130.22 104.044 127.22C104.044 124.26 105.924 122.24 108.484 122.24C110.184 122.24 111.384 123.1 111.924 124.08V118.52C111.924 118.46 112.144 118.36 112.424 118.36C112.904 118.36 113.364 118.6 113.364 119.64V131.38C113.364 131.9 113.104 132.06 112.724 132.06H112.584C112.224 132.06 111.964 131.9 111.964 131.42C111.944 131.02 111.944 130.62 111.944 130.18C111.264 131.4 110.124 132.22 108.444 132.22ZM111.924 127.88V125.74C111.404 124.36 110.344 123.46 108.724 123.46C106.804 123.46 105.484 124.96 105.484 127.22C105.484 129.44 106.824 131 108.704 131C110.484 131 111.924 129.66 111.924 127.88ZM115.333 127.22C115.333 124.32 117.333 122.24 120.193 122.24C123.013 122.24 125.013 124.34 125.013 127.26C125.013 130.14 123.013 132.22 120.173 132.22C117.313 132.22 115.333 130.12 115.333 127.22ZM123.613 127.26C123.613 125.06 122.193 123.46 120.193 123.46C118.193 123.46 116.733 125.02 116.733 127.22C116.733 129.42 118.193 131 120.193 131C122.173 131 123.613 129.44 123.613 127.26ZM129.806 127.2C129.806 124.34 131.806 122.24 134.626 122.24C136.126 122.24 137.166 122.78 137.806 123.4C138.346 123.9 138.586 124.48 138.586 124.84C138.586 125.48 137.726 125.6 137.666 125.52C137.246 124.42 136.386 123.48 134.646 123.48C132.646 123.48 131.226 125.04 131.226 127.2C131.226 129.4 132.626 130.98 134.646 130.98C136.366 130.98 137.246 130.04 137.666 128.94C137.706 128.86 138.586 128.96 138.586 129.64C138.586 129.96 138.346 130.52 137.806 131.04C137.186 131.7 136.126 132.22 134.606 132.22C131.806 132.22 129.806 130.12 129.806 127.2ZM139.884 127.22C139.884 124.32 141.884 122.24 144.744 122.24C147.564 122.24 149.564 124.34 149.564 127.26C149.564 130.14 147.564 132.22 144.724 132.22C141.864 132.22 139.884 130.12 139.884 127.22ZM148.164 127.26C148.164 125.06 146.744 123.46 144.744 123.46C142.744 123.46 141.284 125.02 141.284 127.22C141.284 129.42 142.744 131 144.744 131C146.724 131 148.164 129.44 148.164 127.26ZM155.419 122.24C156.279 122.24 156.839 122.66 156.839 123.28C156.839 123.86 156.439 124.1 156.399 124.06C156.159 123.82 155.779 123.66 155.259 123.66C153.699 123.66 152.979 125.2 152.979 127.6V131.38C152.979 131.88 152.719 132.06 152.359 132.06H152.199C151.799 132.06 151.539 131.9 151.539 131.38V122.54C151.539 122.5 151.759 122.38 152.059 122.38C152.459 122.38 152.819 122.58 152.899 123.34C152.919 123.68 152.939 124.02 152.939 124.38C153.319 122.94 154.199 122.24 155.419 122.24ZM163.314 122.24C165.814 122.24 167.714 124.22 167.714 127.2C167.714 130.18 165.854 132.22 163.274 132.22C161.534 132.22 160.334 131.26 159.834 130.22V135.18C159.834 135.68 159.574 135.86 159.214 135.86H159.054C158.674 135.86 158.414 135.68 158.414 135.18V122.54C158.414 122.5 158.634 122.38 158.914 122.38C159.334 122.38 159.734 122.62 159.794 123.46C159.794 123.7 159.814 124.02 159.814 124.28C160.514 123.04 161.654 122.24 163.314 122.24ZM163.014 131C164.974 131 166.294 129.48 166.294 127.22C166.294 125 164.914 123.46 163.054 123.46C161.454 123.46 160.354 124.38 159.814 125.76V127.88C159.814 129.64 161.254 131 163.014 131ZM169.083 127.22C169.083 124.32 171.083 122.24 173.943 122.24C176.763 122.24 178.763 124.34 178.763 127.26C178.763 130.14 176.763 132.22 173.923 132.22C171.063 132.22 169.083 130.12 169.083 127.22ZM177.363 127.26C177.363 125.06 175.943 123.46 173.943 123.46C171.943 123.46 170.483 125.02 170.483 127.22C170.483 129.42 171.943 131 173.943 131C175.923 131 177.363 129.44 177.363 127.26Z" fill="#1A1A1A"/>
</svg>
