<svg width="516" height="317" viewBox="0 0 516 317" fill="none" xmlns="http://www.w3.org/2000/svg">
<rect x="358.53" y="268" width="156" height="48" rx="24" fill="#9DC8FF"/>
<rect x="358.53" y="268" width="156" height="48" rx="24" stroke="#1A1A1A" stroke-width="2"/>
<path d="M406.89 291.4L407.51 294.92C407.73 296.16 408.57 296.02 408.57 296.62C408.57 296.92 408.27 297 407.79 297H405.65C405.19 297 404.87 296.92 404.87 296.6C404.87 296.02 405.91 296.16 405.69 294.86L405.11 291.54C404.83 289.96 404.59 288.4 402.79 288.42C401.55 288.44 400.19 289.52 400.11 291.84L400.13 294.36C400.13 296.28 401.07 295.92 401.07 296.62C401.07 296.92 400.77 297 400.29 297H398.15C397.67 297 397.35 296.92 397.35 296.6C397.35 295.92 398.31 296.28 398.31 294.36V291.58C398.31 289.78 397.85 288.34 396.11 288.38C394.71 288.4 393.33 289.6 393.33 292.04V294.36C393.33 296.28 394.25 295.92 394.25 296.62C394.25 296.92 393.97 297 393.47 297H391.33C390.87 297 390.53 296.92 390.53 296.6C390.53 295.92 391.51 296.28 391.51 294.36V290.34C391.51 289.66 391.43 289.16 390.89 288.84C390.67 288.7 390.53 288.58 390.53 288.38C390.53 288.16 390.63 288.04 391.11 287.82C391.79 287.5 392.47 287.28 392.75 287.26C393.01 287.26 393.15 287.36 393.15 287.7L393.13 289.4C393.93 287.92 395.25 287.2 396.67 287.2C398.29 287.2 399.41 287.96 399.87 289.48C400.65 287.96 401.99 287.2 403.43 287.2C405.43 287.2 406.35 288.32 406.89 291.4ZM419.149 295.76C419.369 295.76 419.549 295.78 419.549 296C419.549 296.5 418.769 297.14 417.869 297.14C416.929 297.14 416.669 296.56 416.489 295.6C415.649 296.64 414.269 297.2 413.109 297.2C410.669 297.2 409.269 295.84 409.269 294.14C409.269 292.22 410.989 290.9 413.429 290.9C414.269 290.9 414.829 290.98 415.589 291.16C415.189 289.56 414.929 288.42 413.189 288.42C412.049 288.42 411.309 288.78 410.469 289.26C410.089 289.5 409.769 289.2 410.029 288.8C410.509 288.1 411.949 287.22 413.769 287.22C415.969 287.22 416.829 288.6 417.209 290.34L418.129 294.68C418.349 295.7 418.769 295.76 419.149 295.76ZM413.569 296.2C414.949 296.2 416.389 295.14 416.229 294.26C416.149 293.8 415.989 293.28 415.809 292.4C415.729 291.92 414.409 291.74 413.789 291.74C412.029 291.74 411.089 292.58 411.109 293.92C411.169 295.22 412.069 296.2 413.569 296.2ZM421.945 285.7C421.405 285.66 421.005 285.26 421.045 284.7C421.085 283.98 421.985 283.14 422.785 283.24C423.325 283.28 423.705 283.78 423.685 284.28C423.625 284.98 422.725 285.76 421.945 285.7ZM421.765 294.36V290.4C421.765 288.66 420.785 289 420.785 288.38C420.785 288.18 420.865 288.08 421.345 287.86C422.245 287.44 422.925 287.22 423.205 287.2C423.465 287.18 423.605 287.28 423.605 287.64L423.585 290.4V294.36C423.585 296.28 424.525 295.92 424.525 296.62C424.525 296.92 424.225 297 423.745 297H421.605C421.125 297 420.805 296.92 420.805 296.6C420.805 295.92 421.765 296.28 421.765 294.36ZM427.608 297.2C427.328 297.2 427.288 297.08 427.048 296.52C426.748 295.72 426.548 295.2 426.308 294.4C426.248 294.12 426.308 293.94 426.528 293.86C426.728 293.78 426.948 293.94 427.208 294.22C428.768 295.9 429.848 296.28 430.928 296.28C431.828 296.28 432.608 295.84 432.608 294.96C432.608 294.1 431.488 293.56 429.868 292.9C428.128 292.22 426.508 291.52 426.508 289.88C426.508 288.06 428.168 287.2 429.688 287.2C430.748 287.2 431.388 287.42 431.908 287.44C432.228 287.46 432.308 287.2 432.568 287.2C432.828 287.2 432.948 287.46 433.188 287.86C433.488 288.42 433.648 288.78 433.808 289.14C433.928 289.46 433.928 289.72 433.728 289.84C433.408 290.02 433.128 289.66 432.448 289.14C431.668 288.56 430.688 288.08 429.748 288.08C428.668 288.08 428.068 288.62 428.068 289.32C428.068 290.2 429.008 290.64 430.848 291.38C432.768 292.14 434.328 292.9 434.328 294.4C434.328 295.88 432.888 297.2 430.688 297.2C429.368 297.2 428.768 296.82 428.368 296.82C428.048 296.82 427.968 297.2 427.608 297.2ZM443.704 283.82C443.024 283.82 442.424 284.38 442.424 285.7C442.424 286.32 442.544 287.4 442.904 287.4H445.184C445.524 287.4 445.924 287.42 445.824 287.9C445.724 288.4 445.404 288.44 445.064 288.42L442.904 288.36V294.38C442.904 296.46 444.244 295.9 444.244 296.62C444.244 296.92 443.944 297 443.464 297H440.944C440.484 297 440.164 296.92 440.164 296.6C440.164 296 441.124 296.32 441.124 294.38V288.3L440.544 288.28C440.204 288.26 439.864 288.24 439.924 287.82C440.004 287.44 440.264 287.4 440.604 287.4H441.124C441.124 284.06 442.384 282.8 444.324 282.8C445.864 282.8 446.624 283.82 446.624 284.86C446.624 285.42 446.244 285.84 445.744 285.84C445.304 285.84 445.044 285.54 444.924 285.14C444.704 284.28 444.404 283.82 443.704 283.82ZM450.829 297.2C448.129 297.2 446.129 295.4 446.129 292.56C446.129 289.54 448.309 287.2 451.409 287.2C454.069 287.2 456.009 289.26 456.009 291.96C456.009 294.92 453.889 297.2 450.829 297.2ZM451.449 296.24C453.149 296.24 454.209 294.88 454.209 292.96C454.209 290.46 452.709 288.22 450.709 288.22C448.929 288.22 447.949 289.7 447.949 291.6C447.949 294.22 449.409 296.24 451.449 296.24ZM463.237 287.2C464.317 287.2 464.797 287.88 464.797 288.58C464.797 289.1 464.457 289.58 463.997 289.6C463.157 289.62 463.197 288.74 462.277 288.74C461.397 288.74 460.557 289.98 460.557 291.74V294.36C460.557 296.28 461.477 295.92 461.477 296.62C461.477 296.92 461.197 297 460.697 297H458.557C458.097 297 457.757 296.92 457.757 296.6C457.757 295.92 458.737 296.28 458.737 294.36V290.34C458.737 289.66 458.657 289.16 458.117 288.84C457.897 288.7 457.757 288.58 457.757 288.38C457.757 288.16 457.857 288.04 458.337 287.82C459.017 287.5 459.697 287.28 459.977 287.26C460.237 287.26 460.377 287.36 460.377 287.7L460.357 289.32C460.977 288.14 462.057 287.2 463.237 287.2ZM471.765 295.18C472.065 294.9 472.405 295.16 472.265 295.52C471.985 296.2 471.085 297.2 469.585 297.2C467.945 297.2 467.185 296.18 467.185 294.36V293.76C467.185 291.42 467.205 289.56 467.265 288.32H466.505C466.105 288.32 465.945 288.2 465.945 287.92C465.945 287.78 465.965 287.68 466.125 287.5C466.865 286.66 467.605 286.04 468.265 285.54C468.565 285.34 468.665 285.34 468.805 285.34C469.065 285.34 469.145 285.52 469.125 285.82C469.085 286.22 469.065 286.6 469.045 287.4H471.045C471.385 287.4 471.665 287.42 471.565 287.9C471.465 288.4 471.145 288.44 470.805 288.42L469.025 288.36L468.945 293.76C468.905 295.1 469.145 295.84 470.245 295.84C470.785 295.84 471.405 295.5 471.765 295.18ZM481.544 294.42C481.884 294.06 482.324 294.28 482.124 294.78C481.704 295.76 480.184 297.2 477.664 297.2C474.864 297.2 472.984 295.18 472.984 292.54C472.984 289.52 475.104 287.2 478.064 287.2C480.244 287.2 481.704 288.46 482.064 290.18C482.144 290.54 482.064 290.82 481.604 291C479.444 291.84 477.324 292.56 475.004 293.32C475.384 294.48 476.524 295.84 478.384 295.84C479.724 295.84 480.824 295.18 481.544 294.42ZM477.444 288.14C475.644 288.16 474.744 289.8 474.744 291.26C474.744 291.76 474.764 292.14 474.864 292.48C476.504 291.94 478.064 291.42 479.524 290.86C479.844 290.74 479.964 290.54 479.904 290.18C479.704 288.94 478.544 288.1 477.444 288.14Z" fill="#1A1A1A"/>
<circle cx="379.53" cy="239" r="21" fill="#FD86CD" stroke="#1A1A1A" stroke-width="2"/>
<path d="M320.901 218C321.646 218.082 322.07 218.188 322.889 218.328L322.956 218.34L323.024 218.342C323.141 218.346 323.223 218.352 323.276 218.357C323.293 218.359 323.306 218.36 323.315 218.361L323.322 218.363L323.347 218.368C332.803 220.301 339.858 225.243 342.492 234.623C345.81 246.437 340.996 257.598 330.682 262.805C329.152 263.577 327.464 264.093 325.628 264.561C323.832 265.018 321.814 265.446 319.836 266.015L320.033 267.973C321.482 268.088 322.454 268.075 323.48 268.256C336.492 270.549 345.524 283.928 342.968 297.192C341.159 306.577 333.643 313.956 324.238 315.486C322.264 315.807 320.231 315.948 318.213 315.95C292.929 315.981 267.629 315.913 242.338 316C232.96 316.032 225.464 312.889 220.425 304.907C219.842 303.984 219.378 302.961 218.917 301.843C218.483 300.789 218.033 299.607 217.514 298.446C216.3 291.223 217.148 285.264 219.899 280.512C222.577 275.883 227.131 272.277 233.638 269.77L234.274 269.53C234.635 269.398 235.772 269.043 236.799 268.7C237.084 268.605 238.642 268.146 240.201 268.031L240.279 266.045C235.078 265.256 232.427 264.328 228.894 263.043C226.59 261.735 224.826 261.145 222.056 257.757C218.59 253.516 217.982 250.863 217.345 248.323C215.84 242.328 216.311 236.5 219.676 230.553C223.801 223.263 230.142 219.239 238.694 218.136C266.125 218.008 293.358 218.023 320.901 218Z" fill="#FD86CD" stroke="#1A1A1A" stroke-width="2"/>
<path d="M265.61 240.2C268.11 240.2 269.67 242.22 269.67 244.96C269.67 247.98 267.81 250.18 265.33 250.2C264.15 250.22 262.93 249.78 262.17 249.14L262.19 251.36C262.19 253.28 263.11 252.92 263.11 253.62C263.11 253.92 262.83 254 262.33 254H260.19C259.73 254 259.41 253.92 259.41 253.62C259.41 252.92 260.37 253.28 260.37 251.36L260.33 243.26C260.33 242.6 260.25 242.1 259.73 241.78C259.51 241.64 259.37 241.52 259.37 241.32C259.37 241.08 259.47 240.96 259.95 240.74C260.63 240.44 261.31 240.22 261.59 240.2C261.85 240.18 261.99 240.28 261.99 240.64L261.97 242.26C262.61 241.18 263.81 240.2 265.61 240.2ZM265.33 249.3C267.07 249.28 267.87 247.68 267.87 245.76C267.87 242.88 266.47 241.46 264.95 241.46C263.11 241.46 262.17 243.2 262.17 244.66V246.06C262.17 248.14 263.93 249.32 265.33 249.3ZM280.571 248.76C280.791 248.76 280.971 248.78 280.971 249C280.971 249.5 280.191 250.14 279.291 250.14C278.351 250.14 278.091 249.56 277.911 248.6C277.071 249.64 275.691 250.2 274.531 250.2C272.091 250.2 270.691 248.84 270.691 247.14C270.691 245.22 272.411 243.9 274.851 243.9C275.691 243.9 276.251 243.98 277.011 244.16C276.611 242.56 276.351 241.42 274.611 241.42C273.471 241.42 272.731 241.78 271.891 242.26C271.511 242.5 271.191 242.2 271.451 241.8C271.931 241.1 273.371 240.22 275.191 240.22C277.391 240.22 278.251 241.6 278.631 243.34L279.551 247.68C279.771 248.7 280.191 248.76 280.571 248.76ZM274.991 249.2C276.371 249.2 277.811 248.14 277.651 247.26C277.571 246.8 277.411 246.28 277.231 245.4C277.151 244.92 275.831 244.74 275.211 244.74C273.451 244.74 272.511 245.58 272.531 246.92C272.591 248.22 273.491 249.2 274.991 249.2ZM287.667 240.2C288.747 240.2 289.227 240.88 289.227 241.58C289.227 242.1 288.887 242.58 288.427 242.6C287.587 242.62 287.627 241.74 286.707 241.74C285.827 241.74 284.987 242.98 284.987 244.74V247.36C284.987 249.28 285.907 248.92 285.907 249.62C285.907 249.92 285.627 250 285.127 250H282.987C282.527 250 282.187 249.92 282.187 249.6C282.187 248.92 283.167 249.28 283.167 247.36V243.34C283.167 242.66 283.087 242.16 282.547 241.84C282.327 241.7 282.187 241.58 282.187 241.38C282.187 241.16 282.287 241.04 282.767 240.82C283.447 240.5 284.127 240.28 284.407 240.26C284.667 240.26 284.807 240.36 284.807 240.7L284.787 242.32C285.407 241.14 286.487 240.2 287.667 240.2ZM299.653 248.76C299.873 248.76 300.053 248.78 300.053 249C300.053 249.5 299.273 250.14 298.373 250.14C297.433 250.14 297.173 249.56 296.993 248.6C296.153 249.64 294.773 250.2 293.613 250.2C291.173 250.2 289.773 248.84 289.773 247.14C289.773 245.22 291.493 243.9 293.933 243.9C294.773 243.9 295.333 243.98 296.093 244.16C295.693 242.56 295.433 241.42 293.693 241.42C292.553 241.42 291.813 241.78 290.973 242.26C290.593 242.5 290.273 242.2 290.533 241.8C291.013 241.1 292.453 240.22 294.273 240.22C296.473 240.22 297.333 241.6 297.713 243.34L298.633 247.68C298.853 248.7 299.273 248.76 299.653 248.76ZM294.073 249.2C295.453 249.2 296.893 248.14 296.733 247.26C296.653 246.8 296.493 246.28 296.313 245.4C296.233 244.92 294.913 244.74 294.293 244.74C292.533 244.74 291.593 245.58 291.613 246.92C291.673 248.22 292.573 249.2 294.073 249.2Z" fill="#FFFFF3"/>
<path d="M250.89 296.2C248.07 296.2 246.23 294.12 246.23 291.54C246.23 288.52 248.43 286.22 251.29 286.22C253.77 286.22 255.17 287.88 255.17 289.46C255.17 290.14 254.77 290.54 254.23 290.54C253.61 290.54 253.37 290.06 253.21 289.52C252.83 288.18 252.17 287.18 250.75 287.14C249.01 287.14 247.99 288.58 247.99 290.5C247.99 293.14 249.47 294.86 251.67 294.86C252.99 294.86 253.89 294.2 254.61 293.44C254.95 293.1 255.39 293.3 255.19 293.8C254.77 294.8 253.45 296.2 250.89 296.2ZM262.323 286.2C263.403 286.2 263.883 286.88 263.883 287.58C263.883 288.1 263.543 288.58 263.083 288.6C262.243 288.62 262.283 287.74 261.363 287.74C260.483 287.74 259.643 288.98 259.643 290.74V293.36C259.643 295.28 260.563 294.92 260.563 295.62C260.563 295.92 260.283 296 259.783 296H257.643C257.183 296 256.843 295.92 256.843 295.6C256.843 294.92 257.823 295.28 257.823 293.36V289.34C257.823 288.66 257.743 288.16 257.203 287.84C256.983 287.7 256.843 287.58 256.843 287.38C256.843 287.16 256.943 287.04 257.423 286.82C258.103 286.5 258.783 286.28 259.063 286.26C259.323 286.26 259.463 286.36 259.463 286.7L259.443 288.32C260.063 287.14 261.143 286.2 262.323 286.2ZM273.326 293.42C273.666 293.06 274.106 293.28 273.906 293.78C273.486 294.76 271.966 296.2 269.446 296.2C266.646 296.2 264.766 294.18 264.766 291.54C264.766 288.52 266.886 286.2 269.846 286.2C272.026 286.2 273.486 287.46 273.846 289.18C273.926 289.54 273.846 289.82 273.386 290C271.226 290.84 269.106 291.56 266.786 292.32C267.166 293.48 268.306 294.84 270.166 294.84C271.506 294.84 272.606 294.18 273.326 293.42ZM269.226 287.14C267.426 287.16 266.526 288.8 266.526 290.26C266.526 290.76 266.546 291.14 266.646 291.48C268.286 290.94 269.846 290.42 271.306 289.86C271.626 289.74 271.746 289.54 271.686 289.18C271.486 287.94 270.326 287.1 269.226 287.14ZM276.693 296.2C276.413 296.2 276.373 296.08 276.133 295.52C275.833 294.72 275.633 294.2 275.393 293.4C275.333 293.12 275.393 292.94 275.613 292.86C275.813 292.78 276.033 292.94 276.293 293.22C277.853 294.9 278.933 295.28 280.013 295.28C280.913 295.28 281.693 294.84 281.693 293.96C281.693 293.1 280.573 292.56 278.953 291.9C277.213 291.22 275.593 290.52 275.593 288.88C275.593 287.06 277.253 286.2 278.773 286.2C279.833 286.2 280.473 286.42 280.993 286.44C281.313 286.46 281.393 286.2 281.653 286.2C281.913 286.2 282.033 286.46 282.273 286.86C282.573 287.42 282.733 287.78 282.893 288.14C283.013 288.46 283.013 288.72 282.813 288.84C282.493 289.02 282.213 288.66 281.533 288.14C280.753 287.56 279.773 287.08 278.833 287.08C277.753 287.08 277.153 287.62 277.153 288.32C277.153 289.2 278.093 289.64 279.933 290.38C281.853 291.14 283.413 291.9 283.413 293.4C283.413 294.88 281.973 296.2 279.773 296.2C278.453 296.2 277.853 295.82 277.453 295.82C277.133 295.82 277.053 296.2 276.693 296.2ZM289.406 296.2C286.586 296.2 284.746 294.12 284.746 291.54C284.746 288.52 286.946 286.22 289.806 286.22C292.286 286.22 293.686 287.88 293.686 289.46C293.686 290.14 293.286 290.54 292.746 290.54C292.126 290.54 291.886 290.06 291.726 289.52C291.346 288.18 290.686 287.18 289.266 287.14C287.526 287.14 286.506 288.58 286.506 290.5C286.506 293.14 287.986 294.86 290.186 294.86C291.506 294.86 292.406 294.2 293.126 293.44C293.466 293.1 293.906 293.3 293.706 293.8C293.286 294.8 291.966 296.2 289.406 296.2ZM303.619 293.42C303.959 293.06 304.399 293.28 304.199 293.78C303.779 294.76 302.259 296.2 299.739 296.2C296.939 296.2 295.059 294.18 295.059 291.54C295.059 288.52 297.179 286.2 300.139 286.2C302.319 286.2 303.779 287.46 304.139 289.18C304.219 289.54 304.139 289.82 303.679 290C301.519 290.84 299.399 291.56 297.079 292.32C297.459 293.48 298.599 294.84 300.459 294.84C301.799 294.84 302.899 294.18 303.619 293.42ZM299.519 287.14C297.719 287.16 296.819 288.8 296.819 290.26C296.819 290.76 296.839 291.14 296.939 291.48C298.579 290.94 300.139 290.42 301.599 289.86C301.919 289.74 302.039 289.54 301.979 289.18C301.779 287.94 300.619 287.1 299.519 287.14ZM311.346 286.2C312.426 286.2 312.906 286.88 312.906 287.58C312.906 288.1 312.566 288.58 312.106 288.6C311.266 288.62 311.306 287.74 310.386 287.74C309.506 287.74 308.666 288.98 308.666 290.74V293.36C308.666 295.28 309.586 294.92 309.586 295.62C309.586 295.92 309.306 296 308.806 296H306.666C306.206 296 305.866 295.92 305.866 295.6C305.866 294.92 306.846 295.28 306.846 293.36V289.34C306.846 288.66 306.766 288.16 306.226 287.84C306.006 287.7 305.866 287.58 305.866 287.38C305.866 287.16 305.966 287.04 306.446 286.82C307.126 286.5 307.806 286.28 308.086 286.26C308.346 286.26 308.486 286.36 308.486 286.7L308.466 288.32C309.086 287.14 310.166 286.2 311.346 286.2Z" fill="#FFFFF3"/>
<path d="M61.9668 218C62.8304 231.025 68.3142 241.8 79.0293 249.691C86.6963 255.336 95.4239 257.875 104.906 257.488C125.049 256.667 143.087 240.678 144.276 218.043H202.719C202.723 218.464 202.724 218.877 202.706 219.302C201.442 249.154 189.466 273.794 166.669 293.081C153.12 304.544 137.449 311.794 119.932 314.57C90.2495 319.274 63.4525 312.404 40.0498 293.459C22.3875 279.161 11.1541 260.695 5.91895 238.398C4.37956 231.613 3.59579 224.895 3.53613 218H61.9668Z" fill="#9DC8FF" stroke="#1A1A1A" stroke-width="2"/>
<path d="M40.6092 256.309C39.8128 255.014 39.6675 254.282 39.3532 253.771C39.1122 253.379 38.8449 253.402 38.6772 253.13C38.4782 252.806 38.5948 252.5 39.237 251.94C39.7192 251.503 40.3575 250.899 41.3914 250.099C41.7112 249.855 41.9981 249.749 42.1658 250.021C42.3125 250.26 42.2574 250.552 41.9743 251.008C41.1368 252.204 40.3227 253.973 41.5316 255.976C42.548 257.629 43.9801 257.781 45.0848 257.172C46.5681 256.377 46.1663 254.464 45.9636 252.569C45.7401 250.335 45.2964 248.049 47.3747 246.771C48.959 245.796 51.2898 246.264 52.9035 248.888C53.3645 249.637 53.5544 250.366 53.8477 250.843C54.0887 251.235 54.339 251.222 54.5067 251.494C54.7057 251.818 54.5707 252.018 53.96 252.629C53.5394 253.052 53.0374 253.572 52.2865 254.222C51.9943 254.472 51.7243 254.567 51.5567 254.295C51.41 254.056 51.4546 253.747 51.6932 253.295C52.2267 252.216 52.8049 250.522 51.8723 249.006C51.0131 247.609 49.7959 247.348 48.7568 247.987C47.445 248.794 47.75 250.32 47.9448 252.431C48.1801 254.799 48.7128 257.077 46.7275 258.392C44.6059 259.791 42.0093 258.547 40.6092 256.309ZM57.6967 263.457L55.5326 265.17L52.4299 267.663C51.245 268.615 52.3426 269.247 51.8905 269.61C51.7346 269.735 51.4784 269.736 51.1252 269.584C50.5656 269.366 49.8432 268.946 49.5426 268.572C49.2419 268.198 49.4098 267.832 49.9274 267.39L50.5541 266.861C49.0363 266.952 47.6761 266.249 46.9872 265.391C45.7471 263.848 45.8057 262.005 47.9729 260.263L50.1713 258.497C51.5433 257.395 50.6364 256.841 51.1197 256.453C51.2756 256.327 51.4162 256.343 51.8883 256.579C52.7669 257.002 53.3769 257.41 53.5678 257.616C53.7462 257.806 53.756 257.978 53.4753 258.203L51.3112 259.916L49.2687 261.557C47.8655 262.684 47.2902 263.916 48.2734 265.076C49.0907 266.061 50.9782 266.495 52.5061 265.267L54.3927 263.752C55.7647 262.649 54.8578 262.095 55.3411 261.707C55.497 261.582 55.6376 261.597 56.1097 261.833C56.9883 262.256 57.5857 262.649 57.7892 262.87C57.9676 263.06 57.9774 263.232 57.6967 263.457ZM59.5998 276.581C59.7594 276.732 59.8762 276.871 59.7247 277.03C59.3806 277.393 58.3743 277.32 57.7214 276.701C57.0395 276.054 57.2501 275.454 57.7802 274.634C56.4551 274.81 55.0685 274.266 54.227 273.468C52.457 271.789 52.3774 269.838 53.5475 268.605C54.8691 267.212 57.0254 267.439 58.7954 269.118C59.4048 269.696 59.756 270.14 60.1834 270.793C60.9945 269.357 61.5905 268.351 60.3283 267.154C59.5013 266.369 58.7167 266.121 57.7769 265.891C57.3361 265.804 57.3104 265.366 57.7744 265.254C58.6044 265.077 60.2547 265.43 61.575 266.683C63.1709 268.197 62.845 269.79 61.923 271.314L59.6032 275.095C59.0607 275.987 59.3241 276.319 59.5998 276.581ZM55.249 273.059C56.2501 274.009 58.0243 274.231 58.5139 273.483C58.7725 273.094 59.0144 272.607 59.4895 271.844C59.7618 271.441 58.9282 270.402 58.4784 269.975C57.2016 268.764 55.9416 268.726 55.0338 269.712C54.1825 270.696 54.1609 272.027 55.249 273.059ZM80.2984 283.515L79.1975 286.916C78.8111 288.114 79.6188 288.384 79.3378 288.914C79.1973 289.179 78.8948 289.11 78.4707 288.885L76.5799 287.882C76.1735 287.667 75.9282 287.446 76.0781 287.164C76.3498 286.651 77.2031 287.262 77.6176 286.01L78.6602 282.805C79.1528 281.278 79.6715 279.788 78.0717 278.962C76.9668 278.399 75.2594 278.716 74.102 280.729L72.9394 282.964C72.0401 284.661 73.0392 284.783 72.7114 285.401C72.5708 285.667 72.2683 285.597 71.8442 285.372L69.9535 284.37C69.5294 284.145 69.2841 283.924 69.434 283.641C69.7525 283.041 70.4321 283.808 71.3314 282.112L72.6335 279.656C73.4766 278.065 73.7446 276.578 72.1885 275.798C70.9422 275.16 69.1609 275.574 68.018 277.73L66.9314 279.779C66.0321 281.476 67.0136 281.589 66.6857 282.207C66.5452 282.472 66.2603 282.412 65.8186 282.178L63.9278 281.175C63.5214 280.96 63.2585 280.73 63.4084 280.447C63.7269 279.846 64.4241 280.623 65.3234 278.927L67.2063 275.375C67.5248 274.774 67.6883 274.295 67.3611 273.76C67.2323 273.533 67.1648 273.361 67.2585 273.184C67.3615 272.99 67.5061 272.931 68.0332 272.961C68.7839 272.997 69.4877 273.121 69.7445 273.235C69.9742 273.357 70.051 273.51 69.8918 273.811L69.0779 275.303C70.4779 274.371 71.9814 274.353 73.236 275.018C74.6673 275.777 75.3009 276.973 74.9954 278.531C76.3965 277.553 77.9364 277.51 79.2086 278.184C80.9757 279.121 81.2639 280.541 80.2984 283.515ZM88.7693 289.168C89.1913 288.909 89.5589 289.236 89.2356 289.667C88.5749 290.504 86.7324 291.498 84.2993 290.842C81.5959 290.113 80.3066 287.674 80.9939 285.125C81.7802 282.209 84.4311 280.521 87.289 281.291C89.3938 281.859 90.4754 283.456 90.3752 285.21C90.3588 285.578 90.2086 285.828 89.7176 285.882C87.4134 286.131 85.1791 286.274 82.7412 286.404C82.8061 287.623 83.5527 289.232 85.3486 289.717C86.6424 290.066 87.8763 289.715 88.7693 289.168ZM86.4457 282.037C84.7025 281.588 83.4066 282.937 83.0265 284.347C82.8963 284.83 82.8167 285.202 82.8247 285.556C84.5488 285.462 86.1903 285.366 87.7458 285.205C88.086 285.173 88.2539 285.011 88.2897 284.648C88.4194 283.398 87.5181 282.285 86.4457 282.037ZM91.5785 289.652L92.7866 281.38C93.0451 279.639 92.0228 279.851 92.1139 279.238C92.1433 279.04 92.2569 278.956 92.764 278.808C93.6961 278.522 94.4011 278.405 94.7008 278.429C94.9609 278.447 95.0847 278.567 95.0318 278.923L94.6066 281.65L93.3788 289.919C93.0968 291.818 94.0597 291.597 93.9569 292.29C93.9128 292.587 93.6241 292.625 93.1295 292.551L91.0127 292.237C90.5577 292.169 90.2332 292.04 90.2802 291.724C90.38 291.051 91.2965 291.551 91.5785 289.652ZM105.571 287.504L106.09 291.04C106.295 292.286 107.118 292.17 107.101 292.77C107.093 293.069 106.81 293.141 106.311 293.127L104.192 293.067C103.712 293.053 103.394 292.964 103.403 292.644C103.42 292.064 104.455 292.234 104.273 290.928L103.788 287.593C103.573 286.006 103.277 284.437 101.458 284.405C100.157 284.388 98.7449 285.508 98.6753 287.947L98.6091 290.266C98.5544 292.186 99.4843 291.852 99.4643 292.552C99.4557 292.851 99.1736 292.923 98.6738 292.909L96.5346 292.848C96.0748 292.835 95.7372 292.745 95.7464 292.425C95.7658 291.746 96.7351 292.134 96.7899 290.214L97.0084 281.857C97.0586 280.098 96.0687 280.43 96.0864 279.81C96.0921 279.61 96.195 279.513 96.681 279.307C97.5727 278.912 98.2587 278.712 98.5591 278.7C98.8196 278.688 98.9567 278.792 98.9464 279.151L98.8477 281.91L98.7598 284.988C99.6154 283.752 100.913 283.169 102.132 283.204C104.131 283.261 105.139 284.41 105.571 287.504ZM112.541 292.672C109.863 293.011 107.652 291.476 107.296 288.659C106.916 285.663 108.785 283.067 111.861 282.678C114.5 282.344 116.683 284.144 117.022 286.823C117.394 289.759 115.577 292.287 112.541 292.672ZM113.036 291.641C114.722 291.428 115.603 289.946 115.362 288.041C115.048 285.561 113.279 283.527 111.294 283.778C109.529 284.001 108.742 285.593 108.981 287.478C109.31 290.077 111.012 291.898 113.036 291.641ZM122.027 280.56C123.068 280.273 123.712 280.801 123.898 281.476C124.036 281.977 123.836 282.53 123.398 282.672C122.593 282.914 122.398 282.055 121.511 282.3C120.663 282.534 120.182 283.953 120.65 285.649L121.347 288.175C121.857 290.026 122.649 289.434 122.835 290.109C122.914 290.398 122.666 290.55 122.184 290.683L120.121 291.252C119.677 291.374 119.328 291.387 119.243 291.079C119.062 290.423 120.103 290.51 119.592 288.659L118.524 284.784C118.343 284.128 118.133 283.667 117.527 283.502C117.278 283.426 117.111 283.347 117.058 283.155C116.999 282.943 117.064 282.8 117.468 282.461C118.039 281.971 118.636 281.578 118.9 281.485C119.151 281.416 119.312 281.475 119.403 281.803L119.814 283.37C120.098 282.067 120.889 280.874 122.027 280.56ZM139.328 282.121C139.524 282.021 139.693 281.957 139.793 282.153C140.021 282.598 139.617 283.523 138.815 283.932C137.978 284.359 137.483 283.961 136.886 283.188C136.611 284.496 135.636 285.622 134.603 286.149C132.43 287.259 130.564 286.684 129.791 285.17C128.919 283.459 129.85 281.502 132.024 280.392C132.772 280.011 133.307 279.827 134.066 279.642C132.982 278.399 132.232 277.502 130.682 278.293C129.667 278.811 129.172 279.468 128.642 280.277C128.412 280.664 127.991 280.542 128.041 280.068C128.15 279.226 129.032 277.788 130.654 276.96C132.613 275.96 134.006 276.798 135.136 278.175L137.928 281.622C138.588 282.431 138.989 282.293 139.328 282.121ZM134.558 285.049C135.787 284.422 136.588 282.823 136.045 282.112C135.765 281.739 135.386 281.348 134.825 280.646C134.536 280.255 133.278 280.695 132.726 280.977C131.159 281.777 130.703 282.953 131.33 284.137C131.975 285.268 133.222 285.731 134.558 285.049ZM150.443 267.726L153.13 270.083C154.078 270.912 154.645 270.277 155.021 270.745C155.209 270.979 155.025 271.229 154.65 271.53L152.982 272.87C152.623 273.158 152.323 273.295 152.123 273.046C151.76 272.594 152.658 272.052 151.673 271.176L149.143 268.95C147.935 267.893 146.771 266.826 145.38 267.969C144.426 268.761 144.041 270.454 145.431 272.313L147.024 274.266C148.226 275.763 148.734 274.894 149.172 275.44C149.36 275.674 149.176 275.924 148.802 276.225L147.133 277.564C146.758 277.865 146.459 278.003 146.258 277.753C145.833 277.223 146.807 276.903 145.605 275.405L143.865 273.237C142.738 271.834 141.478 270.999 140.146 272.119C139.067 273.011 138.742 274.811 140.269 276.714L141.721 278.523C142.923 280.02 143.415 279.163 143.853 279.709C144.041 279.943 143.873 280.181 143.483 280.494L141.814 281.834C141.455 282.122 141.14 282.272 140.94 282.022C140.514 281.492 141.504 281.159 140.302 279.662L137.786 276.527C137.36 275.997 136.985 275.657 136.363 275.745C136.104 275.774 135.92 275.768 135.794 275.612C135.657 275.441 135.66 275.284 135.896 274.812C136.226 274.137 136.619 273.54 136.825 273.349C137.027 273.186 137.199 273.177 137.412 273.442L138.46 274.78C138.158 273.125 138.737 271.737 139.844 270.848C141.107 269.834 142.456 269.726 143.767 270.623C143.423 268.95 143.993 267.518 145.116 266.617C146.675 265.365 148.094 265.662 150.443 267.726ZM148.511 261.711C148.117 262.082 147.552 262.108 147.165 261.701C146.66 261.186 146.647 259.955 147.26 259.432C147.653 259.06 148.279 259.116 148.635 259.468C149.111 259.984 149.081 261.175 148.511 261.711ZM154.786 267.681L151.861 265.012C150.576 263.839 150.166 264.792 149.708 264.374C149.561 264.239 149.541 264.113 149.702 263.61C149.998 262.662 150.294 262.011 150.468 261.791C150.628 261.585 150.797 261.549 151.063 261.792L153.088 263.667L156.013 266.337C157.431 267.631 157.799 266.694 158.316 267.166C158.538 267.368 158.394 267.643 158.071 267.998L156.628 269.579C156.305 269.933 156.03 270.116 155.794 269.9C155.291 269.442 156.204 268.975 154.786 267.681ZM162.936 259.64C164.126 258.083 165.528 257.895 166.513 258.648C168.071 259.838 167.969 262.277 165.747 265.186C164.387 266.966 162.439 268.296 161.024 267.216C160.532 266.839 160.167 266.032 160.408 265.058C159.765 265.372 158.955 265.509 158.272 264.987C157.827 264.647 157.482 263.88 157.849 262.675C156.841 263.038 155.851 262.885 155.04 262.266C153.324 260.954 153.283 258.406 154.821 256.36L154.93 256.217C155.323 255.736 155.504 255.598 155.747 255.28C156.026 254.914 156.06 254.211 155.78 253.392C155.71 253.087 155.673 252.807 155.843 252.585C156.061 252.299 156.502 252.183 156.852 252.45C157.472 252.923 157.475 253.907 157.116 254.74C158.042 254.516 158.952 254.709 159.667 255.255C161.352 256.542 161.567 258.896 159.955 261.038C159.506 261.626 159.022 262.061 158.52 262.357C158.505 262.673 158.569 263.049 158.855 263.268C159.602 263.839 160.522 263.031 161.214 262.125C161.894 261.235 162.511 260.197 162.936 259.64ZM155.19 257.195C154.4 258.228 154.556 259.605 155.7 260.48C156.968 261.423 158.6 261.462 159.51 260.27C160.348 259.173 160.016 257.862 158.935 257.036C157.731 256.142 156.137 255.955 155.19 257.195ZM165.371 264.294C166.561 262.737 166.926 261.204 165.941 260.451C165.448 260.075 164.638 259.884 163.746 261.216C163.304 261.86 162.769 262.659 161.992 263.676C161.506 264.312 161.334 265.262 162.017 265.784C162.923 266.476 164.205 265.82 165.371 264.294ZM170.246 248.464C170.36 248.276 170.471 248.133 170.659 248.247C171.086 248.507 171.228 249.506 170.761 250.275C170.273 251.078 169.642 250.999 168.728 250.655C169.181 251.913 168.943 253.383 168.341 254.374C167.074 256.459 165.185 256.95 163.732 256.067C162.091 255.07 161.856 252.915 163.123 250.83C163.559 250.112 163.918 249.675 164.466 249.119C162.891 248.63 161.782 248.26 160.879 249.747C160.287 250.721 160.21 251.541 160.184 252.508C160.192 252.957 159.77 253.075 159.563 252.645C159.214 251.872 159.209 250.184 160.154 248.628C161.296 246.748 162.922 246.73 164.607 247.308L168.794 248.775C169.779 249.117 170.049 248.789 170.246 248.464ZM167.725 253.462C168.442 252.282 168.283 250.501 167.448 250.181C167.013 250.011 166.486 249.877 165.64 249.574C165.189 249.394 164.349 250.428 164.028 250.958C163.114 252.462 163.344 253.702 164.499 254.38C165.641 255.004 166.946 254.744 167.725 253.462Z" fill="#1A1A1A"/>
<rect x="357.53" y="135" width="158" height="50" rx="25" fill="#FFFFF3"/>
<path d="M382.81 166.5C382.31 166.5 381.99 166.16 381.99 165.64V154.44C381.99 153.92 382.31 153.56 382.81 153.56H390.25C390.71 153.56 390.95 153.78 390.95 154.18V154.28C390.95 154.7 390.71 154.9 390.25 154.9H383.49V159.22H388.67C389.15 159.22 389.39 159.44 389.39 159.82V159.9C389.39 160.32 389.15 160.52 388.67 160.52H383.49V165.16H390.41C390.87 165.16 391.11 165.36 391.11 165.76V165.86C391.11 166.28 390.87 166.5 390.41 166.5H382.81ZM393.221 165.88V154.36C393.221 153.84 393.581 153.5 394.121 153.5H394.521C395.161 153.5 395.321 153.74 395.581 154.34L399.081 161.66L402.581 154.34C402.821 153.72 403.021 153.5 403.601 153.5H403.981C404.561 153.5 404.901 153.84 404.901 154.36V165.88C404.901 166.32 404.721 166.56 404.281 166.56H404.101C403.681 166.56 403.481 166.32 403.481 165.88V162.36L403.501 155.32L400.081 162.48C399.901 162.92 399.701 163.2 399.061 163.2C398.381 163.2 398.221 162.92 398.021 162.48L394.621 155.34L394.641 162.32V165.88C394.641 166.32 394.461 166.56 394.021 166.56H393.801C393.381 166.56 393.221 166.32 393.221 165.88ZM421.431 159.94C421.991 159.94 422.311 160.3 422.291 160.88V166.42C422.291 166.46 422.091 166.56 421.811 166.56C421.371 166.56 421.031 166.36 421.011 165.38C421.011 165 420.991 164.62 420.991 164.22C420.291 165.74 418.691 166.72 416.551 166.72C412.911 166.72 410.611 163.9 410.611 160.06C410.611 156.14 413.171 153.34 416.971 153.34C418.751 153.34 420.051 153.96 420.811 154.62C421.411 155.12 421.711 155.68 421.711 156.02C421.711 156.8 420.871 156.9 420.791 156.84C420.131 155.54 418.691 154.64 416.951 154.64C414.111 154.64 412.171 156.84 412.171 160.06C412.171 163.22 413.911 165.46 416.831 165.46C419.091 165.46 420.751 164.06 420.971 162.06V161.2H417.551C417.031 161.2 416.771 161.02 416.771 160.62V160.52C416.771 160.12 417.031 159.94 417.551 159.94H421.431ZM424.74 161.4V154.18C424.74 153.72 424.98 153.5 425.38 153.5H425.6C426.02 153.5 426.26 153.72 426.26 154.18V161.38C426.26 164 427.42 165.36 429.76 165.36C432.12 165.36 433.24 164.04 433.24 161.36V154.18C433.24 153.7 433.46 153.5 433.88 153.5H434.14C434.56 153.5 434.74 153.7 434.74 154.18V161.36C434.74 164.86 433 166.72 429.72 166.72C426.46 166.72 424.74 164.9 424.74 161.4ZM437.479 165.88V154.36C437.479 153.84 437.839 153.5 438.379 153.5H438.779C439.419 153.5 439.579 153.74 439.839 154.34L443.339 161.66L446.839 154.34C447.079 153.72 447.279 153.5 447.859 153.5H448.239C448.819 153.5 449.159 153.84 449.159 154.36V165.88C449.159 166.32 448.979 166.56 448.539 166.56H448.359C447.939 166.56 447.739 166.32 447.739 165.88V162.36L447.759 155.32L444.339 162.48C444.159 162.92 443.959 163.2 443.319 163.2C442.639 163.2 442.479 162.92 442.279 162.48L438.879 155.34L438.899 162.32V165.88C438.899 166.32 438.719 166.56 438.279 166.56H438.059C437.639 166.56 437.479 166.32 437.479 165.88ZM452.108 165.88V154.36C452.108 153.84 452.468 153.5 453.008 153.5H453.408C454.048 153.5 454.208 153.74 454.468 154.34L457.968 161.66L461.468 154.34C461.708 153.72 461.908 153.5 462.488 153.5H462.868C463.448 153.5 463.788 153.84 463.788 154.36V165.88C463.788 166.32 463.608 166.56 463.168 166.56H462.988C462.568 166.56 462.368 166.32 462.368 165.88V162.36L462.388 155.32L458.968 162.48C458.788 162.92 458.588 163.2 457.948 163.2C457.268 163.2 457.108 162.92 456.908 162.48L453.508 155.34L453.528 162.32V165.88C453.528 166.32 453.348 166.56 452.908 166.56H452.688C452.268 166.56 452.108 166.32 452.108 165.88ZM466.937 165.88V154.18C466.937 153.72 467.137 153.5 467.557 153.5H467.777C468.197 153.5 468.437 153.72 468.437 154.18V165.88C468.437 166.32 468.197 166.56 467.777 166.56H467.557C467.137 166.56 466.937 166.32 466.937 165.88ZM472.361 166.5C471.861 166.5 471.541 166.16 471.541 165.64V154.44C471.541 153.92 471.861 153.56 472.361 153.56H479.801C480.261 153.56 480.501 153.78 480.501 154.18V154.28C480.501 154.7 480.261 154.9 479.801 154.9H473.041V159.22H478.221C478.701 159.22 478.941 159.44 478.941 159.82V159.9C478.941 160.32 478.701 160.52 478.221 160.52H473.041V165.16H479.961C480.421 165.16 480.661 165.36 480.661 165.76V165.86C480.661 166.28 480.421 166.5 479.961 166.5H472.361ZM482.652 165.36C482.232 164.94 482.032 164.48 482.032 164.14C482.032 163.6 482.692 163.24 482.752 163.3C483.352 164.4 484.612 165.46 486.632 165.46C488.532 165.46 489.712 164.58 489.712 163.1C489.712 161.44 488.112 161.04 486.292 160.6C484.312 160.1 482.352 159.44 482.352 156.94C482.352 154.82 484.192 153.34 486.712 153.34C488.392 153.34 489.612 153.88 490.292 154.5C490.692 154.88 490.912 155.3 490.912 155.64C490.912 156.22 490.212 156.56 490.172 156.5C489.612 155.5 488.432 154.6 486.712 154.6C485.012 154.6 483.812 155.5 483.812 156.9C483.812 158.48 485.172 158.8 487.032 159.26C489.132 159.76 491.192 160.54 491.192 163.02C491.192 165.28 489.412 166.72 486.652 166.72C484.752 166.72 483.392 166.1 482.652 165.36Z" fill="#FD86CD"/>
<mask id="path-11-outside-1_1_779" maskUnits="userSpaceOnUse" x="-0.469513" y="49" width="512" height="65" fill="black">
<rect fill="white" x="-0.469513" y="49" width="512" height="65"/>
<path d="M32.2745 110.44C26.9065 110.44 24.2665 108.768 22.1545 103.84L3.05849 58.696C2.35449 57.024 8.16249 52.624 13.9705 52.624C18.4585 52.624 22.2425 55.792 23.7385 60.896L32.4505 88.352L41.1625 60.808C42.8345 55.088 46.7065 52.624 50.6665 52.624C56.2985 52.624 61.7545 57.112 61.0505 58.696L42.4825 103.84C40.4585 108.592 37.5545 110.44 32.2745 110.44ZM68.8715 102.256V60.808C68.8715 55.352 71.5115 52.624 76.3515 52.624H78.8155C83.9195 52.624 86.5595 55.352 86.5595 60.808V102.256C86.5595 107.624 83.9195 110.44 78.8155 110.44H76.3515C71.5115 110.44 68.8715 107.624 68.8715 102.256ZM112.14 102.256V68.376H102.724C97.444 68.376 94.628 65.736 94.628 60.72V60.368C94.628 55.528 97.444 53.064 102.724 53.064H138.98C144.436 53.064 147.164 55.528 147.164 60.368V60.72C147.164 65.736 144.436 68.376 138.98 68.376H129.828V102.256C129.828 107.624 127.012 110.44 121.996 110.44H119.444C114.604 110.44 112.14 107.624 112.14 102.256ZM153.505 110.792C148.665 110.792 143.825 106.92 144.441 105.336L162.745 57.464C163.625 54.648 166.001 52.624 174.009 52.624C182.017 52.624 184.041 54.648 184.921 57.464L204.017 105.16C204.633 106.744 199.881 110.704 194.601 110.704C190.817 110.704 186.945 108.68 184.481 102.432L182.897 98.296H164.769L163.097 102.608C160.985 108.68 157.289 110.792 153.505 110.792ZM167.673 85.536H179.729L173.745 69.08L167.673 85.536ZM211.097 102.256V61.072C211.097 55.528 213.913 52.624 219.017 52.624H223.945C228.609 52.624 230.193 53.768 231.777 57.376L241.017 80.08L250.169 57.376C251.929 53.504 253.777 52.624 257.737 52.624H262.753C267.945 52.624 270.849 55.528 270.849 61.072V102.256C270.849 107.624 269.001 110.44 263.897 110.44H261.169C256.241 110.44 254.217 107.624 254.217 102.256V94.6L254.305 77.792L248.409 94.6C247.529 96.8 247.441 98.912 240.929 98.912C234.329 98.912 234.505 96.888 233.537 94.6L227.729 78.584V102.256C227.729 107.624 225.881 110.44 220.865 110.44H217.961C213.121 110.44 211.097 107.624 211.097 102.256ZM281.986 102.256V60.808C281.986 55.352 284.626 52.624 289.466 52.624H291.93C297.034 52.624 299.674 55.352 299.674 60.808V102.256C299.674 107.624 297.034 110.44 291.93 110.44H289.466C284.626 110.44 281.986 107.624 281.986 102.256ZM318.215 110.44C313.375 110.44 310.823 107.624 310.823 102.256V60.808C310.823 55.352 313.551 52.624 318.039 52.624H319.711C323.935 52.624 325.255 53.856 327.631 56.76L347.871 83.248V60.808C347.871 55.44 350.511 52.624 355.527 52.624H357.111C361.951 52.624 364.503 55.44 364.503 60.808V102.256C364.503 107.712 361.775 110.44 357.287 110.44H355.879C351.655 110.44 350.423 109.384 348.135 106.568L327.455 79.728V102.256C327.455 107.624 324.815 110.44 319.799 110.44H318.215ZM380.8 110.792C375.96 110.792 371.12 106.92 371.736 105.336L390.04 57.464C390.92 54.648 393.296 52.624 401.304 52.624C409.312 52.624 411.336 54.648 412.216 57.464L431.312 105.16C431.928 106.744 427.176 110.704 421.896 110.704C418.112 110.704 414.24 108.68 411.776 102.432L410.192 98.296H392.064L390.392 102.608C388.28 108.68 384.584 110.792 380.8 110.792ZM394.968 85.536H407.024L401.04 69.08L394.968 85.536ZM453.75 100.32V62.92C453.75 56.496 457.622 53.064 462.902 53.064H477.95C496.606 53.064 508.047 63.888 508.047 81.312C508.047 98.824 496.254 110 477.598 110H463.606C458.062 110 453.75 105.688 453.75 100.32ZM477.158 95.04C485.254 95.04 490.622 90.024 490.622 81.312C490.622 72.776 485.43 68.024 477.334 68.024H471.262V95.04H477.158Z"/>
</mask>
<path d="M32.2745 110.44C26.9065 110.44 24.2665 108.768 22.1545 103.84L3.05849 58.696C2.35449 57.024 8.16249 52.624 13.9705 52.624C18.4585 52.624 22.2425 55.792 23.7385 60.896L32.4505 88.352L41.1625 60.808C42.8345 55.088 46.7065 52.624 50.6665 52.624C56.2985 52.624 61.7545 57.112 61.0505 58.696L42.4825 103.84C40.4585 108.592 37.5545 110.44 32.2745 110.44ZM68.8715 102.256V60.808C68.8715 55.352 71.5115 52.624 76.3515 52.624H78.8155C83.9195 52.624 86.5595 55.352 86.5595 60.808V102.256C86.5595 107.624 83.9195 110.44 78.8155 110.44H76.3515C71.5115 110.44 68.8715 107.624 68.8715 102.256ZM112.14 102.256V68.376H102.724C97.444 68.376 94.628 65.736 94.628 60.72V60.368C94.628 55.528 97.444 53.064 102.724 53.064H138.98C144.436 53.064 147.164 55.528 147.164 60.368V60.72C147.164 65.736 144.436 68.376 138.98 68.376H129.828V102.256C129.828 107.624 127.012 110.44 121.996 110.44H119.444C114.604 110.44 112.14 107.624 112.14 102.256ZM153.505 110.792C148.665 110.792 143.825 106.92 144.441 105.336L162.745 57.464C163.625 54.648 166.001 52.624 174.009 52.624C182.017 52.624 184.041 54.648 184.921 57.464L204.017 105.16C204.633 106.744 199.881 110.704 194.601 110.704C190.817 110.704 186.945 108.68 184.481 102.432L182.897 98.296H164.769L163.097 102.608C160.985 108.68 157.289 110.792 153.505 110.792ZM167.673 85.536H179.729L173.745 69.08L167.673 85.536ZM211.097 102.256V61.072C211.097 55.528 213.913 52.624 219.017 52.624H223.945C228.609 52.624 230.193 53.768 231.777 57.376L241.017 80.08L250.169 57.376C251.929 53.504 253.777 52.624 257.737 52.624H262.753C267.945 52.624 270.849 55.528 270.849 61.072V102.256C270.849 107.624 269.001 110.44 263.897 110.44H261.169C256.241 110.44 254.217 107.624 254.217 102.256V94.6L254.305 77.792L248.409 94.6C247.529 96.8 247.441 98.912 240.929 98.912C234.329 98.912 234.505 96.888 233.537 94.6L227.729 78.584V102.256C227.729 107.624 225.881 110.44 220.865 110.44H217.961C213.121 110.44 211.097 107.624 211.097 102.256ZM281.986 102.256V60.808C281.986 55.352 284.626 52.624 289.466 52.624H291.93C297.034 52.624 299.674 55.352 299.674 60.808V102.256C299.674 107.624 297.034 110.44 291.93 110.44H289.466C284.626 110.44 281.986 107.624 281.986 102.256ZM318.215 110.44C313.375 110.44 310.823 107.624 310.823 102.256V60.808C310.823 55.352 313.551 52.624 318.039 52.624H319.711C323.935 52.624 325.255 53.856 327.631 56.76L347.871 83.248V60.808C347.871 55.44 350.511 52.624 355.527 52.624H357.111C361.951 52.624 364.503 55.44 364.503 60.808V102.256C364.503 107.712 361.775 110.44 357.287 110.44H355.879C351.655 110.44 350.423 109.384 348.135 106.568L327.455 79.728V102.256C327.455 107.624 324.815 110.44 319.799 110.44H318.215ZM380.8 110.792C375.96 110.792 371.12 106.92 371.736 105.336L390.04 57.464C390.92 54.648 393.296 52.624 401.304 52.624C409.312 52.624 411.336 54.648 412.216 57.464L431.312 105.16C431.928 106.744 427.176 110.704 421.896 110.704C418.112 110.704 414.24 108.68 411.776 102.432L410.192 98.296H392.064L390.392 102.608C388.28 108.68 384.584 110.792 380.8 110.792ZM394.968 85.536H407.024L401.04 69.08L394.968 85.536ZM453.75 100.32V62.92C453.75 56.496 457.622 53.064 462.902 53.064H477.95C496.606 53.064 508.047 63.888 508.047 81.312C508.047 98.824 496.254 110 477.598 110H463.606C458.062 110 453.75 105.688 453.75 100.32ZM477.158 95.04C485.254 95.04 490.622 90.024 490.622 81.312C490.622 72.776 485.43 68.024 477.334 68.024H471.262V95.04H477.158Z" fill="#FD86CD"/>
<path d="M22.1545 103.84L19.3915 105.009L19.3943 105.015L19.3971 105.022L22.1545 103.84ZM3.05849 58.696L0.293576 59.8602L0.295511 59.8647L3.05849 58.696ZM23.7385 60.896L20.8596 61.7398L20.8689 61.7717L20.879 61.8033L23.7385 60.896ZM32.4505 88.352L29.591 89.2593L32.4551 98.2855L35.3108 89.2567L32.4505 88.352ZM41.1625 60.808L44.0228 61.7127L44.0328 61.6813L44.042 61.6497L41.1625 60.808ZM61.0505 58.696L58.3091 57.4776L58.292 57.516L58.276 57.5548L61.0505 58.696ZM42.4825 103.84L45.2426 105.016L45.2499 104.998L45.257 104.981L42.4825 103.84ZM32.2745 110.44V107.44C29.8662 107.44 28.5306 107.058 27.6254 106.471C26.7292 105.89 25.849 104.845 24.9119 102.658L22.1545 103.84L19.3971 105.022C20.572 107.763 22.0678 110.018 24.3616 111.505C26.6464 112.986 29.3148 113.44 32.2745 113.44V110.44ZM22.1545 103.84L24.9175 102.671L5.82146 57.5273L3.05849 58.696L0.295511 59.8647L19.3915 105.009L22.1545 103.84ZM3.05849 58.696L5.82339 57.5318C6.13083 58.262 5.95613 58.8447 5.90367 58.9878C5.84902 59.1368 5.82056 59.1241 5.96042 58.9552C6.23178 58.6275 6.79704 58.119 7.66489 57.5755C9.40582 56.4851 11.764 55.624 13.9705 55.624V52.624V49.624C10.369 49.624 6.91916 50.9629 4.48009 52.4905C3.25793 53.256 2.1402 54.161 1.33905 55.1286C0.942664 55.6073 0.53058 56.2126 0.27037 56.9223C0.0123458 57.6261 -0.189855 58.712 0.29358 59.8602L3.05849 58.696ZM13.9705 52.624V55.624C16.847 55.624 19.6532 57.6238 20.8596 61.7398L23.7385 60.896L26.6174 60.0522C24.8318 53.9602 20.07 49.624 13.9705 49.624V52.624ZM23.7385 60.896L20.879 61.8033L29.591 89.2593L32.4505 88.352L35.31 87.4447L26.598 59.9887L23.7385 60.896ZM32.4505 88.352L35.3108 89.2567L44.0228 61.7127L41.1625 60.808L38.3022 59.9033L29.5902 87.4473L32.4505 88.352ZM41.1625 60.808L44.042 61.6497C45.3817 57.0664 48.1819 55.624 50.6665 55.624V52.624V49.624C45.2311 49.624 40.2873 53.1096 38.283 59.9663L41.1625 60.808ZM50.6665 52.624V55.624C52.7417 55.624 54.9431 56.4773 56.5704 57.5621C57.3795 58.1015 57.902 58.6033 58.1489 58.9208C58.2765 59.0849 58.2467 59.0926 58.1957 58.9418C58.1491 58.8041 57.9827 58.2119 58.3091 57.4776L61.0505 58.696L63.7919 59.9144C64.2943 58.7841 64.1114 57.7052 63.8792 57.0188C63.6425 56.3194 63.2579 55.7166 62.885 55.2372C62.131 54.2677 61.0695 53.3505 59.8986 52.5698C57.5659 51.0147 54.2233 49.624 50.6665 49.624V52.624ZM61.0505 58.696L58.276 57.5548L39.708 102.699L42.4825 103.84L45.257 104.981L63.825 59.8372L61.0505 58.696ZM42.4825 103.84L39.7224 102.664C38.8555 104.7 37.9452 105.775 36.9747 106.4C35.9917 107.033 34.5835 107.44 32.2745 107.44V110.44V113.44C35.2455 113.44 37.9293 112.923 40.2243 111.444C42.5317 109.957 44.0855 107.732 45.2426 105.016L42.4825 103.84ZM68.8715 102.256H71.8715V60.808H68.8715H65.8715V102.256H68.8715ZM68.8715 60.808H71.8715C71.8715 58.5196 72.4268 57.3239 72.9961 56.71C73.5292 56.1352 74.4895 55.624 76.3515 55.624V52.624V49.624C73.3735 49.624 70.5938 50.4768 68.5968 52.63C66.6362 54.7441 65.8715 57.6404 65.8715 60.808H68.8715ZM76.3515 52.624V55.624H78.8155V52.624V49.624H76.3515V52.624ZM78.8155 52.624V55.624C80.8527 55.624 81.8779 56.1598 82.4282 56.7381C83.0043 57.3434 83.5595 58.5187 83.5595 60.808H86.5595H89.5595C89.5595 57.6413 88.7947 54.7246 86.7747 52.6019C84.7291 50.4522 81.8823 49.624 78.8155 49.624V52.624ZM86.5595 60.808H83.5595V102.256H86.5595H89.5595V60.808H86.5595ZM86.5595 102.256H83.5595C83.5595 104.489 83.0099 105.677 82.42 106.302C81.8586 106.896 80.8271 107.44 78.8155 107.44V110.44V113.44C81.9078 113.44 84.7484 112.576 86.783 110.42C88.7891 108.295 89.5595 105.391 89.5595 102.256H86.5595ZM78.8155 110.44V107.44H76.3515V110.44V113.44H78.8155V110.44ZM76.3515 110.44V107.44C74.5158 107.44 73.549 106.922 73.0043 106.33C72.4213 105.696 71.8715 104.489 71.8715 102.256H68.8715H65.8715C65.8715 105.391 66.6417 108.276 68.5887 110.392C70.5739 112.55 73.3472 113.44 76.3515 113.44V110.44ZM112.14 68.376H115.14V65.376H112.14V68.376ZM129.828 68.376V65.376H126.828V68.376H129.828ZM112.14 102.256H115.14V68.376H112.14H109.14V102.256H112.14ZM112.14 68.376V65.376H102.724V68.376V71.376H112.14V68.376ZM102.724 68.376V65.376C100.547 65.376 99.3752 64.8323 98.7548 64.247C98.1641 63.6896 97.628 62.6738 97.628 60.72H94.628H91.628C91.628 63.7822 92.4999 66.5944 94.6371 68.611C96.7448 70.5997 99.6212 71.376 102.724 71.376V68.376ZM94.628 60.72H97.628V60.368H94.628H91.628V60.72H94.628ZM94.628 60.368H97.628C97.628 58.5352 98.1431 57.632 98.6969 57.1362C99.3097 56.5877 100.499 56.064 102.724 56.064V53.064V50.064C99.6693 50.064 96.8102 50.7723 94.6951 52.6657C92.5209 54.612 91.628 57.3608 91.628 60.368H94.628ZM102.724 53.064V56.064H138.98V53.064V50.064H102.724V53.064ZM138.98 53.064V56.064C141.316 56.064 142.516 56.5981 143.117 57.1363C143.656 57.6187 144.164 58.509 144.164 60.368H147.164H150.164C150.164 57.387 149.308 54.6253 147.119 52.6657C144.992 50.7619 142.1 50.064 138.98 50.064V53.064ZM147.164 60.368H144.164V60.72H147.164H150.164V60.368H147.164ZM147.164 60.72H144.164C144.164 62.6992 143.636 63.7026 143.059 64.247C142.451 64.8207 141.269 65.376 138.98 65.376V68.376V71.376C142.147 71.376 145.057 70.6113 147.177 68.611C149.328 66.5814 150.164 63.7568 150.164 60.72H147.164ZM138.98 68.376V65.376H129.828V68.376V71.376H138.98V68.376ZM129.828 68.376H126.828V102.256H129.828H132.828V68.376H129.828ZM129.828 102.256H126.828C126.828 104.441 126.259 105.632 125.637 106.274C125.03 106.902 123.952 107.44 121.996 107.44V110.44V113.44C125.056 113.44 127.894 112.57 129.949 110.448C131.989 108.34 132.828 105.439 132.828 102.256H129.828ZM121.996 110.44V107.44H119.444V110.44V113.44H121.996V110.44ZM119.444 110.44V107.44C117.612 107.44 116.715 106.926 116.22 106.369C115.669 105.748 115.14 104.536 115.14 102.256H112.14H109.14C109.14 105.344 109.843 108.224 111.734 110.353C113.681 112.546 116.436 113.44 119.444 113.44V110.44ZM144.441 105.336L147.238 106.423L147.241 106.415L147.244 106.407L144.441 105.336ZM162.745 57.464L165.548 58.5354L165.581 58.4481L165.609 58.3588L162.745 57.464ZM184.921 57.464L182.058 58.3588L182.093 58.4705L182.136 58.5791L184.921 57.464ZM204.017 105.16L206.814 104.073L206.808 104.059L206.803 104.045L204.017 105.16ZM184.481 102.432L181.68 103.505L181.685 103.519L181.691 103.533L184.481 102.432ZM182.897 98.296L185.699 97.2231L184.961 95.296H182.897V98.296ZM164.769 98.296V95.296H162.715L161.972 97.2114L164.769 98.296ZM163.097 102.608L160.3 101.523L160.281 101.573L160.264 101.622L163.097 102.608ZM167.673 85.536L164.859 84.4975L163.369 88.536H167.673V85.536ZM179.729 85.536V88.536H184.013L182.549 84.5108L179.729 85.536ZM173.745 69.08L176.565 68.0548L173.766 60.358L170.931 68.0415L173.745 69.08ZM153.505 110.792V107.792C151.824 107.792 149.977 107.091 148.599 106.167C147.915 105.708 147.495 105.292 147.31 105.048C147.217 104.924 147.259 104.943 147.311 105.106C147.364 105.27 147.487 105.782 147.238 106.423L144.441 105.336L141.645 104.249C141.242 105.286 141.381 106.266 141.6 106.944C141.818 107.623 142.175 108.204 142.524 108.666C143.225 109.593 144.202 110.442 145.256 111.149C147.354 112.557 150.347 113.792 153.505 113.792V110.792ZM144.441 105.336L147.244 106.407L165.548 58.5354L162.745 57.464L159.943 56.3926L141.639 104.265L144.441 105.336ZM162.745 57.464L165.609 58.3588C165.841 57.616 166.171 57.1116 167.053 56.6678C168.139 56.1216 170.179 55.624 174.009 55.624V52.624V49.624C169.831 49.624 166.68 50.1384 164.356 51.3082C161.828 52.5804 160.53 54.496 159.882 56.5692L162.745 57.464ZM174.009 52.624V55.624C177.852 55.624 179.767 56.1258 180.732 56.638C181.471 57.0302 181.785 57.4853 182.058 58.3588L184.921 57.464L187.785 56.5692C187.178 54.6267 186.039 52.6618 183.545 51.338C181.276 50.1342 178.175 49.624 174.009 49.624V52.624ZM184.921 57.464L182.136 58.5791L201.232 106.275L204.017 105.16L206.803 104.045L187.707 56.3489L184.921 57.464ZM204.017 105.16L201.221 106.247C200.976 105.617 201.094 105.115 201.143 104.957C201.193 104.798 201.233 104.781 201.141 104.905C200.959 105.15 200.54 105.571 199.849 106.035C198.468 106.961 196.532 107.704 194.601 107.704V110.704V113.704C197.951 113.704 201.031 112.467 203.192 111.017C204.272 110.293 205.256 109.427 205.957 108.484C206.306 108.014 206.657 107.428 206.869 106.749C207.081 106.071 207.213 105.099 206.814 104.073L204.017 105.16ZM194.601 110.704V107.704C193.269 107.704 191.997 107.357 190.825 106.495C189.633 105.618 188.349 104.063 187.272 101.331L184.481 102.432L181.691 103.533C183.078 107.049 184.962 109.63 187.268 111.327C189.594 113.039 192.15 113.704 194.601 113.704V110.704ZM184.481 102.432L187.283 101.359L185.699 97.2231L182.897 98.296L180.096 99.3689L181.68 103.505L184.481 102.432ZM182.897 98.296V95.296H164.769V98.296V101.296H182.897V98.296ZM164.769 98.296L161.972 97.2114L160.3 101.523L163.097 102.608L165.895 103.693L167.567 99.3806L164.769 98.296ZM163.097 102.608L160.264 101.622C159.349 104.253 158.186 105.757 157.091 106.606C156.017 107.438 154.814 107.792 153.505 107.792V110.792V113.792C155.981 113.792 158.518 113.09 160.766 111.348C162.993 109.623 164.734 107.035 165.931 103.594L163.097 102.608ZM167.673 85.536V88.536H179.729V85.536V82.536H167.673V85.536ZM179.729 85.536L182.549 84.5108L176.565 68.0548L173.745 69.08L170.926 70.1052L176.91 86.5612L179.729 85.536ZM173.745 69.08L170.931 68.0415L164.859 84.4975L167.673 85.536L170.488 86.5745L176.56 70.1185L173.745 69.08ZM231.777 57.376L234.556 56.2451L234.541 56.2074L234.524 56.17L231.777 57.376ZM241.017 80.08L238.239 81.2109L241.031 88.0712L243.8 81.2016L241.017 80.08ZM250.169 57.376L247.438 56.1346L247.411 56.1939L247.387 56.2544L250.169 57.376ZM254.217 94.6L251.217 94.5843L251.217 94.5921V94.6H254.217ZM254.305 77.792L257.305 77.8077L251.474 76.799L254.305 77.792ZM248.409 94.6L251.195 95.7142L251.219 95.6541L251.24 95.593L248.409 94.6ZM233.537 94.6L230.717 95.6227L230.744 95.6966L230.774 95.7689L233.537 94.6ZM227.729 78.584L230.55 77.5613L224.729 78.584H227.729ZM211.097 102.256H214.097V61.072H211.097H208.097V102.256H211.097ZM211.097 61.072H214.097C214.097 58.7747 214.679 57.5112 215.323 56.8304C215.941 56.1766 217.03 55.624 219.017 55.624V52.624V49.624C215.901 49.624 213.029 50.5234 210.964 52.7076C208.924 54.8648 208.097 57.8253 208.097 61.072H211.097ZM219.017 52.624V55.624H223.945V52.624V49.624H219.017V52.624ZM223.945 52.624V55.624C226.119 55.624 226.979 55.9111 227.424 56.1897C227.827 56.4417 228.314 56.9503 229.03 58.582L231.777 57.376L234.524 56.17C233.657 54.1937 232.56 52.3263 230.608 51.1043C228.699 49.9089 226.436 49.624 223.945 49.624V52.624ZM231.777 57.376L228.999 58.5069L238.239 81.2109L241.017 80.08L243.796 78.9491L234.556 56.2451L231.777 57.376ZM241.017 80.08L243.8 81.2016L252.952 58.4976L250.169 57.376L247.387 56.2544L238.235 78.9584L241.017 80.08ZM250.169 57.376L252.9 58.6174C253.67 56.9249 254.247 56.3748 254.668 56.1226C255.129 55.847 255.904 55.624 257.737 55.624V52.624V49.624C255.611 49.624 253.482 49.841 251.588 50.9734C249.656 52.1292 248.429 53.9551 247.438 56.1346L250.169 57.376ZM257.737 52.624V55.624H262.753V52.624V49.624H257.737V52.624ZM262.753 52.624V55.624C264.8 55.624 265.944 56.1859 266.594 56.8567C267.258 57.542 267.849 58.7977 267.849 61.072H270.849H273.849C273.849 57.8022 272.989 54.834 270.903 52.6813C268.803 50.5141 265.898 49.624 262.753 49.624V52.624ZM270.849 61.072H267.849V102.256H270.849H273.849V61.072H270.849ZM270.849 102.256H267.849C267.849 104.71 267.404 105.913 266.945 106.487C266.607 106.909 265.901 107.44 263.897 107.44V110.44V113.44C266.998 113.44 269.767 112.563 271.63 110.235C273.371 108.059 273.849 105.17 273.849 102.256H270.849ZM263.897 110.44V107.44H261.169V110.44V113.44H263.897V110.44ZM261.169 110.44V107.44C259.285 107.44 258.546 106.925 258.17 106.464C257.688 105.874 257.217 104.658 257.217 102.256H254.217H251.217C251.217 105.222 251.759 108.098 253.521 110.258C255.389 112.547 258.126 113.44 261.169 113.44V110.44ZM254.217 102.256H257.217V94.6H254.217H251.217V102.256H254.217ZM254.217 94.6L257.217 94.6157L257.305 77.8077L254.305 77.792L251.305 77.7763L251.217 94.5843L254.217 94.6ZM254.305 77.792L251.474 76.799L245.578 93.607L248.409 94.6L251.24 95.593L257.136 78.785L254.305 77.792ZM248.409 94.6L245.624 93.4858C245.495 93.8088 245.372 94.1507 245.289 94.3752C245.195 94.63 245.126 94.803 245.06 94.9466C244.942 95.2035 244.876 95.2636 244.84 95.2939C244.737 95.3812 244.007 95.912 240.929 95.912V98.912V101.912C244.364 101.912 246.934 101.387 248.723 99.8681C250.408 98.4373 250.979 96.2544 251.195 95.7142L248.409 94.6ZM240.929 98.912V95.912C237.756 95.912 237.129 95.3842 237.101 95.3597C237.094 95.3537 237.083 95.3435 237.06 95.31C237.034 95.2697 236.989 95.1924 236.923 95.0412C236.853 94.8793 236.784 94.6946 236.678 94.4082C236.582 94.1463 236.454 93.7954 236.3 93.4311L233.537 94.6L230.774 95.7689C230.862 95.9766 230.941 96.1895 231.046 96.4762C231.142 96.7384 231.27 97.0872 231.422 97.4368C231.742 98.1704 232.237 99.0735 233.142 99.8683C234.918 101.428 237.503 101.912 240.929 101.912V98.912ZM233.537 94.6L236.358 93.5773L230.55 77.5613L227.729 78.584L224.909 79.6067L230.717 95.6227L233.537 94.6ZM227.729 78.584H224.729V102.256H227.729H230.729V78.584H227.729ZM227.729 102.256H224.729C224.729 104.709 224.285 105.92 223.827 106.498C223.494 106.919 222.808 107.44 220.865 107.44V110.44V113.44C223.939 113.44 226.685 112.553 228.53 110.224C230.25 108.052 230.729 105.171 230.729 102.256H227.729ZM220.865 110.44V107.44H217.961V110.44V113.44H220.865V110.44ZM217.961 110.44V107.44C216.138 107.44 215.42 106.936 215.048 106.476C214.567 105.881 214.097 104.657 214.097 102.256H211.097H208.097C208.097 105.223 208.639 108.091 210.381 110.246C212.231 112.536 214.944 113.44 217.961 113.44V110.44ZM281.986 102.256H284.986V60.808H281.986H278.986V102.256H281.986ZM281.986 60.808H284.986C284.986 58.5196 285.541 57.3239 286.111 56.71C286.644 56.1352 287.604 55.624 289.466 55.624V52.624V49.624C286.488 49.624 283.708 50.4768 281.712 52.63C279.751 54.7441 278.986 57.6404 278.986 60.808H281.986ZM289.466 52.624V55.624H291.93V52.624V49.624H289.466V52.624ZM291.93 52.624V55.624C293.967 55.624 294.993 56.1598 295.543 56.7381C296.119 57.3434 296.674 58.5187 296.674 60.808H299.674H302.674C302.674 57.6413 301.909 54.7246 299.889 52.6019C297.844 50.4522 294.997 49.624 291.93 49.624V52.624ZM299.674 60.808H296.674V102.256H299.674H302.674V60.808H299.674ZM299.674 102.256H296.674C296.674 104.489 296.125 105.677 295.535 106.302C294.973 106.896 293.942 107.44 291.93 107.44V110.44V113.44C295.023 113.44 297.863 112.576 299.898 110.42C301.904 108.295 302.674 105.391 302.674 102.256H299.674ZM291.93 110.44V107.44H289.466V110.44V113.44H291.93V110.44ZM289.466 110.44V107.44C287.63 107.44 286.664 106.922 286.119 106.33C285.536 105.696 284.986 104.489 284.986 102.256H281.986H278.986C278.986 105.391 279.756 108.276 281.703 110.392C283.689 112.55 286.462 113.44 289.466 113.44V110.44ZM327.631 56.76L330.014 54.9385L329.984 54.8989L329.953 54.8603L327.631 56.76ZM347.871 83.248L345.487 85.0695L350.871 92.1152V83.248H347.871ZM348.135 106.568L345.758 108.399L345.782 108.43L345.806 108.46L348.135 106.568ZM327.455 79.728L329.831 77.897L324.455 70.9191V79.728H327.455ZM318.215 110.44V107.44C316.381 107.44 315.449 106.924 314.929 106.349C314.362 105.722 313.823 104.512 313.823 102.256H310.823H307.823C307.823 105.368 308.559 108.25 310.478 110.373C312.445 112.548 315.209 113.44 318.215 113.44V110.44ZM310.823 102.256H313.823V60.808H310.823H307.823V102.256H310.823ZM310.823 60.808H313.823C313.823 58.5448 314.388 57.3238 314.965 56.6907C315.504 56.0995 316.413 55.624 318.039 55.624V52.624V49.624C315.176 49.624 312.478 50.5125 310.53 52.6493C308.621 54.7442 307.823 57.6152 307.823 60.808H310.823ZM318.039 52.624V55.624H319.711V52.624V49.624H318.039V52.624ZM319.711 52.624V55.624C321.535 55.624 322.331 55.8916 322.857 56.197C323.482 56.5605 324.099 57.1805 325.309 58.6597L327.631 56.76L329.953 54.8603C328.787 53.4355 327.555 51.9875 325.871 51.009C324.086 49.9724 322.11 49.624 319.711 49.624V52.624ZM327.631 56.76L325.247 58.5815L345.487 85.0695L347.871 83.248L350.254 81.4265L330.014 54.9385L327.631 56.76ZM347.871 83.248H350.871V60.808H347.871H344.871V83.248H347.871ZM347.871 60.808H350.871C350.871 58.5749 351.42 57.3808 352.008 56.7531C352.564 56.1595 353.573 55.624 355.527 55.624V52.624V49.624C352.464 49.624 349.646 50.4965 347.627 52.6529C345.641 54.7752 344.871 57.6731 344.871 60.808H347.871ZM355.527 52.624V55.624H357.111V52.624V49.624H355.527V52.624ZM357.111 52.624V55.624C358.945 55.624 359.877 56.1402 360.396 56.7148C360.963 57.342 361.503 58.5516 361.503 60.808H364.503H367.503C367.503 57.6964 366.766 54.814 364.847 52.6912C362.881 50.5158 360.117 49.624 357.111 49.624V52.624ZM364.503 60.808H361.503V102.256H364.503H367.503V60.808H364.503ZM364.503 102.256H361.503C361.503 104.519 360.937 105.74 360.36 106.373C359.822 106.965 358.912 107.44 357.287 107.44V110.44V113.44C360.149 113.44 362.848 112.552 364.795 110.415C366.704 108.32 367.503 105.449 367.503 102.256H364.503ZM357.287 110.44V107.44H355.879V110.44V113.44H357.287V110.44ZM355.879 110.44V107.44C353.987 107.44 353.208 107.196 352.724 106.93C352.173 106.628 351.617 106.096 350.463 104.676L348.135 106.568L345.806 108.46C346.941 109.856 348.144 111.26 349.837 112.19C351.597 113.156 353.546 113.44 355.879 113.44V110.44ZM348.135 106.568L350.511 104.737L329.831 77.897L327.455 79.728L325.078 81.559L345.758 108.399L348.135 106.568ZM327.455 79.728H324.455V102.256H327.455H330.455V79.728H327.455ZM327.455 102.256H324.455C324.455 104.489 323.905 105.683 323.317 106.311C322.762 106.904 321.752 107.44 319.799 107.44V110.44V113.44C322.861 113.44 325.68 112.568 327.698 110.411C329.684 108.289 330.455 105.391 330.455 102.256H327.455ZM319.799 110.44V107.44H318.215V110.44V113.44H319.799V110.44ZM371.736 105.336L374.532 106.423L374.535 106.415L374.538 106.407L371.736 105.336ZM390.04 57.464L392.842 58.5354L392.875 58.4481L392.903 58.3588L390.04 57.464ZM412.216 57.464L409.352 58.3588L409.387 58.4705L409.431 58.5791L412.216 57.464ZM431.312 105.16L434.108 104.073L434.102 104.059L434.097 104.045L431.312 105.16ZM411.776 102.432L408.974 103.505L408.98 103.519L408.985 103.533L411.776 102.432ZM410.192 98.296L412.993 97.2231L412.255 95.296H410.192V98.296ZM392.064 98.296V95.296H390.009L389.267 97.2114L392.064 98.296ZM390.392 102.608L387.595 101.523L387.576 101.573L387.558 101.622L390.392 102.608ZM394.968 85.536L392.153 84.4975L390.663 88.536H394.968V85.536ZM407.024 85.536V88.536H411.307L409.843 84.5108L407.024 85.536ZM401.04 69.08L403.859 68.0548L401.06 60.358L398.225 68.0415L401.04 69.08ZM380.8 110.792V107.792C379.119 107.792 377.271 107.091 375.893 106.167C375.21 105.708 374.789 105.292 374.605 105.048C374.511 104.924 374.553 104.943 374.606 105.106C374.658 105.27 374.781 105.782 374.532 106.423L371.736 105.336L368.94 104.249C368.536 105.286 368.676 106.266 368.894 106.944C369.113 107.623 369.469 108.204 369.818 108.666C370.519 109.593 371.496 110.442 372.551 111.149C374.648 112.557 377.641 113.792 380.8 113.792V110.792ZM371.736 105.336L374.538 106.407L392.842 58.5354L390.04 57.464L387.238 56.3926L368.934 104.265L371.736 105.336ZM390.04 57.464L392.903 58.3588C393.135 57.616 393.466 57.1116 394.347 56.6678C395.433 56.1216 397.474 55.624 401.304 55.624V52.624V49.624C397.126 49.624 393.975 50.1384 391.65 51.3082C389.122 52.5804 387.824 54.496 387.176 56.5692L390.04 57.464ZM401.304 52.624V55.624C405.146 55.624 407.061 56.1258 408.027 56.638C408.766 57.0302 409.079 57.4853 409.352 58.3588L412.216 57.464L415.079 56.5692C414.472 54.6267 413.334 52.6618 410.839 51.338C408.57 50.1342 405.47 49.624 401.304 49.624V52.624ZM412.216 57.464L409.431 58.5791L428.527 106.275L431.312 105.16L434.097 104.045L415.001 56.3489L412.216 57.464ZM431.312 105.16L428.516 106.247C428.271 105.617 428.388 105.115 428.438 104.957C428.488 104.798 428.527 104.781 428.435 104.905C428.253 105.15 427.835 105.571 427.144 106.035C425.762 106.961 423.826 107.704 421.896 107.704V110.704V113.704C425.246 113.704 428.325 112.467 430.486 111.017C431.566 110.293 432.55 109.427 433.251 108.484C433.6 108.014 433.951 107.428 434.164 106.749C434.376 106.071 434.507 105.099 434.108 104.073L431.312 105.16ZM421.896 110.704V107.704C420.563 107.704 419.291 107.357 418.119 106.495C416.927 105.618 415.644 104.063 414.567 101.331L411.776 102.432L408.985 103.533C410.372 107.049 412.257 109.63 414.563 111.327C416.888 113.039 419.445 113.704 421.896 113.704V110.704ZM411.776 102.432L414.577 101.359L412.993 97.2231L410.192 98.296L407.39 99.3689L408.974 103.505L411.776 102.432ZM410.192 98.296V95.296H392.064V98.296V101.296H410.192V98.296ZM392.064 98.296L389.267 97.2114L387.595 101.523L390.392 102.608L393.189 103.693L394.861 99.3806L392.064 98.296ZM390.392 102.608L387.558 101.622C386.644 104.253 385.481 105.757 384.385 106.606C383.311 107.438 382.108 107.792 380.8 107.792V110.792V113.792C383.276 113.792 385.813 113.09 388.06 111.348C390.287 109.623 392.028 107.035 393.225 103.594L390.392 102.608ZM394.968 85.536V88.536H407.024V85.536V82.536H394.968V85.536ZM407.024 85.536L409.843 84.5108L403.859 68.0548L401.04 69.08L398.22 70.1052L404.204 86.5612L407.024 85.536ZM401.04 69.08L398.225 68.0415L392.153 84.4975L394.968 85.536L397.782 86.5745L403.854 70.1185L401.04 69.08ZM471.263 68.024V65.024H468.263V68.024H471.263ZM471.263 95.04H468.263V98.04H471.263V95.04ZM453.75 100.32H456.75V62.92H453.75H450.75V100.32H453.75ZM453.75 62.92H456.75C456.75 60.3171 457.523 58.6688 458.489 57.6829C459.457 56.6957 460.92 56.064 462.902 56.064V53.064V50.064C459.605 50.064 456.492 51.1483 454.204 53.4831C451.914 55.8192 450.75 59.0989 450.75 62.92H453.75ZM462.902 53.064V56.064H477.951V53.064V50.064H462.902V53.064ZM477.951 53.064V56.064C486.706 56.064 493.429 58.5967 497.939 62.8391C502.428 67.0616 505.047 73.2784 505.047 81.312H508.047H511.047C511.047 71.9216 507.945 64.0144 502.05 58.4689C496.176 52.9433 487.851 50.064 477.951 50.064V53.064ZM508.047 81.312H505.047C505.047 89.3701 502.352 95.7071 497.759 100.041C493.149 104.393 486.331 107 477.599 107V110V113C487.522 113 495.928 110.019 501.878 104.405C507.845 98.7729 511.047 90.7659 511.047 81.312H508.047ZM477.599 110V107H463.607V110V113H477.599V110ZM463.607 110V107C459.684 107 456.75 103.996 456.75 100.32H453.75H450.75C450.75 107.38 456.441 113 463.607 113V110ZM477.159 95.04V98.04C481.829 98.04 486.016 96.5817 489.043 93.5693C492.074 90.5519 493.622 86.293 493.622 81.312H490.622H487.622C487.622 85.043 486.487 87.6481 484.81 89.3167C483.129 90.9903 480.584 92.04 477.159 92.04V95.04ZM490.622 81.312H493.622C493.622 76.4274 492.122 72.2609 489.11 69.3203C486.11 66.3913 481.963 65.024 477.335 65.024V68.024V71.024C480.802 71.024 483.299 72.0327 484.919 73.6137C486.526 75.1831 487.622 77.6606 487.622 81.312H490.622ZM477.335 68.024V65.024H471.263V68.024V71.024H477.335V68.024ZM471.263 68.024H468.263V95.04H471.263H474.263V68.024H471.263ZM471.263 95.04V98.04H477.159V95.04V92.04H471.263V95.04Z" fill="white" mask="url(#path-11-outside-1_1_779)"/>
<path d="M10.6265 27.32C6.40249 27.32 3.74649 24.408 3.74649 20.696C3.74649 15.576 7.71449 11.32 12.6425 11.32C16.7705 11.32 18.5945 14.296 18.2105 16.6C18.0185 17.816 17.1865 18.584 16.2265 18.584C15.3625 18.552 14.7545 18.008 14.8825 16.888C15.0425 15.256 14.5945 12.824 11.8425 12.824C8.73849 12.824 6.78649 16.312 6.78649 19.672C6.78649 22.776 8.64249 25.016 11.7145 25.016C13.9545 25.016 15.6185 24.152 16.9305 22.936C17.6025 22.36 18.1465 22.744 17.7625 23.512C16.8985 25.112 14.1785 27.32 10.6265 27.32ZM27.1852 27.32C23.1532 27.32 20.4332 24.6 20.4332 20.824C20.4332 15.768 24.6572 11.32 29.6812 11.32C33.8732 11.32 36.2412 14.264 36.2412 17.656C36.2412 23 32.2412 27.32 27.1852 27.32ZM27.6652 25.848C31.0572 25.848 32.9452 21.688 32.9452 17.976C32.9452 15.256 32.0492 12.76 29.2652 12.76C25.5852 12.76 23.6012 16.952 23.5692 20.376C23.6012 23.384 24.7532 25.848 27.6652 25.848ZM55.3887 24.216C55.5807 24.216 55.7407 24.376 55.7087 24.664C55.5807 25.848 54.3007 27.224 52.6367 27.224C50.9087 27.224 50.4287 25.944 50.5567 24.088L50.9407 16.984C51.0367 14.936 50.4927 13.528 48.7327 13.528C46.1407 13.528 43.4527 17.56 42.5887 22.616L41.9807 26.104C41.9167 26.52 41.7247 26.712 41.3727 26.808L39.7407 27.224C39.2927 27.352 39.0047 27.096 39.0687 26.584L40.6687 15.512C40.9247 13.752 39.5807 14.072 39.5807 13.304C39.5807 12.856 39.8687 12.632 41.3727 11.96C42.3967 11.512 42.8767 11.448 43.2927 11.448C43.7407 11.448 43.9647 11.704 43.9007 12.152L43.2607 16.44C44.9247 13.336 47.3247 11.416 50.0447 11.416C52.7007 11.416 54.0447 13.272 53.8527 16.792L53.4687 23.928C53.4367 24.6 53.4367 25.112 53.9807 25.112C54.5887 25.112 55.0047 24.216 55.3887 24.216ZM74.7265 24.216C74.9185 24.216 75.0785 24.376 75.0465 24.664C74.9185 25.848 73.6385 27.224 71.9745 27.224C70.2465 27.224 69.7665 25.944 69.8945 24.088L70.2785 16.984C70.3745 14.936 69.8305 13.528 68.0705 13.528C65.4785 13.528 62.7265 17.56 61.9265 22.616L61.3185 26.36C61.2545 26.712 60.9025 26.936 60.6145 27L59.1745 27.32C58.5985 27.448 58.2785 27.032 58.3745 26.552L61.0945 8.152C61.3185 6.552 59.9105 6.776 59.9105 6.04C59.9105 5.688 60.1665 5.368 61.7025 4.792C62.9185 4.312 63.4305 4.248 63.8465 4.248C64.2945 4.248 64.5505 4.504 64.4545 4.984L62.6945 16.344C64.3585 13.304 66.7265 11.416 69.3825 11.416C72.0385 11.416 73.3825 13.272 73.1905 16.792L72.8065 23.928C72.7745 24.6 72.7745 25.112 73.3185 25.112C73.9265 25.112 74.3425 24.216 74.7265 24.216ZM90.0725 22.744C90.6805 22.2 91.3525 22.52 90.9045 23.32C90.0405 24.92 87.3205 27.32 83.7685 27.32C80.4725 27.32 77.4645 25.144 77.4645 20.76C77.4645 16.632 81.0165 11.32 86.8405 11.32C89.3685 11.32 91.4485 12.6 91.4485 14.968C91.4485 18.968 86.5525 21.08 80.7605 21.912C81.2405 23.768 82.8085 25.144 84.8885 25.144C87.0645 25.144 88.7605 23.96 90.0725 22.744ZM85.8165 12.824C83.0325 12.824 80.5365 15.832 80.5365 19.704C80.5365 20.12 80.7285 20.504 81.5285 20.376C85.6245 19.736 88.5685 18.008 88.5685 15.448C88.5685 13.912 87.4485 12.824 85.8165 12.824ZM106.195 18.584C105.331 18.552 104.723 18.008 104.851 16.888C105.011 15.256 104.563 12.824 101.811 12.824C98.7072 12.824 96.7552 16.312 96.7552 19.672C96.7552 22.776 98.6112 25.016 101.683 25.016C103.923 25.016 105.587 24.152 106.899 22.936C107.571 22.36 108.115 22.744 107.731 23.512C106.867 25.112 104.179 27.288 100.659 27.32L99.9232 28.696C101.555 28.984 102.899 29.688 102.899 31.224C102.899 32.728 101.555 33.752 99.9552 33.752C98.5792 33.752 97.7792 33.24 97.3632 32.728C97.0752 32.376 97.4272 31.928 97.8752 32.216C98.3232 32.472 98.8032 32.76 99.6032 32.76C100.595 32.76 101.075 32.12 101.075 31.416C101.075 30.36 99.9552 29.944 98.8992 29.688C98.5792 29.624 98.3552 29.432 98.5152 29.144L99.5392 27.256C95.9232 26.808 93.7152 24.088 93.7152 20.696C93.7152 15.576 97.6832 11.32 102.611 11.32C106.739 11.32 108.563 14.296 108.179 16.6C107.987 17.816 107.155 18.584 106.195 18.584ZM127.063 24.216C127.255 24.216 127.415 24.376 127.383 24.664C127.223 25.848 125.943 27.224 124.311 27.224C122.967 27.224 121.879 26.712 122.167 23.448C120.887 25.528 118.679 27.32 115.991 27.32C113.175 27.32 110.775 25.368 110.775 21.624C110.775 16.216 114.359 11.32 119.095 11.32C120.567 11.32 121.975 11.992 122.775 11.992C123.799 11.992 124.439 11.32 125.111 11.32C125.719 11.32 125.847 11.768 125.783 12.632L125.111 23.928C125.079 24.6 125.111 25.112 125.687 25.112C126.231 25.112 126.647 24.216 127.063 24.216ZM117.303 25.112C119.927 25.112 122.359 21.88 122.615 17.752L122.679 16.824C122.871 14.168 121.047 12.728 119.031 12.728C115.607 12.728 113.847 17.24 113.815 20.44C113.815 24.152 115.767 25.112 117.303 25.112ZM152.688 24.216C152.88 24.216 153.04 24.376 153.008 24.664C152.848 25.848 151.568 27.224 149.936 27.224C148.592 27.224 147.504 26.712 147.792 23.448C146.512 25.528 144.304 27.32 141.616 27.32C138.8 27.32 136.4 25.368 136.4 21.624C136.4 16.216 139.984 11.32 144.72 11.32C146.192 11.32 147.6 11.992 148.4 11.992C149.424 11.992 150.064 11.32 150.736 11.32C151.344 11.32 151.472 11.768 151.408 12.632L150.736 23.928C150.704 24.6 150.736 25.112 151.312 25.112C151.856 25.112 152.272 24.216 152.688 24.216ZM142.928 25.112C145.552 25.112 147.984 21.88 148.24 17.752L148.304 16.824C148.496 14.168 146.672 12.728 144.656 12.728C141.232 12.728 139.472 17.24 139.44 20.44C139.44 24.152 141.392 25.112 142.928 25.112Z" fill="#1A1A1A"/>
</svg>
