<svg width="363" height="182" viewBox="0 0 363 182" fill="none" xmlns="http://www.w3.org/2000/svg">
<rect x="252.531" y="143.75" width="109.5" height="33.5" rx="16.75" stroke="#1A1A1A" stroke-width="1.5"/>
<path d="M283.669 159.316L284.165 162.132C284.341 163.124 285.013 163.012 285.013 163.492C285.013 163.732 284.773 163.796 284.389 163.796H282.677C282.309 163.796 282.053 163.732 282.053 163.476C282.053 163.012 282.885 163.124 282.709 162.084L282.245 159.428C282.021 158.164 281.829 156.916 280.389 156.932C279.397 156.948 278.309 157.812 278.245 159.668L278.261 161.684C278.261 163.22 279.013 162.932 279.013 163.492C279.013 163.732 278.773 163.796 278.389 163.796H276.677C276.293 163.796 276.037 163.732 276.037 163.476C276.037 162.932 276.805 163.22 276.805 161.684V159.46C276.805 158.02 276.437 156.868 275.045 156.9C273.925 156.916 272.821 157.876 272.821 159.828V161.684C272.821 163.22 273.557 162.932 273.557 163.492C273.557 163.732 273.333 163.796 272.933 163.796H271.221C270.853 163.796 270.581 163.732 270.581 163.476C270.581 162.932 271.365 163.22 271.365 161.684V158.468C271.365 157.924 271.301 157.524 270.869 157.268C270.693 157.156 270.581 157.06 270.581 156.9C270.581 156.724 270.661 156.628 271.045 156.452C271.589 156.196 272.133 156.02 272.357 156.004C272.565 156.004 272.677 156.084 272.677 156.356L272.661 157.716C273.301 156.532 274.357 155.956 275.493 155.956C276.789 155.956 277.685 156.564 278.053 157.78C278.677 156.564 279.749 155.956 280.901 155.956C282.501 155.956 283.237 156.852 283.669 159.316ZM293.475 162.804C293.651 162.804 293.795 162.82 293.795 162.996C293.795 163.396 293.171 163.908 292.451 163.908C291.699 163.908 291.491 163.444 291.347 162.676C290.675 163.508 289.571 163.956 288.643 163.956C286.691 163.956 285.571 162.868 285.571 161.508C285.571 159.972 286.947 158.916 288.899 158.916C289.571 158.916 290.019 158.98 290.627 159.124C290.307 157.844 290.099 156.932 288.707 156.932C287.795 156.932 287.203 157.22 286.531 157.604C286.227 157.796 285.971 157.556 286.179 157.236C286.563 156.676 287.715 155.972 289.171 155.972C290.931 155.972 291.619 157.076 291.923 158.468L292.659 161.94C292.835 162.756 293.171 162.804 293.475 162.804ZM289.011 163.156C290.115 163.156 291.267 162.308 291.139 161.604C291.075 161.236 290.947 160.82 290.803 160.116C290.739 159.732 289.683 159.588 289.187 159.588C287.779 159.588 287.027 160.26 287.043 161.332C287.091 162.372 287.811 163.156 289.011 163.156ZM295.712 154.756C295.28 154.724 294.96 154.404 294.992 153.956C295.024 153.38 295.744 152.708 296.384 152.788C296.816 152.82 297.12 153.22 297.104 153.62C297.056 154.18 296.336 154.804 295.712 154.756ZM295.568 161.684V158.516C295.568 157.124 294.784 157.396 294.784 156.9C294.784 156.74 294.848 156.66 295.232 156.484C295.952 156.148 296.496 155.972 296.72 155.956C296.928 155.94 297.04 156.02 297.04 156.308L297.024 158.516V161.684C297.024 163.22 297.776 162.932 297.776 163.492C297.776 163.732 297.536 163.796 297.152 163.796H295.44C295.056 163.796 294.8 163.732 294.8 163.476C294.8 162.932 295.568 163.22 295.568 161.684ZM300.242 163.956C300.018 163.956 299.986 163.86 299.794 163.412C299.554 162.772 299.394 162.356 299.202 161.716C299.154 161.492 299.202 161.348 299.378 161.284C299.538 161.22 299.714 161.348 299.922 161.572C301.17 162.916 302.034 163.22 302.898 163.22C303.618 163.22 304.242 162.868 304.242 162.164C304.242 161.476 303.346 161.044 302.05 160.516C300.658 159.972 299.362 159.412 299.362 158.1C299.362 156.644 300.69 155.956 301.906 155.956C302.754 155.956 303.266 156.132 303.682 156.148C303.938 156.164 304.002 155.956 304.21 155.956C304.418 155.956 304.514 156.164 304.706 156.484C304.946 156.932 305.074 157.22 305.202 157.508C305.298 157.764 305.298 157.972 305.138 158.068C304.882 158.212 304.658 157.924 304.114 157.508C303.49 157.044 302.706 156.66 301.954 156.66C301.09 156.66 300.61 157.092 300.61 157.652C300.61 158.356 301.362 158.708 302.834 159.3C304.37 159.908 305.618 160.516 305.618 161.716C305.618 162.9 304.466 163.956 302.706 163.956C301.65 163.956 301.17 163.652 300.85 163.652C300.594 163.652 300.53 163.956 300.242 163.956ZM313.119 153.252C312.575 153.252 312.095 153.7 312.095 154.756C312.095 155.252 312.191 156.116 312.479 156.116H314.303C314.575 156.116 314.895 156.132 314.815 156.516C314.735 156.916 314.479 156.948 314.207 156.932L312.479 156.884V161.7C312.479 163.364 313.551 162.916 313.551 163.492C313.551 163.732 313.311 163.796 312.927 163.796H310.911C310.543 163.796 310.287 163.732 310.287 163.476C310.287 162.996 311.055 163.252 311.055 161.7V156.836L310.591 156.82C310.319 156.804 310.047 156.788 310.095 156.452C310.159 156.148 310.367 156.116 310.639 156.116H311.055C311.055 153.444 312.063 152.436 313.615 152.436C314.847 152.436 315.455 153.252 315.455 154.084C315.455 154.532 315.151 154.868 314.751 154.868C314.399 154.868 314.191 154.628 314.095 154.308C313.919 153.62 313.679 153.252 313.119 153.252ZM318.82 163.956C316.66 163.956 315.06 162.516 315.06 160.244C315.06 157.828 316.804 155.956 319.284 155.956C321.412 155.956 322.964 157.604 322.964 159.764C322.964 162.132 321.268 163.956 318.82 163.956ZM319.316 163.188C320.676 163.188 321.524 162.1 321.524 160.564C321.524 158.564 320.324 156.772 318.724 156.772C317.3 156.772 316.516 157.956 316.516 159.476C316.516 161.572 317.684 163.188 319.316 163.188ZM328.746 155.956C329.61 155.956 329.994 156.5 329.994 157.06C329.994 157.476 329.722 157.86 329.354 157.876C328.682 157.892 328.714 157.188 327.978 157.188C327.274 157.188 326.602 158.18 326.602 159.588V161.684C326.602 163.22 327.338 162.932 327.338 163.492C327.338 163.732 327.114 163.796 326.714 163.796H325.002C324.634 163.796 324.362 163.732 324.362 163.476C324.362 162.932 325.146 163.22 325.146 161.684V158.468C325.146 157.924 325.082 157.524 324.65 157.268C324.474 157.156 324.362 157.06 324.362 156.9C324.362 156.724 324.442 156.628 324.826 156.452C325.37 156.196 325.914 156.02 326.138 156.004C326.346 156.004 326.458 156.084 326.458 156.356L326.442 157.652C326.938 156.708 327.802 155.956 328.746 155.956ZM335.568 162.34C335.808 162.116 336.08 162.324 335.968 162.612C335.744 163.156 335.024 163.956 333.824 163.956C332.512 163.956 331.904 163.14 331.904 161.684V161.204C331.904 159.332 331.92 157.844 331.968 156.852H331.36C331.04 156.852 330.912 156.756 330.912 156.532C330.912 156.42 330.928 156.34 331.056 156.196C331.648 155.524 332.24 155.028 332.768 154.628C333.008 154.468 333.088 154.468 333.2 154.468C333.408 154.468 333.472 154.612 333.456 154.852C333.424 155.172 333.408 155.476 333.392 156.116H334.992C335.264 156.116 335.488 156.132 335.408 156.516C335.328 156.916 335.072 156.948 334.8 156.932L333.376 156.884L333.312 161.204C333.28 162.276 333.472 162.868 334.352 162.868C334.784 162.868 335.28 162.596 335.568 162.34ZM343.392 161.732C343.664 161.444 344.016 161.62 343.856 162.02C343.52 162.804 342.304 163.956 340.288 163.956C338.048 163.956 336.544 162.34 336.544 160.228C336.544 157.812 338.24 155.956 340.608 155.956C342.352 155.956 343.52 156.964 343.808 158.34C343.872 158.628 343.808 158.852 343.44 158.996C341.712 159.668 340.016 160.244 338.16 160.852C338.464 161.78 339.376 162.868 340.864 162.868C341.936 162.868 342.816 162.34 343.392 161.732ZM340.112 156.708C338.672 156.724 337.952 158.036 337.952 159.204C337.952 159.604 337.968 159.908 338.048 160.18C339.36 159.748 340.608 159.332 341.776 158.884C342.032 158.788 342.128 158.628 342.08 158.34C341.92 157.348 340.992 156.676 340.112 156.708Z" fill="#1A1A1A"/>
<circle cx="267.077" cy="123.482" r="14.7315" fill="#FD86CD" stroke="#1A1A1A" stroke-width="1.5"/>
<path d="M226.924 108.75C227.456 108.807 227.756 108.881 228.342 108.98L228.392 108.988L228.442 108.989C228.526 108.992 228.584 108.997 228.621 109C228.634 109.001 228.644 109.002 228.649 109.003L228.651 109.004L228.668 109.007C235.409 110.359 240.422 113.815 242.292 120.354C244.649 128.592 241.234 136.379 233.893 140.016C232.805 140.555 231.603 140.916 230.294 141.243C229.015 141.563 227.573 141.863 226.163 142.261L226.308 143.731C227.344 143.811 228.033 143.803 228.763 143.929C238.032 145.532 244.446 154.878 242.631 164.122C241.347 170.664 236.004 175.821 229.304 176.891C227.898 177.115 226.45 177.213 225.012 177.215C206.98 177.237 188.937 177.189 170.9 177.25C164.215 177.273 158.883 175.074 155.299 169.503C154.886 168.861 154.556 168.148 154.228 167.366C153.92 166.633 153.6 165.805 153.23 164.993C152.368 159.952 152.973 155.799 154.925 152.488C156.89 149.157 160.277 146.579 165.157 144.819C165.414 144.727 166.224 144.479 166.957 144.239C167.159 144.173 168.268 143.852 169.377 143.772L169.434 142.282C165.729 141.73 163.839 141.082 161.322 140.183C159.677 139.267 158.427 138.857 156.458 136.493C155.213 134.998 154.494 133.792 154.03 132.757C153.564 131.718 153.345 130.83 153.11 129.911C152.041 125.729 152.374 121.666 154.766 117.517C157.698 112.43 162.208 109.617 168.299 108.845C187.862 108.756 207.283 108.766 226.924 108.75Z" fill="#FD86CD" stroke="#1A1A1A" stroke-width="1.5"/>
<path d="M185.556 121.16C187.556 121.16 188.804 122.776 188.804 124.968C188.804 127.384 187.316 129.144 185.332 129.16C184.388 129.176 183.412 128.824 182.804 128.312L182.82 130.088C182.82 131.624 183.556 131.336 183.556 131.896C183.556 132.136 183.332 132.2 182.932 132.2H181.22C180.852 132.2 180.596 132.136 180.596 131.896C180.596 131.336 181.364 131.624 181.364 130.088L181.332 123.608C181.332 123.08 181.268 122.68 180.852 122.424C180.676 122.312 180.564 122.216 180.564 122.056C180.564 121.864 180.644 121.768 181.028 121.592C181.572 121.352 182.116 121.176 182.34 121.16C182.548 121.144 182.66 121.224 182.66 121.512L182.644 122.808C183.156 121.944 184.116 121.16 185.556 121.16ZM185.332 128.44C186.724 128.424 187.364 127.144 187.364 125.608C187.364 123.304 186.244 122.168 185.028 122.168C183.556 122.168 182.804 123.56 182.804 124.728V125.848C182.804 127.512 184.212 128.456 185.332 128.44ZM197.524 128.008C197.7 128.008 197.844 128.024 197.844 128.2C197.844 128.6 197.22 129.112 196.5 129.112C195.748 129.112 195.54 128.648 195.396 127.88C194.724 128.712 193.62 129.16 192.692 129.16C190.74 129.16 189.62 128.072 189.62 126.712C189.62 125.176 190.996 124.12 192.948 124.12C193.62 124.12 194.068 124.184 194.676 124.328C194.356 123.048 194.148 122.136 192.756 122.136C191.844 122.136 191.252 122.424 190.58 122.808C190.276 123 190.02 122.76 190.228 122.44C190.612 121.88 191.764 121.176 193.22 121.176C194.98 121.176 195.668 122.28 195.972 123.672L196.708 127.144C196.884 127.96 197.22 128.008 197.524 128.008ZM193.06 128.36C194.164 128.36 195.316 127.512 195.188 126.808C195.124 126.44 194.996 126.024 194.852 125.32C194.788 124.936 193.732 124.792 193.236 124.792C191.828 124.792 191.076 125.464 191.092 126.536C191.14 127.576 191.86 128.36 193.06 128.36ZM203.201 121.16C204.065 121.16 204.449 121.704 204.449 122.264C204.449 122.68 204.177 123.064 203.809 123.08C203.137 123.096 203.169 122.392 202.433 122.392C201.729 122.392 201.057 123.384 201.057 124.792V126.888C201.057 128.424 201.793 128.136 201.793 128.696C201.793 128.936 201.569 129 201.169 129H199.457C199.089 129 198.817 128.936 198.817 128.68C198.817 128.136 199.601 128.424 199.601 126.888V123.672C199.601 123.128 199.537 122.728 199.105 122.472C198.929 122.36 198.817 122.264 198.817 122.104C198.817 121.928 198.897 121.832 199.281 121.656C199.825 121.4 200.369 121.224 200.593 121.208C200.801 121.208 200.913 121.288 200.913 121.56L200.897 122.856C201.393 121.912 202.257 121.16 203.201 121.16ZM212.79 128.008C212.966 128.008 213.11 128.024 213.11 128.2C213.11 128.6 212.486 129.112 211.766 129.112C211.014 129.112 210.806 128.648 210.662 127.88C209.99 128.712 208.886 129.16 207.958 129.16C206.006 129.16 204.886 128.072 204.886 126.712C204.886 125.176 206.262 124.12 208.214 124.12C208.886 124.12 209.334 124.184 209.942 124.328C209.622 123.048 209.414 122.136 208.022 122.136C207.11 122.136 206.518 122.424 205.846 122.808C205.542 123 205.286 122.76 205.494 122.44C205.878 121.88 207.03 121.176 208.486 121.176C210.246 121.176 210.934 122.28 211.238 123.672L211.974 127.144C212.15 127.96 212.486 128.008 212.79 128.008ZM208.326 128.36C209.43 128.36 210.582 127.512 210.454 126.808C210.39 126.44 210.262 126.024 210.118 125.32C210.054 124.936 208.998 124.792 208.502 124.792C207.094 124.792 206.342 125.464 206.358 126.536C206.406 127.576 207.126 128.36 208.326 128.36Z" fill="#FFFFF3"/>
<path d="M173.18 164.16C170.924 164.16 169.452 162.496 169.452 160.432C169.452 158.016 171.212 156.176 173.5 156.176C175.484 156.176 176.604 157.504 176.604 158.768C176.604 159.312 176.284 159.632 175.852 159.632C175.356 159.632 175.164 159.248 175.036 158.816C174.732 157.744 174.204 156.944 173.068 156.912C171.676 156.912 170.86 158.064 170.86 159.6C170.86 161.712 172.044 163.088 173.804 163.088C174.86 163.088 175.58 162.56 176.156 161.952C176.428 161.68 176.78 161.84 176.62 162.24C176.284 163.04 175.228 164.16 173.18 164.16ZM182.326 156.16C183.19 156.16 183.574 156.704 183.574 157.264C183.574 157.68 183.302 158.064 182.934 158.08C182.262 158.096 182.294 157.392 181.558 157.392C180.854 157.392 180.182 158.384 180.182 159.792V161.888C180.182 163.424 180.918 163.136 180.918 163.696C180.918 163.936 180.694 164 180.294 164H178.582C178.214 164 177.942 163.936 177.942 163.68C177.942 163.136 178.726 163.424 178.726 161.888V158.672C178.726 158.128 178.662 157.728 178.23 157.472C178.054 157.36 177.942 157.264 177.942 157.104C177.942 156.928 178.022 156.832 178.406 156.656C178.95 156.4 179.494 156.224 179.718 156.208C179.926 156.208 180.038 156.288 180.038 156.56L180.022 157.856C180.518 156.912 181.382 156.16 182.326 156.16ZM191.128 161.936C191.4 161.648 191.752 161.824 191.592 162.224C191.256 163.008 190.04 164.16 188.024 164.16C185.784 164.16 184.28 162.544 184.28 160.432C184.28 158.016 185.976 156.16 188.344 156.16C190.088 156.16 191.256 157.168 191.544 158.544C191.608 158.832 191.544 159.056 191.176 159.2C189.448 159.872 187.752 160.448 185.896 161.056C186.2 161.984 187.112 163.072 188.6 163.072C189.672 163.072 190.552 162.544 191.128 161.936ZM187.848 156.912C186.408 156.928 185.688 158.24 185.688 159.408C185.688 159.808 185.704 160.112 185.784 160.384C187.096 159.952 188.344 159.536 189.512 159.088C189.768 158.992 189.864 158.832 189.816 158.544C189.656 157.552 188.728 156.88 187.848 156.912ZM193.822 164.16C193.598 164.16 193.566 164.064 193.374 163.616C193.134 162.976 192.974 162.56 192.782 161.92C192.734 161.696 192.782 161.552 192.958 161.488C193.118 161.424 193.294 161.552 193.502 161.776C194.75 163.12 195.614 163.424 196.478 163.424C197.198 163.424 197.822 163.072 197.822 162.368C197.822 161.68 196.926 161.248 195.63 160.72C194.238 160.176 192.942 159.616 192.942 158.304C192.942 156.848 194.27 156.16 195.486 156.16C196.334 156.16 196.846 156.336 197.262 156.352C197.518 156.368 197.582 156.16 197.79 156.16C197.998 156.16 198.094 156.368 198.286 156.688C198.526 157.136 198.654 157.424 198.782 157.712C198.878 157.968 198.878 158.176 198.718 158.272C198.462 158.416 198.238 158.128 197.694 157.712C197.07 157.248 196.286 156.864 195.534 156.864C194.67 156.864 194.19 157.296 194.19 157.856C194.19 158.56 194.942 158.912 196.414 159.504C197.95 160.112 199.198 160.72 199.198 161.92C199.198 163.104 198.046 164.16 196.286 164.16C195.23 164.16 194.75 163.856 194.43 163.856C194.174 163.856 194.11 164.16 193.822 164.16ZM203.993 164.16C201.737 164.16 200.265 162.496 200.265 160.432C200.265 158.016 202.025 156.176 204.313 156.176C206.297 156.176 207.417 157.504 207.417 158.768C207.417 159.312 207.097 159.632 206.665 159.632C206.169 159.632 205.977 159.248 205.849 158.816C205.545 157.744 205.017 156.944 203.881 156.912C202.489 156.912 201.673 158.064 201.673 159.6C201.673 161.712 202.857 163.088 204.617 163.088C205.673 163.088 206.393 162.56 206.969 161.952C207.241 161.68 207.593 161.84 207.433 162.24C207.097 163.04 206.041 164.16 203.993 164.16ZM215.363 161.936C215.635 161.648 215.987 161.824 215.827 162.224C215.491 163.008 214.275 164.16 212.259 164.16C210.019 164.16 208.515 162.544 208.515 160.432C208.515 158.016 210.211 156.16 212.579 156.16C214.323 156.16 215.491 157.168 215.779 158.544C215.843 158.832 215.779 159.056 215.411 159.2C213.683 159.872 211.987 160.448 210.131 161.056C210.435 161.984 211.347 163.072 212.835 163.072C213.907 163.072 214.787 162.544 215.363 161.936ZM212.083 156.912C210.643 156.928 209.923 158.24 209.923 159.408C209.923 159.808 209.939 160.112 210.019 160.384C211.331 159.952 212.579 159.536 213.747 159.088C214.003 158.992 214.099 158.832 214.051 158.544C213.891 157.552 212.963 156.88 212.083 156.912ZM221.545 156.16C222.409 156.16 222.793 156.704 222.793 157.264C222.793 157.68 222.521 158.064 222.153 158.08C221.481 158.096 221.513 157.392 220.777 157.392C220.073 157.392 219.401 158.384 219.401 159.792V161.888C219.401 163.424 220.137 163.136 220.137 163.696C220.137 163.936 219.913 164 219.513 164H217.801C217.433 164 217.161 163.936 217.161 163.68C217.161 163.136 217.945 163.424 217.945 161.888V158.672C217.945 158.128 217.881 157.728 217.449 157.472C217.273 157.36 217.161 157.264 217.161 157.104C217.161 156.928 217.241 156.832 217.625 156.656C218.169 156.4 218.713 156.224 218.937 156.208C219.145 156.208 219.257 156.288 219.257 156.56L219.241 157.856C219.737 156.912 220.601 156.16 221.545 156.16Z" fill="#FFFFF3"/>
<path d="M43.6907 108.75C44.3113 117.863 48.1879 125.403 55.7493 130.925C61.1691 134.883 67.3384 136.663 74.0393 136.392C88.2584 135.816 101.003 124.631 101.866 108.78H143.03C143.032 109.057 143.032 109.329 143.02 109.609C142.128 130.49 133.684 147.724 117.604 161.217C108.047 169.236 96.9935 174.308 84.637 176.25C63.6972 179.541 44.7951 174.734 28.2874 161.481C15.8309 151.48 7.90881 138.565 4.21606 122.971H4.21704C3.13445 118.24 2.57993 113.557 2.53442 108.75H43.6907Z" stroke="#1A1A1A" stroke-width="1.5"/>
<path d="M25.184 130.116C24.6413 129.027 24.5775 128.433 24.3633 128.004C24.199 127.675 23.9844 127.674 23.8701 127.445C23.7344 127.173 23.8491 126.937 24.4005 126.537C24.8159 126.223 25.3673 125.787 26.2479 125.222C26.52 125.051 26.7562 124.987 26.8705 125.216C26.9704 125.416 26.9058 125.645 26.6479 125.988C25.8957 126.882 25.1215 128.234 25.9427 129.916C26.6353 131.305 27.7657 131.528 28.6891 131.121C29.9276 130.593 29.7431 129.04 29.716 127.516C29.6964 125.72 29.505 123.866 31.2518 122.995C32.5834 122.331 34.4075 122.869 35.5072 125.074C35.8214 125.704 35.921 126.298 36.1209 126.699C36.2852 127.029 36.4855 127.036 36.5998 127.265C36.7355 127.537 36.6137 127.687 36.0837 128.13C35.7185 128.438 35.2816 128.816 34.6372 129.281C34.3865 129.459 34.1647 129.516 34.0504 129.287C33.9504 129.087 34.0079 128.844 34.2301 128.5C34.7318 127.678 35.3127 126.369 34.6772 125.095C34.0916 123.921 33.1402 123.627 32.2668 124.062C31.1643 124.612 31.299 125.85 31.3045 127.546C31.324 129.449 31.5869 131.303 29.9116 132.21C28.1218 133.174 26.1409 131.998 25.184 130.116ZM38.3076 136.965L36.4681 138.186L33.8282 139.967C32.82 140.647 33.6529 141.223 33.2682 141.483C33.1356 141.572 32.9314 141.556 32.6599 141.411C32.2283 141.2 31.6805 140.817 31.4658 140.498C31.2511 140.18 31.4093 139.9 31.8514 139.582L32.3864 139.202C31.1703 139.173 30.1328 138.522 29.6408 137.792C28.7552 136.479 28.9249 135.014 30.7688 133.77L32.6393 132.509C33.8066 131.722 33.1206 131.219 33.5318 130.942C33.6645 130.853 33.7755 130.874 34.1361 131.094C34.8083 131.49 35.2673 131.856 35.4059 132.033C35.5354 132.196 35.5317 132.334 35.2929 132.495L33.4533 133.716L31.7156 134.888C30.5217 135.693 29.9808 136.637 30.6872 137.627C31.273 138.467 32.7488 138.938 34.0489 138.062L35.654 136.979C36.8214 136.192 36.1353 135.69 36.5465 135.412C36.6792 135.323 36.7902 135.345 37.1509 135.565C37.823 135.96 38.2731 136.313 38.4206 136.503C38.5501 136.667 38.5464 136.804 38.3076 136.965ZM39.0007 147.496C39.1191 147.626 39.204 147.744 39.0738 147.862C38.7777 148.131 37.9791 148.013 37.495 147.481C36.9893 146.924 37.1929 146.458 37.6646 145.835C36.5969 145.897 35.5229 145.381 34.8989 144.694C33.5864 143.249 33.6386 141.689 34.6452 140.774C35.7821 139.742 37.489 140.05 38.8015 141.495C39.2534 141.992 39.5073 142.367 39.8095 142.914C40.5417 141.816 41.0769 141.049 40.1409 140.019C39.5277 139.344 38.9164 139.099 38.1803 138.86C37.8338 138.764 37.8393 138.413 38.216 138.352C38.8887 138.26 40.1844 138.639 41.1635 139.717C42.3469 141.019 41.9924 142.271 41.1665 143.432L39.0915 146.311C38.6059 146.99 38.7963 147.271 39.0007 147.496ZM35.7385 144.429C36.4808 145.246 37.8831 145.528 38.3182 144.96C38.5475 144.665 38.7693 144.291 39.1936 143.711C39.4348 143.405 38.8313 142.527 38.4978 142.16C37.551 141.118 36.548 141.013 35.7653 141.746C35.0278 142.48 34.9316 143.541 35.7385 144.429ZM55.2057 153.892L54.19 156.565C53.8333 157.507 54.4679 157.755 54.2221 158.168C54.0992 158.374 53.8603 158.306 53.5304 158.109L52.0598 157.233C51.7437 157.044 51.5566 156.858 51.6877 156.638C51.9252 156.24 52.5826 156.762 52.9638 155.778L53.9251 153.259C54.3798 152.059 54.8539 150.889 53.6087 150.165C52.7484 149.671 51.3715 149.856 50.3663 151.418L49.3478 153.158C48.5614 154.477 49.3548 154.615 49.0681 155.096C48.9453 155.302 48.7063 155.234 48.3765 155.037L46.9059 154.161C46.576 153.964 46.3889 153.778 46.52 153.558C46.7985 153.091 47.3107 153.731 48.0971 152.412L49.2358 150.502C49.973 149.265 50.2467 148.087 49.0346 147.402C48.0644 146.842 46.6245 147.101 45.6251 148.778L44.6749 150.372C43.8885 151.692 44.6682 151.821 44.3815 152.302C44.2586 152.508 44.0334 152.449 43.6898 152.244L42.2192 151.367C41.9031 151.179 41.7022 150.985 41.8333 150.765C42.1118 150.298 42.6378 150.946 43.4242 149.627L45.0707 146.864C45.3493 146.397 45.4991 146.021 45.2591 145.58C45.1652 145.393 45.1182 145.253 45.2001 145.116C45.2902 144.965 45.4081 144.923 45.828 144.969C46.4264 145.027 46.9838 145.155 47.1844 145.256C47.3631 145.362 47.4183 145.488 47.2791 145.722L46.569 146.882C47.725 146.193 48.927 146.238 49.9028 146.82C51.016 147.484 51.4744 148.465 51.1679 149.698C52.3265 148.972 53.5587 148.999 54.5482 149.589C55.9226 150.408 56.0961 151.554 55.2057 153.892ZM61.7403 158.529C62.0825 158.329 62.3705 158.597 62.1042 158.936C61.5607 159.593 60.0691 160.356 58.135 159.787C55.986 159.155 54.9988 157.18 55.5946 155.154C56.276 152.836 58.4267 151.534 60.6985 152.202C62.3717 152.694 63.208 153.99 63.0961 155.392C63.0763 155.686 62.9517 155.883 62.5581 155.917C60.7107 156.075 58.9211 156.149 56.9689 156.209C56.9988 157.185 57.5669 158.486 58.9945 158.906C60.023 159.208 61.0162 158.95 61.7403 158.529ZM60.0106 152.784C58.6245 152.393 57.5637 153.448 57.2342 154.569C57.1214 154.953 57.051 155.249 57.051 155.532C58.4316 155.488 59.7463 155.441 60.9932 155.341C61.2659 155.321 61.4031 155.194 61.4383 154.904C61.5646 153.908 60.8639 153.001 60.0106 152.784ZM63.9417 158.932L64.9372 152.318C65.1501 150.926 64.3316 151.092 64.4066 150.602C64.4307 150.444 64.5219 150.377 64.9281 150.261C65.6748 150.035 66.2392 149.944 66.4789 149.964C66.6869 149.98 66.7855 150.076 66.7419 150.36L66.3923 152.541L65.381 159.152C65.1487 160.67 65.9198 160.497 65.8351 161.05C65.7988 161.287 65.5677 161.317 65.1723 161.256L63.48 160.997C63.1162 160.942 62.857 160.837 62.8958 160.584C62.978 160.047 63.7095 160.45 63.9417 158.932ZM75.0697 157.114L75.5214 159.937C75.6979 160.932 76.3555 160.83 76.348 161.31C76.3443 161.55 76.1193 161.611 75.7193 161.605L74.0235 161.578C73.6396 161.572 73.3846 161.504 73.3886 161.248C73.3959 160.784 74.2261 160.909 74.0664 159.866L73.6441 157.204C73.4559 155.936 73.2035 154.684 71.7474 154.677C70.7073 154.677 69.5889 155.588 69.5583 157.54L69.5292 159.395C69.5051 160.931 70.2456 160.655 70.2368 161.215C70.233 161.455 70.008 161.515 69.6081 161.509L67.8963 161.482C67.5283 161.476 67.2574 161.408 67.2614 161.152C67.2699 160.608 68.0493 160.908 68.0734 159.372L68.1622 152.685C68.1843 151.277 67.3959 151.553 67.4037 151.057C67.4062 150.897 67.4874 150.818 67.8741 150.648C68.5833 150.323 69.13 150.156 69.3702 150.144C69.5784 150.131 69.6892 150.213 69.6847 150.501L69.634 152.708L69.5954 155.172C70.2671 154.174 71.2988 153.694 72.2747 153.71C73.8745 153.735 74.6923 154.644 75.0697 157.114ZM80.684 161.071C78.5527 161.422 76.7399 160.261 76.3706 158.019C75.9778 155.636 77.3943 153.505 79.8413 153.102C81.941 152.756 83.7402 154.13 84.0914 156.261C84.4764 158.597 83.0994 160.673 80.684 161.071ZM81.0486 160.232C82.3905 160.011 83.0503 158.8 82.8006 157.284C82.4754 155.311 81.0001 153.738 79.4214 153.998C78.0163 154.229 77.4352 155.525 77.6823 157.025C78.0231 159.093 79.4383 160.498 81.0486 160.232ZM87.7434 151.062C88.5625 150.787 89.0997 151.18 89.278 151.711C89.4104 152.105 89.2747 152.556 88.931 152.688C88.299 152.917 88.1053 152.24 87.4076 152.474C86.7402 152.698 86.4189 153.852 86.8671 155.187L87.5343 157.174C88.0232 158.63 88.6292 158.123 88.8075 158.654C88.8839 158.881 88.6919 159.013 88.3127 159.141L86.6898 159.686C86.3409 159.803 86.0627 159.829 85.9812 159.586C85.808 159.07 86.6429 159.094 86.154 157.638L85.1303 154.589C84.9571 154.073 84.7691 153.714 84.2781 153.609C84.0756 153.559 83.9389 153.504 83.888 153.352C83.8319 153.185 83.8772 153.069 84.1852 152.78C84.6194 152.364 85.0791 152.024 85.2864 151.937C85.4836 151.871 85.6152 151.911 85.7018 152.169L86.0991 153.403C86.2689 152.35 86.8485 151.362 87.7434 151.062ZM101.475 151.338C101.625 151.246 101.755 151.184 101.848 151.333C102.059 151.673 101.798 152.437 101.185 152.816C100.546 153.212 100.125 152.927 99.5983 152.35C99.4648 153.411 98.762 154.373 97.9729 154.861C96.3132 155.889 94.7882 155.553 94.0724 154.397C93.2639 153.091 93.878 151.469 95.5377 150.441C96.1091 150.088 96.5237 149.906 97.1164 149.709C96.1706 148.789 95.5137 148.123 94.3301 148.855C93.5547 149.336 93.2029 149.892 92.8337 150.572C92.6763 150.896 92.3323 150.826 92.3407 150.445C92.3724 149.766 92.9814 148.561 94.2193 147.795C95.7158 146.869 96.8819 147.445 97.873 148.469L100.326 151.033C100.906 151.635 101.217 151.498 101.475 151.338ZM97.8647 153.987C98.8034 153.406 99.3365 152.079 98.8571 151.548C98.609 151.269 98.2812 150.982 97.7882 150.459C97.5317 150.167 96.558 150.6 96.1363 150.861C94.9391 151.602 94.6534 152.569 95.2313 153.472C95.8196 154.331 96.8444 154.619 97.8647 153.987ZM109.18 139.017L111.505 140.682C112.325 141.267 112.726 140.717 113.062 141.06C113.23 141.231 113.104 141.445 112.829 141.713L111.606 142.911C111.343 143.169 111.116 143.302 110.937 143.12C110.612 142.788 111.285 142.286 110.431 141.666L108.241 140.094C107.196 139.347 106.186 138.59 105.169 139.609C104.471 140.315 104.299 141.694 105.552 143.064L106.974 144.493C108.049 145.59 108.384 144.858 108.776 145.258C108.944 145.43 108.818 145.643 108.543 145.912L107.32 147.11C107.046 147.379 106.818 147.512 106.639 147.33C106.259 146.941 107.009 146.609 105.934 145.512L104.377 143.923C103.37 142.895 102.301 142.329 101.329 143.326C100.54 144.121 100.423 145.58 101.789 146.974L103.088 148.3C104.163 149.397 104.487 148.676 104.879 149.076C105.047 149.248 104.932 149.45 104.646 149.73L103.423 150.928C103.16 151.186 102.921 151.331 102.742 151.148C102.361 150.759 103.123 150.416 102.048 149.319L99.7972 147.022C99.4165 146.633 99.0909 146.392 98.6031 146.512C98.399 146.555 98.2518 146.564 98.1399 146.45C98.0167 146.324 98.0067 146.2 98.1578 145.805C98.3673 145.242 98.6327 144.735 98.7815 144.567C98.9301 144.422 99.0661 144.4 99.2564 144.595L100.197 145.577C99.8254 144.284 100.177 143.133 100.988 142.338C101.914 141.431 102.979 141.239 104.093 141.85C103.688 140.545 104.028 139.36 104.851 138.554C105.994 137.434 107.147 137.559 109.18 139.017ZM107.152 134.394C106.869 134.722 106.421 134.788 106.081 134.495C105.638 134.125 105.528 133.147 105.973 132.681C106.257 132.353 106.759 132.348 107.071 132.599C107.492 132.972 107.563 133.922 107.152 134.394ZM112.627 138.642L110.084 136.752C108.967 135.922 108.718 136.713 108.32 136.417C108.191 136.322 108.165 136.223 108.253 135.81C108.413 135.031 108.596 134.49 108.717 134.3C108.828 134.124 108.959 134.082 109.19 134.254L110.953 135.583L113.496 137.473C114.729 138.389 114.946 137.614 115.395 137.948C115.588 138.091 115.496 138.322 115.267 138.63L114.246 140.004C114.017 140.312 113.813 140.479 113.608 140.327C113.171 140.002 113.86 139.558 112.627 138.642ZM118.433 131.573C119.248 130.233 120.347 129.965 121.194 130.48C122.535 131.294 122.661 133.243 121.14 135.745C120.21 137.277 118.773 138.501 117.556 137.761C117.133 137.504 116.774 136.893 116.882 136.098C116.398 136.402 115.766 136.58 115.178 136.222C114.795 135.99 114.455 135.409 114.644 134.419C113.874 134.794 113.073 134.756 112.376 134.333C110.899 133.435 110.65 131.412 111.699 129.653L111.774 129.53C112.045 129.114 112.178 128.989 112.344 128.715C112.535 128.401 112.502 127.838 112.21 127.211C112.129 126.975 112.075 126.755 112.191 126.563C112.341 126.317 112.682 126.187 112.983 126.37C113.516 126.694 113.602 127.477 113.387 128.17C114.105 127.913 114.845 127.989 115.46 128.362C116.91 129.243 117.281 131.097 116.181 132.938C115.874 133.444 115.526 133.832 115.151 134.109C115.166 134.362 115.25 134.656 115.496 134.806C116.138 135.196 116.801 134.475 117.275 133.696C117.74 132.93 118.143 132.052 118.433 131.573ZM112.063 130.286C111.523 131.175 111.764 132.257 112.749 132.856C113.837 133.498 115.139 133.39 115.762 132.365C116.335 131.421 115.959 130.407 115.029 129.842C113.996 129.232 112.712 129.22 112.063 130.286ZM120.765 135.068C121.58 133.728 121.74 132.478 120.893 131.963C120.469 131.705 119.808 131.622 119.212 132.757C118.915 133.307 118.557 133.988 118.025 134.864C117.693 135.411 117.637 136.181 118.225 136.539C119.004 137.012 119.968 136.381 120.765 135.068ZM123.262 122.05C123.336 121.89 123.411 121.766 123.571 121.84C123.934 122.009 124.135 122.79 123.832 123.443C123.515 124.125 123.007 124.119 122.249 123.926C122.721 124.886 122.662 126.076 122.271 126.917C121.449 128.687 119.99 129.245 118.757 128.672C117.364 128.025 116.986 126.332 117.808 124.562C118.091 123.952 118.338 123.573 118.725 123.082C117.429 122.833 116.514 122.638 115.928 123.9C115.544 124.727 115.555 125.385 115.62 126.157C115.667 126.513 115.341 126.644 115.138 126.321C114.792 125.737 114.639 124.395 115.253 123.075C115.994 121.479 117.285 121.32 118.676 121.63L122.135 122.426C122.949 122.61 123.134 122.325 123.262 122.05ZM121.701 126.246C122.166 125.245 121.882 123.843 121.189 123.663C120.829 123.566 120.398 123.506 119.698 123.34C119.323 123.237 118.748 124.134 118.539 124.584C117.946 125.861 118.238 126.826 119.217 127.263C120.181 127.657 121.195 127.335 121.701 126.246Z" fill="#1A1A1A"/>
<rect x="251.781" width="111" height="25" rx="12.5" fill="#FFFFF3"/>
<path d="M269.377 17C269.027 17 268.803 16.762 268.803 16.398V8.558C268.803 8.194 269.027 7.942 269.377 7.942H274.585C274.907 7.942 275.075 8.096 275.075 8.376V8.446C275.075 8.74 274.907 8.88 274.585 8.88H269.853V11.904H273.479C273.815 11.904 273.983 12.058 273.983 12.324V12.38C273.983 12.674 273.815 12.814 273.479 12.814H269.853V16.062H274.697C275.019 16.062 275.187 16.202 275.187 16.482V16.552C275.187 16.846 275.019 17 274.697 17H269.377ZM276.664 16.566V8.502C276.664 8.138 276.916 7.9 277.294 7.9H277.574C278.022 7.9 278.134 8.068 278.316 8.488L280.766 13.612L283.216 8.488C283.384 8.054 283.524 7.9 283.93 7.9H284.196C284.602 7.9 284.84 8.138 284.84 8.502V16.566C284.84 16.874 284.714 17.042 284.406 17.042H284.28C283.986 17.042 283.846 16.874 283.846 16.566V14.102L283.86 9.174L281.466 14.186C281.34 14.494 281.2 14.69 280.752 14.69C280.276 14.69 280.164 14.494 280.024 14.186L277.644 9.188L277.658 14.074V16.566C277.658 16.874 277.532 17.042 277.224 17.042H277.07C276.776 17.042 276.664 16.874 276.664 16.566ZM296.411 12.408C296.803 12.408 297.027 12.66 297.013 13.066V16.944C297.013 16.972 296.873 17.042 296.677 17.042C296.369 17.042 296.131 16.902 296.117 16.216C296.117 15.95 296.103 15.684 296.103 15.404C295.613 16.468 294.493 17.154 292.995 17.154C290.447 17.154 288.837 15.18 288.837 12.492C288.837 9.748 290.629 7.788 293.289 7.788C294.535 7.788 295.445 8.222 295.977 8.684C296.397 9.034 296.607 9.426 296.607 9.664C296.607 10.21 296.019 10.28 295.963 10.238C295.501 9.328 294.493 8.698 293.275 8.698C291.287 8.698 289.929 10.238 289.929 12.492C289.929 14.704 291.147 16.272 293.191 16.272C294.773 16.272 295.935 15.292 296.089 13.892V13.29H293.695C293.331 13.29 293.149 13.164 293.149 12.884V12.814C293.149 12.534 293.331 12.408 293.695 12.408H296.411ZM298.728 13.43V8.376C298.728 8.054 298.896 7.9 299.176 7.9H299.33C299.624 7.9 299.792 8.054 299.792 8.376V13.416C299.792 15.25 300.604 16.202 302.242 16.202C303.894 16.202 304.678 15.278 304.678 13.402V8.376C304.678 8.04 304.832 7.9 305.126 7.9H305.308C305.602 7.9 305.728 8.04 305.728 8.376V13.402C305.728 15.852 304.51 17.154 302.214 17.154C299.932 17.154 298.728 15.88 298.728 13.43ZM307.645 16.566V8.502C307.645 8.138 307.897 7.9 308.275 7.9H308.555C309.003 7.9 309.115 8.068 309.297 8.488L311.747 13.612L314.197 8.488C314.365 8.054 314.505 7.9 314.911 7.9H315.177C315.583 7.9 315.821 8.138 315.821 8.502V16.566C315.821 16.874 315.695 17.042 315.387 17.042H315.261C314.967 17.042 314.827 16.874 314.827 16.566V14.102L314.841 9.174L312.447 14.186C312.321 14.494 312.181 14.69 311.733 14.69C311.257 14.69 311.145 14.494 311.005 14.186L308.625 9.188L308.639 14.074V16.566C308.639 16.874 308.513 17.042 308.205 17.042H308.051C307.757 17.042 307.645 16.874 307.645 16.566ZM317.885 16.566V8.502C317.885 8.138 318.137 7.9 318.515 7.9H318.795C319.243 7.9 319.355 8.068 319.537 8.488L321.987 13.612L324.437 8.488C324.605 8.054 324.745 7.9 325.151 7.9H325.417C325.823 7.9 326.061 8.138 326.061 8.502V16.566C326.061 16.874 325.935 17.042 325.627 17.042H325.501C325.207 17.042 325.067 16.874 325.067 16.566V14.102L325.081 9.174L322.687 14.186C322.561 14.494 322.421 14.69 321.973 14.69C321.497 14.69 321.385 14.494 321.245 14.186L318.865 9.188L318.879 14.074V16.566C318.879 16.874 318.753 17.042 318.445 17.042H318.291C317.997 17.042 317.885 16.874 317.885 16.566ZM328.265 16.566V8.376C328.265 8.054 328.405 7.9 328.699 7.9H328.853C329.147 7.9 329.315 8.054 329.315 8.376V16.566C329.315 16.874 329.147 17.042 328.853 17.042H328.699C328.405 17.042 328.265 16.874 328.265 16.566ZM332.062 17C331.712 17 331.488 16.762 331.488 16.398V8.558C331.488 8.194 331.712 7.942 332.062 7.942H337.27C337.592 7.942 337.76 8.096 337.76 8.376V8.446C337.76 8.74 337.592 8.88 337.27 8.88H332.538V11.904H336.164C336.5 11.904 336.668 12.058 336.668 12.324V12.38C336.668 12.674 336.5 12.814 336.164 12.814H332.538V16.062H337.382C337.704 16.062 337.872 16.202 337.872 16.482V16.552C337.872 16.846 337.704 17 337.382 17H332.062ZM339.266 16.202C338.972 15.908 338.832 15.586 338.832 15.348C338.832 14.97 339.294 14.718 339.336 14.76C339.756 15.53 340.638 16.272 342.052 16.272C343.382 16.272 344.208 15.656 344.208 14.62C344.208 13.458 343.088 13.178 341.814 12.87C340.428 12.52 339.056 12.058 339.056 10.308C339.056 8.824 340.344 7.788 342.108 7.788C343.284 7.788 344.138 8.166 344.614 8.6C344.894 8.866 345.048 9.16 345.048 9.398C345.048 9.804 344.558 10.042 344.53 10C344.138 9.3 343.312 8.67 342.108 8.67C340.918 8.67 340.078 9.3 340.078 10.28C340.078 11.386 341.03 11.61 342.332 11.932C343.802 12.282 345.244 12.828 345.244 14.564C345.244 16.146 343.998 17.154 342.066 17.154C340.736 17.154 339.784 16.72 339.266 16.202Z" fill="#FD86CD"/>
<mask id="path-11-outside-1_1_2220" maskUnits="userSpaceOnUse" x="-0.219238" y="31" width="360" height="46" fill="black">
<rect fill="white" x="-0.219238" y="31" width="360" height="46"/>
<path d="M22.7117 74.3096C18.9342 74.3096 17.0765 73.133 15.5902 69.6652L2.15232 37.8972C1.65691 36.7206 5.74402 33.6243 9.83113 33.6243C12.9894 33.6243 15.6522 35.8536 16.7049 39.4453L22.8356 58.7662L28.9662 39.3834C30.1428 35.3582 32.8676 33.6243 35.6542 33.6243C39.6175 33.6243 43.4569 36.7825 42.9615 37.8972L29.8951 69.6652C28.4708 73.0092 26.4273 74.3096 22.7117 74.3096ZM48.4652 68.5505V39.3834C48.4652 35.544 50.3229 33.6243 53.7289 33.6243H55.4628C59.0545 33.6243 60.9123 35.544 60.9123 39.3834V68.5505C60.9123 72.328 59.0545 74.3096 55.4628 74.3096H53.7289C50.3229 74.3096 48.4652 72.328 48.4652 68.5505ZM78.9134 68.5505V44.709H72.2873C68.5717 44.709 66.5901 42.8513 66.5901 39.3215V39.0738C66.5901 35.6679 68.5717 33.9339 72.2873 33.9339H97.8008C101.64 33.9339 103.56 35.6679 103.56 39.0738V39.3215C103.56 42.8513 101.64 44.709 97.8008 44.709H91.3605V68.5505C91.3605 72.328 89.3789 74.3096 85.8491 74.3096H84.0532C80.6473 74.3096 78.9134 72.328 78.9134 68.5505ZM108.022 74.5573C104.617 74.5573 101.211 71.8326 101.644 70.7179L114.525 37.0302C115.144 35.0486 116.816 33.6243 122.451 33.6243C128.086 33.6243 129.511 35.0486 130.13 37.0302L143.568 70.5941C144.001 71.7087 140.657 74.4954 136.942 74.4954C134.279 74.4954 131.554 73.0711 129.82 68.6744L128.706 65.7639H115.949L114.772 68.7982C113.286 73.0711 110.685 74.5573 108.022 74.5573ZM117.993 56.7846H126.476L122.265 45.2044L117.993 56.7846ZM148.55 68.5505V39.5692C148.55 35.6679 150.532 33.6243 154.123 33.6243H157.591C160.873 33.6243 161.988 34.4293 163.103 36.9683L169.605 52.9452L176.045 36.9683C177.284 34.2436 178.584 33.6243 181.371 33.6243H184.901C188.554 33.6243 190.598 35.6679 190.598 39.5692V68.5505C190.598 72.328 189.297 74.3096 185.706 74.3096H183.786C180.318 74.3096 178.894 72.328 178.894 68.5505V63.163L178.956 51.3351L174.807 63.163C174.187 64.7111 174.125 66.1973 169.543 66.1973C164.898 66.1973 165.022 64.773 164.341 63.163L160.254 51.8924V68.5505C160.254 72.328 158.954 74.3096 155.424 74.3096H153.38C149.974 74.3096 148.55 72.328 148.55 68.5505ZM198.435 68.5505V39.3834C198.435 35.544 200.293 33.6243 203.698 33.6243H205.432C209.024 33.6243 210.882 35.544 210.882 39.3834V68.5505C210.882 72.328 209.024 74.3096 205.432 74.3096H203.698C200.293 74.3096 198.435 72.328 198.435 68.5505ZM223.929 74.3096C220.523 74.3096 218.727 72.328 218.727 68.5505V39.3834C218.727 35.544 220.647 33.6243 223.805 33.6243H224.982C227.954 33.6243 228.883 34.4913 230.555 36.5348L244.798 55.1745V39.3834C244.798 35.6059 246.656 33.6243 250.185 33.6243H251.3C254.706 33.6243 256.502 35.6059 256.502 39.3834V68.5505C256.502 72.3899 254.582 74.3096 251.424 74.3096H250.433C247.461 74.3096 246.594 73.5665 244.984 71.5849L230.431 52.6975V68.5505C230.431 72.328 228.573 74.3096 225.044 74.3096H223.929ZM267.97 74.5573C264.564 74.5573 261.158 71.8326 261.592 70.7179L274.473 37.0302C275.092 35.0486 276.764 33.6243 282.399 33.6243C288.034 33.6243 289.459 35.0486 290.078 37.0302L303.516 70.5941C303.949 71.7087 300.605 74.4954 296.89 74.4954C294.227 74.4954 291.502 73.0711 289.768 68.6744L288.654 65.7639H275.897L274.72 68.7982C273.234 73.0711 270.633 74.5573 267.97 74.5573ZM277.94 56.7846H286.424L282.213 45.2044L277.94 56.7846ZM319.306 67.1881V40.8696C319.306 36.349 322.031 33.9339 325.746 33.9339H336.336C349.464 33.9339 357.514 41.5508 357.514 53.8121C357.514 66.1354 349.216 74 336.088 74H326.242C322.34 74 319.306 70.9656 319.306 67.1881ZM335.778 63.4726C341.475 63.4726 345.253 59.9428 345.253 53.8121C345.253 47.8053 341.599 44.4613 335.902 44.4613H331.629V63.4726H335.778Z"/>
</mask>
<path d="M22.7117 74.3096C18.9342 74.3096 17.0765 73.133 15.5902 69.6652L2.15232 37.8972C1.65691 36.7206 5.74402 33.6243 9.83113 33.6243C12.9894 33.6243 15.6522 35.8536 16.7049 39.4453L22.8356 58.7662L28.9662 39.3834C30.1428 35.3582 32.8676 33.6243 35.6542 33.6243C39.6175 33.6243 43.4569 36.7825 42.9615 37.8972L29.8951 69.6652C28.4708 73.0092 26.4273 74.3096 22.7117 74.3096ZM48.4652 68.5505V39.3834C48.4652 35.544 50.3229 33.6243 53.7289 33.6243H55.4628C59.0545 33.6243 60.9123 35.544 60.9123 39.3834V68.5505C60.9123 72.328 59.0545 74.3096 55.4628 74.3096H53.7289C50.3229 74.3096 48.4652 72.328 48.4652 68.5505ZM78.9134 68.5505V44.709H72.2873C68.5717 44.709 66.5901 42.8513 66.5901 39.3215V39.0738C66.5901 35.6679 68.5717 33.9339 72.2873 33.9339H97.8008C101.64 33.9339 103.56 35.6679 103.56 39.0738V39.3215C103.56 42.8513 101.64 44.709 97.8008 44.709H91.3605V68.5505C91.3605 72.328 89.3789 74.3096 85.8491 74.3096H84.0532C80.6473 74.3096 78.9134 72.328 78.9134 68.5505ZM108.022 74.5573C104.617 74.5573 101.211 71.8326 101.644 70.7179L114.525 37.0302C115.144 35.0486 116.816 33.6243 122.451 33.6243C128.086 33.6243 129.511 35.0486 130.13 37.0302L143.568 70.5941C144.001 71.7087 140.657 74.4954 136.942 74.4954C134.279 74.4954 131.554 73.0711 129.82 68.6744L128.706 65.7639H115.949L114.772 68.7982C113.286 73.0711 110.685 74.5573 108.022 74.5573ZM117.993 56.7846H126.476L122.265 45.2044L117.993 56.7846ZM148.55 68.5505V39.5692C148.55 35.6679 150.532 33.6243 154.123 33.6243H157.591C160.873 33.6243 161.988 34.4293 163.103 36.9683L169.605 52.9452L176.045 36.9683C177.284 34.2436 178.584 33.6243 181.371 33.6243H184.901C188.554 33.6243 190.598 35.6679 190.598 39.5692V68.5505C190.598 72.328 189.297 74.3096 185.706 74.3096H183.786C180.318 74.3096 178.894 72.328 178.894 68.5505V63.163L178.956 51.3351L174.807 63.163C174.187 64.7111 174.125 66.1973 169.543 66.1973C164.898 66.1973 165.022 64.773 164.341 63.163L160.254 51.8924V68.5505C160.254 72.328 158.954 74.3096 155.424 74.3096H153.38C149.974 74.3096 148.55 72.328 148.55 68.5505ZM198.435 68.5505V39.3834C198.435 35.544 200.293 33.6243 203.698 33.6243H205.432C209.024 33.6243 210.882 35.544 210.882 39.3834V68.5505C210.882 72.328 209.024 74.3096 205.432 74.3096H203.698C200.293 74.3096 198.435 72.328 198.435 68.5505ZM223.929 74.3096C220.523 74.3096 218.727 72.328 218.727 68.5505V39.3834C218.727 35.544 220.647 33.6243 223.805 33.6243H224.982C227.954 33.6243 228.883 34.4913 230.555 36.5348L244.798 55.1745V39.3834C244.798 35.6059 246.656 33.6243 250.185 33.6243H251.3C254.706 33.6243 256.502 35.6059 256.502 39.3834V68.5505C256.502 72.3899 254.582 74.3096 251.424 74.3096H250.433C247.461 74.3096 246.594 73.5665 244.984 71.5849L230.431 52.6975V68.5505C230.431 72.328 228.573 74.3096 225.044 74.3096H223.929ZM267.97 74.5573C264.564 74.5573 261.158 71.8326 261.592 70.7179L274.473 37.0302C275.092 35.0486 276.764 33.6243 282.399 33.6243C288.034 33.6243 289.459 35.0486 290.078 37.0302L303.516 70.5941C303.949 71.7087 300.605 74.4954 296.89 74.4954C294.227 74.4954 291.502 73.0711 289.768 68.6744L288.654 65.7639H275.897L274.72 68.7982C273.234 73.0711 270.633 74.5573 267.97 74.5573ZM277.94 56.7846H286.424L282.213 45.2044L277.94 56.7846ZM319.306 67.1881V40.8696C319.306 36.349 322.031 33.9339 325.746 33.9339H336.336C349.464 33.9339 357.514 41.5508 357.514 53.8121C357.514 66.1354 349.216 74 336.088 74H326.242C322.34 74 319.306 70.9656 319.306 67.1881ZM335.778 63.4726C341.475 63.4726 345.253 59.9428 345.253 53.8121C345.253 47.8053 341.599 44.4613 335.902 44.4613H331.629V63.4726H335.778Z" fill="#FD86CD"/>
<path d="M15.5902 69.6652L13.6459 70.4876L13.6498 70.4968L15.5902 69.6652ZM2.15232 37.8972L0.206639 38.7164L0.208001 38.7196L2.15232 37.8972ZM16.7049 39.4453L14.679 40.0391L14.6856 40.0616L14.6927 40.0838L16.7049 39.4453ZM22.8356 58.7662L20.8233 59.4047L22.8388 65.7565L24.8484 59.4029L22.8356 58.7662ZM28.9662 39.3834L30.9791 40.0201L30.9861 39.998L30.9926 39.9757L28.9662 39.3834ZM42.9615 37.8972L41.0323 37.0398L41.0203 37.0668L41.0091 37.0941L42.9615 37.8972ZM29.8951 69.6652L31.8374 70.4925L31.8426 70.4804L31.8475 70.4682L29.8951 69.6652ZM22.7117 74.3096V72.1985C21.017 72.1985 20.0771 71.9294 19.4401 71.5164C18.8095 71.1076 18.1901 70.3722 17.5307 68.8336L15.5902 69.6652L13.6498 70.4968C14.4766 72.426 15.5292 74.0129 17.1434 75.0593C18.7512 76.1016 20.629 76.4207 22.7117 76.4207V74.3096ZM15.5902 69.6652L17.5346 68.8427L4.09663 37.0747L2.15232 37.8972L0.208001 38.7196L13.6459 70.4876L15.5902 69.6652ZM2.15232 37.8972L4.09799 37.078C4.31434 37.5918 4.1914 38.0018 4.15448 38.1025C4.11603 38.2074 4.096 38.1984 4.19442 38.0796C4.38537 37.849 4.78315 37.4912 5.39386 37.1087C6.61896 36.3414 8.27841 35.7354 9.83113 35.7354V33.6243V31.5132C7.29674 31.5132 4.86908 32.4554 3.1527 33.5304C2.29267 34.069 1.50611 34.7059 0.942345 35.3868C0.663405 35.7236 0.37342 36.1496 0.190309 36.649C0.00873625 37.1443 -0.133553 37.9085 0.206642 38.7164L2.15232 37.8972ZM9.83113 33.6243V35.7354C11.8553 35.7354 13.8301 37.1427 14.679 40.0391L16.7049 39.4453L18.7308 38.8515C17.4743 34.5646 14.1234 31.5132 9.83113 31.5132V33.6243ZM16.7049 39.4453L14.6927 40.0838L20.8233 59.4047L22.8356 58.7662L24.8478 58.1277L18.7171 38.8068L16.7049 39.4453ZM22.8356 58.7662L24.8484 59.4029L30.9791 40.0201L28.9662 39.3834L26.9534 38.7468L20.8228 58.1296L22.8356 58.7662ZM28.9662 39.3834L30.9926 39.9757C31.9353 36.7504 33.9058 35.7354 35.6542 35.7354V33.6243V31.5132C31.8293 31.5132 28.3503 33.966 26.9399 38.7911L28.9662 39.3834ZM35.6542 33.6243V35.7354C37.1146 35.7354 38.6637 36.3359 39.8088 37.0993C40.3782 37.4789 40.7459 37.8319 40.9197 38.0554C41.0095 38.1709 40.9885 38.1763 40.9526 38.0702C40.9198 37.9732 40.8027 37.5565 41.0323 37.0398L42.9615 37.8972L44.8907 38.7546C45.2442 37.9592 45.1155 37.1999 44.9521 36.7169C44.7855 36.2248 44.5149 35.8006 44.2525 35.4632C43.7219 34.781 42.9749 34.1355 42.1509 33.5862C40.5094 32.4918 38.1572 31.5132 35.6542 31.5132V33.6243ZM42.9615 37.8972L41.0091 37.0941L27.9427 68.8621L29.8951 69.6652L31.8475 70.4682L44.9139 38.7002L42.9615 37.8972ZM29.8951 69.6652L27.9529 68.8379C27.3428 70.2703 26.7023 71.0267 26.0192 71.4667C25.3275 71.9124 24.3366 72.1985 22.7117 72.1985V74.3096V76.4207C24.8024 76.4207 26.691 76.0566 28.3061 75.0161C29.9298 73.9699 31.0232 72.4041 31.8374 70.4925L29.8951 69.6652ZM48.4652 68.5505H50.5763V39.3834H48.4652H46.3541V68.5505H48.4652ZM48.4652 39.3834H50.5763C50.5763 37.7731 50.967 36.9316 51.3677 36.4996C51.7428 36.0951 52.4186 35.7354 53.7289 35.7354V33.6243V31.5132C51.6332 31.5132 49.6772 32.1133 48.2719 33.6285C46.8922 35.1162 46.3541 37.1543 46.3541 39.3834H48.4652ZM53.7289 33.6243V35.7354H55.4628V33.6243V31.5132H53.7289V33.6243ZM55.4628 33.6243V35.7354C56.8964 35.7354 57.6178 36.1124 58.0051 36.5194C58.4105 36.9454 58.8012 37.7724 58.8012 39.3834H60.9123H63.0234C63.0234 37.155 62.4852 35.1025 61.0638 33.6087C59.6242 32.096 57.6209 31.5132 55.4628 31.5132V33.6243ZM60.9123 39.3834H58.8012V68.5505H60.9123H63.0234V39.3834H60.9123ZM60.9123 68.5505H58.8012C58.8012 70.1221 58.4144 70.9577 57.9993 71.3975C57.6042 71.8159 56.8784 72.1985 55.4628 72.1985V74.3096V76.4207C57.6389 76.4207 59.6378 75.8125 61.0696 74.2958C62.4813 72.8004 63.0234 70.7564 63.0234 68.5505H60.9123ZM55.4628 74.3096V72.1985H53.7289V74.3096V76.4207H55.4628V74.3096ZM53.7289 74.3096V72.1985C52.4371 72.1985 51.7568 71.834 51.3734 71.4173C50.9632 70.9713 50.5763 70.1216 50.5763 68.5505H48.4652H46.3541C46.3541 70.757 46.8961 72.7867 48.2662 74.276C49.6632 75.7945 51.6147 76.4207 53.7289 76.4207V74.3096ZM78.9134 44.709H81.0245V42.5979H78.9134V44.709ZM91.3605 44.709V42.5979H89.2494V44.709H91.3605ZM78.9134 68.5505H81.0245V44.709H78.9134H76.8023V68.5505H78.9134ZM78.9134 44.709V42.5979H72.2873V44.709V46.8201H78.9134V44.709ZM72.2873 44.709V42.5979C70.7552 42.5979 69.9307 42.2153 69.4942 41.8034C69.0785 41.4112 68.7012 40.6964 68.7012 39.3215H66.5901H64.479C64.479 41.4763 65.0926 43.4553 66.5966 44.8744C68.0797 46.2738 70.1039 46.8201 72.2873 46.8201V44.709ZM66.5901 39.3215H68.7012V39.0738H66.5901H64.479V39.3215H66.5901ZM66.5901 39.0738H68.7012C68.7012 37.784 69.0637 37.1485 69.4534 36.7996C69.8847 36.4135 70.7213 36.045 72.2873 36.045V33.9339V31.8228C70.1377 31.8228 68.1258 32.3213 66.6373 33.6537C65.1074 35.0232 64.479 36.9576 64.479 39.0738H66.5901ZM72.2873 33.9339V36.045H97.8008V33.9339V31.8228H72.2873V33.9339ZM97.8008 33.9339V36.045C99.4448 36.045 100.289 36.4209 100.712 36.7996C101.091 37.1391 101.449 37.7656 101.449 39.0738H103.56H105.671C105.671 36.976 105.069 35.0326 103.528 33.6537C102.032 32.3139 99.9962 31.8228 97.8008 31.8228V33.9339ZM103.56 39.0738H101.449V39.3215H103.56H105.671V39.0738H103.56ZM103.56 39.3215H101.449C101.449 40.7142 101.077 41.4204 100.671 41.8034C100.243 42.2072 99.4116 42.5979 97.8008 42.5979V44.709V46.8201C100.029 46.8201 102.077 46.282 103.569 44.8744C105.083 43.4461 105.671 41.4585 105.671 39.3215H103.56ZM97.8008 44.709V42.5979H91.3605V44.709V46.8201H97.8008V44.709ZM91.3605 44.709H89.2494V68.5505H91.3605H93.4716V44.709H91.3605ZM91.3605 68.5505H89.2494C89.2494 70.0882 88.8491 70.9263 88.4116 71.3783C87.9843 71.8197 87.2255 72.1985 85.8491 72.1985V74.3096V76.4207C88.0024 76.4207 89.9993 75.8087 91.4453 74.3149C92.881 72.8317 93.4716 70.7903 93.4716 68.5505H91.3605ZM85.8491 74.3096V72.1985H84.0532V74.3096V76.4207H85.8491V74.3096ZM84.0532 74.3096V72.1985C82.764 72.1985 82.1325 71.8366 81.7846 71.4449C81.3967 71.008 81.0245 70.1553 81.0245 68.5505H78.9134H76.8023C76.8023 70.7233 77.2971 72.7501 78.6275 74.2484C79.9981 75.7918 81.9366 76.4207 84.0532 76.4207V74.3096ZM101.644 70.7179L103.612 71.4831L103.616 71.4719L101.644 70.7179ZM114.525 37.0302L116.497 37.7842L116.52 37.7227L116.54 37.6599L114.525 37.0302ZM130.13 37.0302L128.115 37.6599L128.14 37.7385L128.17 37.8149L130.13 37.0302ZM143.568 70.5941L145.535 69.8289L145.532 69.8191L145.528 69.8094L143.568 70.5941ZM129.82 68.6744L127.849 69.4294L127.853 69.4392L127.856 69.4489L129.82 68.6744ZM128.706 65.7639L130.677 65.0088L130.158 63.6527H128.706V65.7639ZM115.949 65.7639V63.6527H114.503L113.981 65.0006L115.949 65.7639ZM114.772 68.7982L112.804 68.035L112.791 68.0696L112.778 68.1047L114.772 68.7982ZM117.993 56.7846L116.012 56.0538L114.963 58.8957H117.993V56.7846ZM126.476 56.7846V58.8957H129.49L128.46 56.0631L126.476 56.7846ZM122.265 45.2044L124.249 44.483L122.28 39.0668L120.285 44.4736L122.265 45.2044ZM108.022 74.5573V72.4462C106.839 72.4462 105.539 71.9531 104.57 71.3025C104.089 70.9798 103.793 70.6869 103.663 70.5151C103.597 70.4278 103.627 70.4411 103.664 70.5563C103.701 70.6715 103.787 71.0318 103.612 71.4831L101.644 70.7179L99.6765 69.9528C99.3926 70.6827 99.4907 71.372 99.6443 71.8496C99.798 72.3271 100.049 72.7362 100.295 73.0611C100.788 73.7136 101.475 74.311 102.217 74.8088C103.694 75.7992 105.8 76.6684 108.022 76.6684V74.5573ZM101.644 70.7179L103.616 71.4719L116.497 37.7842L114.525 37.0302L112.553 36.2763L99.6722 69.964L101.644 70.7179ZM114.525 37.0302L116.54 37.6599C116.703 37.1372 116.935 36.7822 117.556 36.4699C118.32 36.0855 119.756 35.7354 122.451 35.7354V33.6243V31.5132C119.511 31.5132 117.294 31.8752 115.658 32.6984C113.879 33.5936 112.966 34.9416 112.51 36.4005L114.525 37.0302ZM122.451 33.6243V35.7354C125.155 35.7354 126.503 36.0885 127.182 36.449C127.702 36.725 127.923 37.0452 128.115 37.6599L130.13 37.0302L132.145 36.4005C131.718 35.0336 130.917 33.6509 129.161 32.7193C127.565 31.8722 125.383 31.5132 122.451 31.5132V33.6243ZM130.13 37.0302L128.17 37.8149L141.608 71.3787L143.568 70.5941L145.528 69.8094L132.09 36.2456L130.13 37.0302ZM143.568 70.5941L141.6 71.3592C141.428 70.9154 141.51 70.5625 141.545 70.4514C141.58 70.339 141.608 70.3274 141.543 70.4148C141.415 70.5871 141.121 70.8833 140.635 71.2095C139.663 71.8616 138.3 72.3843 136.942 72.3843V74.4954V76.6065C139.299 76.6065 141.466 75.7359 142.987 74.7159C143.747 74.2062 144.439 73.5967 144.932 72.933C145.178 72.6024 145.425 72.1902 145.575 71.712C145.724 71.2353 145.816 70.5514 145.535 69.8289L143.568 70.5941ZM136.942 74.4954V72.3843C136.004 72.3843 135.109 72.1404 134.284 71.5333C133.445 70.9161 132.542 69.8219 131.784 67.8999L129.82 68.6744L127.856 69.4489C128.832 71.9236 130.159 73.7399 131.782 74.934C133.418 76.1382 135.217 76.6065 136.942 76.6065V74.4954ZM129.82 68.6744L131.792 67.9193L130.677 65.0088L128.706 65.7639L126.734 66.5189L127.849 69.4294L129.82 68.6744ZM128.706 65.7639V63.6527H115.949V65.7639V67.875H128.706V65.7639ZM115.949 65.7639L113.981 65.0006L112.804 68.035L114.772 68.7982L116.741 69.5614L117.917 66.5271L115.949 65.7639ZM114.772 68.7982L112.778 68.1047C112.135 69.9555 111.316 71.0141 110.546 71.6113C109.79 72.197 108.943 72.4462 108.022 72.4462V74.5573V76.6684C109.765 76.6684 111.55 76.1745 113.132 74.9489C114.699 73.7348 115.924 71.9138 116.766 69.4918L114.772 68.7982ZM117.993 56.7846V58.8957H126.476V56.7846V54.6735H117.993V56.7846ZM126.476 56.7846L128.46 56.0631L124.249 44.483L122.265 45.2044L120.281 45.9259L124.492 57.506L126.476 56.7846ZM122.265 45.2044L120.285 44.4736L116.012 56.0538L117.993 56.7846L119.973 57.5154L124.246 45.9352L122.265 45.2044ZM163.103 36.9683L165.058 36.1725L165.047 36.1459L165.036 36.1196L163.103 36.9683ZM169.605 52.9452L167.649 53.741L169.614 58.5686L171.563 53.7345L169.605 52.9452ZM176.045 36.9683L174.123 36.0947L174.104 36.1365L174.087 36.179L176.045 36.9683ZM178.894 63.163L176.783 63.1519V63.163H178.894ZM178.956 51.3351L181.067 51.3462L176.964 50.6363L178.956 51.3351ZM174.807 63.163L176.767 63.947L176.784 63.9047L176.799 63.8618L174.807 63.163ZM164.341 63.163L162.357 63.8827L162.375 63.9346L162.397 63.9855L164.341 63.163ZM160.254 51.8924L162.239 51.1727L158.143 51.8924H160.254ZM148.55 68.5505H150.661V39.5692H148.55H146.439V68.5505H148.55ZM148.55 39.5692H150.661C150.661 37.9526 151.071 37.0635 151.524 36.5843C151.959 36.1243 152.725 35.7354 154.123 35.7354V33.6243V31.5132C151.931 31.5132 149.91 32.1461 148.456 33.6832C147.02 35.2011 146.439 37.2845 146.439 39.5692H148.55ZM154.123 33.6243V35.7354H157.591V33.6243V31.5132H154.123V33.6243ZM157.591 33.6243V35.7354C159.121 35.7354 159.726 35.9374 160.039 36.1335C160.323 36.3108 160.666 36.6687 161.17 37.8169L163.103 36.9683L165.036 36.1196C164.425 34.7289 163.653 33.4148 162.28 32.5549C160.937 31.7137 159.344 31.5132 157.591 31.5132V33.6243ZM163.103 36.9683L161.147 37.7641L167.649 53.741L169.605 52.9452L171.56 52.1494L165.058 36.1725L163.103 36.9683ZM169.605 52.9452L171.563 53.7345L178.003 37.7576L176.045 36.9683L174.087 36.179L167.647 52.1559L169.605 52.9452ZM176.045 36.9683L177.967 37.8419C178.508 36.6509 178.914 36.2637 179.211 36.0863C179.535 35.8923 180.081 35.7354 181.371 35.7354V33.6243V31.5132C179.874 31.5132 178.376 31.6659 177.044 32.4628C175.684 33.2761 174.82 34.561 174.123 36.0947L176.045 36.9683ZM181.371 33.6243V35.7354H184.901V33.6243V31.5132H181.371V33.6243ZM184.901 33.6243V35.7354C186.341 35.7354 187.146 36.1308 187.603 36.6028C188.071 37.0851 188.487 37.9688 188.487 39.5692H190.598H192.709C192.709 37.2682 192.103 35.1795 190.635 33.6646C189.158 32.1395 187.114 31.5132 184.901 31.5132V33.6243ZM190.598 39.5692H188.487V68.5505H190.598H192.709V39.5692H190.598ZM190.598 68.5505H188.487C188.487 70.2773 188.173 71.1238 187.85 71.5278C187.613 71.8245 187.115 72.1985 185.706 72.1985V74.3096V76.4207C187.888 76.4207 189.836 75.8039 191.147 74.1654C192.372 72.6342 192.709 70.6012 192.709 68.5505H190.598ZM185.706 74.3096V72.1985H183.786V74.3096V76.4207H185.706V74.3096ZM183.786 74.3096V72.1985C182.46 72.1985 181.94 71.8363 181.675 71.5119C181.336 71.0963 181.005 70.2411 181.005 68.5505H178.894H176.783C176.783 70.6374 177.164 72.6618 178.404 74.1813C179.718 75.7921 181.644 76.4207 183.786 76.4207V74.3096ZM178.894 68.5505H181.005V63.163H178.894H176.783V68.5505H178.894ZM178.894 63.163L181.005 63.174L181.067 51.3462L178.956 51.3351L176.845 51.3241L176.783 63.1519L178.894 63.163ZM178.956 51.3351L176.964 50.6363L172.815 62.4642L174.807 63.163L176.799 63.8618L180.948 52.0339L178.956 51.3351ZM174.807 63.163L172.847 62.3789C172.756 62.6062 172.669 62.8468 172.611 63.0048C172.544 63.184 172.496 63.3058 172.45 63.4068C172.367 63.5877 172.32 63.63 172.295 63.6512C172.222 63.7127 171.708 64.0862 169.543 64.0862V66.1973V68.3084C171.96 68.3084 173.768 67.9388 175.027 66.8702C176.213 65.8633 176.615 64.3272 176.767 63.947L174.807 63.163ZM169.543 66.1973V64.0862C167.31 64.0862 166.868 63.7148 166.849 63.6976C166.844 63.6933 166.836 63.6862 166.82 63.6626C166.802 63.6343 166.77 63.5798 166.724 63.4734C166.674 63.3595 166.626 63.2296 166.552 63.028C166.484 62.8437 166.394 62.5967 166.285 62.3404L164.341 63.163L162.397 63.9855C162.459 64.1317 162.514 64.2815 162.588 64.4832C162.656 64.6677 162.746 64.9132 162.853 65.1592C163.077 65.6755 163.426 66.311 164.063 66.8703C165.313 67.9677 167.132 68.3084 169.543 68.3084V66.1973ZM164.341 63.163L166.326 62.4433L162.239 51.1727L160.254 51.8924L158.269 52.6121L162.357 63.8827L164.341 63.163ZM160.254 51.8924H158.143V68.5505H160.254H162.365V51.8924H160.254ZM160.254 68.5505H158.143C158.143 70.2765 157.83 71.129 157.508 71.5359C157.273 71.8316 156.791 72.1985 155.424 72.1985V74.3096V76.4207C157.587 76.4207 159.519 75.7968 160.818 74.1573C162.028 72.6291 162.365 70.602 162.365 68.5505H160.254ZM155.424 74.3096V72.1985H153.38V74.3096V76.4207H155.424V74.3096ZM153.38 74.3096V72.1985C152.097 72.1985 151.592 71.8438 151.33 71.5198C150.992 71.1013 150.661 70.2403 150.661 68.5505H148.55H146.439C146.439 70.6382 146.82 72.6568 148.046 74.1734C149.348 75.7847 151.257 76.4207 153.38 76.4207V74.3096ZM198.435 68.5505H200.546V39.3834H198.435H196.324V68.5505H198.435ZM198.435 39.3834H200.546C200.546 37.7731 200.937 36.9316 201.337 36.4996C201.712 36.0951 202.388 35.7354 203.698 35.7354V33.6243V31.5132C201.603 31.5132 199.647 32.1133 198.242 33.6285C196.862 35.1162 196.324 37.1543 196.324 39.3834H198.435ZM203.698 33.6243V35.7354H205.432V33.6243V31.5132H203.698V33.6243ZM205.432 33.6243V35.7354C206.866 35.7354 207.587 36.1124 207.975 36.5194C208.38 36.9454 208.771 37.7724 208.771 39.3834H210.882H212.993C212.993 37.155 212.455 35.1025 211.033 33.6087C209.594 32.096 207.591 31.5132 205.432 31.5132V33.6243ZM210.882 39.3834H208.771V68.5505H210.882H212.993V39.3834H210.882ZM210.882 68.5505H208.771C208.771 70.1221 208.384 70.9577 207.969 71.3975C207.574 71.8159 206.848 72.1985 205.432 72.1985V74.3096V76.4207C207.608 76.4207 209.607 75.8125 211.039 74.2958C212.451 72.8004 212.993 70.7564 212.993 68.5505H210.882ZM205.432 74.3096V72.1985H203.698V74.3096V76.4207H205.432V74.3096ZM203.698 74.3096V72.1985C202.407 72.1985 201.726 71.834 201.343 71.4173C200.933 70.9713 200.546 70.1216 200.546 68.5505H198.435H196.324C196.324 70.757 196.866 72.7867 198.236 74.276C199.633 75.7945 201.584 76.4207 203.698 76.4207V74.3096ZM230.555 36.5348L232.232 35.253L232.211 35.2251L232.189 35.198L230.555 36.5348ZM244.798 55.1745L243.12 56.4563L246.909 61.4144V55.1745H244.798ZM244.984 71.5849L243.311 72.8734L243.328 72.895L243.345 72.9161L244.984 71.5849ZM230.431 52.6975L232.103 51.409L228.32 46.4986V52.6975H230.431ZM223.929 74.3096V72.1985C222.638 72.1985 221.982 71.8353 221.617 71.4309C221.218 70.9896 220.838 70.1384 220.838 68.5505H218.727H216.616C216.616 70.7401 217.134 72.7685 218.485 74.2623C219.869 75.7932 221.813 76.4207 223.929 76.4207V74.3096ZM218.727 68.5505H220.838V39.3834H218.727H216.616V68.5505H218.727ZM218.727 39.3834H220.838C220.838 37.7908 221.236 36.9315 221.642 36.486C222.021 36.07 222.661 35.7354 223.805 35.7354V33.6243V31.5132C221.79 31.5132 219.892 32.1384 218.521 33.6421C217.178 35.1163 216.616 37.1366 216.616 39.3834H218.727ZM223.805 33.6243V35.7354H224.982V33.6243V31.5132H223.805V33.6243ZM224.982 33.6243V35.7354C226.266 35.7354 226.826 35.9237 227.195 36.1386C227.636 36.3944 228.069 36.8307 228.921 37.8717L230.555 36.5348L232.189 35.198C231.369 34.1954 230.502 33.1764 229.316 32.4878C228.061 31.7583 226.67 31.5132 224.982 31.5132V33.6243ZM230.555 36.5348L228.878 37.8166L243.12 56.4563L244.798 55.1745L246.475 53.8927L232.232 35.253L230.555 36.5348ZM244.798 55.1745H246.909V39.3834H244.798H242.687V55.1745H244.798ZM244.798 39.3834H246.909C246.909 37.812 247.296 36.9717 247.709 36.5299C248.1 36.1122 248.811 35.7354 250.185 35.7354V33.6243V31.5132C248.03 31.5132 246.047 32.1272 244.627 33.6446C243.229 35.1381 242.687 37.1774 242.687 39.3834H244.798ZM250.185 33.6243V35.7354H251.3V33.6243V31.5132H250.185V33.6243ZM251.3 33.6243V35.7354C252.591 35.7354 253.247 36.0986 253.612 36.503C254.011 36.9443 254.391 37.7955 254.391 39.3834H256.502H258.613C258.613 37.1938 258.095 35.1654 256.744 33.6716C255.36 32.1408 253.416 31.5132 251.3 31.5132V33.6243ZM256.502 39.3834H254.391V68.5505H256.502H258.613V39.3834H256.502ZM256.502 68.5505H254.391C254.391 70.1431 253.993 71.0024 253.587 71.4479C253.208 71.8639 252.568 72.1985 251.424 72.1985V74.3096V76.4207C253.439 76.4207 255.337 75.7955 256.708 74.2918C258.051 72.8176 258.613 70.7973 258.613 68.5505H256.502ZM251.424 74.3096V72.1985H250.433V74.3096V76.4207H251.424V74.3096ZM250.433 74.3096V72.1985C249.102 72.1985 248.554 72.0267 248.214 71.8398C247.826 71.6268 247.434 71.2529 246.622 70.2536L244.984 71.5849L243.345 72.9161C244.143 73.8986 244.99 74.8869 246.182 75.5409C247.42 76.221 248.792 76.4207 250.433 76.4207V74.3096ZM244.984 71.5849L246.656 70.2964L232.103 51.409L230.431 52.6975L228.759 53.986L243.311 72.8734L244.984 71.5849ZM230.431 52.6975H228.32V68.5505H230.431H232.542V52.6975H230.431ZM230.431 68.5505H228.32C228.32 70.122 227.933 70.9622 227.52 71.404C227.129 71.8217 226.418 72.1985 225.044 72.1985V74.3096V76.4207C227.199 76.4207 229.182 75.8068 230.602 74.2893C232 72.7958 232.542 70.7566 232.542 68.5505H230.431ZM225.044 74.3096V72.1985H223.929V74.3096V76.4207H225.044V74.3096ZM261.592 70.7179L263.56 71.4831L263.564 71.4719L261.592 70.7179ZM274.473 37.0302L276.444 37.7842L276.468 37.7227L276.488 37.6599L274.473 37.0302ZM290.078 37.0302L288.063 37.6599L288.087 37.7385L288.118 37.8149L290.078 37.0302ZM303.516 70.5941L305.483 69.8289L305.48 69.8191L305.476 69.8094L303.516 70.5941ZM289.768 68.6744L287.797 69.4294L287.801 69.4392L287.804 69.4489L289.768 68.6744ZM288.654 65.7639L290.625 65.0088L290.106 63.6527H288.654V65.7639ZM275.897 65.7639V63.6527H274.451L273.929 65.0006L275.897 65.7639ZM274.72 68.7982L272.752 68.035L272.739 68.0696L272.726 68.1047L274.72 68.7982ZM277.94 56.7846L275.96 56.0538L274.911 58.8957H277.94V56.7846ZM286.424 56.7846V58.8957H289.438L288.408 56.0631L286.424 56.7846ZM282.213 45.2044L284.197 44.483L282.228 39.0668L280.233 44.4736L282.213 45.2044ZM267.97 74.5573V72.4462C266.787 72.4462 265.487 71.9531 264.518 71.3025C264.036 70.9798 263.741 70.6869 263.611 70.5151C263.545 70.4278 263.574 70.4411 263.612 70.5563C263.649 70.6715 263.735 71.0318 263.56 71.4831L261.592 70.7179L259.624 69.9528C259.341 70.6827 259.439 71.372 259.592 71.8496C259.746 72.3271 259.997 72.7362 260.243 73.0611C260.736 73.7136 261.423 74.311 262.165 74.8088C263.642 75.7992 265.747 76.6684 267.97 76.6684V74.5573ZM261.592 70.7179L263.564 71.4719L276.444 37.7842L274.473 37.0302L272.501 36.2763L259.62 69.964L261.592 70.7179ZM274.473 37.0302L276.488 37.6599C276.651 37.1372 276.883 36.7822 277.504 36.4699C278.268 36.0855 279.704 35.7354 282.399 35.7354V33.6243V31.5132C279.459 31.5132 277.242 31.8752 275.606 32.6984C273.827 33.5936 272.913 34.9416 272.458 36.4005L274.473 37.0302ZM282.399 33.6243V35.7354C285.103 35.7354 286.451 36.0885 287.13 36.449C287.65 36.725 287.871 37.0452 288.063 37.6599L290.078 37.0302L292.093 36.4005C291.666 35.0336 290.865 33.6509 289.109 32.7193C287.513 31.8722 285.331 31.5132 282.399 31.5132V33.6243ZM290.078 37.0302L288.118 37.8149L301.556 71.3787L303.516 70.5941L305.476 69.8094L292.038 36.2456L290.078 37.0302ZM303.516 70.5941L301.548 71.3592C301.376 70.9154 301.458 70.5625 301.493 70.4514C301.528 70.339 301.556 70.3274 301.491 70.4148C301.363 70.5871 301.069 70.8833 300.583 71.2095C299.611 71.8616 298.248 72.3843 296.89 72.3843V74.4954V76.6065C299.247 76.6065 301.414 75.7359 302.935 74.7159C303.695 74.2062 304.387 73.5967 304.88 72.933C305.126 72.6024 305.373 72.1902 305.523 71.712C305.672 71.2353 305.764 70.5514 305.483 69.8289L303.516 70.5941ZM296.89 74.4954V72.3843C295.952 72.3843 295.057 72.1404 294.232 71.5333C293.393 70.9161 292.49 69.8219 291.732 67.8999L289.768 68.6744L287.804 69.4489C288.78 71.9236 290.107 73.7399 291.729 74.934C293.366 76.1382 295.165 76.6065 296.89 76.6065V74.4954ZM289.768 68.6744L291.74 67.9193L290.625 65.0088L288.654 65.7639L286.682 66.5189L287.797 69.4294L289.768 68.6744ZM288.654 65.7639V63.6527H275.897V65.7639V67.875H288.654V65.7639ZM275.897 65.7639L273.929 65.0006L272.752 68.035L274.72 68.7982L276.689 69.5614L277.865 66.5271L275.897 65.7639ZM274.72 68.7982L272.726 68.1047C272.083 69.9555 271.264 71.0141 270.493 71.6113C269.738 72.197 268.891 72.4462 267.97 72.4462V74.5573V76.6684C269.713 76.6684 271.498 76.1745 273.08 74.9489C274.646 73.7348 275.872 71.9138 276.714 69.4918L274.72 68.7982ZM277.94 56.7846V58.8957H286.424V56.7846V54.6735H277.94V56.7846ZM286.424 56.7846L288.408 56.0631L284.197 44.483L282.213 45.2044L280.229 45.9259L284.44 57.506L286.424 56.7846ZM282.213 45.2044L280.233 44.4736L275.96 56.0538L277.94 56.7846L279.921 57.5154L284.194 45.9352L282.213 45.2044ZM331.629 44.4613V42.3502H329.518V44.4613H331.629ZM331.629 63.4726H329.518V65.5837H331.629V63.4726ZM319.306 67.1881H321.417V40.8696H319.306H317.195V67.1881H319.306ZM319.306 40.8696H321.417C321.417 39.038 321.96 37.8781 322.64 37.1843C323.321 36.4896 324.351 36.045 325.746 36.045V33.9339V31.8228C323.426 31.8228 321.235 32.5858 319.625 34.2288C318.014 35.8727 317.195 38.1807 317.195 40.8696H319.306ZM325.746 33.9339V36.045H336.336V33.9339V31.8228H325.746V33.9339ZM336.336 33.9339V36.045C342.497 36.045 347.228 37.8273 350.402 40.8127C353.56 43.7841 355.403 48.1589 355.403 53.8121H357.514H359.625C359.625 47.2041 357.443 41.6398 353.294 37.7373C349.161 33.849 343.302 31.8228 336.336 31.8228V33.9339ZM357.514 53.8121H355.403C355.403 59.4826 353.507 63.942 350.275 66.992C347.031 70.0541 342.233 71.8889 336.088 71.8889V74V76.1111C343.071 76.1111 348.987 74.0136 353.173 70.0626C357.373 66.0994 359.625 60.4649 359.625 53.8121H357.514ZM336.088 74V71.8889H326.242V74V76.1111H336.088V74ZM326.242 74V71.8889C323.481 71.8889 321.417 69.7749 321.417 67.1881H319.306H317.195C317.195 72.1564 321.199 76.1111 326.242 76.1111V74ZM335.778 63.4726V65.5837C339.065 65.5837 342.011 64.5575 344.141 62.4376C346.275 60.3143 347.364 57.3173 347.364 53.8121H345.253H343.142C343.142 56.4377 342.342 58.2709 341.163 59.4451C339.98 60.6228 338.189 61.3615 335.778 61.3615V63.4726ZM345.253 53.8121H347.364C347.364 50.3749 346.308 47.4429 344.189 45.3735C342.077 43.3124 339.159 42.3502 335.902 42.3502V44.4613V46.5724C338.342 46.5724 340.1 47.2822 341.239 48.3948C342.371 49.4992 343.142 51.2426 343.142 53.8121H345.253ZM335.902 44.4613V42.3502H331.629V44.4613V46.5724H335.902V44.4613ZM331.629 44.4613H329.518V63.4726H331.629H333.74V44.4613H331.629ZM331.629 63.4726V65.5837H335.778V63.4726V61.3615H331.629V63.4726Z" fill="white" mask="url(#path-11-outside-1_1_2220)"/>
<path d="M6.84076 18.2C4.20076 18.2 2.54076 16.38 2.54076 14.06C2.54076 10.86 5.02076 8.2 8.10076 8.2C10.6808 8.2 11.8208 10.06 11.5808 11.5C11.4608 12.26 10.9408 12.74 10.3408 12.74C9.80076 12.72 9.42076 12.38 9.50076 11.68C9.60076 10.66 9.32076 9.14 7.60076 9.14C5.66076 9.14 4.44076 11.32 4.44076 13.42C4.44076 15.36 5.60076 16.76 7.52076 16.76C8.92076 16.76 9.96076 16.22 10.7808 15.46C11.2008 15.1 11.5408 15.34 11.3008 15.82C10.7608 16.82 9.06076 18.2 6.84076 18.2ZM17.19 18.2C14.67 18.2 12.97 16.5 12.97 14.14C12.97 10.98 15.61 8.2 18.75 8.2C21.37 8.2 22.85 10.04 22.85 12.16C22.85 15.5 20.35 18.2 17.19 18.2ZM17.49 17.28C19.61 17.28 20.79 14.68 20.79 12.36C20.79 10.66 20.23 9.1 18.49 9.1C16.19 9.1 14.95 11.72 14.93 13.86C14.95 15.74 15.67 17.28 17.49 17.28ZM34.8172 16.26C34.9372 16.26 35.0372 16.36 35.0172 16.54C34.9372 17.28 34.1372 18.14 33.0972 18.14C32.0172 18.14 31.7172 17.34 31.7972 16.18L32.0372 11.74C32.0972 10.46 31.7572 9.58 30.6572 9.58C29.0372 9.58 27.3572 12.1 26.8172 15.26L26.4372 17.44C26.3972 17.7 26.2772 17.82 26.0572 17.88L25.0372 18.14C24.7572 18.22 24.5772 18.06 24.6172 17.74L25.6172 10.82C25.7772 9.72 24.9372 9.92 24.9372 9.44C24.9372 9.16 25.1172 9.02 26.0572 8.6C26.6972 8.32 26.9972 8.28 27.2572 8.28C27.5372 8.28 27.6772 8.44 27.6372 8.72L27.2372 11.4C28.2772 9.46 29.7772 8.26 31.4772 8.26C33.1372 8.26 33.9772 9.42 33.8572 11.62L33.6172 16.08C33.5972 16.5 33.5972 16.82 33.9372 16.82C34.3172 16.82 34.5772 16.26 34.8172 16.26ZM46.9033 16.26C47.0233 16.26 47.1233 16.36 47.1033 16.54C47.0233 17.28 46.2233 18.14 45.1833 18.14C44.1033 18.14 43.8033 17.34 43.8833 16.18L44.1233 11.74C44.1833 10.46 43.8433 9.58 42.7433 9.58C41.1233 9.58 39.4033 12.1 38.9033 15.26L38.5233 17.6C38.4833 17.82 38.2633 17.96 38.0833 18L37.1833 18.2C36.8233 18.28 36.6233 18.02 36.6833 17.72L38.3833 6.22C38.5233 5.22 37.6433 5.36 37.6433 4.9C37.6433 4.68 37.8033 4.48 38.7633 4.12C39.5233 3.82 39.8433 3.78 40.1033 3.78C40.3833 3.78 40.5433 3.94 40.4833 4.24L39.3833 11.34C40.4233 9.44 41.9033 8.26 43.5633 8.26C45.2233 8.26 46.0633 9.42 45.9433 11.62L45.7033 16.08C45.6833 16.5 45.6833 16.82 46.0233 16.82C46.4033 16.82 46.6633 16.26 46.9033 16.26ZM56.4945 15.34C56.8745 15 57.2945 15.2 57.0145 15.7C56.4745 16.7 54.7745 18.2 52.5545 18.2C50.4945 18.2 48.6145 16.84 48.6145 14.1C48.6145 11.52 50.8345 8.2 54.4745 8.2C56.0545 8.2 57.3545 9 57.3545 10.48C57.3545 12.98 54.2945 14.3 50.6745 14.82C50.9745 15.98 51.9545 16.84 53.2545 16.84C54.6145 16.84 55.6745 16.1 56.4945 15.34ZM53.8345 9.14C52.0945 9.14 50.5345 11.02 50.5345 13.44C50.5345 13.7 50.6545 13.94 51.1545 13.86C53.7145 13.46 55.5545 12.38 55.5545 10.78C55.5545 9.82 54.8545 9.14 53.8345 9.14ZM66.5712 12.74C66.0312 12.72 65.6512 12.38 65.7312 11.68C65.8312 10.66 65.5512 9.14 63.8312 9.14C61.8912 9.14 60.6712 11.32 60.6712 13.42C60.6712 15.36 61.8312 16.76 63.7512 16.76C65.1512 16.76 66.1912 16.22 67.0112 15.46C67.4312 15.1 67.7712 15.34 67.5312 15.82C66.9912 16.82 65.3112 18.18 63.1112 18.2L62.6512 19.06C63.6712 19.24 64.5112 19.68 64.5112 20.64C64.5112 21.58 63.6712 22.22 62.6712 22.22C61.8112 22.22 61.3112 21.9 61.0512 21.58C60.8712 21.36 61.0912 21.08 61.3712 21.26C61.6512 21.42 61.9512 21.6 62.4512 21.6C63.0712 21.6 63.3712 21.2 63.3712 20.76C63.3712 20.1 62.6712 19.84 62.0112 19.68C61.8112 19.64 61.6712 19.52 61.7712 19.34L62.4112 18.16C60.1512 17.88 58.7712 16.18 58.7712 14.06C58.7712 10.86 61.2512 8.2 64.3312 8.2C66.9112 8.2 68.0512 10.06 67.8112 11.5C67.6912 12.26 67.1712 12.74 66.5712 12.74ZM79.6139 16.26C79.7339 16.26 79.8339 16.36 79.8139 16.54C79.7139 17.28 78.9139 18.14 77.8939 18.14C77.0539 18.14 76.3739 17.82 76.5539 15.78C75.7539 17.08 74.3739 18.2 72.6939 18.2C70.9339 18.2 69.4339 16.98 69.4339 14.64C69.4339 11.26 71.6739 8.2 74.6339 8.2C75.5539 8.2 76.4339 8.62 76.9339 8.62C77.5739 8.62 77.9739 8.2 78.3939 8.2C78.7739 8.2 78.8539 8.48 78.8139 9.02L78.3939 16.08C78.3739 16.5 78.3939 16.82 78.7539 16.82C79.0939 16.82 79.3539 16.26 79.6139 16.26ZM73.5139 16.82C75.1539 16.82 76.6739 14.8 76.8339 12.22L76.8739 11.64C76.9939 9.98 75.8539 9.08 74.5939 9.08C72.4539 9.08 71.3539 11.9 71.3339 13.9C71.3339 16.22 72.5539 16.82 73.5139 16.82ZM95.6295 16.26C95.7495 16.26 95.8495 16.36 95.8295 16.54C95.7295 17.28 94.9295 18.14 93.9095 18.14C93.0695 18.14 92.3895 17.82 92.5695 15.78C91.7695 17.08 90.3895 18.2 88.7095 18.2C86.9495 18.2 85.4495 16.98 85.4495 14.64C85.4495 11.26 87.6895 8.2 90.6495 8.2C91.5695 8.2 92.4495 8.62 92.9495 8.62C93.5895 8.62 93.9895 8.2 94.4095 8.2C94.7895 8.2 94.8695 8.48 94.8295 9.02L94.4095 16.08C94.3895 16.5 94.4095 16.82 94.7695 16.82C95.1095 16.82 95.3695 16.26 95.6295 16.26ZM89.5295 16.82C91.1695 16.82 92.6895 14.8 92.8495 12.22L92.8895 11.64C93.0095 9.98 91.8695 9.08 90.6095 9.08C88.4695 9.08 87.3695 11.9 87.3495 13.9C87.3495 16.22 88.5695 16.82 89.5295 16.82Z" fill="#1A1A1A"/>
</svg>
